<svg xmlns="http://www.w3.org/2000/svg" xmlns:xlink="http://www.w3.org/1999/xlink" xmlns:lucid="lucid" width="1329.09" height="827.2"><g transform="translate(-124.14361453077206 -8016.860796521622)" lucid:page-tab-id="YDyKk7ZmHaDl"><path d="M267.04 8358.33a6 6 0 0 1 6-6h83.3a6 6 0 0 1 6 6v104.1a6 6 0 0 1-6 6h-83.3a6 6 0 0 1-6-6z" stroke="#3a414a" fill="#cfe4ff"/><use xlink:href="#a" transform="matrix(1,0,0,1,272.0407202527929,8357.33506525785) translate(0.5000000000000426 57.90277777777776)"/><path d="M459.74 8201.53h-49.87l-.88.07-.85.2-.8.34-.74.45-.65.55-.56.66-.47.75-.33.8-.2.84-.07.88v166.38l-.08 1-.24.98-.38.94-.53.87-.67.77-.77.66-.87.53-.94.4-1 .24-1 .08h-34.5v-.95h34.47l.9-.07.83-.2.8-.34.74-.45.66-.55.56-.66.45-.75.34-.8.2-.84.08-.88v-166.38l.08-1 .23-1 .38-.92.53-.87.67-.77.78-.66.86-.53.95-.4 1-.24.98-.08h49.9zm147.16 0H510v-.95h96.9z" stroke="#3a414a" stroke-width=".05" fill="#3a414a"/><path d="M363.36 8379.92h-.5v-.95h.5z" fill="#3a414a"/><path stroke="#3a414a" stroke-width=".05" fill="#3a414a"/><path d="M620.4 8201.06l-13 7.5v-15z" fill="#3a414a"/><path d="M621.34 8201.06l-14.42 8.32v-16.65zm-13.47 6.67l11.57-6.67-11.57-6.68z" stroke="#3a414a" stroke-width=".05" fill="#3a414a"/><use xlink:href="#b" transform="matrix(1,0,0,1,459.7399633234242,8193.056749813926) translate(0 10.666666666666663)"/><path d="M276.88 8534.7h-.95v-15.37h.95zm14.32-34.03h-.95v-31.25h.95z" stroke="#3a414a" stroke-width=".05" fill="#3a414a"/><path d="M291.2 8469.44h-.95v-.52h.95z" fill="#3a414a"/><path stroke="#3a414a" stroke-width=".05" fill="#3a414a"/><path d="M276.4 8549.45l-4.63-14.26h9.27z" fill="#3a414a"/><path d="M276.4 8551l-5.28-16.3h10.58zm-3.97-15.34l3.98 12.26 4-12.26z" stroke="#3a414a" stroke-width=".05" fill="#3a414a"/><use xlink:href="#c" transform="matrix(1,0,0,1,249.0629242688276,8500.665620830116) translate(0 12.44444444444444)"/><use xlink:href="#d" transform="matrix(1,0,0,1,249.0629242688276,8500.665620830116) translate(55.2222222222222 12.44444444444444)"/><path d="M238.2 8557.57a6 6 0 0 1 6-6h122a6 6 0 0 1 6 6v58.53a6 6 0 0 1-6 6h-122a6 6 0 0 1-6-6z" stroke="#3a414a" fill="#9391ff"/><use xlink:href="#e" transform="matrix(1,0,0,1,243.19880773726032,8556.57272506905) translate(13.296296296296347 34.93402777777776)"/><use xlink:href="#f" transform="matrix(1,0,0,1,243.19880773726032,8556.57272506905) translate(58.91358024691358 34.93402777777776)"/><path d="M342.6 8508.02l-.04.37-.1.37-.14.36-.2.33-.25.3-.3.24-.33.2-.36.15-.37.1-.34.02-.28.02-.23.05-.22.1-.2.1-.18.17-.16.18-.13.2-.1.23-.05.23-.02.25v22.7h-.95v-22.72l.03-.37.1-.37.14-.36.2-.33.25-.3.3-.24.33-.2.36-.16.37-.1.35-.02.28-.02.23-.05.2-.1.2-.12.2-.15.15-.18.12-.2.1-.23.05-.23.02-.25v-8.06h.95zm0-26.74h-.96v-11.86h.95z" stroke="#3a414a" stroke-width=".05" fill="#3a414a"/><path d="M342.6 8469.44h-.96v-.52h.95z" fill="#3a414a"/><path stroke="#3a414a" stroke-width=".05" fill="#3a414a"/><path d="M338.13 8549.45l-4.64-14.26h9.26z" fill="#3a414a"/><path d="M338.13 8551l-5.3-16.3h10.6zm-4-15.34l4 12.26 3.98-12.26z" stroke="#3a414a" stroke-width=".05" fill="#3a414a"/><use xlink:href="#g" transform="matrix(1,0,0,1,303.29206421814644,8481.27610681144) translate(0 12.44444444444444)"/><path d="M617.17 8385.2a6 6 0 0 1 6-6h172.18a6 6 0 0 1 6 6v93.3a6 6 0 0 1-6 6H623.17a6 6 0 0 1-6-6z" stroke="#3a414a" fill="#ffe342"/><use xlink:href="#h" transform="matrix(1,0,0,1,622.1668679104483,8384.209360446439) translate(3.0555555555556424 25.65277777777776)"/><use xlink:href="#i" transform="matrix(1,0,0,1,622.1668679104483,8384.209360446439) translate(91.82098765432099 25.65277777777776)"/><use xlink:href="#j" transform="matrix(1,0,0,1,622.1668679104483,8384.209360446439) translate(35.1234567901235 52.3194444444444)"/><use xlink:href="#k" transform="matrix(1,0,0,1,622.1668679104483,8384.209360446439) translate(42.160493827160536 78.98611111111104)"/><path d="M457.37 8405.77h-94.02v-.95h94.02zm142.9-.03l-78.13.02v-.95h78.14z" stroke="#3a414a" stroke-width=".05" fill="#3a414a"/><path d="M363.36 8405.77h-.5v-.95h.5z" fill="#3a414a"/><path stroke="#3a414a" stroke-width=".05" fill="#3a414a"/><path d="M615.05 8405.26l-14.27 4.64v-9.27z" fill="#3a414a"/><path d="M616.6 8405.26l-16.3 5.3v-10.6zm-15.34 3.98l12.25-3.98-12.24-3.98z" stroke="#3a414a" stroke-width=".05" fill="#3a414a"/><use xlink:href="#l" transform="matrix(1,0,0,1,457.3707916124848,8395.943854413339) translate(0 12.44444444444444)"/><path d="M458.28 8432.44h-94.93v-.95h94.93zm142-.1h-79.04v-.95l79.04-.02z" stroke="#3a414a" stroke-width=".05" fill="#3a414a"/><path d="M363.36 8432.44h-.5v-.95h.5z" fill="#3a414a"/><path stroke="#3a414a" stroke-width=".05" fill="#3a414a"/><path d="M615.05 8431.85l-14.27 4.64v-9.28z" fill="#3a414a"/><path d="M616.6 8431.85l-16.3 5.3v-10.6zm-15.34 3.98l12.25-3.98-12.24-3.98z" stroke="#3a414a" stroke-width=".05" fill="#3a414a"/><use xlink:href="#m" transform="matrix(1,0,0,1,458.2781990198922,8422.574651747553) translate(0 12.44444444444444)"/><path d="M464.72 8454.53H363.35v-.95h101.37zm135.56-.18l-85.48.06v-.94l85.48-.06z" stroke="#3a414a" stroke-width=".05" fill="#3a414a"/><path d="M363.36 8454.53h-.5v-.95h.5z" fill="#3a414a"/><path stroke="#3a414a" stroke-width=".05" fill="#3a414a"/><path d="M615.05 8453.88l-14.27 4.63v-9.26z" fill="#3a414a"/><path d="M616.6 8453.88l-16.3 5.3v-10.6zm-15.34 3.98l12.25-3.98-12.24-3.98z" stroke="#3a414a" stroke-width=".05" fill="#3a414a"/><use xlink:href="#n" transform="matrix(1,0,0,1,464.7164706248305,8444.633758301725) translate(0 12.44444444444444)"/><path d="M635.95 8328.76v49.45H635v-53.64h.95zm0-33.57v10.7H635v-10.7z" stroke="#3a414a" stroke-width=".05" fill="#3a414a"/><path d="M635.95 8378.7H635v-.5h.95z" fill="#3a414a"/><path stroke="#3a414a" stroke-width=".05" fill="#3a414a"/><path d="M640.1 8294.7h-9.26l4.63-14.27z" fill="#3a414a"/><path d="M640.76 8295.17h-10.58l5.3-16.28zm-9.27-.95h7.95l-3.98-12.25z" stroke="#3a414a" stroke-width=".05" fill="#3a414a"/><use xlink:href="#o" transform="matrix(1,0,0,1,604.403651605215,8305.899643077259) translate(0 12.44444444444444)"/><path d="M716.4 8378.2h-.96v-5.46h.95zm0-10.94h-.96v-3.85h.95zm.4-41.2h-.95v-3.38h.95zm0-9.25h-.95v-11.75h.95zm0-17.62h-.95v-5.88h.95z" stroke="#e81313" stroke-width=".05" fill="#e81313"/><path d="M716.4 8378.7h-.96v-.5h.95z" fill="#e81313"/><path stroke="#e81313" stroke-width=".05" fill="#e81313"/><path d="M723.82 8292.8h-15l7.5-13z" fill="#e81313"/><path d="M724.64 8293.28H708l8.32-14.42zm-15-.95H723l-6.68-11.57z" stroke="#e81313" stroke-width=".05" fill="#e81313"/><use xlink:href="#p" transform="matrix(1,0,0,1,659.4212364559409,8326.071738272032) translate(31.504999999999995 12.44444444444444)"/><use xlink:href="#q" transform="matrix(1,0,0,1,659.4212364559409,8326.071738272032) translate(0.005000000000002558 31.111111111111097)"/><use xlink:href="#r" transform="matrix(1,0,0,1,659.4212364559409,8326.071738272032) translate(98.39388888888885 31.111111111111097)"/><path d="M315.17 8335.45h-.95v-96.86h.95zm0-134.2h-.95v-65.16h.95z" stroke="#3a414a" stroke-width=".05" fill="#3a414a"/><path d="M314.7 8350.22l-4.64-14.27h9.27z" fill="#3a414a"/><path d="M314.7 8351.75l-5.3-16.27h10.58zm-4-15.32l4 12.25 3.98-12.25z" stroke="#3a414a" stroke-width=".05" fill="#3a414a"/><path d="M319.33 8135.6h-9.27l4.63-14.28z" fill="#3a414a"/><path d="M319.98 8136.06H309.4l5.3-16.28zm-9.27-.95h7.98l-4-12.24z" stroke="#3a414a" stroke-width=".05" fill="#3a414a"/><use xlink:href="#c" transform="matrix(1,0,0,1,275.8694461283825,8201.261374168529) translate(0.005000000000002558 12.44444444444444)"/><use xlink:href="#s" transform="matrix(1,0,0,1,275.8694461283825,8201.261374168529) translate(55.2272222222222 12.44444444444444)"/><use xlink:href="#t" transform="matrix(1,0,0,1,275.8694461283825,8201.261374168529) translate(73.33216049382713 12.44444444444444)"/><use xlink:href="#u" transform="matrix(1,0,0,1,275.8694461283825,8201.261374168529) translate(10.375370370370376 31.111111111111097)"/><path d="M267.04 8034.1a6 6 0 0 1 6-6h83.3a6 6 0 0 1 6 6v79.1a6 6 0 0 1-6 6h-83.3a6 6 0 0 1-6-6z" stroke="#3a414a" fill="#ff8f8f"/><use xlink:href="#v" transform="matrix(1,0,0,1,272.0407202527929,8033.111907363121) translate(16.48765432098768 45.32465277777776)"/><path d="M175.07 8580.82l.07.88.2.84.33.8.45.74.56.66.66.56.74.46.8.33.85.2.88.06h40.72v.95h-40.75l-1-.07-.98-.23-.95-.4-.87-.52-.77-.66-.65-.78-.53-.86-.4-.94-.23-1-.08-1V8263.7h.95zm90.97-506.7H180.6l-.87.08-.85.2-.8.34-.74.45-.66.55-.56.66-.45.75-.33.8-.2.84-.07.88v165.35h-.95v-165.4l.07-1 .23-.97.4-.94.52-.87.66-.77.78-.66.87-.53.94-.4.98-.24 1-.08h85.46z" stroke="#3a414a" stroke-width=".05" fill="#3a414a"/><path d="M266.54 8074.13h-.5v-.95h.5z" fill="#3a414a"/><path stroke="#3a414a" stroke-width=".05" fill="#3a414a"/><path d="M236.08 8586.83l-14.27 4.64v-9.27z" fill="#3a414a"/><path d="M237.62 8586.83l-16.28 5.3v-10.58zm-15.33 4l12.24-4-12.25-3.98z" stroke="#3a414a" stroke-width=".05" fill="#3a414a"/><use xlink:href="#w" transform="matrix(1,0,0,1,124.14361453077206,8245.026358060752) translate(0 12.44444444444444)"/><use xlink:href="#x" transform="matrix(1,0,0,1,124.14361453077206,8245.026358060752) translate(82.7901234567901 12.44444444444444)"/><path d="M709.73 8526.05h-.95v-3h.95zm0-21.67h-.95v-18.88h.95z" stroke="#3a414a" stroke-width=".05" fill="#3a414a"/><path d="M709.73 8485.5h-.95v-.5h.95z" fill="#3a414a"/><path stroke="#3a414a" stroke-width=".05" fill="#3a414a"/><path d="M709.26 8540.82l-4.64-14.27h9.27z" fill="#3a414a"/><path d="M709.26 8542.36l-5.3-16.28h10.6zm-4-15.33l4 12.25 3.98-12.25z" stroke="#3a414a" stroke-width=".05" fill="#3a414a"/><use xlink:href="#y" transform="matrix(1,0,0,1,677.7782197822742,8504.382938009001) translate(0 12.44444444444444)"/><path d="M629.17 8548.94a6 6 0 0 1 6-6h148.18a6 6 0 0 1 6 6v57.28a6 6 0 0 1-6 6H635.17a6 6 0 0 1-6-6z" stroke="#000" fill="#e6e6fa"/><use xlink:href="#z" transform="matrix(1,0,0,1,634.1668679104482,8547.937436238233) translate(23.888888888889014 33.81249999999996)"/><path d="M672.56 8613.22v33.5a6 6 0 0 0 6 6h75.35a6 6 0 0 0 6-6v-17.6" stroke="#3a414a" fill="none"/><path d="M673.03 8613.24h-.94v-.52h.93z" stroke="#3a414a" stroke-width=".05" fill="#3a414a"/><path d="M759.9 8614.34l4.64 14.27h-9.27z" stroke="#3a414a" fill="#3a414a"/><use xlink:href="#A" transform="matrix(1,0,0,1,680.4771481546366,8656.723182238233) translate(0 12.44444444444444)"/><use xlink:href="#B" transform="matrix(1,0,0,1,680.4771481546366,8656.723182238233) translate(37.03086419753085 12.44444444444444)"/><path d="M226.1 8441.08l.06.88.2.84.34.8.45.74.56.66.67.56.74.46.8.33.85.2.9.07h34.4v.95H231.6l-1-.08-.98-.25-.94-.4-.87-.52-.76-.66-.66-.77-.53-.87-.4-.94-.23-1-.08-1v-18.72h.95zm24.06-61.6h-18.52l-.88.07-.85.2-.8.34-.73.44-.66.56-.55.66-.45.74-.33.8-.2.85-.08.88v18.7h-.96v-18.74l.08-1 .24-1 .4-.93.52-.87.66-.77.77-.66.88-.53.94-.4 1-.23.98-.07h18.56z" stroke="#3a414a" stroke-width=".05" fill="#3a414a"/><path d="M266.54 8447.57h-.5v-.95h.5z" fill="#3a414a"/><path stroke="#3a414a" stroke-width=".05" fill="#3a414a"/><path d="M264.92 8379l-14.26 4.64v-9.27z" fill="#3a414a"/><path d="M266.46 8379l-16.28 5.3v-10.58zm-15.33 4l12.26-4-12.27-3.97z" stroke="#3a414a" stroke-width=".05" fill="#3a414a"/><use xlink:href="#g" transform="matrix(1,0,0,1,186.79518485565467,8403.71823086345) translate(0 12.44444444444444)"/><path d="M238.2 8715.56a6 6 0 0 1 6-6h122a6 6 0 0 1 6 6v62a6 6 0 0 1-6 6h-122a6 6 0 0 1-6-6z" stroke="#3a414a" fill="#00bfff"/><use xlink:href="#e" transform="matrix(1,0,0,1,243.19880773726032,8714.559864096544) translate(13.296296296296347 23.27777777777776)"/><use xlink:href="#C" transform="matrix(1,0,0,1,243.19880773726032,8714.559864096544) translate(58.91358024691358 23.27777777777776)"/><use xlink:href="#D" transform="matrix(1,0,0,1,243.19880773726032,8714.559864096544) translate(12.74074074074079 49.9444444444444)"/><use xlink:href="#E" transform="matrix(1,0,0,1,243.19880773726032,8714.559864096544) translate(65.58024691358025 49.9444444444444)"/><path d="M305.67 8692.68h-.95v-26.1h.95zm0-44.75h-.95v-24.83h.95z" stroke="#3a414a" stroke-width=".05" fill="#3a414a"/><path d="M305.67 8623.1h-.95v-.5h.95z" fill="#3a414a"/><path stroke="#3a414a" stroke-width=".05" fill="#3a414a"/><path d="M305.2 8707.44l-4.64-14.26h9.27z" fill="#3a414a"/><path d="M305.2 8708.98l-5.3-16.28h10.58zm-4-15.33l4 12.26 3.98-12.25z" stroke="#3a414a" stroke-width=".05" fill="#3a414a"/><use xlink:href="#w" transform="matrix(1,0,0,1,254.745989338259,8647.927864803272) translate(0 12.44444444444444)"/><use xlink:href="#x" transform="matrix(1,0,0,1,254.745989338259,8647.927864803272) translate(82.7901234567901 12.44444444444444)"/><path d="M257.34 8784.56v33.5a6 6 0 0 0 6 6h75.8a6 6 0 0 0 6-6v-19.5" stroke="#3a414a" fill="none"/><path d="M257.82 8784.57h-.95v-.5h.95z" stroke="#3a414a" stroke-width=".05" fill="#3a414a"/><path d="M345.13 8785.06l7.5 13h-15z" stroke="#3a414a" fill="#3a414a"/><use xlink:href="#F" transform="matrix(1,0,0,1,250.60818694568286,8828.059864096544) translate(0 10.666666666666663)"/><use xlink:href="#G" transform="matrix(1,0,0,1,250.60818694568286,8828.059864096544) translate(85.7407407407407 10.666666666666663)"/><path d="M621.9 8023.36a6 6 0 0 1 6-6h176.86a6 6 0 0 1 6 6v87.54a6 6 0 0 1-6 6H627.9a6 6 0 0 1-6-6z" stroke="#3a414a" fill="#6db1ff"/><use xlink:href="#H" transform="matrix(1,0,0,1,626.8863885011417,8022.360796521622) translate(43.472222222222264 25.140624999999986)"/><use xlink:href="#I" transform="matrix(1,0,0,1,626.8863885011417,8022.360796521622) translate(32.38888888888894 49.140624999999964)"/><use xlink:href="#J" transform="matrix(1,0,0,1,626.8863885011417,8022.360796521622) translate(19.694444444444514 73.14062499999994)"/><use xlink:href="#K" transform="matrix(1,0,0,1,626.8863885011417,8022.360796521622) translate(102.91666666666666 73.14062499999994)"/><path d="M441.67 8067.6h-78.32v-.95h78.32zm163.33 0h-62.44v-.95H605z" stroke="#3a414a" stroke-width=".05" fill="#3a414a"/><path d="M363.36 8067.6h-.5v-.95h.5z" fill="#3a414a"/><path stroke="#3a414a" stroke-width=".05" fill="#3a414a"/><path d="M619.77 8067.13l-14.27 4.63v-9.27z" fill="#3a414a"/><path d="M621.3 8067.13l-16.27 5.3v-10.6zm-15.32 3.98l12.25-3.97-12.25-3.98z" stroke="#3a414a" stroke-width=".05" fill="#3a414a"/><use xlink:href="#w" transform="matrix(1,0,0,1,441.6688235127698,8057.794739202943) translate(0 12.44444444444444)"/><use xlink:href="#x" transform="matrix(1,0,0,1,441.6688235127698,8057.794739202943) translate(82.7901234567901 12.44444444444444)"/><path d="M716.8 8161.9h-.95v-4.73h.95zm0-23.4h-.95v-20.6h.95z" stroke="#3a414a" stroke-width=".05" fill="#3a414a"/><path d="M716.8 8117.9h-.95v-.5h.95z" fill="#3a414a"/><path stroke="#3a414a" stroke-width=".05" fill="#3a414a"/><path d="M716.32 8176.66l-4.63-14.27h9.26z" fill="#3a414a"/><path d="M716.32 8178.2l-5.3-16.28h10.6zm-3.98-15.33l3.98 12.25 3.98-12.25z" stroke="#3a414a" stroke-width=".05" fill="#3a414a"/><use xlink:href="#L" transform="matrix(1,0,0,1,641.2221189283824,8138.502319271941) translate(0 12.44444444444444)"/><use xlink:href="#M" transform="matrix(1,0,0,1,641.2221189283824,8138.502319271941) translate(70.77777777777776 12.44444444444444)"/><use xlink:href="#N" transform="matrix(1,0,0,1,641.2221189283824,8138.502319271941) translate(113.4691358024691 12.44444444444444)"/><path d="M784.03 8328.76v49.45h-.95v-53.64h.95zm0-22.86h-.96v-10.7h.95z" stroke="#3a414a" stroke-width=".05" fill="#3a414a"/><path d="M784.03 8378.7h-.95v-.5h.95z" fill="#3a414a"/><path stroke="#3a414a" stroke-width=".05" fill="#3a414a"/><path d="M788.18 8294.7h-9.27l4.64-14.27z" fill="#3a414a"/><path d="M788.83 8295.17h-10.57l5.28-16.28zm-9.27-.95h7.97l-4-12.25z" stroke="#3a414a" stroke-width=".05" fill="#3a414a"/><use xlink:href="#c" transform="matrix(1,0,0,1,749.0417750305567,8305.90133428781) translate(0 12.44444444444444)"/><use xlink:href="#d" transform="matrix(1,0,0,1,749.0417750305567,8305.90133428781) translate(55.2222222222222 12.44444444444444)"/><path d="M420.5 8740.58l-.08 1-.23.98-.4.94-.53.87-.66.77-.77.66-.86.53-.94.4-1 .23-.98.08H373.2v-.96H414l.9-.07.83-.2.8-.32.74-.45.66-.56.56-.66.45-.73.33-.8.2-.85.07-.88v-44.78h.95zm0-63.5h-.95V8521h.95zM605 8229.03H426.05l-.9.07-.83.2-.8.32-.74.45-.66.57-.56.66-.45.74-.33.8-.2.84-.07.88v267.75h-.95v-267.77l.08-1 .24-1 .4-.93.52-.86.65-.78.77-.66.87-.53.92-.4 1-.22 1-.08H605z" stroke="#3a414a" stroke-width=".05" fill="#3a414a"/><path d="M373.2 8747.03h-.5v-.95h.5z" fill="#3a414a"/><path stroke="#3a414a" stroke-width=".05" fill="#3a414a"/><path d="M619.77 8228.54l-14.27 4.64v-9.27z" fill="#3a414a"/><path d="M621.3 8228.54l-16.27 5.3v-10.6zm-15.32 3.98l12.25-3.98-12.25-3.98z" stroke="#3a414a" stroke-width=".05" fill="#3a414a"/><use xlink:href="#O" transform="matrix(1,0,0,1,360.937313798335,8677.094241463206) translate(0 12.44444444444444)"/><use xlink:href="#x" transform="matrix(1,0,0,1,360.937313798335,8677.094241463206) translate(100.07407407407403 12.44444444444444)"/><path d="M575 8531.6l-.07 1-.24 1-.4.93-.53.87-.66.77-.76.66-.87.53-.94.4-1 .23-.98.07H548.7v-.95h19.8l.9-.07.84-.2.8-.33.74-.46.65-.56.57-.66.45-.74.33-.8.2-.84.07-.88v-13.76h.95zm41.23-51.75h-35.68l-.88.07-.85.2-.8.33-.74.45-.66.57-.56.66-.45.74-.32.8-.2.84-.08.9v13.75h-.95v-13.8l.08-1 .24-.98.4-.94.52-.86.65-.78.77-.67.87-.53.93-.4 1-.22.98-.08h35.73z" stroke="#3a414a" stroke-width=".05" fill="#3a414a"/><path d="M616.75 8479.5l.08.35h-.6v-.95h.47z" fill="#3a414a"/><path stroke="#3a414a" stroke-width=".05" fill="#3a414a"/><path d="M548.2 8542.23l-14.26-4.64 14.27-4.64z" fill="#3a414a"/><path d="M548.68 8542.88l-16.27-5.3 16.28-5.27zm-13.2-5.3l12.25 4v-7.97z" stroke="#3a414a" stroke-width=".05" fill="#3a414a"/><use xlink:href="#P" transform="matrix(1,0,0,1,534.8841567862378,8499.149913961368) translate(0 12.44444444444444)"/><path d="M440.7 8509.35a6 6 0 0 1 6-6h79.12a6 6 0 0 1 6 6v56.5a6 6 0 0 1-6 6h-79.14a6 6 0 0 1-6-6z" stroke="#3a414a" fill="#fff"/><use xlink:href="#Q" transform="matrix(1,0,0,1,445.6851027726349,8508.34726556989) translate(19.456790123456813 33.91059027777776)"/><path d="M987.86 8391.18l-.08 1-.24 1-.38.92-.54.87-.66.77-.77.66-.88.53-.93.4-1 .23-1 .08-74.87-.06v-.95l74.84.06.88-.08.84-.2.8-.33.73-.47.66-.56.55-.66.46-.73.34-.8.2-.84.07-.88V8213.8h.96zm-185.5 6.4v-.97h45.53v.97z" stroke="#3a414a" stroke-width=".05" fill="#3a414a"/><path d="M802.36 8397.57h-.5v-.95h.5z" fill="#3a414a"/><path stroke="#3a414a" stroke-width=".05" fill="#3a414a"/><path d="M992.02 8213.3h-9.27l4.63-14.27z" fill="#3a414a"/><path d="M992.67 8213.77H982.1l5.28-16.28zm-9.27-.95h7.97l-4-12.25z" stroke="#3a414a" stroke-width=".05" fill="#3a414a"/><use xlink:href="#R" transform="matrix(1,0,0,1,847.8943186110331,8387.756628898574) translate(0 12.44444444444444)"/><path d="M912.76 8118.75a6 6 0 0 1 6-6H1056a6 6 0 0 1 6 6v72.16a6 6 0 0 1-6 6H918.77a6 6 0 0 1-6-6z" stroke="#3a414a" fill="#fff"/><use xlink:href="#S" transform="matrix(1,0,0,1,917.7613165947699,8117.748816719431) translate(6.512345679012405 41.80121527777776)"/><path d="M909.77 8509.35a6 6 0 0 1 6-6h116.5a6 6 0 0 1 6 6v71.83a6 6 0 0 1-6 6h-116.5a6 6 0 0 1-6-6z" stroke="#3a414a" fill="red"/><use xlink:href="#T" transform="matrix(1,0,0,1,914.7729346549125,8508.347265569888) translate(1.305555555555614 40.859374999999986)"/><use xlink:href="#U" transform="matrix(1,0,0,1,914.7729346549125,8508.347265569888) translate(67.74999999999999 40.859374999999986)"/><path d="M856.03 8518.73l.07.88.2.86.34.8.45.74.55.66.66.56.75.45.8.33.85.2.88.07h31.3v.95h-31.34l-1-.07-.98-.24-.94-.38-.87-.53-.77-.67-.66-.77-.53-.87-.4-.95-.24-1-.07-.98v-20.42h.93zm-5.46-65.84l1 .22.93.4.87.52.77.66.66.78.53.86.4.94.23 1 .07.98v20.42h-.94v-20.38l-.1-.88-.2-.84-.32-.8-.45-.74-.56-.66-.66-.56-.73-.46-.8-.33-.85-.2-.88-.07h-47.2v-.95h47.24z" stroke="#3a414a" stroke-width=".05" fill="#3a414a"/><path d="M802.36 8453.76h-.5v-.95h.5z" fill="#3a414a"/><path stroke="#3a414a" stroke-width=".05" fill="#3a414a"/><path d="M907.65 8524.75l-14.26 4.64v-9.28z" fill="#3a414a"/><path d="M909.2 8524.75l-16.3 5.3v-10.6zm-15.34 3.98l12.26-3.98-12.26-3.98z" stroke="#3a414a" stroke-width=".05" fill="#3a414a"/><use xlink:href="#P" transform="matrix(1,0,0,1,815.9145865542854,8479.683571499425) translate(0 12.44444444444444)"/><path d="M809.9 8567.53h-19.55v-.95h19.56zm83 0h-3.7v-.95h3.7z" stroke="#3a414a" stroke-width=".05" fill="#3a414a"/><path d="M790.36 8567.53h-.5v-.95h.5z" fill="#3a414a"/><path stroke="#3a414a" stroke-width=".05" fill="#3a414a"/><path d="M907.65 8567.06l-14.26 4.63v-9.28z" fill="#3a414a"/><path d="M909.2 8567.06l-16.3 5.3v-10.6zm-15.34 3.98l12.26-3.98-12.26-3.98z" stroke="#3a414a" stroke-width=".05" fill="#3a414a"/><use xlink:href="#P" transform="matrix(1,0,0,1,809.9145865542854,8557.72448828123) translate(0 12.44444444444444)"/><path d="M1143.93 8509.35a6 6 0 0 1 6-6h114.47a6 6 0 0 1 6 6v68a6 6 0 0 1-6 6h-114.47a6 6 0 0 1-6-6z" stroke="#3a414a" fill="#ff8c00"/><use xlink:href="#V" transform="matrix(1,0,0,1,1148.9270426096548,8508.347265569888) translate(28.055555555555586 26.937499999999986)"/><use xlink:href="#W" transform="matrix(1,0,0,1,1148.9270426096548,8508.347265569888) translate(29.63888888888892 50.93749999999996)"/><path d="M1039.27 8548.23v-.95h13.87v.95z" stroke="#3a414a" stroke-width=".05" fill="#3a414a"/><path d="M1039.28 8548.23h-.5v-.95h.5z" fill="#3a414a"/><path stroke="#3a414a" stroke-width=".05" fill="#3a414a"/><path d="M1141.8 8547.76l-12.74 4.15v-8.28z" fill="#3a414a"/><path d="M1143.35 8547.76l-14.3 4.65v-1l11.22-3.64-11.2-3.64v-1z" stroke="#3a414a" stroke-width=".05" fill="#3a414a"/><use xlink:href="#X" transform="matrix(1,0,0,1,1053.1381010890739,8538.428985080787) translate(0 12.44444444444444)"/><use xlink:href="#x" transform="matrix(1,0,0,1,1053.1381010890739,8538.428985080787) translate(57.814814814814795 12.44444444444444)"/><path d="M1021.6 8354.18a6 6 0 0 1 6-6h106.76a6 6 0 0 1 6 6v68.24a6 6 0 0 1-6 6H1027.6a6 6 0 0 1-6-6z" stroke="#3a414a" fill="khaki"/><use xlink:href="#Y" transform="matrix(1,0,0,1,1026.586785160228,8353.179749799334) translate(7.092592592592631 39.96527777777776)"/><path d="M957.37 8502.35v-30.47a6 6 0 0 1 6-6h75.18a6 6 0 0 0 6-6v-14.58" stroke="#3a414a" fill="none"/><path d="M957.85 8502.85h-.96v-.52h.95z" stroke="#3a414a" stroke-width=".05" fill="#3a414a"/><path d="M1044.55 8430.54l4.63 14.26h-9.27z" stroke="#3a414a" fill="#3a414a"/><use xlink:href="#Z" transform="matrix(1,0,0,1,965.3698920402516,8473.918263840691) translate(0 12.44444444444444)"/><use xlink:href="#x" transform="matrix(1,0,0,1,965.3698920402516,8473.918263840691) translate(73.28395061728394 12.44444444444444)"/><path d="M1207.16 8502.35v-30.47a6 6 0 0 0-6-6h-89.3a6 6 0 0 1-6-6v-14.58" stroke="#3a414a" fill="none"/><path d="M1207.64 8502.85h-.95v-.52h.94z" stroke="#3a414a" stroke-width=".05" fill="#3a414a"/><path d="M1105.85 8430.54l4.63 14.26h-9.27z" stroke="#3a414a" fill="#3a414a"/><use xlink:href="#Z" transform="matrix(1,0,0,1,1107.7764919545798,8475.307609581985) translate(0 12.44444444444444)"/><use xlink:href="#x" transform="matrix(1,0,0,1,1107.7764919545798,8475.307609581985) translate(73.28395061728394 12.44444444444444)"/><path d="M1110.1 8347.18h-.94v-119.9h.94zm-5.46-260.06l1 .23.93.4.87.52.77.66.67.78.53.87.4.94.23 1 .08 1v115.1h-.94v-115.07l-.08-.88-.2-.84-.33-.8-.45-.73-.56-.66-.66-.56-.74-.45-.8-.34-.85-.2-.9-.07H827.65v-.96h276z" stroke="#3a414a" stroke-width=".05" fill="#3a414a"/><path d="M1110.1 8347.68h-.94v-.5h.94z" fill="#3a414a"/><path stroke="#3a414a" stroke-width=".05" fill="#3a414a"/><path d="M827.14 8092.15l-14.27-4.64 14.27-4.62z" fill="#3a414a"/><path d="M827.6 8092.8l-16.26-5.3 16.27-5.28zm-13.2-5.3l12.26 4v-7.97z" stroke="#3a414a" stroke-width=".05" fill="#3a414a"/><use xlink:href="#c" transform="matrix(1,0,0,1,1075.126707108721,8208.608108792796) translate(0 12.44444444444444)"/><use xlink:href="#d" transform="matrix(1,0,0,1,1075.126707108721,8208.608108792796) translate(55.2222222222222 12.44444444444444)"/><path d="M1060.48 8347.18h-.95v-30.3h.95zm-5.46-119.03l1 .23.93.4.86.52.8.66.65.78.53.86.38.94.24 1 .08.98v63.7h-.95v-63.66l-.07-.88-.2-.84-.33-.8-.46-.74-.56-.66-.65-.56-.74-.46-.8-.33-.83-.2-.88-.08H827.63v-.95h226.4z" stroke="#3a414a" stroke-width=".05" fill="#3a414a"/><path d="M1060.48 8347.68h-.95v-.5h.95z" fill="#3a414a"/><path stroke="#3a414a" stroke-width=".05" fill="#3a414a"/><path d="M827.14 8233.18l-14.27-4.64 14.27-4.63z" fill="#3a414a"/><path d="M827.6 8233.83l-16.26-5.3 16.27-5.28zm-13.2-5.3l12.26 4v-7.97z" stroke="#3a414a" stroke-width=".05" fill="#3a414a"/><use xlink:href="#c" transform="matrix(1,0,0,1,1025.5028811341244,8298.21594189402) translate(0 12.44444444444444)"/><use xlink:href="#d" transform="matrix(1,0,0,1,1025.5028811341244,8298.21594189402) translate(55.2222222222222 12.44444444444444)"/><path d="M621.9 8184.78a6 6 0 0 1 6-6h176.86a6 6 0 0 1 6 6v87.53a6 6 0 0 1-6 6H627.9a6 6 0 0 1-6-6z" stroke="#3a414a" fill="#54c35e"/><use xlink:href="#H" transform="matrix(1,0,0,1,626.8863885011417,8183.775956688926) translate(43.472222222222264 37.093749999999986)"/><use xlink:href="#aa" transform="matrix(1,0,0,1,626.8863885011417,8183.775956688926) translate(9.7222222222223 61.093749999999964)"/><use xlink:href="#ab" transform="matrix(1,0,0,1,626.8863885011417,8183.775956688926) translate(129.49999999999994 61.093749999999964)"/><path d="M1122 8037.65a6 6 0 0 1 6-6h117.83a6 6 0 0 1 6 6v75.5a6 6 0 0 1-6 6H1128a6 6 0 0 1-6-6z" stroke="#000" stroke-width="2" fill="#cfe4ff"/><use xlink:href="#ac" transform="matrix(1,0,0,1,1127.013540257872,8036.650942375878) translate(11.222222222222271 30.929687499999986)"/><use xlink:href="#ad" transform="matrix(1,0,0,1,1127.013540257872,8036.650942375878) translate(2.888888888888957 54.92968749999996)"/><path d="M1013.2 8067.6H811.75v-.95h201.46zm91.43-.05h-13.78v-.94h13.78z" stroke="#3a414a" stroke-width=".05" fill="#3a414a"/><path d="M811.77 8067.6h-.5v-.95h.5z" fill="#3a414a"/><path stroke="#3a414a" stroke-width=".05" fill="#3a414a"/><path d="M1119.4 8067.08l-14.27 4.63v-9.26z" fill="#3a414a"/><path d="M1120.93 8067.08l-16.28 5.3v-10.6zm-15.33 3.98l12.26-3.98-12.25-3.98z" stroke="#3a414a" stroke-width=".05" fill="#3a414a"/><use xlink:href="#ae" transform="matrix(1,0,0,1,1013.197943123423,8057.744532446808) translate(0 12.44444444444444)"/><use xlink:href="#x" transform="matrix(1,0,0,1,1013.197943123423,8057.744532446808) translate(59.54320987654319 12.44444444444444)"/><path d="M1254.07 8075.88h-.74v-.95h.74z" stroke="#3a414a" stroke-width=".05" fill="#3a414a"/><path d="M1253.34 8075.88h-.5v-.95h.5z" fill="#3a414a"/><path stroke="#3a414a" stroke-width=".05" fill="#3a414a"/><path d="M1319.8 8075.4l-10.5 3.42V8072z" fill="#3a414a"/><path d="M1321.33 8075.4l-12.04 3.92v-1l8.96-2.9-8.97-2.93v-1z" stroke="#3a414a" stroke-width=".05" fill="#3a414a"/><use xlink:href="#af" transform="matrix(1,0,0,1,1254.069538469725,8056.739188751596) translate(0.004999999999999005 12.44444444444444)"/><use xlink:href="#ag" transform="matrix(1,0,0,1,1254.069538469725,8056.739188751596) translate(18.563641975308634 31.111111111111097)"/><path d="M1322.4 8037.65a6 6 0 0 1 6-6h117.83a6 6 0 0 1 6 6v75.5a6 6 0 0 1-6 6H1328.4a6 6 0 0 1-6-6z" stroke="#000" stroke-width="2" fill="#cfe4ff"/><g><use xlink:href="#ac" transform="matrix(1,0,0,1,1327.412425042325,8036.650942375878) translate(11.222222222222271 30.929687499999986)"/><use xlink:href="#ah" transform="matrix(1,0,0,1,1327.412425042325,8036.650942375878) translate(34.44444444444447 54.92968749999996)"/></g><path d="M1167.4 8202.9a6 6 0 0 1 6-6h117.8a6 6 0 0 1 6 6v75.52a6 6 0 0 1-6 6h-117.8a6 6 0 0 1-6-6z" stroke="#000" stroke-width="2" fill="#cfe4ff"/><g><use xlink:href="#ai" transform="matrix(1,0,0,1,1172.3978550142735,8201.913203087655) translate(41.694444444444464 30.929687499999986)"/><use xlink:href="#aj" transform="matrix(1,0,0,1,1172.3978550142735,8201.913203087655) translate(0.6666666666667282 54.92968749999996)"/></g><path d="M1322.4 8202.9a6 6 0 0 1 6-6h117.83a6 6 0 0 1 6 6v75.52a6 6 0 0 1-6 6H1328.4a6 6 0 0 1-6-6z" stroke="#000" stroke-width="2" fill="#cfe4ff"/><g><use xlink:href="#ai" transform="matrix(1,0,0,1,1327.412425042325,8201.913203087655) translate(41.694444444444464 30.929687499999986)"/><use xlink:href="#ak" transform="matrix(1,0,0,1,1327.412425042325,8201.913203087655) translate(13.944444444444493 54.92968749999996)"/></g><path d="M1387.8 8179.53h-.95v-12.16h.95zm0-30.83h-.95v-28.04h.95z" stroke="#3a414a" stroke-width=".05" fill="#3a414a"/><path d="M1387.8 8120.67h-.95v-.5h.95z" fill="#3a414a"/><path stroke="#3a414a" stroke-width=".05" fill="#3a414a"/><path d="M1387.32 8194.3l-4.63-14.27h9.26z" fill="#3a414a"/><path d="M1387.32 8195.83l-5.3-16.28h10.6zm-3.98-15.33l3.98 12.26 3.98-12.26zM1325.47 8158.5h-87.14l-.9.08-.83.2-.8.34-.74.45-.66.56-.56.66-.45.73-.35.8-.2.84-.07.9v15.46h-.95v-15.5l.08-1 .25-1 .4-.93.52-.87.66-.77.77-.66.87-.53.94-.4 1-.23 1-.08h87.17zm62.33-9.8h-.95v-28.04h.95z" stroke="#3a414a" stroke-width=".05" fill="#3a414a"/><path d="M1387.8 8120.67h-.95v-.5h.95z" fill="#3a414a"/><path stroke="#3a414a" stroke-width=".05" fill="#3a414a"/><path d="M1232.3 8194.3l-4.63-14.27h9.27z" fill="#3a414a"/><path d="M1232.3 8195.83l-5.28-16.28h10.58zm-3.97-15.33l3.98 12.26 4-12.26z" stroke="#3a414a" stroke-width=".05" fill="#3a414a"/><g><use xlink:href="#al" transform="matrix(1,0,0,1,1325.4683654551634,8148.703652398434) translate(0 12.44444444444444)"/></g><path d="M404.33 8531.58l.07.88.2.84.33.8.45.74.57.66.66.56.75.46.8.33.84.2.87.07h29.8v.95h-29.84l-1-.08-.98-.25-.94-.4-.85-.52-.78-.66-.66-.77-.52-.87-.4-.94-.22-1-.08-1v-10.63h.95zm-5.46-68.22l1 .24.92.4.86.52.77.66.66.77.52.87.4.94.23 1 .08.98v32.57h-.95v-32.52l-.07-.9-.2-.83-.33-.8-.45-.74-.56-.65-.66-.56-.74-.46-.8-.34-.84-.2-.9-.07H379.1v-.95h18.8z" stroke="#3a414a" stroke-width=".05" fill="#3a414a"/><path d="M440.2 8538.07h-.53v-.95h.5z" fill="#3a414a"/><path stroke="#3a414a" stroke-width=".05" fill="#3a414a"/><path d="M378.58 8468.4l-14.27-4.64 14.28-4.64z" fill="#3a414a"/><path d="M379.05 8469.05l-16.28-5.3 16.28-5.28zm-13.2-5.3l12.25 4v-7.97z" stroke="#3a414a" stroke-width=".05" fill="#3a414a"/><g><use xlink:href="#am" transform="matrix(1,0,0,1,374.51417868350666,8502.306119755123) translate(0 12.44444444444444)"/></g><path d="M429.43 8098.4H391.8l-.9.08-.83.2-.8.33-.74.46-.66.57-.56.66-.45.72-.33.8-.2.85-.07.88v246.73l-.08 1-.24.98-.38.94-.54.87-.65.77-.77.66-.87.53-.92.4-1 .23-1 .07h-.8v-.95h.78l.88-.07.84-.2.8-.32.74-.45.66-.56.56-.66.46-.73.33-.8.2-.85.07-.88V8103.9l.08-.98.24-1 .38-.93.54-.88.65-.77.77-.66.86-.54.94-.4 1-.23 1-.07h37.66zm191.46 0h-113v-.94h113z" stroke="#3a414a" stroke-width=".05" fill="#3a414a"/><path d="M621.4 8098.4h-.53v-.94h.52z" fill="#3a414a"/><path stroke="#3a414a" stroke-width=".05" fill="#3a414a"/><path d="M378.5 8361.3l-14.27-4.64 14.26-4.64z" fill="#3a414a"/><path d="M378.97 8361.95l-16.28-5.3 16.27-5.28zm-13.2-5.3l12.25 4v-7.97z" stroke="#3a414a" stroke-width=".05" fill="#3a414a"/><g><use xlink:href="#an" transform="matrix(1,0,0,1,429.4260788622199,8088.598244900841) translate(0 12.44444444444444)"/></g><path d="M911.76 8154.36v.95h-14.2v-.94zm-55-49.6l1 .23.94.38.87.53.77.67.66.78.53.86.4.95.23 1 .07.98v16.96h-.95v-16.93l-.07-.88-.2-.86-.32-.8-.45-.74-.57-.65-.65-.57-.73-.45-.8-.33-.85-.2-.88-.07h-28.1v-.95h28.14z" stroke="#3a414a" stroke-width=".05" fill="#3a414a"/><path d="M912.26 8155.3h-.5v-.94h.5z" fill="#3a414a"/><path stroke="#3a414a" stroke-width=".05" fill="#3a414a"/><path d="M827.14 8109.8l-14.27-4.65 14.27-4.63z" fill="#3a414a"/><path d="M827.6 8110.44l-16.26-5.3 16.27-5.28zm-13.2-5.3l12.26 4v-7.97z" stroke="#3a414a" stroke-width=".05" fill="#3a414a"/><g><use xlink:href="#ao" transform="matrix(1,0,0,1,825.9589658319064,8128.093124058957) translate(0 12.44444444444444)"/><use xlink:href="#ap" transform="matrix(1,0,0,1,825.9589658319064,8128.093124058957) translate(0 31.111111111111097)"/></g><defs><path fill="#3a414a" d="M30-248c118-7 216 8 213 122C240-48 200 0 122 0H30v-248zM63-27c89 8 146-16 146-99s-60-101-146-95v194" id="aq"/><path fill="#3a414a" d="M100-194c63 0 86 42 84 106H49c0 40 14 67 53 68 26 1 43-12 49-29l28 8c-11 28-37 45-77 45C44 4 14-33 15-96c1-61 26-98 85-98zm52 81c6-60-76-77-97-28-3 7-6 17-6 28h103" id="ar"/><path fill="#3a414a" d="M96-169c-40 0-48 33-48 73s9 75 48 75c24 0 41-14 43-38l32 2c-6 37-31 61-74 61-59 0-76-41-82-99-10-93 101-131 147-64 4 7 5 14 7 22l-32 3c-4-21-16-35-41-35" id="as"/><path fill="#3a414a" d="M24-231v-30h32v30H24zM24 0v-190h32V0H24" id="at"/><path fill="#3a414a" d="M135-143c-3-34-86-38-87 0 15 53 115 12 119 90S17 21 10-45l28-5c4 36 97 45 98 0-10-56-113-15-118-90-4-57 82-63 122-42 12 7 21 19 24 35" id="au"/><path fill="#3a414a" d="M100-194c62-1 85 37 85 99 1 63-27 99-86 99S16-35 15-95c0-66 28-99 85-99zM99-20c44 1 53-31 53-75 0-43-8-75-51-75s-53 32-53 75 10 74 51 75" id="av"/><path fill="#3a414a" d="M117-194c89-4 53 116 60 194h-32v-121c0-31-8-49-39-48C34-167 62-67 57 0H25l-1-190h30c1 10-1 24 2 32 11-22 29-35 61-36" id="aw"/><g id="a"><use transform="matrix(0.061728395061728336,0,0,0.061728395061728336,0,0)" xlink:href="#aq"/><use transform="matrix(0.061728395061728336,0,0,0.061728395061728336,15.98765432098764,0)" xlink:href="#ar"/><use transform="matrix(0.061728395061728336,0,0,0.061728395061728336,28.333333333333307,0)" xlink:href="#as"/><use transform="matrix(0.061728395061728336,0,0,0.061728395061728336,39.44444444444441,0)" xlink:href="#at"/><use transform="matrix(0.061728395061728336,0,0,0.061728395061728336,44.320987654320945,0)" xlink:href="#au"/><use transform="matrix(0.061728395061728336,0,0,0.061728395061728336,55.432098765432045,0)" xlink:href="#at"/><use transform="matrix(0.061728395061728336,0,0,0.061728395061728336,60.30864197530858,0)" xlink:href="#av"/><use transform="matrix(0.061728395061728336,0,0,0.061728395061728336,72.65432098765424,0)" xlink:href="#aw"/></g><path fill="#333" d="M88-194c31-1 46 15 58 34l-1-101h50l1 261h-48c-2-10 0-23-3-31C134-8 116 4 84 4 32 4 16-41 15-95c0-56 19-97 73-99zm17 164c33 0 40-30 41-66 1-37-9-64-41-64s-38 30-39 65c0 43 13 65 39 65" id="ax"/><path fill="#333" d="M185-48c-13 30-37 53-82 52C43 2 14-33 14-96s30-98 90-98c62 0 83 45 84 108H66c0 31 8 55 39 56 18 0 30-7 34-22zm-45-69c5-46-57-63-70-21-2 6-4 13-4 21h74" id="ay"/><path fill="#333" d="M137-138c1-29-70-34-71-4 15 46 118 7 119 86 1 83-164 76-172 9l43-7c4 19 20 25 44 25 33 8 57-30 24-41C81-84 22-81 20-136c-2-80 154-74 161-7" id="az"/><path fill="#333" d="M25-224v-37h50v37H25zM25 0v-190h50V0H25" id="aA"/><path fill="#333" d="M195-6C206 82 75 100 31 46c-4-6-6-13-8-21l49-6c3 16 16 24 34 25 40 0 42-37 40-79-11 22-30 35-61 35-53 0-70-43-70-97 0-56 18-96 73-97 30 0 46 14 59 34l2-30h47zm-90-29c32 0 41-27 41-63 0-35-9-62-40-62-32 0-39 29-40 63 0 36 9 62 39 62" id="aB"/><path fill="#333" d="M135-194c87-1 58 113 63 194h-50c-7-57 23-157-34-157-59 0-34 97-39 157H25l-1-190h47c2 12-1 28 3 38 12-26 28-41 61-42" id="aC"/><g id="b"><use transform="matrix(0.03703703703703702,0,0,0.03703703703703702,0,0)" xlink:href="#ax"/><use transform="matrix(0.03703703703703702,0,0,0.03703703703703702,8.111111111111107,0)" xlink:href="#ay"/><use transform="matrix(0.03703703703703702,0,0,0.03703703703703702,15.518518518518512,0)" xlink:href="#az"/><use transform="matrix(0.03703703703703702,0,0,0.03703703703703702,22.925925925925917,0)" xlink:href="#aA"/><use transform="matrix(0.03703703703703702,0,0,0.03703703703703702,26.62962962962962,0)" xlink:href="#aB"/><use transform="matrix(0.03703703703703702,0,0,0.03703703703703702,34.740740740740726,0)" xlink:href="#aC"/><use transform="matrix(0.03703703703703702,0,0,0.03703703703703702,42.85185185185183,0)" xlink:href="#az"/></g><path fill="#333" d="M135-150c-39-12-60 13-60 57V0H25l-1-190h47c2 13-1 29 3 40 6-28 27-53 61-41v41" id="aD"/><path fill="#333" d="M85 4C-2 5 27-109 22-190h50c7 57-23 150 33 157 60-5 35-97 40-157h50l1 190h-47c-2-12 1-28-3-38-12 25-28 42-61 42" id="aE"/><path fill="#333" d="M25 0v-261h50V0H25" id="aF"/><path fill="#333" d="M115-3C79 11 28 4 28-45v-112H4v-33h27l15-45h31v45h36v33H77v99c-1 23 16 31 38 25v30" id="aG"/><g id="c"><use transform="matrix(0.04320987654320985,0,0,0.04320987654320985,0,0)" xlink:href="#aD"/><use transform="matrix(0.04320987654320985,0,0,0.04320987654320985,6.049382716049379,0)" xlink:href="#ay"/><use transform="matrix(0.04320987654320985,0,0,0.04320987654320985,14.69135802469135,0)" xlink:href="#az"/><use transform="matrix(0.04320987654320985,0,0,0.04320987654320985,23.33333333333332,0)" xlink:href="#aE"/><use transform="matrix(0.04320987654320985,0,0,0.04320987654320985,32.796296296296276,0)" xlink:href="#aF"/><use transform="matrix(0.04320987654320985,0,0,0.04320987654320985,37.117283950617264,0)" xlink:href="#aG"/><use transform="matrix(0.04320987654320985,0,0,0.04320987654320985,42.25925925925924,0)" xlink:href="#az"/></g><g id="d"><use transform="matrix(0.04320987654320985,0,0,0.04320987654320985,0,0)" xlink:href="#aA"/><use transform="matrix(0.04320987654320985,0,0,0.04320987654320985,4.3209876543209855,0)" xlink:href="#aC"/></g><path fill="#3a414a" d="M232-93c-1 65-40 97-104 97C67 4 28-28 28-90v-158h33c8 89-33 224 67 224 102 0 64-133 71-224h33v155" id="aH"/><g id="e"><use transform="matrix(0.061728395061728336,0,0,0.061728395061728336,0,0)" xlink:href="#aH"/><use transform="matrix(0.061728395061728336,0,0,0.061728395061728336,15.98765432098764,0)" xlink:href="#au"/><use transform="matrix(0.061728395061728336,0,0,0.061728395061728336,27.098765432098737,0)" xlink:href="#ar"/></g><path fill="#3a414a" d="M212-179c-10-28-35-45-73-45-59 0-87 40-87 99 0 60 29 101 89 101 43 0 62-24 78-52l27 14C228-24 195 4 139 4 59 4 22-46 18-125c-6-104 99-153 187-111 19 9 31 26 39 46" id="aI"/><path fill="#3a414a" d="M141-36C126-15 110 5 73 4 37 3 15-17 15-53c-1-64 63-63 125-63 3-35-9-54-41-54-24 1-41 7-42 31l-33-3c5-37 33-52 76-52 45 0 72 20 72 64v82c-1 20 7 32 28 27v20c-31 9-61-2-59-35zM48-53c0 20 12 33 32 33 41-3 63-29 60-74-43 2-92-5-92 41" id="aJ"/><g id="f"><use transform="matrix(0.061728395061728336,0,0,0.061728395061728336,0,0)" xlink:href="#aI"/><use transform="matrix(0.061728395061728336,0,0,0.061728395061728336,15.98765432098764,0)" xlink:href="#aJ"/><use transform="matrix(0.061728395061728336,0,0,0.061728395061728336,28.333333333333307,0)" xlink:href="#au"/><use transform="matrix(0.061728395061728336,0,0,0.061728395061728336,39.44444444444441,0)" xlink:href="#ar"/></g><path fill="#333" d="M133-34C117-15 103 5 69 4 32 3 11-16 11-54c-1-60 55-63 116-61 1-26-3-47-28-47-18 1-26 9-28 27l-52-2c7-38 36-58 82-57s74 22 75 68l1 82c-1 14 12 18 25 15v27c-30 8-71 5-69-32zm-48 3c29 0 43-24 42-57-32 0-66-3-65 30 0 17 8 27 23 27" id="aK"/><path fill="#333" d="M135-194c52 0 70 43 70 98 0 56-19 99-73 100-30 1-46-15-58-35L72 0H24l1-261h50v104c11-23 29-37 60-37zM114-30c31 0 40-27 40-66 0-37-7-63-39-63s-41 28-41 65c0 36 8 64 40 64" id="aL"/><path fill="#333" d="M110-194c64 0 96 36 96 99 0 64-35 99-97 99-61 0-95-36-95-99 0-62 34-99 96-99zm-1 164c35 0 45-28 45-65 0-40-10-65-43-65-34 0-45 26-45 65 0 36 10 65 43 65" id="aM"/><g id="g"><use transform="matrix(0.04320987654320985,0,0,0.04320987654320985,0,0)" xlink:href="#ay"/><use transform="matrix(0.04320987654320985,0,0,0.04320987654320985,8.641975308641971,0)" xlink:href="#aF"/><use transform="matrix(0.04320987654320985,0,0,0.04320987654320985,12.962962962962957,0)" xlink:href="#aK"/><use transform="matrix(0.04320987654320985,0,0,0.04320987654320985,21.60493827160493,0)" xlink:href="#aL"/><use transform="matrix(0.04320987654320985,0,0,0.04320987654320985,31.067901234567888,0)" xlink:href="#aM"/><use transform="matrix(0.04320987654320985,0,0,0.04320987654320985,40.530864197530846,0)" xlink:href="#aD"/><use transform="matrix(0.04320987654320985,0,0,0.04320987654320985,46.58024691358022,0)" xlink:href="#aK"/><use transform="matrix(0.04320987654320985,0,0,0.04320987654320985,55.2222222222222,0)" xlink:href="#aG"/><use transform="matrix(0.04320987654320985,0,0,0.04320987654320985,60.364197530864175,0)" xlink:href="#ay"/><use transform="matrix(0.04320987654320985,0,0,0.04320987654320985,69.00617283950615,0)" xlink:href="#az"/></g><path fill="#3a414a" d="M30-248c87 1 191-15 191 75 0 78-77 80-158 76V0H30v-248zm33 125c57 0 124 11 124-50 0-59-68-47-124-48v98" id="aN"/><path fill="#3a414a" d="M106-169C34-169 62-67 57 0H25v-261h32l-1 103c12-21 28-36 61-36 89 0 53 116 60 194h-32v-121c2-32-8-49-39-48" id="aO"/><path fill="#3a414a" d="M179-190L93 31C79 59 56 82 12 73V49c39 6 53-20 64-50L1-190h34L92-34l54-156h33" id="aP"/><path fill="#3a414a" d="M24 0v-261h32V0H24" id="aQ"/><g id="h"><use transform="matrix(0.061728395061728336,0,0,0.061728395061728336,0,0)" xlink:href="#aN"/><use transform="matrix(0.061728395061728336,0,0,0.061728395061728336,14.8148148148148,0)" xlink:href="#aO"/><use transform="matrix(0.061728395061728336,0,0,0.061728395061728336,27.160493827160465,0)" xlink:href="#aP"/><use transform="matrix(0.061728395061728336,0,0,0.061728395061728336,38.271604938271565,0)" xlink:href="#au"/><use transform="matrix(0.061728395061728336,0,0,0.061728395061728336,49.382716049382665,0)" xlink:href="#at"/><use transform="matrix(0.061728395061728336,0,0,0.061728395061728336,54.2592592592592,0)" xlink:href="#as"/><use transform="matrix(0.061728395061728336,0,0,0.061728395061728336,65.3703703703703,0)" xlink:href="#aJ"/><use transform="matrix(0.061728395061728336,0,0,0.061728395061728336,77.71604938271597,0)" xlink:href="#aQ"/></g><path fill="#3a414a" d="M185-189c-5-48-123-54-124 2 14 75 158 14 163 119 3 78-121 87-175 55-17-10-28-26-33-46l33-7c5 56 141 63 141-1 0-78-155-14-162-118-5-82 145-84 179-34 5 7 8 16 11 25" id="aR"/><path fill="#3a414a" d="M84 4C-5 8 30-112 23-190h32v120c0 31 7 50 39 49 72-2 45-101 50-169h31l1 190h-30c-1-10 1-25-2-33-11 22-28 36-60 37" id="aS"/><path fill="#3a414a" d="M59-47c-2 24 18 29 38 22v24C64 9 27 4 27-40v-127H5v-23h24l9-43h21v43h35v23H59v120" id="aT"/><g id="i"><use transform="matrix(0.061728395061728336,0,0,0.061728395061728336,0,0)" xlink:href="#aR"/><use transform="matrix(0.061728395061728336,0,0,0.061728395061728336,14.8148148148148,0)" xlink:href="#av"/><use transform="matrix(0.061728395061728336,0,0,0.061728395061728336,27.160493827160465,0)" xlink:href="#aQ"/><use transform="matrix(0.061728395061728336,0,0,0.061728395061728336,32.037037037037,0)" xlink:href="#aS"/><use transform="matrix(0.061728395061728336,0,0,0.061728395061728336,44.382716049382665,0)" xlink:href="#aT"/><use transform="matrix(0.061728395061728336,0,0,0.061728395061728336,50.5555555555555,0)" xlink:href="#at"/><use transform="matrix(0.061728395061728336,0,0,0.061728395061728336,55.43209876543204,0)" xlink:href="#av"/><use transform="matrix(0.061728395061728336,0,0,0.061728395061728336,67.7777777777777,0)" xlink:href="#aw"/></g><path fill="#3a414a" d="M205 0l-28-72H64L36 0H1l101-248h38L239 0h-34zm-38-99l-47-123c-12 45-31 82-46 123h93" id="aU"/><path fill="#3a414a" d="M114-163C36-179 61-72 57 0H25l-1-190h30c1 12-1 29 2 39 6-27 23-49 58-41v29" id="aV"/><path fill="#3a414a" d="M108 0H70L1-190h34L89-25l56-165h34" id="aW"/><g id="j"><use transform="matrix(0.061728395061728336,0,0,0.061728395061728336,0,0)" xlink:href="#aU"/><use transform="matrix(0.061728395061728336,0,0,0.061728395061728336,14.8148148148148,0)" xlink:href="#aQ"/><use transform="matrix(0.061728395061728336,0,0,0.061728395061728336,19.69135802469134,0)" xlink:href="#aT"/><use transform="matrix(0.061728395061728336,0,0,0.061728395061728336,25.864197530864175,0)" xlink:href="#ar"/><use transform="matrix(0.061728395061728336,0,0,0.061728395061728336,38.209876543209845,0)" xlink:href="#aV"/><use transform="matrix(0.061728395061728336,0,0,0.061728395061728336,45.555555555555515,0)" xlink:href="#aw"/><use transform="matrix(0.061728395061728336,0,0,0.061728395061728336,57.901234567901184,0)" xlink:href="#aJ"/><use transform="matrix(0.061728395061728336,0,0,0.061728395061728336,70.24691358024685,0)" xlink:href="#aT"/><use transform="matrix(0.061728395061728336,0,0,0.061728395061728336,76.41975308641969,0)" xlink:href="#at"/><use transform="matrix(0.061728395061728336,0,0,0.061728395061728336,81.29629629629623,0)" xlink:href="#aW"/><use transform="matrix(0.061728395061728336,0,0,0.061728395061728336,92.40740740740733,0)" xlink:href="#ar"/></g><path fill="#3a414a" d="M87 75C49 33 22-17 22-94c0-76 28-126 65-167h31c-38 41-64 92-64 168S80 34 118 75H87" id="aX"/><path fill="#3a414a" d="M16-82v-28h88v28H16" id="aY"/><path fill="#3a414a" d="M30 0v-248h33v221h125V0H30" id="aZ"/><path fill="#3a414a" d="M127-220V0H93v-220H8v-28h204v28h-85" id="ba"/><path fill="#3a414a" d="M33-261c38 41 65 92 65 168S71 34 33 75H2C39 34 66-17 66-93S39-220 2-261h31" id="bb"/><g id="k"><use transform="matrix(0.061728395061728336,0,0,0.061728395061728336,0,0)" xlink:href="#aX"/><use transform="matrix(0.061728395061728336,0,0,0.061728395061728336,7.345679012345672,0)" xlink:href="#aN"/><use transform="matrix(0.061728395061728336,0,0,0.061728395061728336,22.160493827160472,0)" xlink:href="#aR"/><use transform="matrix(0.061728395061728336,0,0,0.061728395061728336,36.975308641975275,0)" xlink:href="#aY"/><use transform="matrix(0.061728395061728336,0,0,0.061728395061728336,44.320987654320945,0)" xlink:href="#aU"/><use transform="matrix(0.061728395061728336,0,0,0.061728395061728336,59.13580246913575,0)" xlink:href="#aZ"/><use transform="matrix(0.061728395061728336,0,0,0.061728395061728336,69.81481481481475,0)" xlink:href="#ba"/><use transform="matrix(0.061728395061728336,0,0,0.061728395061728336,83.33333333333326,0)" xlink:href="#bb"/></g><path fill="#333" d="M123 10C108 53 80 86 19 72V37c35 8 53-11 59-39L3-190h52l48 148c12-52 28-100 44-148h51" id="bc"/><path fill="#333" d="M12 0v-35l95-120H19v-35h142v35L67-36h103V0H12" id="bd"/><g id="l"><use transform="matrix(0.04320987654320985,0,0,0.04320987654320985,0,0)" xlink:href="#aK"/><use transform="matrix(0.04320987654320985,0,0,0.04320987654320985,8.641975308641971,0)" xlink:href="#aC"/><use transform="matrix(0.04320987654320985,0,0,0.04320987654320985,18.10493827160493,0)" xlink:href="#aK"/><use transform="matrix(0.04320987654320985,0,0,0.04320987654320985,26.7469135802469,0)" xlink:href="#aF"/><use transform="matrix(0.04320987654320985,0,0,0.04320987654320985,31.067901234567884,0)" xlink:href="#bc"/><use transform="matrix(0.04320987654320985,0,0,0.04320987654320985,39.70987654320986,0)" xlink:href="#bd"/><use transform="matrix(0.04320987654320985,0,0,0.04320987654320985,47.48765432098763,0)" xlink:href="#ay"/><use transform="matrix(0.04320987654320985,0,0,0.04320987654320985,56.12962962962961,0)" xlink:href="#az"/></g><path fill="#333" d="M190-63c-7 42-38 67-86 67-59 0-84-38-90-98-12-110 154-137 174-36l-49 2c-2-19-15-32-35-32-30 0-35 28-38 64-6 74 65 87 74 30" id="be"/><path fill="#333" d="M114-157C55-157 80-60 75 0H25v-261h50l-1 109c12-26 28-41 61-42 86-1 58 113 63 194h-50c-7-57 23-157-34-157" id="bf"/><g id="m"><use transform="matrix(0.04320987654320985,0,0,0.04320987654320985,0,0)" xlink:href="#be"/><use transform="matrix(0.04320987654320985,0,0,0.04320987654320985,8.641975308641971,0)" xlink:href="#bf"/><use transform="matrix(0.04320987654320985,0,0,0.04320987654320985,18.10493827160493,0)" xlink:href="#aM"/><use transform="matrix(0.04320987654320985,0,0,0.04320987654320985,27.567901234567888,0)" xlink:href="#aM"/><use transform="matrix(0.04320987654320985,0,0,0.04320987654320985,37.030864197530846,0)" xlink:href="#az"/><use transform="matrix(0.04320987654320985,0,0,0.04320987654320985,45.67283950617283,0)" xlink:href="#ay"/><use transform="matrix(0.04320987654320985,0,0,0.04320987654320985,54.314814814814795,0)" xlink:href="#az"/></g><path fill="#333" d="M25-224v-37h50v37H25zM75 22c2 45-34 59-81 51V38c22 5 31-5 31-27v-201h50V22" id="bg"/><g id="n"><use transform="matrix(0.04320987654320985,0,0,0.04320987654320985,0,0)" xlink:href="#aD"/><use transform="matrix(0.04320987654320985,0,0,0.04320987654320985,6.049382716049379,0)" xlink:href="#ay"/><use transform="matrix(0.04320987654320985,0,0,0.04320987654320985,14.69135802469135,0)" xlink:href="#bg"/><use transform="matrix(0.04320987654320985,0,0,0.04320987654320985,19.012345679012334,0)" xlink:href="#ay"/><use transform="matrix(0.04320987654320985,0,0,0.04320987654320985,27.654320987654305,0)" xlink:href="#be"/><use transform="matrix(0.04320987654320985,0,0,0.04320987654320985,36.296296296296276,0)" xlink:href="#aG"/><use transform="matrix(0.04320987654320985,0,0,0.04320987654320985,41.43827160493825,0)" xlink:href="#az"/></g><path fill="#333" d="M121-226c-27-7-43 5-38 36h38v33H83V0H34v-157H6v-33h28c-9-59 32-81 87-68v32" id="bh"/><g id="o"><use transform="matrix(0.04320987654320985,0,0,0.04320987654320985,0,0)" xlink:href="#az"/><use transform="matrix(0.04320987654320985,0,0,0.04320987654320985,8.641975308641971,0)" xlink:href="#aK"/><use transform="matrix(0.04320987654320985,0,0,0.04320987654320985,17.283950617283942,0)" xlink:href="#aG"/><use transform="matrix(0.04320987654320985,0,0,0.04320987654320985,22.42592592592592,0)" xlink:href="#aA"/><use transform="matrix(0.04320987654320985,0,0,0.04320987654320985,26.746913580246904,0)" xlink:href="#az"/><use transform="matrix(0.04320987654320985,0,0,0.04320987654320985,35.38888888888887,0)" xlink:href="#bh"/><use transform="matrix(0.04320987654320985,0,0,0.04320987654320985,40.530864197530846,0)" xlink:href="#aA"/><use transform="matrix(0.04320987654320985,0,0,0.04320987654320985,44.85185185185184,0)" xlink:href="#ay"/><use transform="matrix(0.04320987654320985,0,0,0.04320987654320985,53.49382716049381,0)" xlink:href="#az"/></g><path fill="#e81313" d="M133-34C117-15 103 5 69 4 32 3 11-16 11-54c-1-60 55-63 116-61 1-26-3-47-28-47-18 1-26 9-28 27l-52-2c7-38 36-58 82-57s74 22 75 68l1 82c-1 14 12 18 25 15v27c-30 8-71 5-69-32zm-48 3c29 0 43-24 42-57-32 0-66-3-65 30 0 17 8 27 23 27" id="bi"/><path fill="#e81313" d="M121-226c-27-7-43 5-38 36h38v33H83V0H34v-157H6v-33h28c-9-59 32-81 87-68v32" id="bj"/><path fill="#e81313" d="M185-48c-13 30-37 53-82 52C43 2 14-33 14-96s30-98 90-98c62 0 83 45 84 108H66c0 31 8 55 39 56 18 0 30-7 34-22zm-45-69c5-46-57-63-70-21-2 6-4 13-4 21h74" id="bk"/><path fill="#e81313" d="M190-63c-7 42-38 67-86 67-59 0-84-38-90-98-12-110 154-137 174-36l-49 2c-2-19-15-32-35-32-30 0-35 28-38 64-6 74 65 87 74 30" id="bl"/><path fill="#e81313" d="M115-3C79 11 28 4 28-45v-112H4v-33h27l15-45h31v45h36v33H77v99c-1 23 16 31 38 25v30" id="bm"/><path fill="#e81313" d="M137-138c1-29-70-34-71-4 15 46 118 7 119 86 1 83-164 76-172 9l43-7c4 19 20 25 44 25 33 8 57-30 24-41C81-84 22-81 20-136c-2-80 154-74 161-7" id="bn"/><g id="p"><use transform="matrix(0.04320987654320985,0,0,0.04320987654320985,0,0)" xlink:href="#bi"/><use transform="matrix(0.04320987654320985,0,0,0.04320987654320985,8.641975308641971,0)" xlink:href="#bj"/><use transform="matrix(0.04320987654320985,0,0,0.04320987654320985,13.783950617283944,0)" xlink:href="#bj"/><use transform="matrix(0.04320987654320985,0,0,0.04320987654320985,18.925925925925917,0)" xlink:href="#bk"/><use transform="matrix(0.04320987654320985,0,0,0.04320987654320985,27.567901234567888,0)" xlink:href="#bl"/><use transform="matrix(0.04320987654320985,0,0,0.04320987654320985,36.20987654320986,0)" xlink:href="#bm"/><use transform="matrix(0.04320987654320985,0,0,0.04320987654320985,41.35185185185183,0)" xlink:href="#bn"/></g><path fill="#e81313" d="M114-157C55-157 80-60 75 0H25v-261h50l-1 109c12-26 28-41 61-42 86-1 58 113 63 194h-50c-7-57 23-157-34-157" id="bo"/><path fill="#e81313" d="M25-224v-37h50v37H25zM25 0v-190h50V0H25" id="bp"/><path fill="#e81313" d="M128 0H69L1-190h53L99-40l48-150h52" id="bq"/><path fill="#e81313" d="M220-157c-53 9-28 100-34 157h-49v-107c1-27-5-49-29-50C55-147 81-57 75 0H25l-1-190h47c2 12-1 28 3 38 10-53 101-56 108 0 13-22 24-43 59-42 82 1 51 116 57 194h-49v-107c-1-25-5-48-29-50" id="br"/><path fill="#e81313" d="M135-194c87-1 58 113 63 194h-50c-7-57 23-157-34-157-59 0-34 97-39 157H25l-1-190h47c2 12-1 28 3 38 12-26 28-41 61-42" id="bs"/><g id="q"><use transform="matrix(0.04320987654320985,0,0,0.04320987654320985,0,0)" xlink:href="#bi"/><use transform="matrix(0.04320987654320985,0,0,0.04320987654320985,8.641975308641971,0)" xlink:href="#bl"/><use transform="matrix(0.04320987654320985,0,0,0.04320987654320985,17.283950617283942,0)" xlink:href="#bo"/><use transform="matrix(0.04320987654320985,0,0,0.04320987654320985,26.7469135802469,0)" xlink:href="#bp"/><use transform="matrix(0.04320987654320985,0,0,0.04320987654320985,31.067901234567884,0)" xlink:href="#bk"/><use transform="matrix(0.04320987654320985,0,0,0.04320987654320985,39.70987654320986,0)" xlink:href="#bq"/><use transform="matrix(0.04320987654320985,0,0,0.04320987654320985,48.35185185185183,0)" xlink:href="#bk"/><use transform="matrix(0.04320987654320985,0,0,0.04320987654320985,56.99382716049381,0)" xlink:href="#br"/><use transform="matrix(0.04320987654320985,0,0,0.04320987654320985,70.82098765432096,0)" xlink:href="#bk"/><use transform="matrix(0.04320987654320985,0,0,0.04320987654320985,79.46296296296293,0)" xlink:href="#bs"/><use transform="matrix(0.04320987654320985,0,0,0.04320987654320985,88.9259259259259,0)" xlink:href="#bm"/></g><path fill="#e81313" d="M110-194c64 0 96 36 96 99 0 64-35 99-97 99-61 0-95-36-95-99 0-62 34-99 96-99zm-1 164c35 0 45-28 45-65 0-40-10-65-43-65-34 0-45 26-45 65 0 36 10 65 43 65" id="bt"/><g id="r"><use transform="matrix(0.04320987654320985,0,0,0.04320987654320985,0,0)" xlink:href="#bt"/><use transform="matrix(0.04320987654320985,0,0,0.04320987654320985,9.462962962962958,0)" xlink:href="#bj"/></g><g id="s"><use transform="matrix(0.04320987654320985,0,0,0.04320987654320985,0,0)" xlink:href="#aA"/><use transform="matrix(0.04320987654320985,0,0,0.04320987654320985,4.3209876543209855,0)" xlink:href="#aC"/></g><path fill="#333" d="M4 7l51-268h42L46 7H4" id="bu"/><use transform="matrix(0.04320987654320985,0,0,0.04320987654320985,0,0)" xlink:href="#bu" id="t"/><path fill="#333" d="M220-157c-53 9-28 100-34 157h-49v-107c1-27-5-49-29-50C55-147 81-57 75 0H25l-1-190h47c2 12-1 28 3 38 10-53 101-56 108 0 13-22 24-43 59-42 82 1 51 116 57 194h-49v-107c-1-25-5-48-29-50" id="bv"/><g id="u"><use transform="matrix(0.04320987654320985,0,0,0.04320987654320985,0,0)" xlink:href="#aA"/><use transform="matrix(0.04320987654320985,0,0,0.04320987654320985,4.3209876543209855,0)" xlink:href="#aC"/><use transform="matrix(0.04320987654320985,0,0,0.04320987654320985,13.783950617283944,0)" xlink:href="#bh"/><use transform="matrix(0.04320987654320985,0,0,0.04320987654320985,18.925925925925917,0)" xlink:href="#aM"/><use transform="matrix(0.04320987654320985,0,0,0.04320987654320985,28.388888888888875,0)" xlink:href="#aD"/><use transform="matrix(0.04320987654320985,0,0,0.04320987654320985,34.43827160493825,0)" xlink:href="#bv"/><use transform="matrix(0.04320987654320985,0,0,0.04320987654320985,48.26543209876541,0)" xlink:href="#az"/></g><path fill="#3a414a" d="M190 0L58-211 59 0H30v-248h39L202-35l-2-213h31V0h-41" id="bw"/><path fill="#3a414a" d="M85-194c31 0 48 13 60 33l-1-100h32l1 261h-30c-2-10 0-23-3-31C134-8 116 4 85 4 32 4 16-35 15-94c0-66 23-100 70-100zm9 24c-40 0-46 34-46 75 0 40 6 74 45 74 42 0 51-32 51-76 0-42-9-74-50-73" id="bx"/><g id="v"><use transform="matrix(0.061728395061728336,0,0,0.061728395061728336,0,0)" xlink:href="#bw"/><use transform="matrix(0.061728395061728336,0,0,0.061728395061728336,15.98765432098764,0)" xlink:href="#ar"/><use transform="matrix(0.061728395061728336,0,0,0.061728395061728336,28.333333333333307,0)" xlink:href="#ar"/><use transform="matrix(0.061728395061728336,0,0,0.061728395061728336,40.67901234567897,0)" xlink:href="#bx"/></g><g id="w"><use transform="matrix(0.04320987654320985,0,0,0.04320987654320985,0,0)" xlink:href="#ay"/><use transform="matrix(0.04320987654320985,0,0,0.04320987654320985,8.641975308641971,0)" xlink:href="#aF"/><use transform="matrix(0.04320987654320985,0,0,0.04320987654320985,12.962962962962957,0)" xlink:href="#aK"/><use transform="matrix(0.04320987654320985,0,0,0.04320987654320985,21.60493827160493,0)" xlink:href="#aL"/><use transform="matrix(0.04320987654320985,0,0,0.04320987654320985,31.067901234567888,0)" xlink:href="#aM"/><use transform="matrix(0.04320987654320985,0,0,0.04320987654320985,40.530864197530846,0)" xlink:href="#aD"/><use transform="matrix(0.04320987654320985,0,0,0.04320987654320985,46.58024691358022,0)" xlink:href="#aK"/><use transform="matrix(0.04320987654320985,0,0,0.04320987654320985,55.2222222222222,0)" xlink:href="#aG"/><use transform="matrix(0.04320987654320985,0,0,0.04320987654320985,60.364197530864175,0)" xlink:href="#ay"/><use transform="matrix(0.04320987654320985,0,0,0.04320987654320985,69.00617283950615,0)" xlink:href="#ax"/></g><g id="x"><use transform="matrix(0.04320987654320985,0,0,0.04320987654320985,0,0)" xlink:href="#aL"/><use transform="matrix(0.04320987654320985,0,0,0.04320987654320985,9.462962962962958,0)" xlink:href="#bc"/></g><g id="y"><use transform="matrix(0.04320987654320985,0,0,0.04320987654320985,0,0)" xlink:href="#aA"/><use transform="matrix(0.04320987654320985,0,0,0.04320987654320985,4.3209876543209855,0)" xlink:href="#aC"/><use transform="matrix(0.04320987654320985,0,0,0.04320987654320985,13.783950617283944,0)" xlink:href="#be"/><use transform="matrix(0.04320987654320985,0,0,0.04320987654320985,22.42592592592592,0)" xlink:href="#aF"/><use transform="matrix(0.04320987654320985,0,0,0.04320987654320985,26.746913580246904,0)" xlink:href="#aE"/><use transform="matrix(0.04320987654320985,0,0,0.04320987654320985,36.20987654320986,0)" xlink:href="#ax"/><use transform="matrix(0.04320987654320985,0,0,0.04320987654320985,45.67283950617283,0)" xlink:href="#ay"/><use transform="matrix(0.04320987654320985,0,0,0.04320987654320985,54.314814814814795,0)" xlink:href="#az"/></g><path fill="#3a414a" d="M210-169c-67 3-38 105-44 169h-31v-121c0-29-5-50-35-48C34-165 62-65 56 0H25l-1-190h30c1 10-1 24 2 32 10-44 99-50 107 0 11-21 27-35 58-36 85-2 47 119 55 194h-31v-121c0-29-5-49-35-48" id="by"/><path fill="#3a414a" d="M115-194c55 1 70 41 70 98S169 2 115 4C84 4 66-9 55-30l1 105H24l-1-265h31l2 30c10-21 28-34 59-34zm-8 174c40 0 45-34 45-75s-6-73-45-74c-42 0-51 32-51 76 0 43 10 73 51 73" id="bz"/><g id="z"><use transform="matrix(0.05555555555555542,0,0,0.05555555555555542,0,0)" xlink:href="#aI"/><use transform="matrix(0.05555555555555542,0,0,0.05555555555555542,14.388888888888854,0)" xlink:href="#av"/><use transform="matrix(0.05555555555555542,0,0,0.05555555555555542,25.499999999999936,0)" xlink:href="#by"/><use transform="matrix(0.05555555555555542,0,0,0.05555555555555542,42.11111111111101,0)" xlink:href="#bz"/><use transform="matrix(0.05555555555555542,0,0,0.05555555555555542,53.22222222222209,0)" xlink:href="#av"/><use transform="matrix(0.05555555555555542,0,0,0.05555555555555542,64.33333333333317,0)" xlink:href="#aw"/><use transform="matrix(0.05555555555555542,0,0,0.05555555555555542,75.44444444444426,0)" xlink:href="#ar"/><use transform="matrix(0.05555555555555542,0,0,0.05555555555555542,86.55555555555534,0)" xlink:href="#aw"/><use transform="matrix(0.05555555555555542,0,0,0.05555555555555542,97.66666666666643,0)" xlink:href="#aT"/></g><g id="A"><use transform="matrix(0.04320987654320985,0,0,0.04320987654320985,0,0)" xlink:href="#aL"/><use transform="matrix(0.04320987654320985,0,0,0.04320987654320985,9.462962962962958,0)" xlink:href="#aE"/><use transform="matrix(0.04320987654320985,0,0,0.04320987654320985,18.925925925925917,0)" xlink:href="#aA"/><use transform="matrix(0.04320987654320985,0,0,0.04320987654320985,23.246913580246908,0)" xlink:href="#aF"/><use transform="matrix(0.04320987654320985,0,0,0.04320987654320985,27.56790123456789,0)" xlink:href="#aG"/></g><g id="B"><use transform="matrix(0.04320987654320985,0,0,0.04320987654320985,0,0)" xlink:href="#bh"/><use transform="matrix(0.04320987654320985,0,0,0.04320987654320985,5.141975308641973,0)" xlink:href="#aD"/><use transform="matrix(0.04320987654320985,0,0,0.04320987654320985,11.191358024691352,0)" xlink:href="#aM"/><use transform="matrix(0.04320987654320985,0,0,0.04320987654320985,20.65432098765431,0)" xlink:href="#bv"/></g><g id="C"><use transform="matrix(0.061728395061728336,0,0,0.061728395061728336,0,0)" xlink:href="#aI"/><use transform="matrix(0.061728395061728336,0,0,0.061728395061728336,15.98765432098764,0)" xlink:href="#aJ"/><use transform="matrix(0.061728395061728336,0,0,0.061728395061728336,28.333333333333307,0)" xlink:href="#au"/><use transform="matrix(0.061728395061728336,0,0,0.061728395061728336,39.44444444444441,0)" xlink:href="#ar"/></g><g id="D"><use transform="matrix(0.061728395061728336,0,0,0.061728395061728336,0,0)" xlink:href="#aX"/><use transform="matrix(0.061728395061728336,0,0,0.061728395061728336,7.345679012345672,0)" xlink:href="#aH"/><use transform="matrix(0.061728395061728336,0,0,0.061728395061728336,23.33333333333331,0)" xlink:href="#aI"/><use transform="matrix(0.061728395061728336,0,0,0.061728395061728336,39.32098765432095,0)" xlink:href="#bb"/></g><g id="E"><use transform="matrix(0.061728395061728336,0,0,0.061728395061728336,0,0)" xlink:href="#aR"/><use transform="matrix(0.061728395061728336,0,0,0.061728395061728336,14.8148148148148,0)" xlink:href="#aT"/><use transform="matrix(0.061728395061728336,0,0,0.061728395061728336,20.987654320987634,0)" xlink:href="#ar"/><use transform="matrix(0.061728395061728336,0,0,0.061728395061728336,33.3333333333333,0)" xlink:href="#bz"/></g><path fill="#333" d="M135-194c53 0 70 44 70 98 0 56-19 98-73 100-31 1-45-17-59-34 3 33 2 69 2 105H25l-1-265h48c2 10 0 23 3 31 11-24 29-35 60-35zM114-30c33 0 39-31 40-66 0-38-9-64-40-64-56 0-55 130 0 130" id="bA"/><g id="F"><use transform="matrix(0.03703703703703702,0,0,0.03703703703703702,0,0)" xlink:href="#ax"/><use transform="matrix(0.03703703703703702,0,0,0.03703703703703702,8.111111111111107,0)" xlink:href="#ay"/><use transform="matrix(0.03703703703703702,0,0,0.03703703703703702,15.518518518518512,0)" xlink:href="#be"/><use transform="matrix(0.03703703703703702,0,0,0.03703703703703702,22.925925925925917,0)" xlink:href="#aM"/><use transform="matrix(0.03703703703703702,0,0,0.03703703703703702,31.037037037037024,0)" xlink:href="#bv"/><use transform="matrix(0.03703703703703702,0,0,0.03703703703703702,42.88888888888887,0)" xlink:href="#bA"/><use transform="matrix(0.03703703703703702,0,0,0.03703703703703702,50.99999999999998,0)" xlink:href="#aM"/><use transform="matrix(0.03703703703703702,0,0,0.03703703703703702,59.111111111111086,0)" xlink:href="#az"/><use transform="matrix(0.03703703703703702,0,0,0.03703703703703702,66.51851851851849,0)" xlink:href="#ay"/><use transform="matrix(0.03703703703703702,0,0,0.03703703703703702,73.9259259259259,0)" xlink:href="#ax"/></g><g id="G"><use transform="matrix(0.03703703703703702,0,0,0.03703703703703702,0,0)" xlink:href="#aL"/><use transform="matrix(0.03703703703703702,0,0,0.03703703703703702,8.111111111111107,0)" xlink:href="#bc"/></g><path fill="#3a414a" d="M63-220v92h138v28H63V0H30v-248h175v28H63" id="bB"/><g id="H"><use transform="matrix(0.055555555555555504,0,0,0.055555555555555504,0,0)" xlink:href="#bB"/><use transform="matrix(0.055555555555555504,0,0,0.055555555555555504,12.166666666666655,0)" xlink:href="#aS"/><use transform="matrix(0.055555555555555504,0,0,0.055555555555555504,23.277777777777757,0)" xlink:href="#aw"/><use transform="matrix(0.055555555555555504,0,0,0.055555555555555504,34.38888888888886,0)" xlink:href="#as"/><use transform="matrix(0.055555555555555504,0,0,0.055555555555555504,44.38888888888885,0)" xlink:href="#aT"/><use transform="matrix(0.055555555555555504,0,0,0.055555555555555504,49.9444444444444,0)" xlink:href="#at"/><use transform="matrix(0.055555555555555504,0,0,0.055555555555555504,54.333333333333286,0)" xlink:href="#av"/><use transform="matrix(0.055555555555555504,0,0,0.055555555555555504,65.44444444444439,0)" xlink:href="#aw"/><use transform="matrix(0.055555555555555504,0,0,0.055555555555555504,76.55555555555549,0)" xlink:href="#aJ"/><use transform="matrix(0.055555555555555504,0,0,0.055555555555555504,87.66666666666659,0)" xlink:href="#aQ"/></g><path fill="#3a414a" d="M233-177c-1 41-23 64-60 70L243 0h-38l-65-103H63V0H30v-248c88 3 205-21 203 71zM63-129c60-2 137 13 137-47 0-61-80-42-137-45v92" id="bC"/><path fill="#3a414a" d="M145-31C134-9 116 4 85 4 32 4 16-35 15-94c0-59 17-99 70-100 32-1 48 14 60 33 0-11-1-24 2-32h30l-1 268h-32zM93-21c41 0 51-33 51-76s-8-73-50-73c-40 0-46 35-46 75s5 74 45 74" id="bD"/><g id="I"><use transform="matrix(0.055555555555555504,0,0,0.055555555555555504,0,0)" xlink:href="#bC"/><use transform="matrix(0.055555555555555504,0,0,0.055555555555555504,14.388888888888875,0)" xlink:href="#ar"/><use transform="matrix(0.055555555555555504,0,0,0.055555555555555504,25.499999999999975,0)" xlink:href="#bD"/><use transform="matrix(0.055555555555555504,0,0,0.055555555555555504,36.61111111111107,0)" xlink:href="#aS"/><use transform="matrix(0.055555555555555504,0,0,0.055555555555555504,47.72222222222217,0)" xlink:href="#at"/><use transform="matrix(0.055555555555555504,0,0,0.055555555555555504,52.11111111111106,0)" xlink:href="#aV"/><use transform="matrix(0.055555555555555504,0,0,0.055555555555555504,58.722222222222165,0)" xlink:href="#ar"/><use transform="matrix(0.055555555555555504,0,0,0.055555555555555504,69.83333333333326,0)" xlink:href="#by"/><use transform="matrix(0.055555555555555504,0,0,0.055555555555555504,86.44444444444436,0)" xlink:href="#ar"/><use transform="matrix(0.055555555555555504,0,0,0.055555555555555504,97.55555555555546,0)" xlink:href="#aw"/><use transform="matrix(0.055555555555555504,0,0,0.055555555555555504,108.66666666666656,0)" xlink:href="#aT"/></g><path fill="#3a414a" d="M240 0l2-218c-23 76-54 145-80 218h-23L58-218 59 0H30v-248h44l77 211c21-75 51-140 76-211h43V0h-30" id="bE"/><g id="J"><use transform="matrix(0.055555555555555504,0,0,0.055555555555555504,0,0)" xlink:href="#bE"/><use transform="matrix(0.055555555555555504,0,0,0.055555555555555504,16.611111111111097,0)" xlink:href="#ar"/><use transform="matrix(0.055555555555555504,0,0,0.055555555555555504,27.722222222222197,0)" xlink:href="#aJ"/><use transform="matrix(0.055555555555555504,0,0,0.055555555555555504,38.8333333333333,0)" xlink:href="#au"/><use transform="matrix(0.055555555555555504,0,0,0.055555555555555504,48.83333333333329,0)" xlink:href="#aS"/><use transform="matrix(0.055555555555555504,0,0,0.055555555555555504,59.944444444444386,0)" xlink:href="#aV"/><use transform="matrix(0.055555555555555504,0,0,0.055555555555555504,66.5555555555555,0)" xlink:href="#ar"/></g><g id="K"><use transform="matrix(0.055555555555555504,0,0,0.055555555555555504,0,0)" xlink:href="#aX"/><use transform="matrix(0.055555555555555504,0,0,0.055555555555555504,6.611111111111105,0)" xlink:href="#bB"/><use transform="matrix(0.055555555555555504,0,0,0.055555555555555504,18.77777777777776,0)" xlink:href="#bC"/><use transform="matrix(0.055555555555555504,0,0,0.055555555555555504,33.166666666666636,0)" xlink:href="#by"/><use transform="matrix(0.055555555555555504,0,0,0.055555555555555504,49.77777777777773,0)" xlink:href="#bb"/></g><g id="L"><use transform="matrix(0.04320987654320985,0,0,0.04320987654320985,0,0)" xlink:href="#az"/><use transform="matrix(0.04320987654320985,0,0,0.04320987654320985,8.641975308641971,0)" xlink:href="#bA"/><use transform="matrix(0.04320987654320985,0,0,0.04320987654320985,18.10493827160493,0)" xlink:href="#ay"/><use transform="matrix(0.04320987654320985,0,0,0.04320987654320985,26.7469135802469,0)" xlink:href="#be"/><use transform="matrix(0.04320987654320985,0,0,0.04320987654320985,35.38888888888887,0)" xlink:href="#aA"/><use transform="matrix(0.04320987654320985,0,0,0.04320987654320985,39.70987654320986,0)" xlink:href="#bh"/><use transform="matrix(0.04320987654320985,0,0,0.04320987654320985,44.85185185185184,0)" xlink:href="#aA"/><use transform="matrix(0.04320987654320985,0,0,0.04320987654320985,49.17283950617282,0)" xlink:href="#ay"/><use transform="matrix(0.04320987654320985,0,0,0.04320987654320985,57.814814814814795,0)" xlink:href="#az"/></g><path fill="#333" d="M142-158h-39l-4-90h48zm-75 0H28l-4-90h48" id="bF"/><path fill="#333" d="M231 0h-52l-39-155L100 0H48L-1-190h46L77-45c9-52 24-97 36-145h53l37 145 32-145h46" id="bG"/><g id="M"><use transform="matrix(0.04320987654320985,0,0,0.04320987654320985,0,0)" xlink:href="#bF"/><use transform="matrix(0.04320987654320985,0,0,0.04320987654320985,7.345679012345675,0)" xlink:href="#bf"/><use transform="matrix(0.04320987654320985,0,0,0.04320987654320985,16.808641975308632,0)" xlink:href="#aM"/><use transform="matrix(0.04320987654320985,0,0,0.04320987654320985,26.27160493827159,0)" xlink:href="#bG"/></g><g id="N"><use transform="matrix(0.04320987654320985,0,0,0.04320987654320985,0,0)" xlink:href="#bG"/><use transform="matrix(0.04320987654320985,0,0,0.04320987654320985,12.098765432098759,0)" xlink:href="#ay"/><use transform="matrix(0.04320987654320985,0,0,0.04320987654320985,20.74074074074073,0)" xlink:href="#aF"/><use transform="matrix(0.04320987654320985,0,0,0.04320987654320985,25.061728395061714,0)" xlink:href="#aF"/><use transform="matrix(0.04320987654320985,0,0,0.04320987654320985,29.3827160493827,0)" xlink:href="#bF"/></g><g id="O"><use transform="matrix(0.04320987654320985,0,0,0.04320987654320985,0,0)" xlink:href="#aA"/><use transform="matrix(0.04320987654320985,0,0,0.04320987654320985,4.3209876543209855,0)" xlink:href="#bv"/><use transform="matrix(0.04320987654320985,0,0,0.04320987654320985,18.148148148148138,0)" xlink:href="#bA"/><use transform="matrix(0.04320987654320985,0,0,0.04320987654320985,27.611111111111097,0)" xlink:href="#aF"/><use transform="matrix(0.04320987654320985,0,0,0.04320987654320985,31.93209876543208,0)" xlink:href="#ay"/><use transform="matrix(0.04320987654320985,0,0,0.04320987654320985,40.57407407407405,0)" xlink:href="#bv"/><use transform="matrix(0.04320987654320985,0,0,0.04320987654320985,54.4012345679012,0)" xlink:href="#ay"/><use transform="matrix(0.04320987654320985,0,0,0.04320987654320985,63.04320987654317,0)" xlink:href="#aC"/><use transform="matrix(0.04320987654320985,0,0,0.04320987654320985,72.50617283950614,0)" xlink:href="#aG"/><use transform="matrix(0.04320987654320985,0,0,0.04320987654320985,77.64814814814811,0)" xlink:href="#ay"/><use transform="matrix(0.04320987654320985,0,0,0.04320987654320985,86.29012345679008,0)" xlink:href="#ax"/></g><g id="P"><use transform="matrix(0.04320987654320985,0,0,0.04320987654320985,0,0)" xlink:href="#aA"/><use transform="matrix(0.04320987654320985,0,0,0.04320987654320985,4.3209876543209855,0)" xlink:href="#aC"/><use transform="matrix(0.04320987654320985,0,0,0.04320987654320985,13.783950617283944,0)" xlink:href="#aG"/><use transform="matrix(0.04320987654320985,0,0,0.04320987654320985,18.925925925925917,0)" xlink:href="#aD"/><use transform="matrix(0.04320987654320985,0,0,0.04320987654320985,24.975308641975296,0)" xlink:href="#aM"/><use transform="matrix(0.04320987654320985,0,0,0.04320987654320985,34.43827160493825,0)" xlink:href="#ax"/><use transform="matrix(0.04320987654320985,0,0,0.04320987654320985,43.90123456790121,0)" xlink:href="#aE"/><use transform="matrix(0.04320987654320985,0,0,0.04320987654320985,53.36419753086418,0)" xlink:href="#be"/><use transform="matrix(0.04320987654320985,0,0,0.04320987654320985,62.00617283950615,0)" xlink:href="#ay"/><use transform="matrix(0.04320987654320985,0,0,0.04320987654320985,70.64814814814812,0)" xlink:href="#az"/></g><path fill="#3a414a" d="M143 0L79-87 56-68V0H24v-261h32v163l83-92h37l-77 82L181 0h-38" id="bH"/><g id="Q"><use transform="matrix(0.061728395061728336,0,0,0.061728395061728336,0,0)" xlink:href="#bC"/><use transform="matrix(0.061728395061728336,0,0,0.061728395061728336,15.98765432098764,0)" xlink:href="#at"/><use transform="matrix(0.061728395061728336,0,0,0.061728395061728336,20.86419753086418,0)" xlink:href="#au"/><use transform="matrix(0.061728395061728336,0,0,0.061728395061728336,31.97530864197528,0)" xlink:href="#bH"/></g><path fill="#333" d="M144 0l-44-69L55 0H2l70-98-66-92h53l41 62 40-62h54l-67 91 71 99h-54" id="bI"/><g id="R"><use transform="matrix(0.04320987654320985,0,0,0.04320987654320985,0,0)" xlink:href="#ay"/><use transform="matrix(0.04320987654320985,0,0,0.04320987654320985,8.641975308641971,0)" xlink:href="#bI"/><use transform="matrix(0.04320987654320985,0,0,0.04320987654320985,17.283950617283942,0)" xlink:href="#bf"/><use transform="matrix(0.04320987654320985,0,0,0.04320987654320985,26.7469135802469,0)" xlink:href="#aA"/><use transform="matrix(0.04320987654320985,0,0,0.04320987654320985,31.067901234567884,0)" xlink:href="#aL"/><use transform="matrix(0.04320987654320985,0,0,0.04320987654320985,40.530864197530846,0)" xlink:href="#aA"/><use transform="matrix(0.04320987654320985,0,0,0.04320987654320985,44.85185185185184,0)" xlink:href="#aG"/><use transform="matrix(0.04320987654320985,0,0,0.04320987654320985,49.99382716049381,0)" xlink:href="#az"/></g><path fill="#3a414a" d="M101-234c-31-9-42 10-38 44h38v23H63V0H32v-167H5v-23h27c-7-52 17-82 69-68v24" id="bJ"/><g id="S"><use transform="matrix(0.061728395061728336,0,0,0.061728395061728336,0,0)" xlink:href="#aN"/><use transform="matrix(0.061728395061728336,0,0,0.061728395061728336,14.8148148148148,0)" xlink:href="#ar"/><use transform="matrix(0.061728395061728336,0,0,0.061728395061728336,27.160493827160465,0)" xlink:href="#aV"/><use transform="matrix(0.061728395061728336,0,0,0.061728395061728336,34.506172839506135,0)" xlink:href="#bJ"/><use transform="matrix(0.061728395061728336,0,0,0.061728395061728336,40.67901234567897,0)" xlink:href="#av"/><use transform="matrix(0.061728395061728336,0,0,0.061728395061728336,53.02469135802464,0)" xlink:href="#aV"/><use transform="matrix(0.061728395061728336,0,0,0.061728395061728336,60.37037037037031,0)" xlink:href="#by"/><use transform="matrix(0.061728395061728336,0,0,0.061728395061728336,78.82716049382708,0)" xlink:href="#aJ"/><use transform="matrix(0.061728395061728336,0,0,0.061728395061728336,91.17283950617275,0)" xlink:href="#aw"/><use transform="matrix(0.061728395061728336,0,0,0.061728395061728336,103.51851851851842,0)" xlink:href="#as"/><use transform="matrix(0.061728395061728336,0,0,0.061728395061728336,114.62962962962952,0)" xlink:href="#ar"/></g><g id="T"><use transform="matrix(0.0555555555555555,0,0,0.0555555555555555,0,0)" xlink:href="#bB"/><use transform="matrix(0.0555555555555555,0,0,0.0555555555555555,12.166666666666654,0)" xlink:href="#aJ"/><use transform="matrix(0.0555555555555555,0,0,0.0555555555555555,23.277777777777754,0)" xlink:href="#at"/><use transform="matrix(0.0555555555555555,0,0,0.0555555555555555,27.666666666666636,0)" xlink:href="#aQ"/><use transform="matrix(0.0555555555555555,0,0,0.0555555555555555,32.05555555555552,0)" xlink:href="#aS"/><use transform="matrix(0.0555555555555555,0,0,0.0555555555555555,43.16666666666662,0)" xlink:href="#aV"/><use transform="matrix(0.0555555555555555,0,0,0.0555555555555555,49.77777777777773,0)" xlink:href="#ar"/></g><g id="U"><use transform="matrix(0.0555555555555555,0,0,0.0555555555555555,0,0)" xlink:href="#bE"/><use transform="matrix(0.0555555555555555,0,0,0.0555555555555555,16.611111111111093,0)" xlink:href="#av"/><use transform="matrix(0.0555555555555555,0,0,0.0555555555555555,27.722222222222193,0)" xlink:href="#bx"/><use transform="matrix(0.0555555555555555,0,0,0.0555555555555555,38.83333333333329,0)" xlink:href="#ar"/></g><g id="V"><use transform="matrix(0.0555555555555555,0,0,0.0555555555555555,0,0)" xlink:href="#bB"/><use transform="matrix(0.0555555555555555,0,0,0.0555555555555555,12.166666666666654,0)" xlink:href="#aJ"/><use transform="matrix(0.0555555555555555,0,0,0.0555555555555555,23.277777777777754,0)" xlink:href="#at"/><use transform="matrix(0.0555555555555555,0,0,0.0555555555555555,27.666666666666636,0)" xlink:href="#aQ"/><use transform="matrix(0.0555555555555555,0,0,0.0555555555555555,32.05555555555552,0)" xlink:href="#aS"/><use transform="matrix(0.0555555555555555,0,0,0.0555555555555555,43.16666666666662,0)" xlink:href="#aV"/><use transform="matrix(0.0555555555555555,0,0,0.0555555555555555,49.77777777777773,0)" xlink:href="#ar"/></g><g id="W"><use transform="matrix(0.0555555555555555,0,0,0.0555555555555555,0,0)" xlink:href="#aI"/><use transform="matrix(0.0555555555555555,0,0,0.0555555555555555,14.388888888888873,0)" xlink:href="#aJ"/><use transform="matrix(0.0555555555555555,0,0,0.0555555555555555,25.49999999999997,0)" xlink:href="#aS"/><use transform="matrix(0.0555555555555555,0,0,0.0555555555555555,36.61111111111107,0)" xlink:href="#au"/><use transform="matrix(0.0555555555555555,0,0,0.0555555555555555,46.61111111111106,0)" xlink:href="#ar"/></g><g id="X"><use transform="matrix(0.04320987654320985,0,0,0.04320987654320985,0,0)" xlink:href="#be"/><use transform="matrix(0.04320987654320985,0,0,0.04320987654320985,8.641975308641971,0)" xlink:href="#aK"/><use transform="matrix(0.04320987654320985,0,0,0.04320987654320985,17.283950617283942,0)" xlink:href="#aE"/><use transform="matrix(0.04320987654320985,0,0,0.04320987654320985,26.7469135802469,0)" xlink:href="#az"/><use transform="matrix(0.04320987654320985,0,0,0.04320987654320985,35.38888888888887,0)" xlink:href="#ay"/><use transform="matrix(0.04320987654320985,0,0,0.04320987654320985,44.030864197530846,0)" xlink:href="#ax"/></g><path fill="#3a414a" d="M177-190C167-65 218 103 67 71c-23-6-38-20-44-43l32-5c15 47 100 32 89-28v-30C133-14 115 1 83 1 29 1 15-40 15-95c0-56 16-97 71-98 29-1 48 16 59 35 1-10 0-23 2-32h30zM94-22c36 0 50-32 50-73 0-42-14-75-50-75-39 0-46 34-46 75s6 73 46 73" id="bK"/><g id="Y"><use transform="matrix(0.061728395061728336,0,0,0.061728395061728336,0,0)" xlink:href="#bE"/><use transform="matrix(0.061728395061728336,0,0,0.061728395061728336,18.456790123456774,0)" xlink:href="#at"/><use transform="matrix(0.061728395061728336,0,0,0.061728395061728336,23.33333333333331,0)" xlink:href="#aT"/><use transform="matrix(0.061728395061728336,0,0,0.061728395061728336,29.506172839506142,0)" xlink:href="#at"/><use transform="matrix(0.061728395061728336,0,0,0.061728395061728336,34.38271604938268,0)" xlink:href="#bK"/><use transform="matrix(0.061728395061728336,0,0,0.061728395061728336,46.72839506172835,0)" xlink:href="#aJ"/><use transform="matrix(0.061728395061728336,0,0,0.061728395061728336,59.07407407407402,0)" xlink:href="#aT"/><use transform="matrix(0.061728395061728336,0,0,0.061728395061728336,65.24691358024685,0)" xlink:href="#at"/><use transform="matrix(0.061728395061728336,0,0,0.061728395061728336,70.1234567901234,0)" xlink:href="#av"/><use transform="matrix(0.061728395061728336,0,0,0.061728395061728336,82.46913580246907,0)" xlink:href="#aw"/></g><g id="Z"><use transform="matrix(0.04320987654320985,0,0,0.04320987654320985,0,0)" xlink:href="#bv"/><use transform="matrix(0.04320987654320985,0,0,0.04320987654320985,13.827160493827153,0)" xlink:href="#aA"/><use transform="matrix(0.04320987654320985,0,0,0.04320987654320985,18.148148148148138,0)" xlink:href="#aG"/><use transform="matrix(0.04320987654320985,0,0,0.04320987654320985,23.29012345679011,0)" xlink:href="#aA"/><use transform="matrix(0.04320987654320985,0,0,0.04320987654320985,27.6111111111111,0)" xlink:href="#aB"/><use transform="matrix(0.04320987654320985,0,0,0.04320987654320985,37.07407407407406,0)" xlink:href="#aK"/><use transform="matrix(0.04320987654320985,0,0,0.04320987654320985,45.71604938271604,0)" xlink:href="#aG"/><use transform="matrix(0.04320987654320985,0,0,0.04320987654320985,50.858024691358004,0)" xlink:href="#ay"/><use transform="matrix(0.04320987654320985,0,0,0.04320987654320985,59.499999999999986,0)" xlink:href="#ax"/></g><g id="aa"><use transform="matrix(0.055555555555555504,0,0,0.055555555555555504,0,0)" xlink:href="#bC"/><use transform="matrix(0.055555555555555504,0,0,0.055555555555555504,14.388888888888875,0)" xlink:href="#ar"/><use transform="matrix(0.055555555555555504,0,0,0.055555555555555504,25.499999999999975,0)" xlink:href="#bD"/><use transform="matrix(0.055555555555555504,0,0,0.055555555555555504,36.61111111111107,0)" xlink:href="#aS"/><use transform="matrix(0.055555555555555504,0,0,0.055555555555555504,47.72222222222217,0)" xlink:href="#at"/><use transform="matrix(0.055555555555555504,0,0,0.055555555555555504,52.11111111111106,0)" xlink:href="#aV"/><use transform="matrix(0.055555555555555504,0,0,0.055555555555555504,58.722222222222165,0)" xlink:href="#ar"/><use transform="matrix(0.055555555555555504,0,0,0.055555555555555504,69.83333333333326,0)" xlink:href="#by"/><use transform="matrix(0.055555555555555504,0,0,0.055555555555555504,86.44444444444436,0)" xlink:href="#ar"/><use transform="matrix(0.055555555555555504,0,0,0.055555555555555504,97.55555555555546,0)" xlink:href="#aw"/><use transform="matrix(0.055555555555555504,0,0,0.055555555555555504,108.66666666666656,0)" xlink:href="#aT"/></g><g id="ab"><use transform="matrix(0.055555555555555504,0,0,0.055555555555555504,0,0)" xlink:href="#aX"/><use transform="matrix(0.055555555555555504,0,0,0.055555555555555504,6.611111111111105,0)" xlink:href="#bB"/><use transform="matrix(0.055555555555555504,0,0,0.055555555555555504,18.77777777777776,0)" xlink:href="#bC"/><use transform="matrix(0.055555555555555504,0,0,0.055555555555555504,33.166666666666636,0)" xlink:href="#bb"/></g><path fill="#3a414a" d="M137 0h-34L2-248h35l83 218 83-218h36" id="bL"/><g id="ac"><use transform="matrix(0.0555555555555555,0,0,0.0555555555555555,0,0)" xlink:href="#bL"/><use transform="matrix(0.0555555555555555,0,0,0.0555555555555555,12.22222222222221,0)" xlink:href="#ar"/><use transform="matrix(0.0555555555555555,0,0,0.0555555555555555,23.33333333333331,0)" xlink:href="#aV"/><use transform="matrix(0.0555555555555555,0,0,0.0555555555555555,29.944444444444414,0)" xlink:href="#at"/><use transform="matrix(0.0555555555555555,0,0,0.0555555555555555,34.3333333333333,0)" xlink:href="#bJ"/><use transform="matrix(0.0555555555555555,0,0,0.0555555555555555,39.88888888888885,0)" xlink:href="#at"/><use transform="matrix(0.0555555555555555,0,0,0.0555555555555555,44.277777777777736,0)" xlink:href="#as"/><use transform="matrix(0.0555555555555555,0,0,0.0555555555555555,54.27777777777773,0)" xlink:href="#aJ"/><use transform="matrix(0.0555555555555555,0,0,0.0555555555555555,65.38888888888883,0)" xlink:href="#aT"/><use transform="matrix(0.0555555555555555,0,0,0.0555555555555555,70.94444444444437,0)" xlink:href="#at"/><use transform="matrix(0.0555555555555555,0,0,0.0555555555555555,75.33333333333326,0)" xlink:href="#av"/><use transform="matrix(0.0555555555555555,0,0,0.0555555555555555,86.44444444444436,0)" xlink:href="#aw"/></g><g id="ad"><use transform="matrix(0.0555555555555555,0,0,0.0555555555555555,0,0)" xlink:href="#bC"/><use transform="matrix(0.0555555555555555,0,0,0.0555555555555555,14.388888888888873,0)" xlink:href="#ar"/><use transform="matrix(0.0555555555555555,0,0,0.0555555555555555,25.49999999999997,0)" xlink:href="#bD"/><use transform="matrix(0.0555555555555555,0,0,0.0555555555555555,36.61111111111107,0)" xlink:href="#aS"/><use transform="matrix(0.0555555555555555,0,0,0.0555555555555555,47.72222222222217,0)" xlink:href="#at"/><use transform="matrix(0.0555555555555555,0,0,0.0555555555555555,52.11111111111106,0)" xlink:href="#aV"/><use transform="matrix(0.0555555555555555,0,0,0.0555555555555555,58.72222222222216,0)" xlink:href="#ar"/><use transform="matrix(0.0555555555555555,0,0,0.0555555555555555,69.83333333333326,0)" xlink:href="#by"/><use transform="matrix(0.0555555555555555,0,0,0.0555555555555555,86.44444444444434,0)" xlink:href="#ar"/><use transform="matrix(0.0555555555555555,0,0,0.0555555555555555,97.55555555555544,0)" xlink:href="#aw"/><use transform="matrix(0.0555555555555555,0,0,0.0555555555555555,108.66666666666654,0)" xlink:href="#aT"/></g><path fill="#333" d="M128 0H69L1-190h53L99-40l48-150h52" id="bM"/><g id="ae"><use transform="matrix(0.04320987654320985,0,0,0.04320987654320985,0,0)" xlink:href="#bM"/><use transform="matrix(0.04320987654320985,0,0,0.04320987654320985,8.641975308641971,0)" xlink:href="#ay"/><use transform="matrix(0.04320987654320985,0,0,0.04320987654320985,17.283950617283942,0)" xlink:href="#aD"/><use transform="matrix(0.04320987654320985,0,0,0.04320987654320985,23.33333333333332,0)" xlink:href="#aA"/><use transform="matrix(0.04320987654320985,0,0,0.04320987654320985,27.654320987654312,0)" xlink:href="#bh"/><use transform="matrix(0.04320987654320985,0,0,0.04320987654320985,32.79629629629628,0)" xlink:href="#aA"/><use transform="matrix(0.04320987654320985,0,0,0.04320987654320985,37.11728395061727,0)" xlink:href="#ay"/><use transform="matrix(0.04320987654320985,0,0,0.04320987654320985,45.75925925925924,0)" xlink:href="#ax"/></g><g id="af"><use transform="matrix(0.04320987654320985,0,0,0.04320987654320985,0,0)" xlink:href="#bM"/><use transform="matrix(0.04320987654320985,0,0,0.04320987654320985,8.641975308641971,0)" xlink:href="#ay"/><use transform="matrix(0.04320987654320985,0,0,0.04320987654320985,17.283950617283942,0)" xlink:href="#aD"/><use transform="matrix(0.04320987654320985,0,0,0.04320987654320985,23.33333333333332,0)" xlink:href="#aA"/><use transform="matrix(0.04320987654320985,0,0,0.04320987654320985,27.654320987654312,0)" xlink:href="#bh"/><use transform="matrix(0.04320987654320985,0,0,0.04320987654320985,32.79629629629628,0)" xlink:href="#aA"/><use transform="matrix(0.04320987654320985,0,0,0.04320987654320985,37.11728395061727,0)" xlink:href="#ay"/><use transform="matrix(0.04320987654320985,0,0,0.04320987654320985,45.75925925925924,0)" xlink:href="#ax"/></g><g id="ag"><use transform="matrix(0.04320987654320985,0,0,0.04320987654320985,0,0)" xlink:href="#aL"/><use transform="matrix(0.04320987654320985,0,0,0.04320987654320985,9.462962962962958,0)" xlink:href="#bc"/></g><path fill="#3a414a" d="M30 0v-248h187v28H63v79h144v27H63v87h162V0H30" id="bN"/><g id="ah"><use transform="matrix(0.0555555555555555,0,0,0.0555555555555555,0,0)" xlink:href="#bN"/><use transform="matrix(0.0555555555555555,0,0,0.0555555555555555,13.33333333333332,0)" xlink:href="#aW"/><use transform="matrix(0.0555555555555555,0,0,0.0555555555555555,23.333333333333307,0)" xlink:href="#ar"/><use transform="matrix(0.0555555555555555,0,0,0.0555555555555555,34.44444444444441,0)" xlink:href="#aw"/><use transform="matrix(0.0555555555555555,0,0,0.0555555555555555,45.55555555555551,0)" xlink:href="#aT"/></g><g id="ai"><use transform="matrix(0.0555555555555555,0,0,0.0555555555555555,0,0)" xlink:href="#ba"/><use transform="matrix(0.0555555555555555,0,0,0.0555555555555555,9.944444444444434,0)" xlink:href="#ar"/><use transform="matrix(0.0555555555555555,0,0,0.0555555555555555,21.055555555555536,0)" xlink:href="#au"/><use transform="matrix(0.0555555555555555,0,0,0.0555555555555555,31.05555555555552,0)" xlink:href="#aT"/></g><g id="aj"><use transform="matrix(0.0555555555555555,0,0,0.0555555555555555,0,0)" xlink:href="#aI"/><use transform="matrix(0.0555555555555555,0,0,0.0555555555555555,14.388888888888873,0)" xlink:href="#av"/><use transform="matrix(0.0555555555555555,0,0,0.0555555555555555,25.49999999999997,0)" xlink:href="#aw"/><use transform="matrix(0.0555555555555555,0,0,0.0555555555555555,36.61111111111107,0)" xlink:href="#bJ"/><use transform="matrix(0.0555555555555555,0,0,0.0555555555555555,42.16666666666662,0)" xlink:href="#at"/><use transform="matrix(0.0555555555555555,0,0,0.0555555555555555,46.55555555555551,0)" xlink:href="#bK"/><use transform="matrix(0.0555555555555555,0,0,0.0555555555555555,57.66666666666661,0)" xlink:href="#aS"/><use transform="matrix(0.0555555555555555,0,0,0.0555555555555555,68.77777777777771,0)" xlink:href="#aV"/><use transform="matrix(0.0555555555555555,0,0,0.0555555555555555,75.38888888888881,0)" xlink:href="#aJ"/><use transform="matrix(0.0555555555555555,0,0,0.0555555555555555,86.49999999999991,0)" xlink:href="#aT"/><use transform="matrix(0.0555555555555555,0,0,0.0555555555555555,92.05555555555546,0)" xlink:href="#at"/><use transform="matrix(0.0555555555555555,0,0,0.0555555555555555,96.44444444444434,0)" xlink:href="#av"/><use transform="matrix(0.0555555555555555,0,0,0.0555555555555555,107.55555555555544,0)" xlink:href="#aw"/></g><g id="ak"><use transform="matrix(0.0555555555555555,0,0,0.0555555555555555,0,0)" xlink:href="#aN"/><use transform="matrix(0.0555555555555555,0,0,0.0555555555555555,13.33333333333332,0)" xlink:href="#aV"/><use transform="matrix(0.0555555555555555,0,0,0.0555555555555555,19.944444444444425,0)" xlink:href="#av"/><use transform="matrix(0.0555555555555555,0,0,0.0555555555555555,31.05555555555552,0)" xlink:href="#as"/><use transform="matrix(0.0555555555555555,0,0,0.0555555555555555,41.055555555555515,0)" xlink:href="#ar"/><use transform="matrix(0.0555555555555555,0,0,0.0555555555555555,52.166666666666615,0)" xlink:href="#bx"/><use transform="matrix(0.0555555555555555,0,0,0.0555555555555555,63.27777777777771,0)" xlink:href="#aS"/><use transform="matrix(0.0555555555555555,0,0,0.0555555555555555,74.38888888888881,0)" xlink:href="#aV"/><use transform="matrix(0.0555555555555555,0,0,0.0555555555555555,80.99999999999991,0)" xlink:href="#ar"/></g><g id="al"><use transform="matrix(0.04320987654320985,0,0,0.04320987654320985,0,0)" xlink:href="#ay"/><use transform="matrix(0.04320987654320985,0,0,0.04320987654320985,8.641975308641971,0)" xlink:href="#bv"/><use transform="matrix(0.04320987654320985,0,0,0.04320987654320985,22.469135802469125,0)" xlink:href="#bA"/><use transform="matrix(0.04320987654320985,0,0,0.04320987654320985,31.93209876543208,0)" xlink:href="#aF"/><use transform="matrix(0.04320987654320985,0,0,0.04320987654320985,36.25308641975307,0)" xlink:href="#aM"/><use transform="matrix(0.04320987654320985,0,0,0.04320987654320985,45.71604938271602,0)" xlink:href="#bc"/><use transform="matrix(0.04320987654320985,0,0,0.04320987654320985,54.358024691358,0)" xlink:href="#az"/></g><g id="am"><use transform="matrix(0.04320987654320985,0,0,0.04320987654320985,0,0)" xlink:href="#aA"/><use transform="matrix(0.04320987654320985,0,0,0.04320987654320985,4.3209876543209855,0)" xlink:href="#bv"/><use transform="matrix(0.04320987654320985,0,0,0.04320987654320985,18.148148148148138,0)" xlink:href="#bA"/><use transform="matrix(0.04320987654320985,0,0,0.04320987654320985,27.611111111111097,0)" xlink:href="#aK"/><use transform="matrix(0.04320987654320985,0,0,0.04320987654320985,36.25308641975307,0)" xlink:href="#be"/><use transform="matrix(0.04320987654320985,0,0,0.04320987654320985,44.895061728395035,0)" xlink:href="#aG"/><use transform="matrix(0.04320987654320985,0,0,0.04320987654320985,50.03703703703701,0)" xlink:href="#az"/></g><g id="an"><use transform="matrix(0.04320987654320985,0,0,0.04320987654320985,0,0)" xlink:href="#be"/><use transform="matrix(0.04320987654320985,0,0,0.04320987654320985,8.641975308641971,0)" xlink:href="#aM"/><use transform="matrix(0.04320987654320985,0,0,0.04320987654320985,18.10493827160493,0)" xlink:href="#aC"/><use transform="matrix(0.04320987654320985,0,0,0.04320987654320985,27.567901234567888,0)" xlink:href="#az"/><use transform="matrix(0.04320987654320985,0,0,0.04320987654320985,36.20987654320986,0)" xlink:href="#aG"/><use transform="matrix(0.04320987654320985,0,0,0.04320987654320985,41.35185185185183,0)" xlink:href="#aD"/><use transform="matrix(0.04320987654320985,0,0,0.04320987654320985,47.401234567901206,0)" xlink:href="#aK"/><use transform="matrix(0.04320987654320985,0,0,0.04320987654320985,56.04320987654319,0)" xlink:href="#aA"/><use transform="matrix(0.04320987654320985,0,0,0.04320987654320985,60.364197530864175,0)" xlink:href="#aC"/><use transform="matrix(0.04320987654320985,0,0,0.04320987654320985,69.82716049382714,0)" xlink:href="#az"/></g><g id="ao"><use transform="matrix(0.04320987654320985,0,0,0.04320987654320985,0,0)" xlink:href="#ay"/><use transform="matrix(0.04320987654320985,0,0,0.04320987654320985,8.641975308641971,0)" xlink:href="#bM"/><use transform="matrix(0.04320987654320985,0,0,0.04320987654320985,17.283950617283942,0)" xlink:href="#aK"/><use transform="matrix(0.04320987654320985,0,0,0.04320987654320985,25.925925925925913,0)" xlink:href="#aF"/><use transform="matrix(0.04320987654320985,0,0,0.04320987654320985,30.246913580246897,0)" xlink:href="#aE"/><use transform="matrix(0.04320987654320985,0,0,0.04320987654320985,39.70987654320986,0)" xlink:href="#aK"/><use transform="matrix(0.04320987654320985,0,0,0.04320987654320985,48.35185185185183,0)" xlink:href="#aG"/><use transform="matrix(0.04320987654320985,0,0,0.04320987654320985,53.49382716049381,0)" xlink:href="#ay"/><use transform="matrix(0.04320987654320985,0,0,0.04320987654320985,62.135802469135776,0)" xlink:href="#ax"/></g><g id="ap"><use transform="matrix(0.04320987654320985,0,0,0.04320987654320985,0,0)" xlink:href="#aL"/><use transform="matrix(0.04320987654320985,0,0,0.04320987654320985,9.462962962962958,0)" xlink:href="#bc"/></g></defs></g></svg>