<svg xmlns="http://www.w3.org/2000/svg" xmlns:xlink="http://www.w3.org/1999/xlink" xmlns:lucid="lucid" width="1474.8" height="865.23"><g transform="translate(-1929.6871763579463 -26105.25406414045)" lucid:page-tab-id="YDyKk7ZmHaDl"><path d="M1933.2 26801.5a6 6 0 0 1 6-6H3395a6 6 0 0 1 6 6v159.5a6 6 0 0 1-6 6H1939.2a6 6 0 0 1-6-6z" stroke="#000" stroke-width="2" fill="#979ea8" fill-opacity=".32"/><path d="M1933.2 26212.75a12 12 0 0 1 12-12H3389a12 12 0 0 1 12 12V26955a12 12 0 0 1-12 12H1945.2a12 12 0 0 1-12-12z" stroke="#3a414a" stroke-width="7" fill-opacity="0"/><path d="M1933.2 26120.75a12 12 0 0 1 12-12h210a12 12 0 0 1 12 12v56a12 12 0 0 1-12 12h-210a12 12 0 0 1-12-12z" stroke="#3a414a" stroke-width="7" fill="#3a414a"/><use xlink:href="#a" transform="matrix(1,0,0,1,1949.1871763579463,26129.554064140448) translate(0 32)"/><use xlink:href="#b" transform="matrix(1,0,0,1,1949.1871763579463,26129.554064140448) translate(146.44444444444446 32)"/><path d="M1958.4 26229.05a6 6 0 0 1 6-6h625.8a6 6 0 0 1 6 6v62.53a6 6 0 0 1-6 6h-625.8a6 6 0 0 1-6-6z" stroke="#3a414a" stroke-width="3" fill="#fff7a1"/><path d="M2614.2 26223.05c0 9.94-8.06 18-18 18s-18-8.06-18-18 8.06-18 18-18 18 8.06 18 18z" fill="#4d9eff"/><path d="M2598.2 26229.05v-9h-6v4h2v5h-2v3h8v-3h-2zm-2.88-15h1.75c.62 0 1.13.5 1.13 1.12v1.75c0 .62-.5 1.13-1.13 1.13h-1.75c-.62 0-1.12-.5-1.12-1.13v-1.75c0-.62.5-1.12 1.12-1.12z" fill="#fff"/><use xlink:href="#c" transform="matrix(1,0,0,1,1963.4121496749874,26228.04590009173) translate(0 37.83723958333333)"/><use xlink:href="#d" transform="matrix(1,0,0,1,1963.4121496749874,26228.04590009173) translate(69.55555555555553 37.83723958333333)"/><use xlink:href="#e" transform="matrix(1,0,0,1,1963.4121496749874,26228.04590009173) translate(106.59259259259255 37.83723958333333)"/><use xlink:href="#f" transform="matrix(1,0,0,1,1963.4121496749874,26228.04590009173) translate(156.9629629629629 37.83723958333333)"/><use xlink:href="#g" transform="matrix(1,0,0,1,1963.4121496749874,26228.04590009173) translate(248.5925925925925 37.83723958333333)"/><use xlink:href="#h" transform="matrix(1,0,0,1,1963.4121496749874,26228.04590009173) translate(322.6666666666665 37.83723958333333)"/><use xlink:href="#i" transform="matrix(1,0,0,1,1963.4121496749874,26228.04590009173) translate(367.1111111111109 37.83723958333333)"/><use xlink:href="#j" transform="matrix(1,0,0,1,1963.4121496749874,26228.04590009173) translate(470.5925925925924 37.83723958333333)"/><use xlink:href="#k" transform="matrix(1,0,0,1,1963.4121496749874,26228.04590009173) translate(501.6296296296294 37.83723958333333)"/><path d="M1983.24 26818.25a6 6 0 0 1 6-6h148a6 6 0 0 1 6 6v126a6 6 0 0 1-6 6h-148a6 6 0 0 1-6-6z" stroke="#3a414a" stroke-width="3" fill="#ff8f8f"/><use xlink:href="#l" transform="matrix(1,0,0,1,1988.2400973058075,26817.246916373206) translate(43.18518518518521 69.33333333333331)"/><path d="M1975.4 26546.75a6 6 0 0 1 6-6h153.17a6 6 0 0 1 6 6v55.08a6 6 0 0 1-6 6H1981.4a6 6 0 0 1-6-6z" stroke="#3a414a" fill="#ff8f8f"/><use xlink:href="#m" transform="matrix(1,0,0,1,1980.4038766991016,26545.75005486756) translate(61.000000000000014 21.786458333333314)"/><use xlink:href="#n" transform="matrix(1,0,0,1,1980.4038766991016,26545.75005486756) translate(1.7777777777778283 53.786458333333286)"/><path d="M1978 26439.88a6 6 0 0 1 6-6h148a6 6 0 0 1 6 6v56.8a6 6 0 0 1-6 6h-148a6 6 0 0 1-6-6z" stroke="#3a414a" fill="#ff8f8f"/><use xlink:href="#o" transform="matrix(1,0,0,1,1982.9857663957487,26438.882376028523) translate(30.555555555555593 21.794270833333314)"/><use xlink:href="#p" transform="matrix(1,0,0,1,1982.9857663957487,26438.882376028523) translate(97.2222222222222 21.794270833333314)"/><use xlink:href="#q" transform="matrix(1,0,0,1,1982.9857663957487,26438.882376028523) translate(43.18518518518521 53.794270833333286)"/><path d="M1978 26334.95a6 6 0 0 1 6-6h148a6 6 0 0 1 6 6v55.08a6 6 0 0 1-6 6h-148a6 6 0 0 1-6-6z" stroke="#3a414a" fill="#ff8f8f"/><use xlink:href="#o" transform="matrix(1,0,0,1,1982.9857663957487,26333.948471429918) translate(30.555555555555593 21.786458333333314)"/><use xlink:href="#p" transform="matrix(1,0,0,1,1982.9857663957487,26333.948471429918) translate(97.2222222222222 21.786458333333314)"/><use xlink:href="#r" transform="matrix(1,0,0,1,1982.9857663957487,26333.948471429918) translate(41.03703703703707 53.786458333333286)"/><path d="M2185.24 26818.25a6 6 0 0 1 6-6h148a6 6 0 0 1 6 6v126a6 6 0 0 1-6 6h-148a6 6 0 0 1-6-6z" stroke="#3a414a" stroke-width="3" fill="#54c35e"/><use xlink:href="#s" transform="matrix(1,0,0,1,2190.2400973058075,26817.246916373206) translate(13.629629629629676 37.33333333333336)"/><use xlink:href="#t" transform="matrix(1,0,0,1,2190.2400973058075,26817.246916373206) translate(-1.1481481481480813 69.33333333333333)"/><use xlink:href="#u" transform="matrix(1,0,0,1,2190.2400973058075,26817.246916373206) translate(48.4814814814815 101.3333333333333)"/><path d="M2185.24 26639.73a6 6 0 0 1 6-6h148a6 6 0 0 1 6 6v126a6 6 0 0 1-6 6h-148a6 6 0 0 1-6-6z" stroke="#3a414a" fill="#54c35e"/><use xlink:href="#v" transform="matrix(1,0,0,1,2190.2400973058075,26638.72585578632) translate(10.592592592592638 21.833333333333314)"/><use xlink:href="#p" transform="matrix(1,0,0,1,2190.2400973058075,26638.72585578632) translate(117.18518518518515 21.833333333333314)"/><use xlink:href="#w" transform="matrix(1,0,0,1,2190.2400973058075,26638.72585578632) translate(14.407407407407462 53.833333333333286)"/><use xlink:href="#x" transform="matrix(1,0,0,1,2190.2400973058075,26638.72585578632) translate(0.29629629629636156 85.83333333333326)"/><use xlink:href="#y" transform="matrix(1,0,0,1,2190.2400973058075,26638.72585578632) translate(72.74074074074075 85.83333333333326)"/><use xlink:href="#z" transform="matrix(1,0,0,1,2190.2400973058075,26638.72585578632) translate(32.814814814814845 117.83333333333323)"/><path d="M2185.24 26333.46a6 6 0 0 1 6-6h148a6 6 0 0 1 6 6v67.76a6 6 0 0 1-6 6h-148a6 6 0 0 1-6-6z" stroke="#3a414a" fill="#54c35e"/><use xlink:href="#A" transform="matrix(1,0,0,1,2190.2400973058075,26332.464292261026) translate(4.074074074074133 24.341145833333314)"/><use xlink:href="#B" transform="matrix(1,0,0,1,2190.2400973058075,26332.464292261026) translate(80.88888888888889 24.341145833333314)"/><use xlink:href="#C" transform="matrix(1,0,0,1,2190.2400973058075,26332.464292261026) translate(18.03703703703708 56.341145833333286)"/><use xlink:href="#D" transform="matrix(1,0,0,1,2190.2400973058075,26332.464292261026) translate(68.33333333333334 56.341145833333286)"/><path d="M2185.24 26436.28a6 6 0 0 1 6-6h148a6 6 0 0 1 6 6v58.93a6 6 0 0 1-6 6h-148a6 6 0 0 1-6-6z" stroke="#3a414a" fill="#54c35e"/><use xlink:href="#E" transform="matrix(1,0,0,1,2190.2400973058075,26435.276210136388) translate(18.77777777777782 21.809895833333314)"/><use xlink:href="#B" transform="matrix(1,0,0,1,2190.2400973058075,26435.276210136388) translate(66.18518518518519 21.809895833333314)"/><use xlink:href="#F" transform="matrix(1,0,0,1,2190.2400973058075,26435.276210136388) translate(3.2592592592593093 53.809895833333286)"/><path d="M2185.24 26541.42a6 6 0 0 1 6-6h148a6 6 0 0 1 6 6v58.93a6 6 0 0 1-6 6h-148a6 6 0 0 1-6-6z" stroke="#3a414a" fill="#54c35e"/><use xlink:href="#E" transform="matrix(1,0,0,1,2190.2400973058075,26540.41962787333) translate(1.037037037037095 21.809895833333314)"/><use xlink:href="#G" transform="matrix(1,0,0,1,2190.2400973058075,26540.41962787333) translate(48.44444444444447 21.809895833333314)"/><use xlink:href="#H" transform="matrix(1,0,0,1,2190.2400973058075,26540.41962787333) translate(103.1111111111111 21.809895833333314)"/><use xlink:href="#F" transform="matrix(1,0,0,1,2190.2400973058075,26540.41962787333) translate(3.2592592592593093 53.809895833333286)"/><path d="M2387.24 26818.25a6 6 0 0 1 6-6h148a6 6 0 0 1 6 6v126a6 6 0 0 1-6 6h-148a6 6 0 0 1-6-6z" stroke="#3a414a" stroke-width="3" fill="#6db1ff"/><use xlink:href="#s" transform="matrix(1,0,0,1,2392.2400973058075,26817.246916373206) translate(13.629629629629676 21.33333333333337)"/><use xlink:href="#t" transform="matrix(1,0,0,1,2392.2400973058075,26817.246916373206) translate(-1.1481481481480813 53.33333333333334)"/><use xlink:href="#I" transform="matrix(1,0,0,1,2392.2400973058075,26817.246916373206) translate(23.222222222222257 85.33333333333331)"/><use xlink:href="#J" transform="matrix(1,0,0,1,2392.2400973058075,26817.246916373206) translate(37.40740740740743 117.33333333333329)"/><path d="M2387.24 26333.46a6 6 0 0 1 6-6h148a6 6 0 0 1 6 6v158a6 6 0 0 1-6 6h-148a6 6 0 0 1-6-6z" stroke="#3a414a" fill="#6db1ff"/><g><use xlink:href="#K" transform="matrix(1,0,0,1,2392.2400973058075,26332.464292261026) translate(22.592592592592638 21.645833333333314)"/><use xlink:href="#L" transform="matrix(1,0,0,1,2392.2400973058075,26332.464292261026) translate(35.07407407407411 53.645833333333286)"/><use xlink:href="#p" transform="matrix(1,0,0,1,2392.2400973058075,26332.464292261026) translate(92.7037037037037 53.645833333333286)"/><use xlink:href="#M" transform="matrix(1,0,0,1,2392.2400973058075,26332.464292261026) translate(29.111111111111143 85.64583333333326)"/><use xlink:href="#N" transform="matrix(1,0,0,1,2392.2400973058075,26332.464292261026) translate(31.37037037037041 117.64583333333323)"/><use xlink:href="#x" transform="matrix(1,0,0,1,2392.2400973058075,26332.464292261026) translate(9.185185185185233 149.6458333333332)"/><use xlink:href="#O" transform="matrix(1,0,0,1,2392.2400973058075,26332.464292261026) translate(81.62962962962962 149.6458333333332)"/></g><path d="M2589.24 26818.25a6 6 0 0 1 6-6h148a6 6 0 0 1 6 6v126a6 6 0 0 1-6 6h-148a6 6 0 0 1-6-6z" stroke="#3a414a" stroke-width="3" fill="#ffe342"/><g><use xlink:href="#P" transform="matrix(1,0,0,1,2594.2400973058075,26817.246916373206) translate(25.444444444444485 21.833333333333314)"/><use xlink:href="#Q" transform="matrix(1,0,0,1,2594.2400973058075,26817.246916373206) translate(26.925925925925966 53.833333333333286)"/><use xlink:href="#R" transform="matrix(1,0,0,1,2594.2400973058075,26817.246916373206) translate(12.14814814814818 85.83333333333326)"/><use xlink:href="#S" transform="matrix(1,0,0,1,2594.2400973058075,26817.246916373206) translate(20.59259259259263 117.83333333333323)"/></g><path d="M2589.24 26333.46a6 6 0 0 1 6-6h144.42a6 6 0 0 1 6 6v51.28a6 6 0 0 1-6 6h-144.42a6 6 0 0 1-6-6z" stroke="#3a414a" fill="#ffe342"/><g><use xlink:href="#T" transform="matrix(1,0,0,1,2594.240097305808,26332.464292261026) translate(2.4629629629630188 32.302083333333314)"/><use xlink:href="#U" transform="matrix(1,0,0,1,2594.240097305808,26332.464292261026) translate(60.24074074074075 32.302083333333314)"/></g><path d="M2589.24 26413.22a6 6 0 0 1 6-6h144.42a6 6 0 0 1 6 6v52.66a6 6 0 0 1-6 6h-144.42a6 6 0 0 1-6-6z" stroke="#3a414a" fill="#ffe342"/><g><use xlink:href="#V" transform="matrix(1,0,0,1,2594.2400973058075,26412.22024643294) translate(49.12962962962965 21.763020833333314)"/><use xlink:href="#W" transform="matrix(1,0,0,1,2594.2400973058075,26412.22024643294) translate(24.685185185185226 53.763020833333286)"/></g><path d="M2589.24 26500.45a6 6 0 0 1 6-6h144.42a6 6 0 0 1 6 6v60.1a6 6 0 0 1-6 6h-144.42a6 6 0 0 1-6-6z" stroke="#3a414a" fill="#ffe342"/><g><use xlink:href="#X" transform="matrix(1,0,0,1,2594.240097305808,26499.447298135572) translate(12.129629629629676 21.825520833333314)"/><use xlink:href="#Y" transform="matrix(1,0,0,1,2594.240097305808,26499.447298135572) translate(41.68518518518521 53.825520833333286)"/></g><path d="M2791.24 26818.25a6 6 0 0 1 6-6h148a6 6 0 0 1 6 6v126a6 6 0 0 1-6 6h-148a6 6 0 0 1-6-6z" stroke="#3a414a" stroke-width="3" fill="red"/><g><use xlink:href="#Z" transform="matrix(1,0,0,1,2796.2400973058075,26817.246916373206) translate(34.40740740740745 53.333333333333314)"/><use xlink:href="#aa" transform="matrix(1,0,0,1,2796.2400973058075,26817.246916373206) translate(41.70370370370373 85.33333333333329)"/></g><path d="M2791.24 26335.53a6 6 0 0 1 6-6h141.95a6 6 0 0 1 6 6v66.6a6 6 0 0 1-6 6h-141.96a6 6 0 0 1-6-6z" stroke="#3a414a" fill="red"/><g><use xlink:href="#ab" transform="matrix(1,0,0,1,2796.2400973058075,26334.532128585786) translate(31.296296296296326 23.759114583333314)"/><use xlink:href="#ac" transform="matrix(1,0,0,1,2796.2400973058075,26334.532128585786) translate(40.92592592592595 55.759114583333286)"/></g><path d="M2791.24 26431.85a6 6 0 0 1 6-6h141.95a6 6 0 0 1 6 6v154.57a6 6 0 0 1-6 6h-141.96a6 6 0 0 1-6-6z" stroke="#3a414a" fill="red"/><g><use xlink:href="#ab" transform="matrix(1,0,0,1,2796.2400973058075,26430.846225974063) translate(31.296296296296326 21.639973958333314)"/><use xlink:href="#ad" transform="matrix(1,0,0,1,2796.2400973058075,26430.846225974063) translate(20.88888888888893 53.639973958333286)"/><use xlink:href="#ae" transform="matrix(1,0,0,1,2796.2400973058075,26430.846225974063) translate(86.07407407407406 53.639973958333286)"/><use xlink:href="#af" transform="matrix(1,0,0,1,2796.2400973058075,26430.846225974063) translate(10.518518518518569 85.63997395833326)"/><use xlink:href="#p" transform="matrix(1,0,0,1,2796.2400973058075,26430.846225974063) translate(111.25925925925924 85.63997395833326)"/><use xlink:href="#B" transform="matrix(1,0,0,1,2796.2400973058075,26430.846225974063) translate(39.48148148148151 117.63997395833323)"/><use xlink:href="#ag" transform="matrix(1,0,0,1,2796.2400973058075,26430.846225974063) translate(33.51851851851855 149.6399739583332)"/></g><path d="M2791.24 26616.14a6 6 0 0 1 6-6h141.95a6 6 0 0 1 6 6v158a6 6 0 0 1-6 6h-141.96a6 6 0 0 1-6-6z" stroke="#3a414a" fill="red"/><g><use xlink:href="#ab" transform="matrix(1,0,0,1,2796.2400973058075,26615.142695776187) translate(31.296296296296326 21.645833333333314)"/><use xlink:href="#ad" transform="matrix(1,0,0,1,2796.2400973058075,26615.142695776187) translate(20.88888888888893 53.645833333333286)"/><use xlink:href="#ae" transform="matrix(1,0,0,1,2796.2400973058075,26615.142695776187) translate(86.07407407407406 53.645833333333286)"/><use xlink:href="#ah" transform="matrix(1,0,0,1,2796.2400973058075,26615.142695776187) translate(0.29629629629634735 85.64583333333326)"/><use xlink:href="#ai" transform="matrix(1,0,0,1,2796.2400973058075,26615.142695776187) translate(123.037037037037 85.64583333333326)"/><use xlink:href="#aj" transform="matrix(1,0,0,1,2796.2400973058075,26615.142695776187) translate(10.592592592592645 117.64583333333323)"/><use xlink:href="#ak" transform="matrix(1,0,0,1,2796.2400973058075,26615.142695776187) translate(48.33333333333336 149.6458333333332)"/></g><path d="M2993.24 26818.25a6 6 0 0 1 6-6h148a6 6 0 0 1 6 6v126a6 6 0 0 1-6 6h-148a6 6 0 0 1-6-6z" stroke="#3a414a" stroke-width="3" fill="#ff8c00"/><g><use xlink:href="#Z" transform="matrix(1,0,0,1,2998.2400973058075,26817.246916373206) translate(34.40740740740745 53.333333333333314)"/><use xlink:href="#al" transform="matrix(1,0,0,1,2998.2400973058075,26817.246916373206) translate(36.51851851851855 85.33333333333329)"/></g><path d="M2993.24 26333.46a6 6 0 0 1 6-6h148a6 6 0 0 1 6 6v90.82a6 6 0 0 1-6 6h-148a6 6 0 0 1-6-6z" stroke="#3a414a" fill="#ff8c00"/><g><use xlink:href="#am" transform="matrix(1,0,0,1,2998.2400973058075,26332.464292261026) translate(21.259259259259302 21.696614583333314)"/><use xlink:href="#an" transform="matrix(1,0,0,1,2998.2400973058075,26332.464292261026) translate(91.7037037037037 21.696614583333314)"/><use xlink:href="#ao" transform="matrix(1,0,0,1,2998.2400973058075,26332.464292261026) translate(9.14814814814821 53.696614583333286)"/><use xlink:href="#ap" transform="matrix(1,0,0,1,2998.2400973058075,26332.464292261026) translate(69.74074074074075 53.696614583333286)"/><use xlink:href="#aq" transform="matrix(1,0,0,1,2998.2400973058075,26332.464292261026) translate(53.51851851851853 85.69661458333326)"/></g><path d="M3195.24 26818.25a6 6 0 0 1 6-6h148a6 6 0 0 1 6 6v126a6 6 0 0 1-6 6h-148a6 6 0 0 1-6-6z" stroke="#3a414a" stroke-width="3" fill="#9391ff"/><g><use xlink:href="#ar" transform="matrix(1,0,0,1,3200.2400973058075,26817.246916373206) translate(16.555555555555607 69.33333333333331)"/><use xlink:href="#as" transform="matrix(1,0,0,1,3200.2400973058075,26817.246916373206) translate(71.2962962962963 69.33333333333331)"/></g><path d="M3194.24 26436.28a6 6 0 0 1 6-6h148a6 6 0 0 1 6 6v70.97a6 6 0 0 1-6 6h-148a6 6 0 0 1-6-6z" stroke="#3a414a" fill="#9391ff"/><g><use xlink:href="#at" transform="matrix(1,0,0,1,3199.2400973058075,26435.276210136388) translate(23.703703703703738 25.895833333333314)"/><use xlink:href="#au" transform="matrix(1,0,0,1,3199.2400973058075,26435.276210136388) translate(34.333333333333364 57.895833333333286)"/></g><path d="M3194.24 26334.95a6 6 0 0 1 6-6h148a6 6 0 0 1 6 6v68.6a6 6 0 0 1-6 6h-148a6 6 0 0 1-6-6z" stroke="#3a414a" fill="#9391ff"/><g><use xlink:href="#at" transform="matrix(1,0,0,1,3199.2400973058075,26333.94847142992) translate(24.203703703703738 24.938802083333314)"/><use xlink:href="#av" transform="matrix(1,0,0,1,3199.2400973058075,26333.94847142992) translate(37.01851851851855 56.938802083333286)"/></g><path d="M3194.24 26550.5a6 6 0 0 1 6-6h148a6 6 0 0 1 6 6v70.96a6 6 0 0 1-6 6h-148a6 6 0 0 1-6-6z" stroke="#3a414a" fill="#9391ff"/><g><use xlink:href="#aw" transform="matrix(1,0,0,1,3199.2400973058075,26549.487428608107) translate(5.185185185185233 25.895833333333314)"/><use xlink:href="#ax" transform="matrix(1,0,0,1,3199.2400973058075,26549.487428608107) translate(115.18518518518516 25.895833333333314)"/><use xlink:href="#ay" transform="matrix(1,0,0,1,3199.2400973058075,26549.487428608107) translate(42.44444444444447 57.895833333333286)"/></g><path d="M1944.48 26754.16a6 6 0 0 1 6-6h108.28a6 6 0 0 1 6 6v35.35a6 6 0 0 1-6 6h-108.28a6 6 0 0 1-6-6z" fill="none"/><g><use xlink:href="#az" transform="matrix(1,0,0,1,1949.4834912159608,26753.16229193286) translate(0 24.888888888888893)"/></g><defs><path fill="#fff" d="M30-248c87 1 191-15 191 75 0 78-77 80-158 76V0H30v-248zm33 125c57 0 124 11 124-50 0-59-68-47-124-48v98" id="aA"/><path fill="#fff" d="M141-36C126-15 110 5 73 4 37 3 15-17 15-53c-1-64 63-63 125-63 3-35-9-54-41-54-24 1-41 7-42 31l-33-3c5-37 33-52 76-52 45 0 72 20 72 64v82c-1 20 7 32 28 27v20c-31 9-61-2-59-35zM48-53c0 20 12 33 32 33 41-3 63-29 60-74-43 2-92-5-92 41" id="aB"/><path fill="#fff" d="M114-163C36-179 61-72 57 0H25l-1-190h30c1 12-1 29 2 39 6-27 23-49 58-41v29" id="aC"/><path fill="#fff" d="M143 0L79-87 56-68V0H24v-261h32v163l83-92h37l-77 82L181 0h-38" id="aD"/><path fill="#fff" d="M24-231v-30h32v30H24zM24 0v-190h32V0H24" id="aE"/><path fill="#fff" d="M117-194c89-4 53 116 60 194h-32v-121c0-31-8-49-39-48C34-167 62-67 57 0H25l-1-190h30c1 10-1 24 2 32 11-22 29-35 61-36" id="aF"/><path fill="#fff" d="M177-190C167-65 218 103 67 71c-23-6-38-20-44-43l32-5c15 47 100 32 89-28v-30C133-14 115 1 83 1 29 1 15-40 15-95c0-56 16-97 71-98 29-1 48 16 59 35 1-10 0-23 2-32h30zM94-22c36 0 50-32 50-73 0-42-14-75-50-75-39 0-46 34-46 75s6 73 46 73" id="aG"/><g id="a"><use transform="matrix(0.1111111111111111,0,0,0.1111111111111111,0,0)" xlink:href="#aA"/><use transform="matrix(0.1111111111111111,0,0,0.1111111111111111,26.666666666666664,0)" xlink:href="#aB"/><use transform="matrix(0.1111111111111111,0,0,0.1111111111111111,48.888888888888886,0)" xlink:href="#aC"/><use transform="matrix(0.1111111111111111,0,0,0.1111111111111111,62.11111111111111,0)" xlink:href="#aD"/><use transform="matrix(0.1111111111111111,0,0,0.1111111111111111,82.11111111111111,0)" xlink:href="#aE"/><use transform="matrix(0.1111111111111111,0,0,0.1111111111111111,90.88888888888889,0)" xlink:href="#aF"/><use transform="matrix(0.1111111111111111,0,0,0.1111111111111111,113.11111111111111,0)" xlink:href="#aG"/></g><path fill="#fff" d="M30 0v-248h33v221h125V0H30" id="aH"/><path fill="#fff" d="M100-194c62-1 85 37 85 99 1 63-27 99-86 99S16-35 15-95c0-66 28-99 85-99zM99-20c44 1 53-31 53-75 0-43-8-75-51-75s-53 32-53 75 10 74 51 75" id="aI"/><path fill="#fff" d="M59-47c-2 24 18 29 38 22v24C64 9 27 4 27-40v-127H5v-23h24l9-43h21v43h35v23H59v120" id="aJ"/><g id="b"><use transform="matrix(0.1111111111111111,0,0,0.1111111111111111,0,0)" xlink:href="#aH"/><use transform="matrix(0.1111111111111111,0,0,0.1111111111111111,22.22222222222222,0)" xlink:href="#aI"/><use transform="matrix(0.1111111111111111,0,0,0.1111111111111111,44.44444444444444,0)" xlink:href="#aJ"/></g><path d="M266 0h-40l-56-210L115 0H75L2-248h35L96-30l15-64 43-154h32l59 218 59-218h35" id="aK"/><path d="M106-169C34-169 62-67 57 0H25v-261h32l-1 103c12-21 28-36 61-36 89 0 53 116 60 194h-32v-121c2-32-8-49-39-48" id="aL"/><path d="M141-36C126-15 110 5 73 4 37 3 15-17 15-53c-1-64 63-63 125-63 3-35-9-54-41-54-24 1-41 7-42 31l-33-3c5-37 33-52 76-52 45 0 72 20 72 64v82c-1 20 7 32 28 27v20c-31 9-61-2-59-35zM48-53c0 20 12 33 32 33 41-3 63-29 60-74-43 2-92-5-92 41" id="aM"/><path d="M59-47c-2 24 18 29 38 22v24C64 9 27 4 27-40v-127H5v-23h24l9-43h21v43h35v23H59v120" id="aN"/><g id="c"><use transform="matrix(0.07407407407407404,0,0,0.07407407407407404,0,0)" xlink:href="#aK"/><use transform="matrix(0.07407407407407404,0,0,0.07407407407407404,25.1111111111111,0)" xlink:href="#aL"/><use transform="matrix(0.07407407407407404,0,0,0.07407407407407404,39.92592592592591,0)" xlink:href="#aM"/><use transform="matrix(0.07407407407407404,0,0,0.07407407407407404,54.74074074074072,0)" xlink:href="#aN"/></g><path d="M85-194c31 0 48 13 60 33l-1-100h32l1 261h-30c-2-10 0-23-3-31C134-8 116 4 85 4 32 4 16-35 15-94c0-66 23-100 70-100zm9 24c-40 0-46 34-46 75 0 40 6 74 45 74 42 0 51-32 51-76 0-42-9-74-50-73" id="aO"/><path d="M100-194c62-1 85 37 85 99 1 63-27 99-86 99S16-35 15-95c0-66 28-99 85-99zM99-20c44 1 53-31 53-75 0-43-8-75-51-75s-53 32-53 75 10 74 51 75" id="aP"/><g id="d"><use transform="matrix(0.07407407407407404,0,0,0.07407407407407404,0,0)" xlink:href="#aO"/><use transform="matrix(0.07407407407407404,0,0,0.07407407407407404,14.814814814814808,0)" xlink:href="#aP"/></g><path d="M179-190L93 31C79 59 56 82 12 73V49c39 6 53-20 64-50L1-190h34L92-34l54-156h33" id="aQ"/><path d="M84 4C-5 8 30-112 23-190h32v120c0 31 7 50 39 49 72-2 45-101 50-169h31l1 190h-30c-1-10 1-25-2-33-11 22-28 36-60 37" id="aR"/><g id="e"><use transform="matrix(0.07407407407407404,0,0,0.07407407407407404,0,0)" xlink:href="#aQ"/><use transform="matrix(0.07407407407407404,0,0,0.07407407407407404,13.333333333333327,0)" xlink:href="#aP"/><use transform="matrix(0.07407407407407404,0,0,0.07407407407407404,28.148148148148135,0)" xlink:href="#aR"/></g><path d="M195 0l-88-114-31 24V0H24v-248h52v113l112-113h60L142-143 257 0h-62" id="aS"/><path d="M175 0L67-191c6 58 2 128 3 191H24v-248h59L193-55c-6-58-2-129-3-193h46V0h-61" id="aT"/><path d="M140-251c80 0 125 45 125 126S219 4 139 4C58 4 15-44 15-125s44-126 125-126zm-1 214c52 0 73-35 73-88 0-50-21-86-72-86-52 0-73 35-73 86s22 88 72 88" id="aU"/><path d="M275 0h-61l-44-196L126 0H64L0-248h53L97-49l45-199h58l43 199 44-199h52" id="aV"/><g id="f"><use transform="matrix(0.07407407407407404,0,0,0.07407407407407404,0,0)" xlink:href="#aS"/><use transform="matrix(0.07407407407407404,0,0,0.07407407407407404,19.185185185185176,0)" xlink:href="#aT"/><use transform="matrix(0.07407407407407404,0,0,0.07407407407407404,38.37037037037035,0)" xlink:href="#aU"/><use transform="matrix(0.07407407407407404,0,0,0.07407407407407404,59.111111111111086,0)" xlink:href="#aV"/></g><path d="M115-194c53 0 69 39 70 98 0 66-23 100-70 100C84 3 66-7 56-30L54 0H23l1-261h32v101c10-23 28-34 59-34zm-8 174c40 0 45-34 45-75 0-40-5-75-45-74-42 0-51 32-51 76 0 43 10 73 51 73" id="aW"/><g id="g"><use transform="matrix(0.07407407407407404,0,0,0.07407407407407404,0,0)" xlink:href="#aM"/><use transform="matrix(0.07407407407407404,0,0,0.07407407407407404,14.814814814814808,0)" xlink:href="#aW"/><use transform="matrix(0.07407407407407404,0,0,0.07407407407407404,29.629629629629616,0)" xlink:href="#aP"/><use transform="matrix(0.07407407407407404,0,0,0.07407407407407404,44.44444444444443,0)" xlink:href="#aR"/><use transform="matrix(0.07407407407407404,0,0,0.07407407407407404,59.25925925925923,0)" xlink:href="#aN"/></g><path d="M100-194c63 0 86 42 84 106H49c0 40 14 67 53 68 26 1 43-12 49-29l28 8c-11 28-37 45-77 45C44 4 14-33 15-96c1-61 26-98 85-98zm52 81c6-60-76-77-97-28-3 7-6 17-6 28h103" id="aX"/><g id="h"><use transform="matrix(0.07407407407407404,0,0,0.07407407407407404,0,0)" xlink:href="#aN"/><use transform="matrix(0.07407407407407404,0,0,0.07407407407407404,7.407407407407404,0)" xlink:href="#aL"/><use transform="matrix(0.07407407407407404,0,0,0.07407407407407404,22.222222222222214,0)" xlink:href="#aX"/></g><path d="M115-194c55 1 70 41 70 98S169 2 115 4C84 4 66-9 55-30l1 105H24l-1-265h31l2 30c10-21 28-34 59-34zm-8 174c40 0 45-34 45-75s-6-73-45-74c-42 0-51 32-51 76 0 43 10 73 51 73" id="aY"/><path d="M114-163C36-179 61-72 57 0H25l-1-190h30c1 12-1 29 2 39 6-27 23-49 58-41v29" id="aZ"/><path d="M24 0v-261h32V0H24" id="ba"/><path d="M210-169c-67 3-38 105-44 169h-31v-121c0-29-5-50-35-48C34-165 62-65 56 0H25l-1-190h30c1 10-1 24 2 32 10-44 99-50 107 0 11-21 27-35 58-36 85-2 47 119 55 194h-31v-121c0-29-5-49-35-48" id="bb"/><g id="i"><use transform="matrix(0.07407407407407404,0,0,0.07407407407407404,0,0)" xlink:href="#aY"/><use transform="matrix(0.07407407407407404,0,0,0.07407407407407404,14.814814814814808,0)" xlink:href="#aZ"/><use transform="matrix(0.07407407407407404,0,0,0.07407407407407404,23.62962962962962,0)" xlink:href="#aP"/><use transform="matrix(0.07407407407407404,0,0,0.07407407407407404,38.44444444444443,0)" xlink:href="#aW"/><use transform="matrix(0.07407407407407404,0,0,0.07407407407407404,53.25925925925924,0)" xlink:href="#ba"/><use transform="matrix(0.07407407407407404,0,0,0.07407407407407404,59.111111111111086,0)" xlink:href="#aX"/><use transform="matrix(0.07407407407407404,0,0,0.07407407407407404,73.9259259259259,0)" xlink:href="#bb"/></g><g id="j"><use transform="matrix(0.07407407407407404,0,0,0.07407407407407404,0,0)" xlink:href="#aP"/><use transform="matrix(0.07407407407407404,0,0,0.07407407407407404,14.814814814814808,0)" xlink:href="#aZ"/></g><path d="M135-143c-3-34-86-38-87 0 15 53 115 12 119 90S17 21 10-45l28-5c4 36 97 45 98 0-10-56-113-15-118-90-4-57 82-63 122-42 12 7 21 19 24 35" id="bc"/><path d="M24-231v-30h32v30H24zM24 0v-190h32V0H24" id="bd"/><path d="M117-194c89-4 53 116 60 194h-32v-121c0-31-8-49-39-48C34-167 62-67 57 0H25l-1-190h30c1 10-1 24 2 32 11-22 29-35 61-36" id="be"/><path d="M103-251c84 0 111 97 45 133-19 10-37 24-39 52H78c0-63 77-55 77-114 0-30-21-42-52-43-32 0-53 17-56 46l-32-2c7-45 34-72 88-72zM77 0v-35h34V0H77" id="bf"/><g id="k"><use transform="matrix(0.07407407407407404,0,0,0.07407407407407404,0,0)" xlink:href="#bc"/><use transform="matrix(0.07407407407407404,0,0,0.07407407407407404,13.333333333333327,0)" xlink:href="#aP"/><use transform="matrix(0.07407407407407404,0,0,0.07407407407407404,28.148148148148135,0)" xlink:href="#ba"/><use transform="matrix(0.07407407407407404,0,0,0.07407407407407404,33.999999999999986,0)" xlink:href="#aR"/><use transform="matrix(0.07407407407407404,0,0,0.07407407407407404,48.814814814814795,0)" xlink:href="#aN"/><use transform="matrix(0.07407407407407404,0,0,0.07407407407407404,56.2222222222222,0)" xlink:href="#bd"/><use transform="matrix(0.07407407407407404,0,0,0.07407407407407404,62.07407407407405,0)" xlink:href="#aP"/><use transform="matrix(0.07407407407407404,0,0,0.07407407407407404,76.88888888888886,0)" xlink:href="#be"/><use transform="matrix(0.07407407407407404,0,0,0.07407407407407404,91.70370370370367,0)" xlink:href="#bf"/></g><path fill="#3a414a" d="M190 0L58-211 59 0H30v-248h39L202-35l-2-213h31V0h-41" id="bg"/><path fill="#3a414a" d="M100-194c63 0 86 42 84 106H49c0 40 14 67 53 68 26 1 43-12 49-29l28 8c-11 28-37 45-77 45C44 4 14-33 15-96c1-61 26-98 85-98zm52 81c6-60-76-77-97-28-3 7-6 17-6 28h103" id="bh"/><path fill="#3a414a" d="M85-194c31 0 48 13 60 33l-1-100h32l1 261h-30c-2-10 0-23-3-31C134-8 116 4 85 4 32 4 16-35 15-94c0-66 23-100 70-100zm9 24c-40 0-46 34-46 75 0 40 6 74 45 74 42 0 51-32 51-76 0-42-9-74-50-73" id="bi"/><g id="l"><use transform="matrix(0.07407407407407401,0,0,0.07407407407407401,0,0)" xlink:href="#bg"/><use transform="matrix(0.07407407407407401,0,0,0.07407407407407401,19.18518518518517,0)" xlink:href="#bh"/><use transform="matrix(0.07407407407407401,0,0,0.07407407407407401,33.99999999999997,0)" xlink:href="#bh"/><use transform="matrix(0.07407407407407401,0,0,0.07407407407407401,48.814814814814774,0)" xlink:href="#bi"/></g><path fill="#3a414a" d="M100-194c62-1 85 37 85 99 1 63-27 99-86 99S16-35 15-95c0-66 28-99 85-99zM99-20c44 1 53-31 53-75 0-43-8-75-51-75s-53 32-53 75 10 74 51 75" id="bj"/><g id="m"><use transform="matrix(0.07407407407407401,0,0,0.07407407407407401,0,0)" xlink:href="#bg"/><use transform="matrix(0.07407407407407401,0,0,0.07407407407407401,19.18518518518517,0)" xlink:href="#bj"/></g><path fill="#3a414a" d="M240 0l2-218c-23 76-54 145-80 218h-23L58-218 59 0H30v-248h44l77 211c21-75 51-140 76-211h43V0h-30" id="bk"/><path fill="#3a414a" d="M141-36C126-15 110 5 73 4 37 3 15-17 15-53c-1-64 63-63 125-63 3-35-9-54-41-54-24 1-41 7-42 31l-33-3c5-37 33-52 76-52 45 0 72 20 72 64v82c-1 20 7 32 28 27v20c-31 9-61-2-59-35zM48-53c0 20 12 33 32 33 41-3 63-29 60-74-43 2-92-5-92 41" id="bl"/><path fill="#3a414a" d="M24-231v-30h32v30H24zM24 0v-190h32V0H24" id="bm"/><path fill="#3a414a" d="M117-194c89-4 53 116 60 194h-32v-121c0-31-8-49-39-48C34-167 62-67 57 0H25l-1-190h30c1 10-1 24 2 32 11-22 29-35 61-36" id="bn"/><path fill="#3a414a" d="M59-47c-2 24 18 29 38 22v24C64 9 27 4 27-40v-127H5v-23h24l9-43h21v43h35v23H59v120" id="bo"/><path fill="#3a414a" d="M96-169c-40 0-48 33-48 73s9 75 48 75c24 0 41-14 43-38l32 2c-6 37-31 61-74 61-59 0-76-41-82-99-10-93 101-131 147-64 4 7 5 14 7 22l-32 3c-4-21-16-35-41-35" id="bp"/><g id="n"><use transform="matrix(0.07407407407407401,0,0,0.07407407407407401,0,0)" xlink:href="#bk"/><use transform="matrix(0.07407407407407401,0,0,0.07407407407407401,22.14814814814813,0)" xlink:href="#bl"/><use transform="matrix(0.07407407407407401,0,0,0.07407407407407401,36.96296296296293,0)" xlink:href="#bm"/><use transform="matrix(0.07407407407407401,0,0,0.07407407407407401,42.81481481481478,0)" xlink:href="#bn"/><use transform="matrix(0.07407407407407401,0,0,0.07407407407407401,57.629629629629584,0)" xlink:href="#bo"/><use transform="matrix(0.07407407407407401,0,0,0.07407407407407401,65.03703703703698,0)" xlink:href="#bh"/><use transform="matrix(0.07407407407407401,0,0,0.07407407407407401,79.85185185185179,0)" xlink:href="#bn"/><use transform="matrix(0.07407407407407401,0,0,0.07407407407407401,94.6666666666666,0)" xlink:href="#bl"/><use transform="matrix(0.07407407407407401,0,0,0.07407407407407401,109.48148148148141,0)" xlink:href="#bn"/><use transform="matrix(0.07407407407407401,0,0,0.07407407407407401,124.29629629629622,0)" xlink:href="#bp"/><use transform="matrix(0.07407407407407401,0,0,0.07407407407407401,137.62962962962953,0)" xlink:href="#bh"/></g><path fill="#3a414a" d="M30 0v-248h187v28H63v79h144v27H63v87h162V0H30" id="bq"/><path fill="#3a414a" d="M135-143c-3-34-86-38-87 0 15 53 115 12 119 90S17 21 10-45l28-5c4 36 97 45 98 0-10-56-113-15-118-90-4-57 82-63 122-42 12 7 21 19 24 35" id="br"/><path fill="#3a414a" d="M179-190L93 31C79 59 56 82 12 73V49c39 6 53-20 64-50L1-190h34L92-34l54-156h33" id="bs"/><g id="o"><use transform="matrix(0.07407407407407401,0,0,0.07407407407407401,0,0)" xlink:href="#bq"/><use transform="matrix(0.07407407407407401,0,0,0.07407407407407401,17.777777777777764,0)" xlink:href="#bl"/><use transform="matrix(0.07407407407407401,0,0,0.07407407407407401,32.59259259259257,0)" xlink:href="#br"/><use transform="matrix(0.07407407407407401,0,0,0.07407407407407401,45.92592592592589,0)" xlink:href="#bs"/></g><g id="p"><use transform="matrix(0.07407407407407401,0,0,0.07407407407407401,0,0)" xlink:href="#bo"/><use transform="matrix(0.07407407407407401,0,0,0.07407407407407401,7.407407407407401,0)" xlink:href="#bj"/></g><path fill="#3a414a" d="M24 0v-261h32V0H24" id="bt"/><g id="q"><use transform="matrix(0.07407407407407401,0,0,0.07407407407407401,0,0)" xlink:href="#bp"/><use transform="matrix(0.07407407407407401,0,0,0.07407407407407401,13.333333333333323,0)" xlink:href="#bt"/><use transform="matrix(0.07407407407407401,0,0,0.07407407407407401,19.18518518518517,0)" xlink:href="#bh"/><use transform="matrix(0.07407407407407401,0,0,0.07407407407407401,33.99999999999997,0)" xlink:href="#bl"/><use transform="matrix(0.07407407407407401,0,0,0.07407407407407401,48.814814814814774,0)" xlink:href="#bn"/></g><g id="r"><use transform="matrix(0.07407407407407401,0,0,0.07407407407407401,0,0)" xlink:href="#bm"/><use transform="matrix(0.07407407407407401,0,0,0.07407407407407401,5.851851851851847,0)" xlink:href="#bn"/><use transform="matrix(0.07407407407407401,0,0,0.07407407407407401,20.66666666666665,0)" xlink:href="#br"/><use transform="matrix(0.07407407407407401,0,0,0.07407407407407401,33.99999999999997,0)" xlink:href="#bo"/><use transform="matrix(0.07407407407407401,0,0,0.07407407407407401,41.407407407407376,0)" xlink:href="#bl"/><use transform="matrix(0.07407407407407401,0,0,0.07407407407407401,56.22222222222218,0)" xlink:href="#bt"/><use transform="matrix(0.07407407407407401,0,0,0.07407407407407401,62.074074074074026,0)" xlink:href="#bt"/></g><path fill="#3a414a" d="M63-220v92h138v28H63V0H30v-248h175v28H63" id="bu"/><path fill="#3a414a" d="M84 4C-5 8 30-112 23-190h32v120c0 31 7 50 39 49 72-2 45-101 50-169h31l1 190h-30c-1-10 1-25-2-33-11 22-28 36-60 37" id="bv"/><g id="s"><use transform="matrix(0.07407407407407401,0,0,0.07407407407407401,0,0)" xlink:href="#bu"/><use transform="matrix(0.07407407407407401,0,0,0.07407407407407401,16.22222222222221,0)" xlink:href="#bv"/><use transform="matrix(0.07407407407407401,0,0,0.07407407407407401,31.037037037037013,0)" xlink:href="#bn"/><use transform="matrix(0.07407407407407401,0,0,0.07407407407407401,45.851851851851826,0)" xlink:href="#bp"/><use transform="matrix(0.07407407407407401,0,0,0.07407407407407401,59.18518518518514,0)" xlink:href="#bo"/><use transform="matrix(0.07407407407407401,0,0,0.07407407407407401,66.59259259259254,0)" xlink:href="#bm"/><use transform="matrix(0.07407407407407401,0,0,0.07407407407407401,72.44444444444439,0)" xlink:href="#bj"/><use transform="matrix(0.07407407407407401,0,0,0.07407407407407401,87.2592592592592,0)" xlink:href="#bn"/><use transform="matrix(0.07407407407407401,0,0,0.07407407407407401,102.07407407407399,0)" xlink:href="#bl"/><use transform="matrix(0.07407407407407401,0,0,0.07407407407407401,116.8888888888888,0)" xlink:href="#bt"/></g><path fill="#3a414a" d="M233-177c-1 41-23 64-60 70L243 0h-38l-65-103H63V0H30v-248c88 3 205-21 203 71zM63-129c60-2 137 13 137-47 0-61-80-42-137-45v92" id="bw"/><path fill="#3a414a" d="M145-31C134-9 116 4 85 4 32 4 16-35 15-94c0-59 17-99 70-100 32-1 48 14 60 33 0-11-1-24 2-32h30l-1 268h-32zM93-21c41 0 51-33 51-76s-8-73-50-73c-40 0-46 35-46 75s5 74 45 74" id="bx"/><path fill="#3a414a" d="M114-163C36-179 61-72 57 0H25l-1-190h30c1 12-1 29 2 39 6-27 23-49 58-41v29" id="by"/><path fill="#3a414a" d="M210-169c-67 3-38 105-44 169h-31v-121c0-29-5-50-35-48C34-165 62-65 56 0H25l-1-190h30c1 10-1 24 2 32 10-44 99-50 107 0 11-21 27-35 58-36 85-2 47 119 55 194h-31v-121c0-29-5-49-35-48" id="bz"/><g id="t"><use transform="matrix(0.07407407407407401,0,0,0.07407407407407401,0,0)" xlink:href="#bw"/><use transform="matrix(0.07407407407407401,0,0,0.07407407407407401,19.18518518518517,0)" xlink:href="#bh"/><use transform="matrix(0.07407407407407401,0,0,0.07407407407407401,33.99999999999997,0)" xlink:href="#bx"/><use transform="matrix(0.07407407407407401,0,0,0.07407407407407401,48.814814814814774,0)" xlink:href="#bv"/><use transform="matrix(0.07407407407407401,0,0,0.07407407407407401,63.62962962962958,0)" xlink:href="#bm"/><use transform="matrix(0.07407407407407401,0,0,0.07407407407407401,69.48148148148142,0)" xlink:href="#by"/><use transform="matrix(0.07407407407407401,0,0,0.07407407407407401,78.29629629629623,0)" xlink:href="#bh"/><use transform="matrix(0.07407407407407401,0,0,0.07407407407407401,93.11111111111104,0)" xlink:href="#bz"/><use transform="matrix(0.07407407407407401,0,0,0.07407407407407401,115.25925925925915,0)" xlink:href="#bh"/><use transform="matrix(0.07407407407407401,0,0,0.07407407407407401,130.07407407407396,0)" xlink:href="#bn"/><use transform="matrix(0.07407407407407401,0,0,0.07407407407407401,144.88888888888877,0)" xlink:href="#bo"/></g><path fill="#3a414a" d="M87 75C49 33 22-17 22-94c0-76 28-126 65-167h31c-38 41-64 92-64 168S80 34 118 75H87" id="bA"/><path fill="#3a414a" d="M33-261c38 41 65 92 65 168S71 34 33 75H2C39 34 66-17 66-93S39-220 2-261h31" id="bB"/><g id="u"><use transform="matrix(0.07407407407407401,0,0,0.07407407407407401,0,0)" xlink:href="#bA"/><use transform="matrix(0.07407407407407401,0,0,0.07407407407407401,8.814814814814808,0)" xlink:href="#bu"/><use transform="matrix(0.07407407407407401,0,0,0.07407407407407401,25.037037037037017,0)" xlink:href="#bw"/><use transform="matrix(0.07407407407407401,0,0,0.07407407407407401,44.222222222222186,0)" xlink:href="#bB"/></g><path fill="#3a414a" d="M212-179c-10-28-35-45-73-45-59 0-87 40-87 99 0 60 29 101 89 101 43 0 62-24 78-52l27 14C228-24 195 4 139 4 59 4 22-46 18-125c-6-104 99-153 187-111 19 9 31 26 39 46" id="bC"/><g id="v"><use transform="matrix(0.07407407407407401,0,0,0.07407407407407401,0,0)" xlink:href="#bC"/><use transform="matrix(0.07407407407407401,0,0,0.07407407407407401,19.18518518518517,0)" xlink:href="#bj"/><use transform="matrix(0.07407407407407401,0,0,0.07407407407407401,33.99999999999997,0)" xlink:href="#bn"/><use transform="matrix(0.07407407407407401,0,0,0.07407407407407401,48.814814814814774,0)" xlink:href="#bn"/><use transform="matrix(0.07407407407407401,0,0,0.07407407407407401,63.62962962962958,0)" xlink:href="#bh"/><use transform="matrix(0.07407407407407401,0,0,0.07407407407407401,78.44444444444436,0)" xlink:href="#bp"/><use transform="matrix(0.07407407407407401,0,0,0.07407407407407401,91.7777777777777,0)" xlink:href="#bo"/></g><g id="w"><use transform="matrix(0.07407407407407401,0,0,0.07407407407407401,0,0)" xlink:href="#by"/><use transform="matrix(0.07407407407407401,0,0,0.07407407407407401,8.814814814814808,0)" xlink:href="#bh"/><use transform="matrix(0.07407407407407401,0,0,0.07407407407407401,23.629629629629612,0)" xlink:href="#br"/><use transform="matrix(0.07407407407407401,0,0,0.07407407407407401,36.96296296296293,0)" xlink:href="#bm"/><use transform="matrix(0.07407407407407401,0,0,0.07407407407407401,42.81481481481478,0)" xlink:href="#bi"/><use transform="matrix(0.07407407407407401,0,0,0.07407407407407401,57.629629629629584,0)" xlink:href="#bh"/><use transform="matrix(0.07407407407407401,0,0,0.07407407407407401,72.44444444444439,0)" xlink:href="#bn"/><use transform="matrix(0.07407407407407401,0,0,0.07407407407407401,87.2592592592592,0)" xlink:href="#bo"/><use transform="matrix(0.07407407407407401,0,0,0.07407407407407401,94.66666666666659,0)" xlink:href="#bl"/><use transform="matrix(0.07407407407407401,0,0,0.07407407407407401,109.48148148148138,0)" xlink:href="#bm"/><use transform="matrix(0.07407407407407401,0,0,0.07407407407407401,115.33333333333323,0)" xlink:href="#bt"/></g><path fill="#3a414a" d="M206 0h-36l-40-164L89 0H53L-1-190h32L70-26l43-164h34l41 164 42-164h31" id="bD"/><g id="x"><use transform="matrix(0.07407407407407401,0,0,0.07407407407407401,0,0)" xlink:href="#bD"/><use transform="matrix(0.07407407407407401,0,0,0.07407407407407401,19.18518518518517,0)" xlink:href="#bl"/><use transform="matrix(0.07407407407407401,0,0,0.07407407407407401,33.99999999999997,0)" xlink:href="#bo"/><use transform="matrix(0.07407407407407401,0,0,0.07407407407407401,41.407407407407376,0)" xlink:href="#bh"/><use transform="matrix(0.07407407407407401,0,0,0.07407407407407401,56.22222222222218,0)" xlink:href="#by"/></g><path fill="#3a414a" d="M115-194c55 1 70 41 70 98S169 2 115 4C84 4 66-9 55-30l1 105H24l-1-265h31l2 30c10-21 28-34 59-34zm-8 174c40 0 45-34 45-75s-6-73-45-74c-42 0-51 32-51 76 0 43 10 73 51 73" id="bE"/><g id="y"><use transform="matrix(0.07407407407407401,0,0,0.07407407407407401,0,0)" xlink:href="#br"/><use transform="matrix(0.07407407407407401,0,0,0.07407407407407401,13.333333333333323,0)" xlink:href="#bv"/><use transform="matrix(0.07407407407407401,0,0,0.07407407407407401,28.148148148148124,0)" xlink:href="#bE"/><use transform="matrix(0.07407407407407401,0,0,0.07407407407407401,42.962962962962926,0)" xlink:href="#bE"/><use transform="matrix(0.07407407407407401,0,0,0.07407407407407401,57.77777777777773,0)" xlink:href="#bt"/><use transform="matrix(0.07407407407407401,0,0,0.07407407407407401,63.62962962962958,0)" xlink:href="#bs"/></g><g id="z"><use transform="matrix(0.07407407407407401,0,0,0.07407407407407401,0,0)" xlink:href="#br"/><use transform="matrix(0.07407407407407401,0,0,0.07407407407407401,13.333333333333323,0)" xlink:href="#bs"/><use transform="matrix(0.07407407407407401,0,0,0.07407407407407401,26.666666666666647,0)" xlink:href="#br"/><use transform="matrix(0.07407407407407401,0,0,0.07407407407407401,39.999999999999964,0)" xlink:href="#bo"/><use transform="matrix(0.07407407407407401,0,0,0.07407407407407401,47.407407407407376,0)" xlink:href="#bh"/><use transform="matrix(0.07407407407407401,0,0,0.07407407407407401,62.22222222222218,0)" xlink:href="#bz"/></g><path fill="#3a414a" d="M30-248c118-7 216 8 213 122C240-48 200 0 122 0H30v-248zM63-27c89 8 146-16 146-99s-60-101-146-95v194" id="bF"/><g id="A"><use transform="matrix(0.07407407407407401,0,0,0.07407407407407401,0,0)" xlink:href="#bF"/><use transform="matrix(0.07407407407407401,0,0,0.07407407407407401,19.18518518518517,0)" xlink:href="#bm"/><use transform="matrix(0.07407407407407401,0,0,0.07407407407407401,25.037037037037017,0)" xlink:href="#by"/><use transform="matrix(0.07407407407407401,0,0,0.07407407407407401,33.851851851851826,0)" xlink:href="#bh"/><use transform="matrix(0.07407407407407401,0,0,0.07407407407407401,48.66666666666663,0)" xlink:href="#bp"/><use transform="matrix(0.07407407407407401,0,0,0.07407407407407401,61.99999999999995,0)" xlink:href="#bo"/></g><g id="B"><use transform="matrix(0.07407407407407401,0,0,0.07407407407407401,0,0)" xlink:href="#bD"/><use transform="matrix(0.07407407407407401,0,0,0.07407407407407401,19.18518518518517,0)" xlink:href="#bl"/><use transform="matrix(0.07407407407407401,0,0,0.07407407407407401,33.99999999999997,0)" xlink:href="#bo"/><use transform="matrix(0.07407407407407401,0,0,0.07407407407407401,41.407407407407376,0)" xlink:href="#bh"/><use transform="matrix(0.07407407407407401,0,0,0.07407407407407401,56.22222222222218,0)" xlink:href="#by"/></g><g id="C"><use transform="matrix(0.07407407407407401,0,0,0.07407407407407401,0,0)" xlink:href="#bm"/><use transform="matrix(0.07407407407407401,0,0,0.07407407407407401,5.851851851851847,0)" xlink:href="#bn"/><use transform="matrix(0.07407407407407401,0,0,0.07407407407407401,20.66666666666665,0)" xlink:href="#bo"/><use transform="matrix(0.07407407407407401,0,0,0.07407407407407401,28.07407407407405,0)" xlink:href="#bj"/></g><path fill="#3a414a" d="M115-194c53 0 69 39 70 98 0 66-23 100-70 100C84 3 66-7 56-30L54 0H23l1-261h32v101c10-23 28-34 59-34zm-8 174c40 0 45-34 45-75 0-40-5-75-45-74-42 0-51 32-51 76 0 43 10 73 51 73" id="bG"/><g id="D"><use transform="matrix(0.07407407407407401,0,0,0.07407407407407401,0,0)" xlink:href="#bG"/><use transform="matrix(0.07407407407407401,0,0,0.07407407407407401,14.814814814814802,0)" xlink:href="#bl"/><use transform="matrix(0.07407407407407401,0,0,0.07407407407407401,29.629629629629605,0)" xlink:href="#br"/><use transform="matrix(0.07407407407407401,0,0,0.07407407407407401,42.962962962962926,0)" xlink:href="#bm"/><use transform="matrix(0.07407407407407401,0,0,0.07407407407407401,48.814814814814774,0)" xlink:href="#bn"/></g><path fill="#3a414a" d="M185-189c-5-48-123-54-124 2 14 75 158 14 163 119 3 78-121 87-175 55-17-10-28-26-33-46l33-7c5 56 141 63 141-1 0-78-155-14-162-118-5-82 145-84 179-34 5 7 8 16 11 25" id="bH"/><g id="E"><use transform="matrix(0.07407407407407401,0,0,0.07407407407407401,0,0)" xlink:href="#bH"/><use transform="matrix(0.07407407407407401,0,0,0.07407407407407401,17.777777777777764,0)" xlink:href="#bh"/><use transform="matrix(0.07407407407407401,0,0,0.07407407407407401,32.59259259259257,0)" xlink:href="#bo"/></g><g id="F"><use transform="matrix(0.07407407407407401,0,0,0.07407407407407401,0,0)" xlink:href="#bo"/><use transform="matrix(0.07407407407407401,0,0,0.07407407407407401,7.407407407407401,0)" xlink:href="#bh"/><use transform="matrix(0.07407407407407401,0,0,0.07407407407407401,22.222222222222204,0)" xlink:href="#bz"/><use transform="matrix(0.07407407407407401,0,0,0.07407407407407401,44.37037037037033,0)" xlink:href="#bE"/><use transform="matrix(0.07407407407407401,0,0,0.07407407407407401,59.18518518518514,0)" xlink:href="#bh"/><use transform="matrix(0.07407407407407401,0,0,0.07407407407407401,73.99999999999994,0)" xlink:href="#by"/><use transform="matrix(0.07407407407407401,0,0,0.07407407407407401,82.81481481481475,0)" xlink:href="#bl"/><use transform="matrix(0.07407407407407401,0,0,0.07407407407407401,97.62962962962956,0)" xlink:href="#bo"/><use transform="matrix(0.07407407407407401,0,0,0.07407407407407401,105.03703703703697,0)" xlink:href="#bv"/><use transform="matrix(0.07407407407407401,0,0,0.07407407407407401,119.85185185185176,0)" xlink:href="#by"/><use transform="matrix(0.07407407407407401,0,0,0.07407407407407401,128.66666666666657,0)" xlink:href="#bh"/></g><path fill="#3a414a" d="M101-234c-31-9-42 10-38 44h38v23H63V0H32v-167H5v-23h27c-7-52 17-82 69-68v24" id="bI"/><g id="G"><use transform="matrix(0.07407407407407401,0,0,0.07407407407407401,0,0)" xlink:href="#bI"/><use transform="matrix(0.07407407407407401,0,0,0.07407407407407401,7.407407407407401,0)" xlink:href="#bt"/><use transform="matrix(0.07407407407407401,0,0,0.07407407407407401,13.259259259259249,0)" xlink:href="#bj"/><use transform="matrix(0.07407407407407401,0,0,0.07407407407407401,28.07407407407405,0)" xlink:href="#bD"/></g><g id="H"><use transform="matrix(0.07407407407407401,0,0,0.07407407407407401,0,0)" xlink:href="#by"/><use transform="matrix(0.07407407407407401,0,0,0.07407407407407401,8.814814814814808,0)" xlink:href="#bl"/><use transform="matrix(0.07407407407407401,0,0,0.07407407407407401,23.629629629629612,0)" xlink:href="#bo"/><use transform="matrix(0.07407407407407401,0,0,0.07407407407407401,31.037037037037013,0)" xlink:href="#bh"/></g><g id="I"><use transform="matrix(0.07407407407407401,0,0,0.07407407407407401,0,0)" xlink:href="#bk"/><use transform="matrix(0.07407407407407401,0,0,0.07407407407407401,22.14814814814813,0)" xlink:href="#bh"/><use transform="matrix(0.07407407407407401,0,0,0.07407407407407401,36.96296296296293,0)" xlink:href="#bl"/><use transform="matrix(0.07407407407407401,0,0,0.07407407407407401,51.777777777777736,0)" xlink:href="#br"/><use transform="matrix(0.07407407407407401,0,0,0.07407407407407401,65.11111111111106,0)" xlink:href="#bv"/><use transform="matrix(0.07407407407407401,0,0,0.07407407407407401,79.92592592592587,0)" xlink:href="#by"/><use transform="matrix(0.07407407407407401,0,0,0.07407407407407401,88.74074074074066,0)" xlink:href="#bh"/></g><g id="J"><use transform="matrix(0.07407407407407401,0,0,0.07407407407407401,0,0)" xlink:href="#bA"/><use transform="matrix(0.07407407407407401,0,0,0.07407407407407401,8.814814814814808,0)" xlink:href="#bu"/><use transform="matrix(0.07407407407407401,0,0,0.07407407407407401,25.037037037037017,0)" xlink:href="#bw"/><use transform="matrix(0.07407407407407401,0,0,0.07407407407407401,44.222222222222186,0)" xlink:href="#bz"/><use transform="matrix(0.07407407407407401,0,0,0.07407407407407401,66.37037037037032,0)" xlink:href="#bB"/></g><path fill="#3a414a" d="M9 0v-24l116-142H16v-24h144v24L44-24h123V0H9" id="bJ"/><g id="K"><use transform="matrix(0.07407407407407401,0,0,0.07407407407407401,0,0)" xlink:href="#bk"/><use transform="matrix(0.07407407407407401,0,0,0.07407407407407401,22.14814814814813,0)" xlink:href="#bm"/><use transform="matrix(0.07407407407407401,0,0,0.07407407407407401,27.99999999999998,0)" xlink:href="#bn"/><use transform="matrix(0.07407407407407401,0,0,0.07407407407407401,42.81481481481478,0)" xlink:href="#bm"/><use transform="matrix(0.07407407407407401,0,0,0.07407407407407401,48.66666666666663,0)" xlink:href="#bz"/><use transform="matrix(0.07407407407407401,0,0,0.07407407407407401,70.81481481481475,0)" xlink:href="#bm"/><use transform="matrix(0.07407407407407401,0,0,0.07407407407407401,76.6666666666666,0)" xlink:href="#bJ"/><use transform="matrix(0.07407407407407401,0,0,0.07407407407407401,89.99999999999993,0)" xlink:href="#bh"/></g><g id="L"><use transform="matrix(0.07407407407407401,0,0,0.07407407407407401,0,0)" xlink:href="#bo"/><use transform="matrix(0.07407407407407401,0,0,0.07407407407407401,7.407407407407401,0)" xlink:href="#bm"/><use transform="matrix(0.07407407407407401,0,0,0.07407407407407401,13.259259259259249,0)" xlink:href="#bz"/><use transform="matrix(0.07407407407407401,0,0,0.07407407407407401,35.407407407407376,0)" xlink:href="#bh"/></g><path fill="#3a414a" d="M106-169C34-169 62-67 57 0H25v-261h32l-1 103c12-21 28-36 61-36 89 0 53 116 60 194h-32v-121c2-32-8-49-39-48" id="bK"/><path fill="#3a414a" d="M108 0H70L1-190h34L89-25l56-165h34" id="bL"/><g id="M"><use transform="matrix(0.07407407407407401,0,0,0.07407407407407401,0,0)" xlink:href="#bl"/><use transform="matrix(0.07407407407407401,0,0,0.07407407407407401,14.814814814814802,0)" xlink:href="#bp"/><use transform="matrix(0.07407407407407401,0,0,0.07407407407407401,28.148148148148124,0)" xlink:href="#bK"/><use transform="matrix(0.07407407407407401,0,0,0.07407407407407401,42.962962962962926,0)" xlink:href="#bm"/><use transform="matrix(0.07407407407407401,0,0,0.07407407407407401,48.814814814814774,0)" xlink:href="#bh"/><use transform="matrix(0.07407407407407401,0,0,0.07407407407407401,63.62962962962958,0)" xlink:href="#bL"/><use transform="matrix(0.07407407407407401,0,0,0.07407407407407401,76.9629629629629,0)" xlink:href="#bh"/></g><g id="N"><use transform="matrix(0.07407407407407401,0,0,0.07407407407407401,0,0)" xlink:href="#bi"/><use transform="matrix(0.07407407407407401,0,0,0.07407407407407401,14.814814814814802,0)" xlink:href="#bh"/><use transform="matrix(0.07407407407407401,0,0,0.07407407407407401,29.629629629629605,0)" xlink:href="#br"/><use transform="matrix(0.07407407407407401,0,0,0.07407407407407401,42.962962962962926,0)" xlink:href="#bm"/><use transform="matrix(0.07407407407407401,0,0,0.07407407407407401,48.814814814814774,0)" xlink:href="#by"/><use transform="matrix(0.07407407407407401,0,0,0.07407407407407401,57.629629629629584,0)" xlink:href="#bh"/><use transform="matrix(0.07407407407407401,0,0,0.07407407407407401,72.44444444444439,0)" xlink:href="#bi"/></g><g id="O"><use transform="matrix(0.07407407407407401,0,0,0.07407407407407401,0,0)" xlink:href="#bo"/><use transform="matrix(0.07407407407407401,0,0,0.07407407407407401,7.407407407407401,0)" xlink:href="#bh"/><use transform="matrix(0.07407407407407401,0,0,0.07407407407407401,22.222222222222204,0)" xlink:href="#bz"/><use transform="matrix(0.07407407407407401,0,0,0.07407407407407401,44.37037037037033,0)" xlink:href="#bE"/></g><path fill="#3a414a" d="M30-248c87 1 191-15 191 75 0 78-77 80-158 76V0H30v-248zm33 125c57 0 124 11 124-50 0-59-68-47-124-48v98" id="bM"/><g id="P"><use transform="matrix(0.07407407407407401,0,0,0.07407407407407401,0,0)" xlink:href="#bM"/><use transform="matrix(0.07407407407407401,0,0,0.07407407407407401,17.777777777777764,0)" xlink:href="#bK"/><use transform="matrix(0.07407407407407401,0,0,0.07407407407407401,32.59259259259257,0)" xlink:href="#bs"/><use transform="matrix(0.07407407407407401,0,0,0.07407407407407401,45.92592592592589,0)" xlink:href="#br"/><use transform="matrix(0.07407407407407401,0,0,0.07407407407407401,59.25925925925921,0)" xlink:href="#bm"/><use transform="matrix(0.07407407407407401,0,0,0.07407407407407401,65.11111111111106,0)" xlink:href="#bp"/><use transform="matrix(0.07407407407407401,0,0,0.07407407407407401,78.44444444444439,0)" xlink:href="#bl"/><use transform="matrix(0.07407407407407401,0,0,0.07407407407407401,93.25925925925918,0)" xlink:href="#bt"/></g><g id="Q"><use transform="matrix(0.07407407407407401,0,0,0.07407407407407401,0,0)" xlink:href="#bH"/><use transform="matrix(0.07407407407407401,0,0,0.07407407407407401,17.777777777777764,0)" xlink:href="#bj"/><use transform="matrix(0.07407407407407401,0,0,0.07407407407407401,32.59259259259257,0)" xlink:href="#bt"/><use transform="matrix(0.07407407407407401,0,0,0.07407407407407401,38.444444444444414,0)" xlink:href="#bv"/><use transform="matrix(0.07407407407407401,0,0,0.07407407407407401,53.25925925925922,0)" xlink:href="#bo"/><use transform="matrix(0.07407407407407401,0,0,0.07407407407407401,60.666666666666615,0)" xlink:href="#bm"/><use transform="matrix(0.07407407407407401,0,0,0.07407407407407401,66.51851851851846,0)" xlink:href="#bj"/><use transform="matrix(0.07407407407407401,0,0,0.07407407407407401,81.33333333333326,0)" xlink:href="#bn"/></g><path fill="#3a414a" d="M205 0l-28-72H64L36 0H1l101-248h38L239 0h-34zm-38-99l-47-123c-12 45-31 82-46 123h93" id="bN"/><g id="R"><use transform="matrix(0.07407407407407401,0,0,0.07407407407407401,0,0)" xlink:href="#bN"/><use transform="matrix(0.07407407407407401,0,0,0.07407407407407401,17.777777777777764,0)" xlink:href="#bt"/><use transform="matrix(0.07407407407407401,0,0,0.07407407407407401,23.629629629629612,0)" xlink:href="#bo"/><use transform="matrix(0.07407407407407401,0,0,0.07407407407407401,31.037037037037013,0)" xlink:href="#bh"/><use transform="matrix(0.07407407407407401,0,0,0.07407407407407401,45.851851851851826,0)" xlink:href="#by"/><use transform="matrix(0.07407407407407401,0,0,0.07407407407407401,54.66666666666663,0)" xlink:href="#bn"/><use transform="matrix(0.07407407407407401,0,0,0.07407407407407401,69.48148148148144,0)" xlink:href="#bl"/><use transform="matrix(0.07407407407407401,0,0,0.07407407407407401,84.29629629629625,0)" xlink:href="#bo"/><use transform="matrix(0.07407407407407401,0,0,0.07407407407407401,91.70370370370365,0)" xlink:href="#bm"/><use transform="matrix(0.07407407407407401,0,0,0.07407407407407401,97.5555555555555,0)" xlink:href="#bL"/><use transform="matrix(0.07407407407407401,0,0,0.07407407407407401,110.88888888888883,0)" xlink:href="#bh"/></g><path fill="#3a414a" d="M16-82v-28h88v28H16" id="bO"/><path fill="#3a414a" d="M30 0v-248h33v221h125V0H30" id="bP"/><path fill="#3a414a" d="M127-220V0H93v-220H8v-28h204v28h-85" id="bQ"/><g id="S"><use transform="matrix(0.07407407407407401,0,0,0.07407407407407401,0,0)" xlink:href="#bA"/><use transform="matrix(0.07407407407407401,0,0,0.07407407407407401,8.814814814814808,0)" xlink:href="#bM"/><use transform="matrix(0.07407407407407401,0,0,0.07407407407407401,26.592592592592574,0)" xlink:href="#bH"/><use transform="matrix(0.07407407407407401,0,0,0.07407407407407401,44.37037037037033,0)" xlink:href="#bO"/><use transform="matrix(0.07407407407407401,0,0,0.07407407407407401,53.18518518518515,0)" xlink:href="#bN"/><use transform="matrix(0.07407407407407401,0,0,0.07407407407407401,70.9629629629629,0)" xlink:href="#bP"/><use transform="matrix(0.07407407407407401,0,0,0.07407407407407401,83.77777777777771,0)" xlink:href="#bQ"/><use transform="matrix(0.07407407407407401,0,0,0.07407407407407401,99.99999999999994,0)" xlink:href="#bB"/></g><path fill="#3a414a" d="M140-251c81 0 123 46 123 126C263-46 219 4 140 4 59 4 17-45 17-125s42-126 123-126zm0 227c63 0 89-41 89-101s-29-99-89-99c-61 0-89 39-89 99S79-25 140-24" id="bR"/><g id="T"><use transform="matrix(0.07407407407407401,0,0,0.07407407407407401,0,0)" xlink:href="#bR"/><use transform="matrix(0.07407407407407401,0,0,0.07407407407407401,20.740740740740723,0)" xlink:href="#bn"/><use transform="matrix(0.07407407407407401,0,0,0.07407407407407401,35.55555555555553,0)" xlink:href="#bh"/></g><path fill="#3a414a" d="M197 0v-115H63V0H30v-248h33v105h134v-105h34V0h-34" id="bS"/><g id="U"><use transform="matrix(0.07407407407407401,0,0,0.07407407407407401,0,0)" xlink:href="#bS"/><use transform="matrix(0.07407407407407401,0,0,0.07407407407407401,19.18518518518517,0)" xlink:href="#bl"/><use transform="matrix(0.07407407407407401,0,0,0.07407407407407401,33.99999999999997,0)" xlink:href="#bn"/><use transform="matrix(0.07407407407407401,0,0,0.07407407407407401,48.814814814814774,0)" xlink:href="#bi"/><use transform="matrix(0.07407407407407401,0,0,0.07407407407407401,63.62962962962958,0)" xlink:href="#bt"/><use transform="matrix(0.07407407407407401,0,0,0.07407407407407401,69.48148148148142,0)" xlink:href="#bh"/></g><g id="V"><use transform="matrix(0.07407407407407401,0,0,0.07407407407407401,0,0)" xlink:href="#bQ"/><use transform="matrix(0.07407407407407401,0,0,0.07407407407407401,14.740740740740728,0)" xlink:href="#bD"/><use transform="matrix(0.07407407407407401,0,0,0.07407407407407401,33.925925925925895,0)" xlink:href="#bj"/></g><g id="W"><use transform="matrix(0.07407407407407401,0,0,0.07407407407407401,0,0)" xlink:href="#bS"/><use transform="matrix(0.07407407407407401,0,0,0.07407407407407401,19.18518518518517,0)" xlink:href="#bl"/><use transform="matrix(0.07407407407407401,0,0,0.07407407407407401,33.99999999999997,0)" xlink:href="#bn"/><use transform="matrix(0.07407407407407401,0,0,0.07407407407407401,48.814814814814774,0)" xlink:href="#bi"/><use transform="matrix(0.07407407407407401,0,0,0.07407407407407401,63.62962962962958,0)" xlink:href="#bt"/><use transform="matrix(0.07407407407407401,0,0,0.07407407407407401,69.48148148148142,0)" xlink:href="#bh"/><use transform="matrix(0.07407407407407401,0,0,0.07407407407407401,84.2962962962962,0)" xlink:href="#br"/></g><g id="X"><use transform="matrix(0.07407407407407401,0,0,0.07407407407407401,0,0)" xlink:href="#bS"/><use transform="matrix(0.07407407407407401,0,0,0.07407407407407401,19.18518518518517,0)" xlink:href="#bl"/><use transform="matrix(0.07407407407407401,0,0,0.07407407407407401,33.99999999999997,0)" xlink:href="#bn"/><use transform="matrix(0.07407407407407401,0,0,0.07407407407407401,48.814814814814774,0)" xlink:href="#bi"/><use transform="matrix(0.07407407407407401,0,0,0.07407407407407401,63.62962962962958,0)" xlink:href="#bO"/><use transform="matrix(0.07407407407407401,0,0,0.07407407407407401,72.44444444444439,0)" xlink:href="#bK"/><use transform="matrix(0.07407407407407401,0,0,0.07407407407407401,87.2592592592592,0)" xlink:href="#bh"/><use transform="matrix(0.07407407407407401,0,0,0.07407407407407401,102.07407407407399,0)" xlink:href="#bt"/><use transform="matrix(0.07407407407407401,0,0,0.07407407407407401,107.92592592592584,0)" xlink:href="#bi"/></g><g id="Y"><use transform="matrix(0.07407407407407401,0,0,0.07407407407407401,0,0)" xlink:href="#bD"/><use transform="matrix(0.07407407407407401,0,0,0.07407407407407401,19.18518518518517,0)" xlink:href="#bl"/><use transform="matrix(0.07407407407407401,0,0,0.07407407407407401,33.99999999999997,0)" xlink:href="#bn"/><use transform="matrix(0.07407407407407401,0,0,0.07407407407407401,48.814814814814774,0)" xlink:href="#bi"/></g><g id="Z"><use transform="matrix(0.07407407407407401,0,0,0.07407407407407401,0,0)" xlink:href="#bu"/><use transform="matrix(0.07407407407407401,0,0,0.07407407407407401,16.22222222222221,0)" xlink:href="#bl"/><use transform="matrix(0.07407407407407401,0,0,0.07407407407407401,31.037037037037013,0)" xlink:href="#bm"/><use transform="matrix(0.07407407407407401,0,0,0.07407407407407401,36.88888888888886,0)" xlink:href="#bt"/><use transform="matrix(0.07407407407407401,0,0,0.07407407407407401,42.740740740740705,0)" xlink:href="#bv"/><use transform="matrix(0.07407407407407401,0,0,0.07407407407407401,57.55555555555551,0)" xlink:href="#by"/><use transform="matrix(0.07407407407407401,0,0,0.07407407407407401,66.37037037037031,0)" xlink:href="#bh"/></g><g id="aa"><use transform="matrix(0.07407407407407401,0,0,0.07407407407407401,0,0)" xlink:href="#bk"/><use transform="matrix(0.07407407407407401,0,0,0.07407407407407401,22.14814814814813,0)" xlink:href="#bj"/><use transform="matrix(0.07407407407407401,0,0,0.07407407407407401,36.96296296296293,0)" xlink:href="#bi"/><use transform="matrix(0.07407407407407401,0,0,0.07407407407407401,51.777777777777736,0)" xlink:href="#bh"/></g><g id="ab"><use transform="matrix(0.07407407407407401,0,0,0.07407407407407401,0,0)" xlink:href="#bu"/><use transform="matrix(0.07407407407407401,0,0,0.07407407407407401,16.22222222222221,0)" xlink:href="#bl"/><use transform="matrix(0.07407407407407401,0,0,0.07407407407407401,31.037037037037013,0)" xlink:href="#bv"/><use transform="matrix(0.07407407407407401,0,0,0.07407407407407401,45.851851851851826,0)" xlink:href="#bp"/><use transform="matrix(0.07407407407407401,0,0,0.07407407407407401,59.18518518518514,0)" xlink:href="#bh"/><use transform="matrix(0.07407407407407401,0,0,0.07407407407407401,73.99999999999994,0)" xlink:href="#bo"/></g><path fill="#3a414a" d="M143 0L79-87 56-68V0H24v-261h32v163l83-92h37l-77 82L181 0h-38" id="bT"/><g id="ac"><use transform="matrix(0.07407407407407401,0,0,0.07407407407407401,0,0)" xlink:href="#bt"/><use transform="matrix(0.07407407407407401,0,0,0.07407407407407401,5.851851851851847,0)" xlink:href="#bh"/><use transform="matrix(0.07407407407407401,0,0,0.07407407407407401,20.66666666666665,0)" xlink:href="#bl"/><use transform="matrix(0.07407407407407401,0,0,0.07407407407407401,35.48148148148145,0)" xlink:href="#bT"/><use transform="matrix(0.07407407407407401,0,0,0.07407407407407401,48.814814814814774,0)" xlink:href="#br"/></g><g id="ad"><use transform="matrix(0.07407407407407401,0,0,0.07407407407407401,0,0)" xlink:href="#bi"/><use transform="matrix(0.07407407407407401,0,0,0.07407407407407401,14.814814814814802,0)" xlink:href="#bj"/><use transform="matrix(0.07407407407407401,0,0,0.07407407407407401,29.629629629629605,0)" xlink:href="#bh"/><use transform="matrix(0.07407407407407401,0,0,0.07407407407407401,44.44444444444441,0)" xlink:href="#br"/></g><g id="ae"><use transform="matrix(0.07407407407407401,0,0,0.07407407407407401,0,0)" xlink:href="#bn"/><use transform="matrix(0.07407407407407401,0,0,0.07407407407407401,14.814814814814802,0)" xlink:href="#bj"/><use transform="matrix(0.07407407407407401,0,0,0.07407407407407401,29.629629629629605,0)" xlink:href="#bo"/></g><g id="af"><use transform="matrix(0.07407407407407401,0,0,0.07407407407407401,0,0)" xlink:href="#bp"/><use transform="matrix(0.07407407407407401,0,0,0.07407407407407401,13.333333333333323,0)" xlink:href="#bj"/><use transform="matrix(0.07407407407407401,0,0,0.07407407407407401,28.148148148148124,0)" xlink:href="#bn"/><use transform="matrix(0.07407407407407401,0,0,0.07407407407407401,42.962962962962926,0)" xlink:href="#bn"/><use transform="matrix(0.07407407407407401,0,0,0.07407407407407401,57.77777777777773,0)" xlink:href="#bh"/><use transform="matrix(0.07407407407407401,0,0,0.07407407407407401,72.59259259259252,0)" xlink:href="#bp"/><use transform="matrix(0.07407407407407401,0,0,0.07407407407407401,85.92592592592585,0)" xlink:href="#bo"/></g><g id="ag"><use transform="matrix(0.07407407407407401,0,0,0.07407407407407401,0,0)" xlink:href="#br"/><use transform="matrix(0.07407407407407401,0,0,0.07407407407407401,13.333333333333323,0)" xlink:href="#bv"/><use transform="matrix(0.07407407407407401,0,0,0.07407407407407401,28.148148148148124,0)" xlink:href="#bE"/><use transform="matrix(0.07407407407407401,0,0,0.07407407407407401,42.962962962962926,0)" xlink:href="#bE"/><use transform="matrix(0.07407407407407401,0,0,0.07407407407407401,57.77777777777773,0)" xlink:href="#bt"/><use transform="matrix(0.07407407407407401,0,0,0.07407407407407401,63.62962962962958,0)" xlink:href="#bs"/></g><g id="ah"><use transform="matrix(0.07407407407407401,0,0,0.07407407407407401,0,0)" xlink:href="#bE"/><use transform="matrix(0.07407407407407401,0,0,0.07407407407407401,14.814814814814802,0)" xlink:href="#bK"/><use transform="matrix(0.07407407407407401,0,0,0.07407407407407401,29.629629629629605,0)" xlink:href="#bs"/><use transform="matrix(0.07407407407407401,0,0,0.07407407407407401,42.962962962962926,0)" xlink:href="#br"/><use transform="matrix(0.07407407407407401,0,0,0.07407407407407401,56.29629629629625,0)" xlink:href="#bm"/><use transform="matrix(0.07407407407407401,0,0,0.07407407407407401,62.148148148148096,0)" xlink:href="#bp"/><use transform="matrix(0.07407407407407401,0,0,0.07407407407407401,75.48148148148142,0)" xlink:href="#bl"/><use transform="matrix(0.07407407407407401,0,0,0.07407407407407401,90.29629629629622,0)" xlink:href="#bt"/><use transform="matrix(0.07407407407407401,0,0,0.07407407407407401,96.14814814814807,0)" xlink:href="#bt"/><use transform="matrix(0.07407407407407401,0,0,0.07407407407407401,101.99999999999991,0)" xlink:href="#bs"/></g><g id="ai"><use transform="matrix(0.07407407407407401,0,0,0.07407407407407401,0,0)" xlink:href="#bI"/><use transform="matrix(0.07407407407407401,0,0,0.07407407407407401,7.407407407407401,0)" xlink:href="#bm"/><use transform="matrix(0.07407407407407401,0,0,0.07407407407407401,13.259259259259249,0)" xlink:href="#bo"/></g><g id="aj"><use transform="matrix(0.07407407407407401,0,0,0.07407407407407401,0,0)" xlink:href="#bp"/><use transform="matrix(0.07407407407407401,0,0,0.07407407407407401,13.333333333333323,0)" xlink:href="#bv"/><use transform="matrix(0.07407407407407401,0,0,0.07407407407407401,28.148148148148124,0)" xlink:href="#br"/><use transform="matrix(0.07407407407407401,0,0,0.07407407407407401,41.481481481481445,0)" xlink:href="#bo"/><use transform="matrix(0.07407407407407401,0,0,0.07407407407407401,48.88888888888884,0)" xlink:href="#bj"/><use transform="matrix(0.07407407407407401,0,0,0.07407407407407401,63.703703703703646,0)" xlink:href="#bz"/><use transform="matrix(0.07407407407407401,0,0,0.07407407407407401,85.85185185185178,0)" xlink:href="#bh"/><use transform="matrix(0.07407407407407401,0,0,0.07407407407407401,100.66666666666657,0)" xlink:href="#by"/><use transform="matrix(0.07407407407407401,0,0,0.07407407407407401,109.48148148148138,0)" xlink:href="#br"/></g><g id="ak"><use transform="matrix(0.07407407407407401,0,0,0.07407407407407401,0,0)" xlink:href="#br"/><use transform="matrix(0.07407407407407401,0,0,0.07407407407407401,13.333333333333323,0)" xlink:href="#bm"/><use transform="matrix(0.07407407407407401,0,0,0.07407407407407401,19.18518518518517,0)" xlink:href="#bn"/><use transform="matrix(0.07407407407407401,0,0,0.07407407407407401,33.99999999999997,0)" xlink:href="#bT"/></g><g id="al"><use transform="matrix(0.07407407407407401,0,0,0.07407407407407401,0,0)" xlink:href="#bC"/><use transform="matrix(0.07407407407407401,0,0,0.07407407407407401,19.18518518518517,0)" xlink:href="#bl"/><use transform="matrix(0.07407407407407401,0,0,0.07407407407407401,33.99999999999997,0)" xlink:href="#bv"/><use transform="matrix(0.07407407407407401,0,0,0.07407407407407401,48.814814814814774,0)" xlink:href="#br"/><use transform="matrix(0.07407407407407401,0,0,0.07407407407407401,62.148148148148096,0)" xlink:href="#bh"/></g><path fill="#3a414a" d="M266 0h-40l-56-210L115 0H75L2-248h35L96-30l15-64 43-154h32l59 218 59-218h35" id="bU"/><g id="am"><use transform="matrix(0.07407407407407401,0,0,0.07407407407407401,0,0)" xlink:href="#bU"/><use transform="matrix(0.07407407407407401,0,0,0.07407407407407401,24.59259259259257,0)" xlink:href="#bj"/><use transform="matrix(0.07407407407407401,0,0,0.07407407407407401,39.407407407407376,0)" xlink:href="#by"/><use transform="matrix(0.07407407407407401,0,0,0.07407407407407401,48.222222222222186,0)" xlink:href="#bn"/></g><g id="an"><use transform="matrix(0.07407407407407401,0,0,0.07407407407407401,0,0)" xlink:href="#bj"/><use transform="matrix(0.07407407407407401,0,0,0.07407407407407401,14.814814814814802,0)" xlink:href="#bv"/><use transform="matrix(0.07407407407407401,0,0,0.07407407407407401,29.629629629629605,0)" xlink:href="#bo"/></g><g id="ao"><use transform="matrix(0.07407407407407401,0,0,0.07407407407407401,0,0)" xlink:href="#bI"/><use transform="matrix(0.07407407407407401,0,0,0.07407407407407401,7.407407407407401,0)" xlink:href="#by"/><use transform="matrix(0.07407407407407401,0,0,0.07407407407407401,16.222222222222207,0)" xlink:href="#bj"/><use transform="matrix(0.07407407407407401,0,0,0.07407407407407401,31.037037037037006,0)" xlink:href="#bz"/></g><g id="ap"><use transform="matrix(0.07407407407407401,0,0,0.07407407407407401,0,0)" xlink:href="#bK"/><use transform="matrix(0.07407407407407401,0,0,0.07407407407407401,14.814814814814802,0)" xlink:href="#bh"/><use transform="matrix(0.07407407407407401,0,0,0.07407407407407401,29.629629629629605,0)" xlink:href="#bl"/><use transform="matrix(0.07407407407407401,0,0,0.07407407407407401,44.44444444444441,0)" xlink:href="#bL"/><use transform="matrix(0.07407407407407401,0,0,0.07407407407407401,57.77777777777773,0)" xlink:href="#bs"/></g><g id="aq"><use transform="matrix(0.07407407407407401,0,0,0.07407407407407401,0,0)" xlink:href="#bv"/><use transform="matrix(0.07407407407407401,0,0,0.07407407407407401,14.814814814814802,0)" xlink:href="#br"/><use transform="matrix(0.07407407407407401,0,0,0.07407407407407401,28.148148148148124,0)" xlink:href="#bh"/></g><path fill="#3a414a" d="M232-93c-1 65-40 97-104 97C67 4 28-28 28-90v-158h33c8 89-33 224 67 224 102 0 64-133 71-224h33v155" id="bV"/><g id="ar"><use transform="matrix(0.07407407407407401,0,0,0.07407407407407401,0,0)" xlink:href="#bV"/><use transform="matrix(0.07407407407407401,0,0,0.07407407407407401,19.18518518518517,0)" xlink:href="#br"/><use transform="matrix(0.07407407407407401,0,0,0.07407407407407401,32.51851851851849,0)" xlink:href="#bh"/></g><g id="as"><use transform="matrix(0.07407407407407401,0,0,0.07407407407407401,0,0)" xlink:href="#bC"/><use transform="matrix(0.07407407407407401,0,0,0.07407407407407401,19.18518518518517,0)" xlink:href="#bl"/><use transform="matrix(0.07407407407407401,0,0,0.07407407407407401,33.99999999999997,0)" xlink:href="#br"/><use transform="matrix(0.07407407407407401,0,0,0.07407407407407401,47.33333333333329,0)" xlink:href="#bh"/></g><path fill="#3a414a" d="M177-190C167-65 218 103 67 71c-23-6-38-20-44-43l32-5c15 47 100 32 89-28v-30C133-14 115 1 83 1 29 1 15-40 15-95c0-56 16-97 71-98 29-1 48 16 59 35 1-10 0-23 2-32h30zM94-22c36 0 50-32 50-73 0-42-14-75-50-75-39 0-46 34-46 75s6 73 46 73" id="bW"/><g id="at"><use transform="matrix(0.07407407407407401,0,0,0.07407407407407401,0,0)" xlink:href="#bU"/><use transform="matrix(0.07407407407407401,0,0,0.07407407407407401,24.148148148148127,0)" xlink:href="#bl"/><use transform="matrix(0.07407407407407401,0,0,0.07407407407407401,38.96296296296293,0)" xlink:href="#br"/><use transform="matrix(0.07407407407407401,0,0,0.07407407407407401,52.296296296296255,0)" xlink:href="#bK"/><use transform="matrix(0.07407407407407401,0,0,0.07407407407407401,67.11111111111106,0)" xlink:href="#bm"/><use transform="matrix(0.07407407407407401,0,0,0.07407407407407401,72.9629629629629,0)" xlink:href="#bn"/><use transform="matrix(0.07407407407407401,0,0,0.07407407407407401,87.7777777777777,0)" xlink:href="#bW"/></g><g id="au"><use transform="matrix(0.07407407407407401,0,0,0.07407407407407401,0,0)" xlink:href="#bF"/><use transform="matrix(0.07407407407407401,0,0,0.07407407407407401,19.18518518518517,0)" xlink:href="#bm"/><use transform="matrix(0.07407407407407401,0,0,0.07407407407407401,25.037037037037017,0)" xlink:href="#br"/><use transform="matrix(0.07407407407407401,0,0,0.07407407407407401,38.37037037037034,0)" xlink:href="#bK"/><use transform="matrix(0.07407407407407401,0,0,0.07407407407407401,53.18518518518514,0)" xlink:href="#bh"/><use transform="matrix(0.07407407407407401,0,0,0.07407407407407401,67.99999999999994,0)" xlink:href="#br"/></g><g id="av"><use transform="matrix(0.07407407407407401,0,0,0.07407407407407401,0,0)" xlink:href="#bS"/><use transform="matrix(0.07407407407407401,0,0,0.07407407407407401,19.18518518518517,0)" xlink:href="#bl"/><use transform="matrix(0.07407407407407401,0,0,0.07407407407407401,33.99999999999997,0)" xlink:href="#bn"/><use transform="matrix(0.07407407407407401,0,0,0.07407407407407401,48.814814814814774,0)" xlink:href="#bi"/><use transform="matrix(0.07407407407407401,0,0,0.07407407407407401,63.62962962962958,0)" xlink:href="#br"/></g><g id="aw"><use transform="matrix(0.07407407407407401,0,0,0.07407407407407401,0,0)" xlink:href="#bU"/><use transform="matrix(0.07407407407407401,0,0,0.07407407407407401,24.148148148148127,0)" xlink:href="#bl"/><use transform="matrix(0.07407407407407401,0,0,0.07407407407407401,38.96296296296293,0)" xlink:href="#br"/><use transform="matrix(0.07407407407407401,0,0,0.07407407407407401,52.296296296296255,0)" xlink:href="#bK"/><use transform="matrix(0.07407407407407401,0,0,0.07407407407407401,67.11111111111106,0)" xlink:href="#bm"/><use transform="matrix(0.07407407407407401,0,0,0.07407407407407401,72.9629629629629,0)" xlink:href="#bn"/><use transform="matrix(0.07407407407407401,0,0,0.07407407407407401,87.7777777777777,0)" xlink:href="#bW"/></g><g id="ax"><use transform="matrix(0.07407407407407401,0,0,0.07407407407407401,0,0)" xlink:href="#bl"/><use transform="matrix(0.07407407407407401,0,0,0.07407407407407401,14.814814814814802,0)" xlink:href="#bn"/></g><g id="ay"><use transform="matrix(0.07407407407407401,0,0,0.07407407407407401,0,0)" xlink:href="#bm"/><use transform="matrix(0.07407407407407401,0,0,0.07407407407407401,5.851851851851847,0)" xlink:href="#bn"/><use transform="matrix(0.07407407407407401,0,0,0.07407407407407401,20.66666666666665,0)" xlink:href="#bI"/><use transform="matrix(0.07407407407407401,0,0,0.07407407407407401,28.07407407407405,0)" xlink:href="#bl"/><use transform="matrix(0.07407407407407401,0,0,0.07407407407407401,42.88888888888886,0)" xlink:href="#bn"/><use transform="matrix(0.07407407407407401,0,0,0.07407407407407401,57.70370370370366,0)" xlink:href="#bo"/></g><path fill="#3a414a" d="M24 0v-248h52v208h133V0H24" id="bX"/><path fill="#3a414a" d="M185-48c-13 30-37 53-82 52C43 2 14-33 14-96s30-98 90-98c62 0 83 45 84 108H66c0 31 8 55 39 56 18 0 30-7 34-22zm-45-69c5-46-57-63-70-21-2 6-4 13-4 21h74" id="bY"/><path fill="#3a414a" d="M195-6C206 82 75 100 31 46c-4-6-6-13-8-21l49-6c3 16 16 24 34 25 40 0 42-37 40-79-11 22-30 35-61 35-53 0-70-43-70-97 0-56 18-96 73-97 30 0 46 14 59 34l2-30h47zm-90-29c32 0 41-27 41-63 0-35-9-62-40-62-32 0-39 29-40 63 0 36 9 62 39 62" id="bZ"/><path fill="#3a414a" d="M135-194c87-1 58 113 63 194h-50c-7-57 23-157-34-157-59 0-34 97-39 157H25l-1-190h47c2 12-1 28 3 38 12-26 28-41 61-42" id="ca"/><path fill="#3a414a" d="M88-194c31-1 46 15 58 34l-1-101h50l1 261h-48c-2-10 0-23-3-31C134-8 116 4 84 4 32 4 16-41 15-95c0-56 19-97 73-99zm17 164c33 0 40-30 41-66 1-37-9-64-41-64s-38 30-39 65c0 43 13 65 39 65" id="cb"/><g id="az"><use transform="matrix(0.08641975308641976,0,0,0.08641975308641976,0,0)" xlink:href="#bX"/><use transform="matrix(0.08641975308641976,0,0,0.08641975308641976,18.925925925925927,0)" xlink:href="#bY"/><use transform="matrix(0.08641975308641976,0,0,0.08641975308641976,36.20987654320988,0)" xlink:href="#bZ"/><use transform="matrix(0.08641975308641976,0,0,0.08641975308641976,55.13580246913581,0)" xlink:href="#bY"/><use transform="matrix(0.08641975308641976,0,0,0.08641975308641976,72.41975308641976,0)" xlink:href="#ca"/><use transform="matrix(0.08641975308641976,0,0,0.08641975308641976,91.34567901234568,0)" xlink:href="#cb"/></g></defs></g></svg>