<svg xmlns="http://www.w3.org/2000/svg" xmlns:xlink="http://www.w3.org/1999/xlink" xmlns:lucid="lucid" width="991.56" height="223.24"><g transform="translate(-2712.707993171542 -11514.456100090978)" lucid:page-tab-id="YDyKk7ZmHaDl"><path d="M2713.2 11593.65a6 6 0 0 1 6-6h172.2a6 6 0 0 1 6 6v81.52a6 6 0 0 1-6 6h-172.2a6 6 0 0 1-6-6z" stroke="#3a414a" fill="#ffe342"/><use xlink:href="#a" transform="matrix(1,0,0,1,2718.207993171542,11592.653416132436) translate(4.333333333333314 21.90625)"/><use xlink:href="#b" transform="matrix(1,0,0,1,2718.207993171542,11592.653416132436) translate(90.94444444444444 21.90625)"/><use xlink:href="#c" transform="matrix(1,0,0,1,2718.207993171542,11592.653416132436) translate(35.94444444444444 45.90625)"/><use xlink:href="#d" transform="matrix(1,0,0,1,2718.207993171542,11592.653416132436) translate(45.638888888888886 69.90625)"/><path d="M3027.5 11520.96a6 6 0 0 1 6-6H3150a6 6 0 0 1 6 6v71.83a6 6 0 0 1-6 6h-116.5a6 6 0 0 1-6-6z" stroke="#3a414a" fill="red"/><use xlink:href="#e" transform="matrix(1,0,0,1,3032.513386928097,11519.956100090978) translate(26.777777777777807 29.007812499999986)"/><use xlink:href="#f" transform="matrix(1,0,0,1,3032.513386928097,11519.956100090978) translate(33.47222222222225 53.00781249999996)"/><path d="M2962.93 11628.43l-.08 1-.24.98-.38.95-.53.87-.67.77-.77.65-.87.53-.95.4-1 .23-.98.1h-58.08v-.96h58.03l.9-.07.83-.2.8-.34.74-.45.66-.56.56-.66.45-.74.33-.8.2-.85.07-.88v-23.42h.96zm47.7-71.08h-42.16l-.88.07-.86.2-.8.33-.74.45-.65.57-.57.66-.45.73-.33.8-.2.85-.07.9v23.4h-.95v-23.45l.07-1 .24-.98.38-.94.53-.86.67-.78.77-.67.87-.53.95-.4 1-.23.98-.07h42.2z" stroke="#3a414a" stroke-width=".05" fill="#3a414a"/><path d="M2898.4 11634.9h-.5v-.96h.5z" fill="#3a414a"/><path stroke="#3a414a" stroke-width=".05" fill="#3a414a"/><path d="M3025.4 11556.87l-14.27 4.64v-9.26z" fill="#3a414a"/><path d="M3026.93 11556.87l-16.27 5.3v-10.6zm-15.32 3.98l12.26-3.98-12.26-3.98z" stroke="#3a414a" stroke-width=".05" fill="#3a414a"/><use xlink:href="#g" transform="matrix(1,0,0,1,2922.805375321425,11586.308147796324) translate(0 12.44444444444444)"/><path d="M3092.24 11636.48h-.95v-1.07h.94zm0-19.74h-.95v-16.95h.94z" stroke="#3a414a" stroke-width=".05" fill="#3a414a"/><path d="M3092.24 11599.8h-.95v-.5h.94z" fill="#3a414a"/><path stroke="#3a414a" stroke-width=".05" fill="#3a414a"/><path d="M3091.76 11651.24l-4.63-14.26h9.27z" fill="#3a414a"/><path d="M3091.76 11652.78l-5.3-16.28h10.6zm-3.98-15.33l3.98 12.25 3.98-12.25z" stroke="#3a414a" stroke-width=".05" fill="#3a414a"/><use xlink:href="#h" transform="matrix(1,0,0,1,3053.8014996289107,11616.74031548645) translate(0 12.44444444444444)"/><use xlink:href="#i" transform="matrix(1,0,0,1,3053.8014996289107,11616.74031548645) translate(57.814814814814795 12.44444444444444)"/><path d="M3276.07 11597.28a6 6 0 0 1 6-6h106.77a6 6 0 0 1 6 6v68.24a6 6 0 0 1-6 6h-106.77a6 6 0 0 1-6-6z" stroke="#3a414a" fill="khaki"/><use xlink:href="#j" transform="matrix(1,0,0,1,3281.0696553055895,11596.28268049825) translate(7.444444444444443 39.57421875)"/><path d="M3216.5 11625.38l.08.9.2.83.34.8.45.75.56.66.66.57.73.45.8.34.85.2.88.07h37.13v.95H3222l-1-.08-.98-.24-.94-.4-.87-.52-.77-.66-.66-.77-.53-.86-.4-.94-.23-.98-.07-1v-21.95h.94zm-5.45-68.9l1 .23.93.4.87.53.77.66.66.77.53.86.4.94.24 1 .07.98v21.95h-.93v-21.9l-.08-.9-.2-.83-.34-.8-.45-.75-.55-.65-.66-.57-.75-.45-.8-.33-.85-.2-.88-.07h-53v-.95h53.04z" stroke="#3a414a" stroke-width=".05" fill="#3a414a"/><path d="M3157.02 11557.35h-.5v-.95h.5z" fill="#3a414a"/><path stroke="#3a414a" stroke-width=".05" fill="#3a414a"/><path d="M3273.95 11631.4l-14.26 4.64v-9.27z" fill="#3a414a"/><path d="M3275.5 11631.4l-16.3 5.3v-10.6zm-15.34 3.98l12.25-3.98-12.24-3.98z" stroke="#3a414a" stroke-width=".05" fill="#3a414a"/><use xlink:href="#k" transform="matrix(1,0,0,1,3170.345065672399,11584.803450705664) translate(0 12.44444444444444)"/><use xlink:href="#i" transform="matrix(1,0,0,1,3170.345065672399,11584.803450705664) translate(73.28395061728394 12.44444444444444)"/><path d="M3216.5 11689.3l-.06 1-.24.98-.4.94-.52.86-.66.78-.77.66-.87.53-.94.4-1 .22-.98.08H3157v-.95h53.02l.88-.07.85-.2.8-.33.74-.45.64-.57.57-.66.46-.73.33-.8.2-.86.07-.88v-16.6h.94zm42.7-57.42h-37.14l-.88.07-.85.2-.8.33-.74.45-.67.57-.56.66-.45.73-.33.8-.22.84-.07.88v16.6h-.93v-16.64l.07-1 .24-.98.4-.94.52-.86.66-.78.77-.66.87-.53.94-.4 1-.23.98-.07h37.17z" stroke="#3a414a" stroke-width=".05" fill="#3a414a"/><path d="M3157.02 11695.75h-.5v-.95h.5z" fill="#3a414a"/><path stroke="#3a414a" stroke-width=".05" fill="#3a414a"/><path d="M3273.95 11631.4l-14.26 4.64v-9.27z" fill="#3a414a"/><path d="M3275.5 11631.4l-16.3 5.3v-10.6zm-15.34 3.98l12.25-3.98-12.24-3.98z" stroke="#3a414a" stroke-width=".05" fill="#3a414a"/><use xlink:href="#k" transform="matrix(1,0,0,1,3170.345065672399,11654.006964716249) translate(0 12.44444444444444)"/><use xlink:href="#i" transform="matrix(1,0,0,1,3170.345065672399,11654.006964716249) translate(73.28395061728394 12.44444444444444)"/><path d="M3027.5 11659.36a6 6 0 0 1 6-6H3150a6 6 0 0 1 6 6v71.84a6 6 0 0 1-6 6h-116.5a6 6 0 0 1-6-6z" stroke="#3a414a" fill="#ff8c00"/><use xlink:href="#e" transform="matrix(1,0,0,1,3032.5133869280976,11658.360069548591) translate(26.777777777777807 29.007812499999986)"/><use xlink:href="#l" transform="matrix(1,0,0,1,3032.5133869280976,11658.360069548591) translate(29.555555555555586 53.00781249999996)"/><path d="M3411.96 11631.88h-16.12v-.95h16.12zm86.06 0h-17.05v-.95h17.05z" stroke="#3a414a" stroke-width=".05" fill="#3a414a"/><path d="M3395.86 11631.88h-.52v-.95h.52z" fill="#3a414a"/><path stroke="#3a414a" stroke-width=".05" fill="#3a414a"/><path d="M3512.8 11631.4l-14.28 4.64v-9.27z" fill="#3a414a"/><path d="M3514.32 11631.4l-16.28 5.3v-10.6zm-15.33 3.98l12.25-3.98-12.26-3.98z" stroke="#3a414a" stroke-width=".05" fill="#3a414a"/><g><use xlink:href="#m" transform="matrix(1,0,0,1,3411.96177758025,11622.068570451116) translate(0 12.44444444444444)"/><use xlink:href="#n" transform="matrix(1,0,0,1,3411.96177758025,11622.068570451116) translate(55.2222222222222 12.44444444444444)"/></g><path d="M3514.9 11587.64a6 6 0 0 1 6-6h176.87a6 6 0 0 1 6 6v87.53a6 6 0 0 1-6 6H3520.9a6 6 0 0 1-6-6z" stroke="#3a414a" fill="#54c35e"/><g><use xlink:href="#o" transform="matrix(1,0,0,1,3519.903782056057,11586.634627769796) translate(39.11111111111116 37.093749999999986)"/><use xlink:href="#p" transform="matrix(1,0,0,1,3519.903782056057,11586.634627769796) translate(5.861111111111185 61.093749999999964)"/><use xlink:href="#q" transform="matrix(1,0,0,1,3519.903782056057,11586.634627769796) translate(133.3611111111111 61.093749999999964)"/></g><defs><path fill="#3a414a" d="M24-248c93 1 206-16 204 79-1 75-69 88-152 82V0H24v-248zm52 121c47 0 100 7 100-41 0-47-54-39-100-39v80" id="r"/><path fill="#3a414a" d="M114-157C55-157 80-60 75 0H25v-261h50l-1 109c12-26 28-41 61-42 86-1 58 113 63 194h-50c-7-57 23-157-34-157" id="s"/><path fill="#3a414a" d="M123 10C108 53 80 86 19 72V37c35 8 53-11 59-39L3-190h52l48 148c12-52 28-100 44-148h51" id="t"/><path fill="#3a414a" d="M137-138c1-29-70-34-71-4 15 46 118 7 119 86 1 83-164 76-172 9l43-7c4 19 20 25 44 25 33 8 57-30 24-41C81-84 22-81 20-136c-2-80 154-74 161-7" id="u"/><path fill="#3a414a" d="M25-224v-37h50v37H25zM25 0v-190h50V0H25" id="v"/><path fill="#3a414a" d="M190-63c-7 42-38 67-86 67-59 0-84-38-90-98-12-110 154-137 174-36l-49 2c-2-19-15-32-35-32-30 0-35 28-38 64-6 74 65 87 74 30" id="w"/><path fill="#3a414a" d="M133-34C117-15 103 5 69 4 32 3 11-16 11-54c-1-60 55-63 116-61 1-26-3-47-28-47-18 1-26 9-28 27l-52-2c7-38 36-58 82-57s74 22 75 68l1 82c-1 14 12 18 25 15v27c-30 8-71 5-69-32zm-48 3c29 0 43-24 42-57-32 0-66-3-65 30 0 17 8 27 23 27" id="x"/><path fill="#3a414a" d="M25 0v-261h50V0H25" id="y"/><g id="a"><use transform="matrix(0.05555555555555555,0,0,0.05555555555555555,0,0)" xlink:href="#r"/><use transform="matrix(0.05555555555555555,0,0,0.05555555555555555,13.333333333333332,0)" xlink:href="#s"/><use transform="matrix(0.05555555555555555,0,0,0.05555555555555555,25.5,0)" xlink:href="#t"/><use transform="matrix(0.05555555555555555,0,0,0.05555555555555555,36.611111111111114,0)" xlink:href="#u"/><use transform="matrix(0.05555555555555555,0,0,0.05555555555555555,47.72222222222223,0)" xlink:href="#v"/><use transform="matrix(0.05555555555555555,0,0,0.05555555555555555,53.277777777777786,0)" xlink:href="#w"/><use transform="matrix(0.05555555555555555,0,0,0.05555555555555555,64.3888888888889,0)" xlink:href="#x"/><use transform="matrix(0.05555555555555555,0,0,0.05555555555555555,75.50000000000001,0)" xlink:href="#y"/></g><path fill="#3a414a" d="M169-182c-1-43-94-46-97-3 18 66 151 10 154 114 3 95-165 93-204 36-6-8-10-19-12-30l50-8c3 46 112 56 116 5-17-69-150-10-154-114-4-87 153-88 188-35 5 8 8 18 10 28" id="z"/><path fill="#3a414a" d="M110-194c64 0 96 36 96 99 0 64-35 99-97 99-61 0-95-36-95-99 0-62 34-99 96-99zm-1 164c35 0 45-28 45-65 0-40-10-65-43-65-34 0-45 26-45 65 0 36 10 65 43 65" id="A"/><path fill="#3a414a" d="M85 4C-2 5 27-109 22-190h50c7 57-23 150 33 157 60-5 35-97 40-157h50l1 190h-47c-2-12 1-28-3-38-12 25-28 42-61 42" id="B"/><path fill="#3a414a" d="M115-3C79 11 28 4 28-45v-112H4v-33h27l15-45h31v45h36v33H77v99c-1 23 16 31 38 25v30" id="C"/><path fill="#3a414a" d="M135-194c87-1 58 113 63 194h-50c-7-57 23-157-34-157-59 0-34 97-39 157H25l-1-190h47c2 12-1 28 3 38 12-26 28-41 61-42" id="D"/><g id="b"><use transform="matrix(0.05555555555555555,0,0,0.05555555555555555,0,0)" xlink:href="#z"/><use transform="matrix(0.05555555555555555,0,0,0.05555555555555555,13.333333333333332,0)" xlink:href="#A"/><use transform="matrix(0.05555555555555555,0,0,0.05555555555555555,25.5,0)" xlink:href="#y"/><use transform="matrix(0.05555555555555555,0,0,0.05555555555555555,31.05555555555556,0)" xlink:href="#B"/><use transform="matrix(0.05555555555555555,0,0,0.05555555555555555,43.22222222222222,0)" xlink:href="#C"/><use transform="matrix(0.05555555555555555,0,0,0.05555555555555555,49.83333333333333,0)" xlink:href="#v"/><use transform="matrix(0.05555555555555555,0,0,0.05555555555555555,55.388888888888886,0)" xlink:href="#A"/><use transform="matrix(0.05555555555555555,0,0,0.05555555555555555,67.55555555555556,0)" xlink:href="#D"/></g><path fill="#3a414a" d="M199 0l-22-63H83L61 0H9l90-248h61L250 0h-51zm-33-102l-36-108c-10 38-24 72-36 108h72" id="E"/><path fill="#3a414a" d="M185-48c-13 30-37 53-82 52C43 2 14-33 14-96s30-98 90-98c62 0 83 45 84 108H66c0 31 8 55 39 56 18 0 30-7 34-22zm-45-69c5-46-57-63-70-21-2 6-4 13-4 21h74" id="F"/><path fill="#3a414a" d="M135-150c-39-12-60 13-60 57V0H25l-1-190h47c2 13-1 29 3 40 6-28 27-53 61-41v41" id="G"/><path fill="#3a414a" d="M128 0H69L1-190h53L99-40l48-150h52" id="H"/><g id="c"><use transform="matrix(0.05555555555555555,0,0,0.05555555555555555,0,0)" xlink:href="#E"/><use transform="matrix(0.05555555555555555,0,0,0.05555555555555555,14.388888888888888,0)" xlink:href="#y"/><use transform="matrix(0.05555555555555555,0,0,0.05555555555555555,19.944444444444443,0)" xlink:href="#C"/><use transform="matrix(0.05555555555555555,0,0,0.05555555555555555,26.555555555555554,0)" xlink:href="#F"/><use transform="matrix(0.05555555555555555,0,0,0.05555555555555555,37.666666666666664,0)" xlink:href="#G"/><use transform="matrix(0.05555555555555555,0,0,0.05555555555555555,45.44444444444444,0)" xlink:href="#D"/><use transform="matrix(0.05555555555555555,0,0,0.05555555555555555,57.61111111111111,0)" xlink:href="#x"/><use transform="matrix(0.05555555555555555,0,0,0.05555555555555555,68.72222222222221,0)" xlink:href="#C"/><use transform="matrix(0.05555555555555555,0,0,0.05555555555555555,75.33333333333333,0)" xlink:href="#v"/><use transform="matrix(0.05555555555555555,0,0,0.05555555555555555,80.88888888888889,0)" xlink:href="#H"/><use transform="matrix(0.05555555555555555,0,0,0.05555555555555555,92,0)" xlink:href="#F"/></g><path fill="#3a414a" d="M67-93c0 74 22 123 53 168H70C40 30 18-18 18-93s22-123 52-168h50c-32 44-53 94-53 168" id="I"/><path fill="#3a414a" d="M14-72v-43h91v43H14" id="J"/><path fill="#3a414a" d="M24 0v-248h52v208h133V0H24" id="K"/><path fill="#3a414a" d="M136-208V0H84v-208H4v-40h212v40h-80" id="L"/><path fill="#3a414a" d="M102-93c0 74-22 123-52 168H0C30 29 54-18 53-93c0-74-22-123-53-168h50c30 45 52 94 52 168" id="M"/><g id="d"><use transform="matrix(0.05555555555555555,0,0,0.05555555555555555,0,0)" xlink:href="#I"/><use transform="matrix(0.05555555555555555,0,0,0.05555555555555555,6.611111111111111,0)" xlink:href="#r"/><use transform="matrix(0.05555555555555555,0,0,0.05555555555555555,19.944444444444443,0)" xlink:href="#z"/><use transform="matrix(0.05555555555555555,0,0,0.05555555555555555,33.27777777777777,0)" xlink:href="#J"/><use transform="matrix(0.05555555555555555,0,0,0.05555555555555555,39.888888888888886,0)" xlink:href="#E"/><use transform="matrix(0.05555555555555555,0,0,0.05555555555555555,54.27777777777777,0)" xlink:href="#K"/><use transform="matrix(0.05555555555555555,0,0,0.05555555555555555,64.94444444444444,0)" xlink:href="#L"/><use transform="matrix(0.05555555555555555,0,0,0.05555555555555555,77.11111111111111,0)" xlink:href="#M"/></g><path fill="#3a414a" d="M76-208v77h127v40H76V0H24v-248h183v40H76" id="N"/><g id="e"><use transform="matrix(0.0555555555555555,0,0,0.0555555555555555,0,0)" xlink:href="#N"/><use transform="matrix(0.0555555555555555,0,0,0.0555555555555555,12.166666666666654,0)" xlink:href="#x"/><use transform="matrix(0.0555555555555555,0,0,0.0555555555555555,23.277777777777754,0)" xlink:href="#v"/><use transform="matrix(0.0555555555555555,0,0,0.0555555555555555,28.833333333333304,0)" xlink:href="#y"/><use transform="matrix(0.0555555555555555,0,0,0.0555555555555555,34.38888888888886,0)" xlink:href="#B"/><use transform="matrix(0.0555555555555555,0,0,0.0555555555555555,46.555555555555515,0)" xlink:href="#G"/><use transform="matrix(0.0555555555555555,0,0,0.0555555555555555,54.333333333333286,0)" xlink:href="#F"/></g><path fill="#3a414a" d="M230 0l2-204L168 0h-37L68-204 70 0H24v-248h70l56 185 57-185h69V0h-46" id="O"/><path fill="#3a414a" d="M88-194c31-1 46 15 58 34l-1-101h50l1 261h-48c-2-10 0-23-3-31C134-8 116 4 84 4 32 4 16-41 15-95c0-56 19-97 73-99zm17 164c33 0 40-30 41-66 1-37-9-64-41-64s-38 30-39 65c0 43 13 65 39 65" id="P"/><g id="f"><use transform="matrix(0.0555555555555555,0,0,0.0555555555555555,0,0)" xlink:href="#O"/><use transform="matrix(0.0555555555555555,0,0,0.0555555555555555,16.611111111111093,0)" xlink:href="#A"/><use transform="matrix(0.0555555555555555,0,0,0.0555555555555555,28.777777777777747,0)" xlink:href="#P"/><use transform="matrix(0.0555555555555555,0,0,0.0555555555555555,40.9444444444444,0)" xlink:href="#F"/></g><path fill="#333" d="M25-224v-37h50v37H25zM25 0v-190h50V0H25" id="Q"/><path fill="#333" d="M135-194c87-1 58 113 63 194h-50c-7-57 23-157-34-157-59 0-34 97-39 157H25l-1-190h47c2 12-1 28 3 38 12-26 28-41 61-42" id="R"/><path fill="#333" d="M115-3C79 11 28 4 28-45v-112H4v-33h27l15-45h31v45h36v33H77v99c-1 23 16 31 38 25v30" id="S"/><path fill="#333" d="M135-150c-39-12-60 13-60 57V0H25l-1-190h47c2 13-1 29 3 40 6-28 27-53 61-41v41" id="T"/><path fill="#333" d="M110-194c64 0 96 36 96 99 0 64-35 99-97 99-61 0-95-36-95-99 0-62 34-99 96-99zm-1 164c35 0 45-28 45-65 0-40-10-65-43-65-34 0-45 26-45 65 0 36 10 65 43 65" id="U"/><path fill="#333" d="M88-194c31-1 46 15 58 34l-1-101h50l1 261h-48c-2-10 0-23-3-31C134-8 116 4 84 4 32 4 16-41 15-95c0-56 19-97 73-99zm17 164c33 0 40-30 41-66 1-37-9-64-41-64s-38 30-39 65c0 43 13 65 39 65" id="V"/><path fill="#333" d="M85 4C-2 5 27-109 22-190h50c7 57-23 150 33 157 60-5 35-97 40-157h50l1 190h-47c-2-12 1-28-3-38-12 25-28 42-61 42" id="W"/><path fill="#333" d="M190-63c-7 42-38 67-86 67-59 0-84-38-90-98-12-110 154-137 174-36l-49 2c-2-19-15-32-35-32-30 0-35 28-38 64-6 74 65 87 74 30" id="X"/><path fill="#333" d="M185-48c-13 30-37 53-82 52C43 2 14-33 14-96s30-98 90-98c62 0 83 45 84 108H66c0 31 8 55 39 56 18 0 30-7 34-22zm-45-69c5-46-57-63-70-21-2 6-4 13-4 21h74" id="Y"/><path fill="#333" d="M137-138c1-29-70-34-71-4 15 46 118 7 119 86 1 83-164 76-172 9l43-7c4 19 20 25 44 25 33 8 57-30 24-41C81-84 22-81 20-136c-2-80 154-74 161-7" id="Z"/><g id="g"><use transform="matrix(0.04320987654320985,0,0,0.04320987654320985,0,0)" xlink:href="#Q"/><use transform="matrix(0.04320987654320985,0,0,0.04320987654320985,4.3209876543209855,0)" xlink:href="#R"/><use transform="matrix(0.04320987654320985,0,0,0.04320987654320985,13.783950617283944,0)" xlink:href="#S"/><use transform="matrix(0.04320987654320985,0,0,0.04320987654320985,18.925925925925917,0)" xlink:href="#T"/><use transform="matrix(0.04320987654320985,0,0,0.04320987654320985,24.975308641975296,0)" xlink:href="#U"/><use transform="matrix(0.04320987654320985,0,0,0.04320987654320985,34.43827160493825,0)" xlink:href="#V"/><use transform="matrix(0.04320987654320985,0,0,0.04320987654320985,43.90123456790121,0)" xlink:href="#W"/><use transform="matrix(0.04320987654320985,0,0,0.04320987654320985,53.36419753086418,0)" xlink:href="#X"/><use transform="matrix(0.04320987654320985,0,0,0.04320987654320985,62.00617283950615,0)" xlink:href="#Y"/><use transform="matrix(0.04320987654320985,0,0,0.04320987654320985,70.64814814814812,0)" xlink:href="#Z"/></g><path fill="#333" d="M133-34C117-15 103 5 69 4 32 3 11-16 11-54c-1-60 55-63 116-61 1-26-3-47-28-47-18 1-26 9-28 27l-52-2c7-38 36-58 82-57s74 22 75 68l1 82c-1 14 12 18 25 15v27c-30 8-71 5-69-32zm-48 3c29 0 43-24 42-57-32 0-66-3-65 30 0 17 8 27 23 27" id="aa"/><g id="h"><use transform="matrix(0.04320987654320985,0,0,0.04320987654320985,0,0)" xlink:href="#X"/><use transform="matrix(0.04320987654320985,0,0,0.04320987654320985,8.641975308641971,0)" xlink:href="#aa"/><use transform="matrix(0.04320987654320985,0,0,0.04320987654320985,17.283950617283942,0)" xlink:href="#W"/><use transform="matrix(0.04320987654320985,0,0,0.04320987654320985,26.7469135802469,0)" xlink:href="#Z"/><use transform="matrix(0.04320987654320985,0,0,0.04320987654320985,35.38888888888887,0)" xlink:href="#Y"/><use transform="matrix(0.04320987654320985,0,0,0.04320987654320985,44.030864197530846,0)" xlink:href="#V"/></g><path fill="#333" d="M135-194c52 0 70 43 70 98 0 56-19 99-73 100-30 1-46-15-58-35L72 0H24l1-261h50v104c11-23 29-37 60-37zM114-30c31 0 40-27 40-66 0-37-7-63-39-63s-41 28-41 65c0 36 8 64 40 64" id="ab"/><path fill="#333" d="M123 10C108 53 80 86 19 72V37c35 8 53-11 59-39L3-190h52l48 148c12-52 28-100 44-148h51" id="ac"/><g id="i"><use transform="matrix(0.04320987654320985,0,0,0.04320987654320985,0,0)" xlink:href="#ab"/><use transform="matrix(0.04320987654320985,0,0,0.04320987654320985,9.462962962962958,0)" xlink:href="#ac"/></g><path fill="#3a414a" d="M195-6C206 82 75 100 31 46c-4-6-6-13-8-21l49-6c3 16 16 24 34 25 40 0 42-37 40-79-11 22-30 35-61 35-53 0-70-43-70-97 0-56 18-96 73-97 30 0 46 14 59 34l2-30h47zm-90-29c32 0 41-27 41-63 0-35-9-62-40-62-32 0-39 29-40 63 0 36 9 62 39 62" id="ad"/><g id="j"><use transform="matrix(0.05555555555555555,0,0,0.05555555555555555,0,0)" xlink:href="#O"/><use transform="matrix(0.05555555555555555,0,0,0.05555555555555555,16.61111111111111,0)" xlink:href="#v"/><use transform="matrix(0.05555555555555555,0,0,0.05555555555555555,22.166666666666664,0)" xlink:href="#C"/><use transform="matrix(0.05555555555555555,0,0,0.05555555555555555,28.777777777777775,0)" xlink:href="#v"/><use transform="matrix(0.05555555555555555,0,0,0.05555555555555555,34.33333333333333,0)" xlink:href="#ad"/><use transform="matrix(0.05555555555555555,0,0,0.05555555555555555,46.49999999999999,0)" xlink:href="#x"/><use transform="matrix(0.05555555555555555,0,0,0.05555555555555555,57.61111111111109,0)" xlink:href="#C"/><use transform="matrix(0.05555555555555555,0,0,0.05555555555555555,64.22222222222221,0)" xlink:href="#v"/><use transform="matrix(0.05555555555555555,0,0,0.05555555555555555,69.77777777777777,0)" xlink:href="#A"/><use transform="matrix(0.05555555555555555,0,0,0.05555555555555555,81.94444444444444,0)" xlink:href="#D"/></g><path fill="#333" d="M220-157c-53 9-28 100-34 157h-49v-107c1-27-5-49-29-50C55-147 81-57 75 0H25l-1-190h47c2 12-1 28 3 38 10-53 101-56 108 0 13-22 24-43 59-42 82 1 51 116 57 194h-49v-107c-1-25-5-48-29-50" id="ae"/><path fill="#333" d="M195-6C206 82 75 100 31 46c-4-6-6-13-8-21l49-6c3 16 16 24 34 25 40 0 42-37 40-79-11 22-30 35-61 35-53 0-70-43-70-97 0-56 18-96 73-97 30 0 46 14 59 34l2-30h47zm-90-29c32 0 41-27 41-63 0-35-9-62-40-62-32 0-39 29-40 63 0 36 9 62 39 62" id="af"/><g id="k"><use transform="matrix(0.04320987654320985,0,0,0.04320987654320985,0,0)" xlink:href="#ae"/><use transform="matrix(0.04320987654320985,0,0,0.04320987654320985,13.827160493827153,0)" xlink:href="#Q"/><use transform="matrix(0.04320987654320985,0,0,0.04320987654320985,18.148148148148138,0)" xlink:href="#S"/><use transform="matrix(0.04320987654320985,0,0,0.04320987654320985,23.29012345679011,0)" xlink:href="#Q"/><use transform="matrix(0.04320987654320985,0,0,0.04320987654320985,27.6111111111111,0)" xlink:href="#af"/><use transform="matrix(0.04320987654320985,0,0,0.04320987654320985,37.07407407407406,0)" xlink:href="#aa"/><use transform="matrix(0.04320987654320985,0,0,0.04320987654320985,45.71604938271604,0)" xlink:href="#S"/><use transform="matrix(0.04320987654320985,0,0,0.04320987654320985,50.858024691358004,0)" xlink:href="#Y"/><use transform="matrix(0.04320987654320985,0,0,0.04320987654320985,59.499999999999986,0)" xlink:href="#V"/></g><path fill="#3a414a" d="M67-125c0 53 21 87 73 88 37 1 54-22 65-47l45 17C233-25 199 4 140 4 58 4 20-42 15-125 8-235 124-281 211-232c18 10 29 29 36 50l-46 12c-8-25-30-41-62-41-52 0-71 34-72 86" id="ag"/><g id="l"><use transform="matrix(0.0555555555555555,0,0,0.0555555555555555,0,0)" xlink:href="#ag"/><use transform="matrix(0.0555555555555555,0,0,0.0555555555555555,14.388888888888873,0)" xlink:href="#x"/><use transform="matrix(0.0555555555555555,0,0,0.0555555555555555,25.49999999999997,0)" xlink:href="#B"/><use transform="matrix(0.0555555555555555,0,0,0.0555555555555555,37.66666666666663,0)" xlink:href="#u"/><use transform="matrix(0.0555555555555555,0,0,0.0555555555555555,48.77777777777773,0)" xlink:href="#F"/></g><path fill="#333" d="M25 0v-261h50V0H25" id="ah"/><g id="m"><use transform="matrix(0.04320987654320985,0,0,0.04320987654320985,0,0)" xlink:href="#T"/><use transform="matrix(0.04320987654320985,0,0,0.04320987654320985,6.049382716049379,0)" xlink:href="#Y"/><use transform="matrix(0.04320987654320985,0,0,0.04320987654320985,14.69135802469135,0)" xlink:href="#Z"/><use transform="matrix(0.04320987654320985,0,0,0.04320987654320985,23.33333333333332,0)" xlink:href="#W"/><use transform="matrix(0.04320987654320985,0,0,0.04320987654320985,32.796296296296276,0)" xlink:href="#ah"/><use transform="matrix(0.04320987654320985,0,0,0.04320987654320985,37.117283950617264,0)" xlink:href="#S"/><use transform="matrix(0.04320987654320985,0,0,0.04320987654320985,42.25925925925924,0)" xlink:href="#Z"/></g><g id="n"><use transform="matrix(0.04320987654320985,0,0,0.04320987654320985,0,0)" xlink:href="#Q"/><use transform="matrix(0.04320987654320985,0,0,0.04320987654320985,4.3209876543209855,0)" xlink:href="#R"/></g><g id="o"><use transform="matrix(0.055555555555555504,0,0,0.055555555555555504,0,0)" xlink:href="#N"/><use transform="matrix(0.055555555555555504,0,0,0.055555555555555504,12.166666666666655,0)" xlink:href="#B"/><use transform="matrix(0.055555555555555504,0,0,0.055555555555555504,24.33333333333331,0)" xlink:href="#D"/><use transform="matrix(0.055555555555555504,0,0,0.055555555555555504,36.499999999999964,0)" xlink:href="#w"/><use transform="matrix(0.055555555555555504,0,0,0.055555555555555504,47.611111111111065,0)" xlink:href="#C"/><use transform="matrix(0.055555555555555504,0,0,0.055555555555555504,54.22222222222217,0)" xlink:href="#v"/><use transform="matrix(0.055555555555555504,0,0,0.055555555555555504,59.77777777777772,0)" xlink:href="#A"/><use transform="matrix(0.055555555555555504,0,0,0.055555555555555504,71.94444444444437,0)" xlink:href="#D"/><use transform="matrix(0.055555555555555504,0,0,0.055555555555555504,84.11111111111103,0)" xlink:href="#x"/><use transform="matrix(0.055555555555555504,0,0,0.055555555555555504,95.22222222222213,0)" xlink:href="#y"/></g><path fill="#3a414a" d="M240-174c0 40-23 61-54 70L253 0h-59l-57-94H76V0H24v-248c93 4 217-23 216 74zM76-134c48-2 112 12 112-38 0-48-66-32-112-35v73" id="ai"/><path fill="#3a414a" d="M84 4C32 4 15-41 15-95c0-55 18-99 73-99 29 0 47 12 58 34l2-30h48l-1 265h-49V-32C136-9 114 4 84 4zm21-34c32 0 41-29 41-66 0-36-9-64-40-64-33 0-39 30-40 65 0 43 13 65 39 65" id="aj"/><path fill="#3a414a" d="M220-157c-53 9-28 100-34 157h-49v-107c1-27-5-49-29-50C55-147 81-57 75 0H25l-1-190h47c2 12-1 28 3 38 10-53 101-56 108 0 13-22 24-43 59-42 82 1 51 116 57 194h-49v-107c-1-25-5-48-29-50" id="ak"/><g id="p"><use transform="matrix(0.055555555555555504,0,0,0.055555555555555504,0,0)" xlink:href="#ai"/><use transform="matrix(0.055555555555555504,0,0,0.055555555555555504,14.388888888888875,0)" xlink:href="#F"/><use transform="matrix(0.055555555555555504,0,0,0.055555555555555504,25.499999999999975,0)" xlink:href="#aj"/><use transform="matrix(0.055555555555555504,0,0,0.055555555555555504,37.66666666666663,0)" xlink:href="#B"/><use transform="matrix(0.055555555555555504,0,0,0.055555555555555504,49.833333333333286,0)" xlink:href="#v"/><use transform="matrix(0.055555555555555504,0,0,0.055555555555555504,55.388888888888836,0)" xlink:href="#G"/><use transform="matrix(0.055555555555555504,0,0,0.055555555555555504,63.16666666666661,0)" xlink:href="#F"/><use transform="matrix(0.055555555555555504,0,0,0.055555555555555504,74.27777777777771,0)" xlink:href="#ak"/><use transform="matrix(0.055555555555555504,0,0,0.055555555555555504,92.05555555555547,0)" xlink:href="#F"/><use transform="matrix(0.055555555555555504,0,0,0.055555555555555504,103.16666666666657,0)" xlink:href="#D"/><use transform="matrix(0.055555555555555504,0,0,0.055555555555555504,115.33333333333323,0)" xlink:href="#C"/></g><g id="q"><use transform="matrix(0.055555555555555504,0,0,0.055555555555555504,0,0)" xlink:href="#I"/><use transform="matrix(0.055555555555555504,0,0,0.055555555555555504,6.611111111111105,0)" xlink:href="#N"/><use transform="matrix(0.055555555555555504,0,0,0.055555555555555504,18.77777777777776,0)" xlink:href="#ai"/><use transform="matrix(0.055555555555555504,0,0,0.055555555555555504,33.166666666666636,0)" xlink:href="#M"/></g></defs></g></svg>