<svg xmlns="http://www.w3.org/2000/svg" xmlns:xlink="http://www.w3.org/1999/xlink" xmlns:lucid="lucid" width="1561.76" height="572.24"><g transform="translate(-88.5899839395363 -38978.085804062765)" lucid:page-tab-id="YDyKk7ZmHaDl"><path d="M92.1 39085.6a12 12 0 0 1 12-12h1530.76a12 12 0 0 1 12 12v449.23a12 12 0 0 1-12 12H104.1a12 12 0 0 1-12-12z" stroke="#3a414a" stroke-width="7" fill="#fff"/><path d="M92.1 38993.6a12 12 0 0 1 12-12h923a12 12 0 0 1 12 12v56a12 12 0 0 1-12 12h-923a12 12 0 0 1-12-12z" stroke="#3a414a" stroke-width="7" fill="#3a414a"/><use xlink:href="#a" transform="matrix(1,0,0,1,108.0899839395363,39002.38580406277) translate(0 32)"/><use xlink:href="#b" transform="matrix(1,0,0,1,108.0899839395363,39002.38580406277) translate(66.66666666666666 32)"/><use xlink:href="#c" transform="matrix(1,0,0,1,108.0899839395363,39002.38580406277) translate(90.99999999999999 32)"/><use xlink:href="#d" transform="matrix(1,0,0,1,108.0899839395363,39002.38580406277) translate(173.1111111111111 32)"/><use xlink:href="#e" transform="matrix(1,0,0,1,108.0899839395363,39002.38580406277) translate(277.44444444444446 32)"/><use xlink:href="#f" transform="matrix(1,0,0,1,108.0899839395363,39002.38580406277) translate(383.77777777777777 32)"/><use xlink:href="#g" transform="matrix(1,0,0,1,108.0899839395363,39002.38580406277) translate(526.5555555555555 32)"/><use xlink:href="#h" transform="matrix(1,0,0,1,108.0899839395363,39002.38580406277) translate(550.8888888888889 32)"/><use xlink:href="#i" transform="matrix(1,0,0,1,108.0899839395363,39002.38580406277) translate(659.6666666666667 32)"/><use xlink:href="#j" transform="matrix(1,0,0,1,108.0899839395363,39002.38580406277) translate(693.0000000000001 32)"/><use xlink:href="#k" transform="matrix(1,0,0,1,108.0899839395363,39002.38580406277) translate(783.888888888889 32)"/><use xlink:href="#l" transform="matrix(1,0,0,1,108.0899839395363,39002.38580406277) translate(828.3333333333335 32)"/><path d="M219.07 39348.22a6 6 0 0 1 6-6h523.65a6 6 0 0 1 6 6v8a14.48 14.48 0 0 1-4.24 10.25l-1.52 1.5a14.48 14.48 0 0 1-10.24 4.25H225.07a6 6 0 0 1-6-6z" fill="#f2f3f5"/><path d="M754.72 39342.22v20l-10 10H219.07" stroke="#3a414a" fill="none"/><path d="M219.07 39348.22a6 6 0 0 1 6-6h523.65a6 6 0 0 1 6 6v189.07a6 6 0 0 1-6 6H225.07a6 6 0 0 1-6-6z" stroke="#3a414a" fill="none"/><use xlink:href="#m" transform="matrix(1,0,0,1,227.06557893593515,39342.22374446174) translate(0 19.444444444444443)"/><path d="M115.77 39135.45a6 6 0 0 1 6-6H235.5a6 6 0 0 1 6 6v131.33a6 6 0 0 1-6 6H121.77a6 6 0 0 1-6-6z" stroke="#3a414a" fill="#ff8f8f"/><use xlink:href="#n" transform="matrix(1,0,0,1,120.76910108685502,39134.44586334623) translate(21.055555555555564 18.039496527777775)"/><use xlink:href="#o" transform="matrix(1,0,0,1,120.76910108685502,39134.44586334623) translate(75.25308641975309 18.039496527777775)"/><use xlink:href="#p" transform="matrix(1,0,0,1,120.76910108685502,39134.44586334623) translate(5.006172839506185 44.70616319444444)"/><use xlink:href="#q" transform="matrix(1,0,0,1,120.76910108685502,39134.44586334623) translate(57.96913580246913 44.70616319444444)"/><use xlink:href="#r" transform="matrix(1,0,0,1,120.76910108685502,39134.44586334623) translate(0.037037037037045195 71.3728298611111)"/><use xlink:href="#s" transform="matrix(1,0,0,1,120.76910108685502,39134.44586334623) translate(23.432098765432105 71.3728298611111)"/><use xlink:href="#t" transform="matrix(1,0,0,1,120.76910108685502,39134.44586334623) translate(97.44444444444443 71.3728298611111)"/><use xlink:href="#u" transform="matrix(1,0,0,1,120.76910108685502,39134.44586334623) translate(29.820987654320994 98.03949652777777)"/><use xlink:href="#v" transform="matrix(1,0,0,1,120.76910108685502,39134.44586334623) translate(71.3641975308642 98.03949652777777)"/><use xlink:href="#w" transform="matrix(1,0,0,1,120.76910108685502,39134.44586334623) translate(30.870370370370374 124.70616319444443)"/><path d="M242.5 39201.1h18.57a.1.1 0 0 0 .1-.08.1.1 0 0 1 .1-.1h2.68" stroke="#3a414a" fill="none"/><path d="M242.5 39201.6h-.5v-.96h.5z" stroke="#3a414a" stroke-width=".05" fill="#3a414a"/><path d="M278.7 39200.93l-14.25 4.64v-9.28z" stroke="#3a414a" fill="#3a414a"/><path d="M872.93 39203.74c0 12.45-26.46 22.54-59.1 22.54-32.65 0-59.1-10.1-59.1-22.54s26.45-22.53 59.1-22.53c32.64 0 59.1 10.1 59.1 22.54z" stroke="#3a414a" fill="#fff"/><use xlink:href="#x" transform="matrix(1,0,0,1,759.7198374857546,39186.20713746803) translate(29.81364197530865 22.559027777777775)"/><path d="M1614.45 39203.74c0 12.45-26.46 22.54-59.1 22.54-32.65 0-59.1-10.1-59.1-22.54s26.45-22.53 59.1-22.53c32.64 0 59.1 10.1 59.1 22.54z" stroke="#3a414a" fill="#fff"/><use xlink:href="#y" transform="matrix(1,0,0,1,1501.2377727829848,39186.20713746803) translate(34.75191358024692 22.559027777777775)"/><path d="M873.94 39203.74h10.96" stroke="#3a414a" fill="none"/><path d="M873.95 39204.22h-.53l.02-.47-.02-.46v-.03h.53z" stroke="#3a414a" stroke-width=".05" fill="#3a414a"/><path d="M899.67 39203.74l-14.27 4.64v-9.27z" stroke="#3a414a" fill="#3a414a"/><path d="M280.83 39135.08a6 6 0 0 1 6-6h113.73a6 6 0 0 1 6 6v131.7a6 6 0 0 1-6 6H286.83a6 6 0 0 1-6-6z" stroke="#3a414a" fill="#ff8f8f"/><use xlink:href="#n" transform="matrix(1,0,0,1,285.8313771901119,39134.07979979746) translate(21.055555555555564 31.387152777777775)"/><use xlink:href="#z" transform="matrix(1,0,0,1,285.8313771901119,39134.07979979746) translate(75.25308641975309 31.387152777777775)"/><use xlink:href="#A" transform="matrix(1,0,0,1,285.8313771901119,39134.07979979746) translate(34.604938271604944 58.05381944444444)"/><use xlink:href="#B" transform="matrix(1,0,0,1,285.8313771901119,39134.07979979746) translate(25.345679012345684 84.7204861111111)"/><use xlink:href="#C" transform="matrix(1,0,0,1,285.8313771901119,39134.07979979746) translate(33.92592592592593 111.38715277777777)"/><path d="M438.66 39135.45a6 6 0 0 1 6-6H558.4a6 6 0 0 1 6 6v131.33a6 6 0 0 1-6 6H444.65a6 6 0 0 1-6-6z" stroke="#3a414a" fill="#ff8f8f"/><use xlink:href="#n" transform="matrix(1,0,0,1,443.65694234984323,39134.44586334623) translate(21.055555555555564 18.039496527777775)"/><use xlink:href="#D" transform="matrix(1,0,0,1,443.65694234984323,39134.44586334623) translate(75.25308641975309 18.039496527777775)"/><use xlink:href="#A" transform="matrix(1,0,0,1,443.65694234984323,39134.44586334623) translate(34.604938271604944 44.70616319444444)"/><use xlink:href="#E" transform="matrix(1,0,0,1,443.65694234984323,39134.44586334623) translate(21.611111111111114 71.3728298611111)"/><use xlink:href="#F" transform="matrix(1,0,0,1,443.65694234984323,39134.44586334623) translate(19.14197530864198 98.03949652777777)"/><use xlink:href="#G" transform="matrix(1,0,0,1,443.65694234984323,39134.44586334623) translate(78.33950617283949 98.03949652777777)"/><use xlink:href="#H" transform="matrix(1,0,0,1,443.65694234984323,39134.44586334623) translate(2.0123456790123484 124.70616319444443)"/><path d="M407.56 39200.93h14.96a.1.1 0 0 1 .1.1.1.1 0 0 0 .08.08h.97" stroke="#3a414a" fill="none"/><path d="M407.57 39201.4h-.5v-.95h.5z" stroke="#3a414a" stroke-width=".05" fill="#3a414a"/><path d="M437.16 39201.1l-13 7.5v-15z" stroke="#3a414a" fill="#3a414a"/><path d="M598.9 39135.45a6 6 0 0 1 6-6h113.75a6 6 0 0 1 6 6v131.33a6 6 0 0 1-6 6H604.9a6 6 0 0 1-6-6z" stroke="#3a414a" fill="#ff8f8f"/><use xlink:href="#n" transform="matrix(1,0,0,1,603.9152939458929,39134.44586334623) translate(21.055555555555564 18.039496527777775)"/><use xlink:href="#I" transform="matrix(1,0,0,1,603.9152939458929,39134.44586334623) translate(75.25308641975309 18.039496527777775)"/><use xlink:href="#A" transform="matrix(1,0,0,1,603.9152939458929,39134.44586334623) translate(34.604938271604944 44.70616319444444)"/><use xlink:href="#J" transform="matrix(1,0,0,1,603.9152939458929,39134.44586334623) translate(20.43827160493828 71.3728298611111)"/><use xlink:href="#K" transform="matrix(1,0,0,1,603.9152939458929,39134.44586334623) translate(19.14197530864199 98.03949652777777)"/><use xlink:href="#L" transform="matrix(1,0,0,1,603.9152939458929,39134.44586334623) translate(19.14197530864198 124.70616319444443)"/><path d="M565.4 39201.1h18.52" stroke="#3a414a" fill="none"/><path d="M565.4 39201.6h-.5v-.96h.5z" stroke="#3a414a" stroke-width=".05" fill="#3a414a"/><path d="M597.4 39201.1l-12.98 7.5v-15z" stroke="#3a414a" fill="#3a414a"/><path d="M901.8 39147.3a6 6 0 0 1 6-6h158.27a6 6 0 0 1 6 6v112.9a6 6 0 0 1-6 6H907.8a6 6 0 0 1-6-6z" stroke="#3a414a" fill="#9391ff"/><use xlink:href="#n" transform="matrix(1,0,0,1,906.785958532622,39146.28568481763) translate(43.555555555555564 21.820746527777775)"/><use xlink:href="#M" transform="matrix(1,0,0,1,906.785958532622,39146.28568481763) translate(97.75308641975309 21.820746527777775)"/><use xlink:href="#N" transform="matrix(1,0,0,1,906.785958532622,39146.28568481763) translate(42.29012345679013 48.48741319444444)"/><use xlink:href="#O" transform="matrix(1,0,0,1,906.785958532622,39146.28568481763) translate(29.975308641975317 75.1540798611111)"/><use xlink:href="#P" transform="matrix(1,0,0,1,906.785958532622,39146.28568481763) translate(115.03703703703702 75.1540798611111)"/><use xlink:href="#Q" transform="matrix(1,0,0,1,906.785958532622,39146.28568481763) translate(31.796296296296305 101.82074652777777)"/><path d="M725.64 39201.1h14.23v.02h.24" stroke="#3a414a" fill="none"/><path d="M725.66 39201.6h-.5v-.96h.5z" stroke="#3a414a" stroke-width=".05" fill="#3a414a"/><path d="M753.6 39201.12l-13 7.5v-15z" stroke="#3a414a" fill="#3a414a"/><path d="M1132.9 39138.08a6 6 0 0 1 6-6h158.3a6 6 0 0 1 6 6v131.33a6 6 0 0 1-6 6h-158.3a6 6 0 0 1-6-6z" stroke="#3a414a" fill="#9391ff"/><use xlink:href="#n" transform="matrix(1,0,0,1,1137.9061173584817,39137.07630068248) translate(43.555555555555564 18.039496527777775)"/><use xlink:href="#R" transform="matrix(1,0,0,1,1137.9061173584817,39137.07630068248) translate(97.75308641975309 18.039496527777775)"/><use xlink:href="#S" transform="matrix(1,0,0,1,1137.9061173584817,39137.07630068248) translate(39.20370370370371 44.70616319444444)"/><use xlink:href="#T" transform="matrix(1,0,0,1,1137.9061173584817,39137.07630068248) translate(9.604938271604937 71.3728298611111)"/><use xlink:href="#U" transform="matrix(1,0,0,1,1137.9061173584817,39137.07630068248) translate(110.77777777777777 71.3728298611111)"/><use xlink:href="#V" transform="matrix(1,0,0,1,1137.9061173584817,39137.07630068248) translate(6.487654320987659 98.03949652777777)"/><use xlink:href="#W" transform="matrix(1,0,0,1,1137.9061173584817,39137.07630068248) translate(108.95679012345678 98.03949652777777)"/><use xlink:href="#X" transform="matrix(1,0,0,1,1137.9061173584817,39137.07630068248) translate(36.08641975308643 124.70616319444443)"/><path d="M1073.07 39203.74h44.82" stroke="#3a414a" fill="none"/><path d="M1073.08 39204.22h-.5v-.95h.5z" stroke="#3a414a" stroke-width=".05" fill="#3a414a"/><path d="M1131.4 39203.74l-13 7.5v-15z" stroke="#3a414a" fill="#3a414a"/><path d="M1461.1 39203.74c0 12.45-26.47 22.54-59.1 22.54-32.66 0-59.12-10.1-59.12-22.54s26.46-22.53 59.1-22.53c32.65 0 59.1 10.1 59.1 22.54z" stroke="#3a414a" fill="#fff"/><use xlink:href="#x" transform="matrix(1,0,0,1,1347.878811917351,39186.20713746803) translate(29.81364197530865 22.559027777777775)"/><path d="M1304.2 39203.74H1327.88" stroke="#3a414a" fill="none"/><path d="M1304.2 39204.22h-.5v-.95h.5z" stroke="#3a414a" stroke-width=".05" fill="#3a414a"/><path d="M1341.38 39203.74l-13 7.5v-15z" stroke="#3a414a" fill="#3a414a"/><path d="M1402 39180.2v-60.38a6 6 0 0 0-6-6H819.82a6 6 0 0 0-6 6v46.4" stroke="#3a414a" fill="none"/><path d="M1402.46 39180.73l-.47-.02-.5.02v-.53h.96z" stroke="#3a414a" stroke-width=".05" fill="#3a414a"/><path d="M813.83 39179.7l-7.5-12.98h15z" stroke="#3a414a" fill="#3a414a"/><path d="M1462.1 39203.74h19.15" stroke="#3a414a" fill="none"/><path d="M1462.1 39204.22h-.52l.02-.47-.02-.46v-.03h.53z" stroke="#3a414a" stroke-width=".05" fill="#3a414a"/><path d="M1494.74 39203.74l-13 7.5v-15z" stroke="#3a414a" fill="#3a414a"/><path d="M1364.68 39313a6 6 0 0 1 6-6h110.18a6 6 0 0 1 6 6v104.68a6 6 0 0 1-6 6h-110.18a6 6 0 0 1-6-6z" stroke="#3a414a" fill="#9391ff"/><g><use xlink:href="#n" transform="matrix(1,0,0,1,1369.684332007229,39312.01287758424) translate(19.555555555555564 18.195746527777775)"/><use xlink:href="#Y" transform="matrix(1,0,0,1,1369.684332007229,39312.01287758424) translate(73.75308641975309 18.195746527777775)"/><use xlink:href="#N" transform="matrix(1,0,0,1,1369.684332007229,39312.01287758424) translate(18.290123456790127 44.86241319444444)"/><use xlink:href="#O" transform="matrix(1,0,0,1,1369.684332007229,39312.01287758424) translate(5.975308641975317 71.5290798611111)"/><use xlink:href="#P" transform="matrix(1,0,0,1,1369.684332007229,39312.01287758424) translate(91.03703703703702 71.5290798611111)"/><use xlink:href="#Z" transform="matrix(1,0,0,1,1369.684332007229,39312.01287758424) translate(9.833333333333343 98.19574652777777)"/><use xlink:href="#aa" transform="matrix(1,0,0,1,1369.684332007229,39312.01287758424) translate(78.9074074074074 98.19574652777777)"/></g><path d="M1555.35 39227.28v33.37a6 6 0 0 1-6 6h-117.58a6 6 0 0 0-6 6v19.37" stroke="#3a414a" fill="none"/><path d="M1555.34 39226.78h.48v.5h-.95v-.52z" stroke="#3a414a" stroke-width=".05" fill="#3a414a"/><path d="M1425.77 39305.5l-7.5-12.98h15z" stroke="#3a414a" fill="#3a414a"/><path d="M1497.6 39314.25a6 6 0 0 1 6-6h106.22a6 6 0 0 1 6 6v85.52a6 6 0 0 1-6 6H1503.6a6 6 0 0 1-6-6z" stroke="#3a414a" fill="#9391ff"/><g><use xlink:href="#n" transform="matrix(1,0,0,1,1502.599172588642,39313.25436976914) translate(17.555555555555564 21.902777777777775)"/><use xlink:href="#ab" transform="matrix(1,0,0,1,1502.599172588642,39313.25436976914) translate(71.75308641975309 21.902777777777775)"/><use xlink:href="#ac" transform="matrix(1,0,0,1,1502.599172588642,39313.25436976914) translate(16.90740740740742 48.56944444444444)"/><use xlink:href="#P" transform="matrix(1,0,0,1,1502.599172588642,39313.25436976914) translate(76.10493827160494 48.56944444444444)"/><use xlink:href="#ad" transform="matrix(1,0,0,1,1502.599172588642,39313.25436976914) translate(18.7283950617284 75.2361111111111)"/></g><path d="M1555.35 39227.28v39.3a.68.68 0 0 0 .68.7.68.68 0 0 1 .68.67v25.3" stroke="#3a414a" fill="none"/><path d="M1555.34 39226.78h.48v.5h-.95v-.52z" stroke="#3a414a" stroke-width=".05" fill="#3a414a"/><path d="M1556.7 39306.75l-7.5-13h15z" stroke="#3a414a" fill="#3a414a"/><path d="M1200.43 39417.87a6 6 0 0 1 6-6h110.18a6 6 0 0 1 6 6v104.67a6 6 0 0 1-6 6h-110.16a6 6 0 0 1-6-6z" stroke="#3a414a" fill="#ff8f8f"/><g><use xlink:href="#n" transform="matrix(1,0,0,1,1205.4350680320422,39416.87431789196) translate(19.555555555555564 18.195746527777775)"/><use xlink:href="#ae" transform="matrix(1,0,0,1,1205.4350680320422,39416.87431789196) translate(73.75308641975309 18.195746527777775)"/><use xlink:href="#A" transform="matrix(1,0,0,1,1205.4350680320422,39416.87431789196) translate(33.104938271604944 44.86241319444444)"/><use xlink:href="#af" transform="matrix(1,0,0,1,1205.4350680320422,39416.87431789196) translate(17.641975308641975 71.5290798611111)"/><use xlink:href="#ag" transform="matrix(1,0,0,1,1205.4350680320422,39416.87431789196) translate(22.580246913580254 98.19574652777777)"/></g><path d="M1484.16 39481.88c0 12.44-26.47 22.53-59.1 22.53-32.66 0-59.12-10.08-59.12-22.52 0-12.45 26.46-22.54 59.1-22.54 32.65 0 59.12 10.1 59.12 22.54z" stroke="#3a414a" fill="#fff"/><g><use xlink:href="#y" transform="matrix(1,0,0,1,1370.9407900557603,39464.341964842635) translate(34.75191358024692 22.559027777777775)"/></g><path d="M1425.77 39424.68v16.47a.36.36 0 0 1-.36.36.36.36 0 0 0-.35.37v2.48" stroke="#3a414a" fill="none"/><path d="M1426.25 39424.7h-.95v-.52h.95z" stroke="#3a414a" stroke-width=".05" fill="#3a414a"/><path d="M1425.05 39457.84l-7.5-13h15z" stroke="#3a414a" fill="#3a414a"/><path d="M1556.7 39406.77v69.1a6 6 0 0 1-6 6h-51.55" stroke="#3a414a" fill="none"/><path d="M1557.18 39406.78h-.95v-.5h.95z" stroke="#3a414a" stroke-width=".05" fill="#3a414a"/><path d="M1485.66 39481.88l13-7.5v15z" stroke="#3a414a" fill="#3a414a"/><path d="M967.1 39417.87a6 6 0 0 1 6-6h161.74a6 6 0 0 1 6 6v104.67a6 6 0 0 1-6 6H973.1a6 6 0 0 1-6-6z" stroke="#3a414a" fill="#ff8f8f"/><g><use xlink:href="#n" transform="matrix(1,0,0,1,972.114065498003,39416.87431789196) translate(38.88271604938272 18.195746527777775)"/><use xlink:href="#ah" transform="matrix(1,0,0,1,972.114065498003,39416.87431789196) translate(93.08024691358024 18.195746527777775)"/><use xlink:href="#p" transform="matrix(1,0,0,1,972.114065498003,39416.87431789196) translate(12.987654320987673 44.86241319444444)"/><use xlink:href="#ai" transform="matrix(1,0,0,1,972.114065498003,39416.87431789196) translate(65.95061728395062 44.86241319444444)"/><use xlink:href="#aj" transform="matrix(1,0,0,1,972.114065498003,39416.87431789196) translate(31.475308641975317 71.5290798611111)"/><use xlink:href="#ak" transform="matrix(1,0,0,1,972.114065498003,39416.87431789196) translate(85.79629629629629 71.5290798611111)"/><use xlink:href="#al" transform="matrix(1,0,0,1,972.114065498003,39416.87431789196) translate(40.117283950617285 98.19574652777777)"/></g><path d="M1364.94 39481.88H1337.6" stroke="#3a414a" fill="none"/><path d="M1365.44 39481.87V39482.35h-.5v-.95h.52z" stroke="#3a414a" stroke-width=".05" fill="#3a414a"/><path d="M1324.1 39481.88l13-7.5v15z" stroke="#3a414a" fill="#3a414a"/><path d="M1199.43 39470.2h-43.6" stroke="#3a414a" fill="none"/><path d="M1199.93 39470.68h-.5v-.95h.5z" stroke="#3a414a" stroke-width=".05" fill="#3a414a"/><path d="M1142.34 39470.2l13-7.5v15z" stroke="#3a414a" fill="#3a414a"/><path d="M241.67 39403.68a6 6 0 0 1 6-6h84.82a6 6 0 0 1 6 6v74.22a6 6 0 0 1-6 6h-84.83a6 6 0 0 1-6-6z" stroke="#3a414a" fill="#ff8f8f"/><g><use xlink:href="#am" transform="matrix(1,0,0,1,246.67030712551525,39402.678576932376) translate(18.839506172839506 29.611111111111114)"/><use xlink:href="#an" transform="matrix(1,0,0,1,246.67030712551525,39402.678576932376) translate(-3.228395061728392 56.27777777777778)"/></g><path d="M623.86 39402.1a6 6 0 0 1 6-6h83.08a6 6 0 0 1 6 6v74.22a6 6 0 0 1-6 6h-83.08a6 6 0 0 1-6-6z" stroke="#3a414a" fill="#9391ff"/><g><use xlink:href="#ao" transform="matrix(1,0,0,1,628.8616035958414,39401.09864028829) translate(3.524691358024697 29.611111111111114)"/><use xlink:href="#an" transform="matrix(1,0,0,1,628.8616035958414,39401.09864028829) translate(-3.728395061728392 56.27777777777778)"/></g><path d="M446.3 39398.03c0 12.17-18.26 22.04-40.78 22.04-22.5 0-40.76-9.87-40.76-22.04 0-12.18 18.25-22.05 40.76-22.05 22.52 0 40.77 9.87 40.77 22.05z" stroke="#3a414a" fill="#fff"/><g><use xlink:href="#ap" transform="matrix(1,0,0,1,369.7632621091969,39380.98326963751) translate(10.813641975308643 21.87934027777778)"/></g><path d="M565.9 39398.03c0 12.17-18.25 22.04-40.76 22.04-22.5 0-40.76-9.87-40.76-22.04 0-12.18 18.25-22.05 40.76-22.05 22.5 0 40.76 9.87 40.76 22.05z" stroke="#3a414a" fill="#fff"/><g><use xlink:href="#aq" transform="matrix(1,0,0,1,489.38089138684853,39380.98326963751) translate(15.751913580246915 21.87934027777778)"/></g><path d="M367.07 39438.08a6 6 0 0 1 6-6h82.2a6 6 0 0 1 6 6v69.68a6 6 0 0 1-6 6h-82.2a6 6 0 0 1-6-6z" stroke="#000" stroke-opacity="0" fill="#fff" fill-opacity="0"/><g><use xlink:href="#ar" transform="matrix(1,0,0,1,372.073784311604,39437.080525556856) translate(0 14.222222222222223)"/><use xlink:href="#as" transform="matrix(1,0,0,1,372.073784311604,39437.080525556856) translate(0 35.55555555555556)"/><use xlink:href="#at" transform="matrix(1,0,0,1,372.073784311604,39437.080525556856) translate(42.32098765432099 35.55555555555556)"/><use xlink:href="#au" transform="matrix(1,0,0,1,372.073784311604,39437.080525556856) translate(0 56.88888888888889)"/><use xlink:href="#av" transform="matrix(1,0,0,1,372.073784311604,39437.080525556856) translate(0 78.22222222222223)"/></g><path d="M467.94 39426.07a6 6 0 0 1 6-6h126.8a6 6 0 0 1 6 6v90.95a6 6 0 0 1-6 6h-126.8a6 6 0 0 1-6-6z" stroke="#000" stroke-opacity="0" fill="#fff" fill-opacity="0"/><g><use xlink:href="#aw" transform="matrix(1,0,0,1,472.9350922854819,39425.067882653086) translate(0 28.72222222222222)"/><use xlink:href="#ax" transform="matrix(1,0,0,1,472.9350922854819,39425.067882653086) translate(25.18518518518519 28.72222222222222)"/><use xlink:href="#ay" transform="matrix(1,0,0,1,472.9350922854819,39425.067882653086) translate(0 50.05555555555556)"/><use xlink:href="#az" transform="matrix(1,0,0,1,472.9350922854819,39425.067882653086) translate(0 71.3888888888889)"/></g><defs><path fill="#fff" d="M101-251c82-7 93 87 43 132L82-64C71-53 59-42 53-27h129V0H18c2-99 128-94 128-182 0-28-16-43-45-43s-46 15-49 41l-32-3c6-41 34-60 81-64" id="aA"/><path fill="#fff" d="M33 0v-38h34V0H33" id="aB"/><path fill="#fff" d="M54-142c48-35 137-8 131 61C196 18 31 33 14-55l32-4c7 23 22 37 52 37 35-1 51-22 54-58 4-55-73-65-99-34H22l8-134h141v27H59" id="aC"/><g id="a"><use transform="matrix(0.1111111111111111,0,0,0.1111111111111111,0,0)" xlink:href="#aA"/><use transform="matrix(0.1111111111111111,0,0,0.1111111111111111,22.22222222222222,0)" xlink:href="#aB"/><use transform="matrix(0.1111111111111111,0,0,0.1111111111111111,33.33333333333333,0)" xlink:href="#aC"/></g><path fill="#fff" d="M16-82v-28h88v28H16" id="aD"/><use transform="matrix(0.1111111111111111,0,0,0.1111111111111111,0,0)" xlink:href="#aD" id="b"/><path fill="#fff" d="M232-93c-1 65-40 97-104 97C67 4 28-28 28-90v-158h33c8 89-33 224 67 224 102 0 64-133 71-224h33v155" id="aE"/><path fill="#fff" d="M135-143c-3-34-86-38-87 0 15 53 115 12 119 90S17 21 10-45l28-5c4 36 97 45 98 0-10-56-113-15-118-90-4-57 82-63 122-42 12 7 21 19 24 35" id="aF"/><path fill="#fff" d="M100-194c63 0 86 42 84 106H49c0 40 14 67 53 68 26 1 43-12 49-29l28 8c-11 28-37 45-77 45C44 4 14-33 15-96c1-61 26-98 85-98zm52 81c6-60-76-77-97-28-3 7-6 17-6 28h103" id="aG"/><g id="c"><use transform="matrix(0.1111111111111111,0,0,0.1111111111111111,0,0)" xlink:href="#aE"/><use transform="matrix(0.1111111111111111,0,0,0.1111111111111111,28.777777777777775,0)" xlink:href="#aF"/><use transform="matrix(0.1111111111111111,0,0,0.1111111111111111,48.77777777777777,0)" xlink:href="#aG"/></g><path fill="#fff" d="M212-179c-10-28-35-45-73-45-59 0-87 40-87 99 0 60 29 101 89 101 43 0 62-24 78-52l27 14C228-24 195 4 139 4 59 4 22-46 18-125c-6-104 99-153 187-111 19 9 31 26 39 46" id="aH"/><path fill="#fff" d="M141-36C126-15 110 5 73 4 37 3 15-17 15-53c-1-64 63-63 125-63 3-35-9-54-41-54-24 1-41 7-42 31l-33-3c5-37 33-52 76-52 45 0 72 20 72 64v82c-1 20 7 32 28 27v20c-31 9-61-2-59-35zM48-53c0 20 12 33 32 33 41-3 63-29 60-74-43 2-92-5-92 41" id="aI"/><g id="d"><use transform="matrix(0.1111111111111111,0,0,0.1111111111111111,0,0)" xlink:href="#aH"/><use transform="matrix(0.1111111111111111,0,0,0.1111111111111111,28.777777777777775,0)" xlink:href="#aI"/><use transform="matrix(0.1111111111111111,0,0,0.1111111111111111,51,0)" xlink:href="#aF"/><use transform="matrix(0.1111111111111111,0,0,0.1111111111111111,71,0)" xlink:href="#aG"/></g><path fill="#fff" d="M63-220v92h138v28H63V0H30v-248h175v28H63" id="aJ"/><path fill="#fff" d="M24 0v-261h32V0H24" id="aK"/><path fill="#fff" d="M100-194c62-1 85 37 85 99 1 63-27 99-86 99S16-35 15-95c0-66 28-99 85-99zM99-20c44 1 53-31 53-75 0-43-8-75-51-75s-53 32-53 75 10 74 51 75" id="aL"/><path fill="#fff" d="M206 0h-36l-40-164L89 0H53L-1-190h32L70-26l43-164h34l41 164 42-164h31" id="aM"/><path fill="#fff" d="M33-154v-36h34v36H33zM33 0v-36h34V0H33" id="aN"/><g id="e"><use transform="matrix(0.1111111111111111,0,0,0.1111111111111111,0,0)" xlink:href="#aJ"/><use transform="matrix(0.1111111111111111,0,0,0.1111111111111111,24.333333333333332,0)" xlink:href="#aK"/><use transform="matrix(0.1111111111111111,0,0,0.1111111111111111,33.11111111111111,0)" xlink:href="#aL"/><use transform="matrix(0.1111111111111111,0,0,0.1111111111111111,55.33333333333333,0)" xlink:href="#aM"/><use transform="matrix(0.1111111111111111,0,0,0.1111111111111111,84.1111111111111,0)" xlink:href="#aN"/></g><path fill="#fcce14" d="M151-220L108 0H75l42-220H32l6-28h203l-5 28h-85" id="aO"/><path fill="#fcce14" d="M30-147c31-64 166-65 159 27C183-49 158 1 86 4 9 8 1-88 30-147zM88-20c53 0 68-48 68-100 0-31-11-51-44-50-52 1-68 46-68 97 0 32 13 53 44 53" id="aP"/><path fill="#fcce14" d="M165-48c-4 18 1 34 23 27l-3 20c-29 8-62 0-52-35h-2C116-14 99 4 63 4 30 4 8-16 8-49c0-68 71-67 138-67 10-26 0-56-31-54-26 1-42 9-47 31l-32-5c8-67 160-71 144 15-5 28-9 54-15 81zM42-50c3 52 80 24 89-6 7-12 7-24 11-38-47 1-103-4-100 44" id="aQ"/><path fill="#fcce14" d="M55-144c13 50 104 24 104 88C159 21 15 23 1-39l26-10c6 40 102 42 102-4-13-50-104-23-104-87 0-71 143-71 148-8l-29 4c-5-35-85-37-89 0" id="aR"/><path fill="#fcce14" d="M51-54c-9 22 5 41 31 30L79-1C43 14 10-4 19-52l22-115H19l5-23h22l19-43h21l-9 43h35l-4 23H73" id="aS"/><path fill="#fcce14" d="M111-194c62-3 86 47 72 106H45c-7 38 6 69 45 68 27-1 43-14 53-32l24 11C152-15 129 4 87 4 38 3 12-23 12-71c0-70 32-119 99-123zm44 81c14-66-71-72-95-28-4 8-8 17-11 28h106" id="aT"/><path fill="#fcce14" d="M66-151c12-25 30-51 66-40l-6 26C45-176 58-65 38 0H6l36-190h30" id="aU"/><g id="f"><use transform="matrix(0.1111111111111111,0,0,0.1111111111111111,0,0)" xlink:href="#aO"/><use transform="matrix(0.1111111111111111,0,0,0.1111111111111111,20.666666666666664,0)" xlink:href="#aP"/><use transform="matrix(0.1111111111111111,0,0,0.1111111111111111,42.888888888888886,0)" xlink:href="#aQ"/><use transform="matrix(0.1111111111111111,0,0,0.1111111111111111,65.11111111111111,0)" xlink:href="#aR"/><use transform="matrix(0.1111111111111111,0,0,0.1111111111111111,85.11111111111111,0)" xlink:href="#aS"/><use transform="matrix(0.1111111111111111,0,0,0.1111111111111111,96.22222222222223,0)" xlink:href="#aT"/><use transform="matrix(0.1111111111111111,0,0,0.1111111111111111,118.44444444444446,0)" xlink:href="#aU"/></g><path fill="#fcce14" d="M18-82l6-28h88l-6 28H18" id="aV"/><use transform="matrix(0.1111111111111111,0,0,0.1111111111111111,0,0)" xlink:href="#aV" id="g"/><path fill="#fcce14" d="M222 0l43-216c-8 16-17 34-26 49L143 0h-22L81-216 41 0H11l48-248h42l38 208 116-208h45L252 0h-30" id="aW"/><path fill="#fcce14" d="M127 0L80-88 50-66 37 0H6l51-261h31L57-100l99-90h39l-93 82L161 0h-34" id="aX"/><g id="h"><use transform="matrix(0.1111111111111111,0,0,0.1111111111111111,0,0)" xlink:href="#aW"/><use transform="matrix(0.1111111111111111,0,0,0.1111111111111111,33.22222222222222,0)" xlink:href="#aQ"/><use transform="matrix(0.1111111111111111,0,0,0.1111111111111111,55.44444444444444,0)" xlink:href="#aX"/><use transform="matrix(0.1111111111111111,0,0,0.1111111111111111,75.44444444444444,0)" xlink:href="#aT"/></g><use transform="matrix(0.1111111111111111,0,0,0.1111111111111111,0,0)" xlink:href="#aQ" id="i"/><path fill="#fcce14" d="M6 0l50-261h32L37 0H6" id="aY"/><path fill="#fcce14" d="M50-231l6-30h32l-6 30H50zM6 0l37-190h31L37 0H6" id="aZ"/><path fill="#fcce14" d="M44-68c0 29 11 47 38 47 30 0 42-19 51-41l28 9C148-21 126 4 82 4 31 4 10-29 12-85c3-77 74-140 146-93 12 8 15 23 18 40l-31 5c-1-22-13-36-36-36-52 0-65 49-65 101" id="ba"/><g id="j"><use transform="matrix(0.1111111111111111,0,0,0.1111111111111111,0,0)" xlink:href="#aR"/><use transform="matrix(0.1111111111111111,0,0,0.1111111111111111,20,0)" xlink:href="#aY"/><use transform="matrix(0.1111111111111111,0,0,0.1111111111111111,28.777777777777775,0)" xlink:href="#aZ"/><use transform="matrix(0.1111111111111111,0,0,0.1111111111111111,37.55555555555556,0)" xlink:href="#ba"/><use transform="matrix(0.1111111111111111,0,0,0.1111111111111111,57.55555555555555,0)" xlink:href="#aT"/></g><path fill="#fcce14" d="M76-167L44 0H12l33-167H18l4-23h27c3-47 25-81 82-69l-4 24c-35-8-44 15-46 45h37l-5 23H76" id="bb"/><g id="k"><use transform="matrix(0.1111111111111111,0,0,0.1111111111111111,0,0)" xlink:href="#aP"/><use transform="matrix(0.1111111111111111,0,0,0.1111111111111111,22.22222222222222,0)" xlink:href="#bb"/></g><g id="l"><use transform="matrix(0.1111111111111111,0,0,0.1111111111111111,0,0)" xlink:href="#aS"/><use transform="matrix(0.1111111111111111,0,0,0.1111111111111111,11.11111111111111,0)" xlink:href="#aP"/><use transform="matrix(0.1111111111111111,0,0,0.1111111111111111,33.33333333333333,0)" xlink:href="#aQ"/><use transform="matrix(0.1111111111111111,0,0,0.1111111111111111,55.55555555555555,0)" xlink:href="#aR"/><use transform="matrix(0.1111111111111111,0,0,0.1111111111111111,75.55555555555554,0)" xlink:href="#aS"/></g><path d="M24 0v-248h52v208h133V0H24" id="bc"/><path d="M185-48c-13 30-37 53-82 52C43 2 14-33 14-96s30-98 90-98c62 0 83 45 84 108H66c0 31 8 55 39 56 18 0 30-7 34-22zm-45-69c5-46-57-63-70-21-2 6-4 13-4 21h74" id="bd"/><path d="M195-6C206 82 75 100 31 46c-4-6-6-13-8-21l49-6c3 16 16 24 34 25 40 0 42-37 40-79-11 22-30 35-61 35-53 0-70-43-70-97 0-56 18-96 73-97 30 0 46 14 59 34l2-30h47zm-90-29c32 0 41-27 41-63 0-35-9-62-40-62-32 0-39 29-40 63 0 36 9 62 39 62" id="be"/><path d="M135-194c87-1 58 113 63 194h-50c-7-57 23-157-34-157-59 0-34 97-39 157H25l-1-190h47c2 12-1 28 3 38 12-26 28-41 61-42" id="bf"/><path d="M88-194c31-1 46 15 58 34l-1-101h50l1 261h-48c-2-10 0-23-3-31C134-8 116 4 84 4 32 4 16-41 15-95c0-56 19-97 73-99zm17 164c33 0 40-30 41-66 1-37-9-64-41-64s-38 30-39 65c0 43 13 65 39 65" id="bg"/><g id="m"><use transform="matrix(0.06172839506172839,0,0,0.06172839506172839,0,0)" xlink:href="#bc"/><use transform="matrix(0.06172839506172839,0,0,0.06172839506172839,13.518518518518517,0)" xlink:href="#bd"/><use transform="matrix(0.06172839506172839,0,0,0.06172839506172839,25.864197530864196,0)" xlink:href="#be"/><use transform="matrix(0.06172839506172839,0,0,0.06172839506172839,39.382716049382715,0)" xlink:href="#bd"/><use transform="matrix(0.06172839506172839,0,0,0.06172839506172839,51.72839506172839,0)" xlink:href="#bf"/><use transform="matrix(0.06172839506172839,0,0,0.06172839506172839,65.24691358024691,0)" xlink:href="#bg"/></g><path fill="#3a414a" d="M169-182c-1-43-94-46-97-3 18 66 151 10 154 114 3 95-165 93-204 36-6-8-10-19-12-30l50-8c3 46 112 56 116 5-17-69-150-10-154-114-4-87 153-88 188-35 5 8 8 18 10 28" id="bh"/><path fill="#3a414a" d="M115-3C79 11 28 4 28-45v-112H4v-33h27l15-45h31v45h36v33H77v99c-1 23 16 31 38 25v30" id="bi"/><path fill="#3a414a" d="M185-48c-13 30-37 53-82 52C43 2 14-33 14-96s30-98 90-98c62 0 83 45 84 108H66c0 31 8 55 39 56 18 0 30-7 34-22zm-45-69c5-46-57-63-70-21-2 6-4 13-4 21h74" id="bj"/><path fill="#3a414a" d="M135-194c53 0 70 44 70 98 0 56-19 98-73 100-31 1-45-17-59-34 3 33 2 69 2 105H25l-1-265h48c2 10 0 23 3 31 11-24 29-35 60-35zM114-30c33 0 39-31 40-66 0-38-9-64-40-64-56 0-55 130 0 130" id="bk"/><g id="n"><use transform="matrix(0.061728395061728385,0,0,0.061728395061728385,0,0)" xlink:href="#bh"/><use transform="matrix(0.061728395061728385,0,0,0.061728395061728385,14.814814814814813,0)" xlink:href="#bi"/><use transform="matrix(0.061728395061728385,0,0,0.061728395061728385,22.16049382716049,0)" xlink:href="#bj"/><use transform="matrix(0.061728395061728385,0,0,0.061728395061728385,34.50617283950616,0)" xlink:href="#bk"/></g><path fill="#3a414a" d="M23 0v-37h61v-169l-59 37v-38l62-41h46v211h57V0H23" id="bl"/><path fill="#3a414a" d="M35-132v-50h50v50H35zM35 0v-49h50V0H35" id="bm"/><g id="o"><use transform="matrix(0.061728395061728385,0,0,0.061728395061728385,0,0)" xlink:href="#bl"/><use transform="matrix(0.061728395061728385,0,0,0.061728395061728385,12.345679012345677,0)" xlink:href="#bm"/></g><path fill="#3a414a" d="M232-93c-1 65-40 97-104 97C67 4 28-28 28-90v-158h33c8 89-33 224 67 224 102 0 64-133 71-224h33v155" id="bn"/><path fill="#3a414a" d="M135-143c-3-34-86-38-87 0 15 53 115 12 119 90S17 21 10-45l28-5c4 36 97 45 98 0-10-56-113-15-118-90-4-57 82-63 122-42 12 7 21 19 24 35" id="bo"/><path fill="#3a414a" d="M100-194c63 0 86 42 84 106H49c0 40 14 67 53 68 26 1 43-12 49-29l28 8c-11 28-37 45-77 45C44 4 14-33 15-96c1-61 26-98 85-98zm52 81c6-60-76-77-97-28-3 7-6 17-6 28h103" id="bp"/><path fill="#3a414a" d="M114-163C36-179 61-72 57 0H25l-1-190h30c1 12-1 29 2 39 6-27 23-49 58-41v29" id="bq"/><g id="p"><use transform="matrix(0.061728395061728385,0,0,0.061728395061728385,0,0)" xlink:href="#bn"/><use transform="matrix(0.061728395061728385,0,0,0.061728395061728385,15.987654320987652,0)" xlink:href="#bo"/><use transform="matrix(0.061728395061728385,0,0,0.061728395061728385,27.09876543209876,0)" xlink:href="#bp"/><use transform="matrix(0.061728395061728385,0,0,0.061728395061728385,39.444444444444436,0)" xlink:href="#bq"/></g><path fill="#3a414a" d="M115-194c55 1 70 41 70 98S169 2 115 4C84 4 66-9 55-30l1 105H24l-1-265h31l2 30c10-21 28-34 59-34zm-8 174c40 0 45-34 45-75s-6-73-45-74c-42 0-51 32-51 76 0 43 10 73 51 73" id="br"/><path fill="#3a414a" d="M24 0v-261h32V0H24" id="bs"/><path fill="#3a414a" d="M84 4C-5 8 30-112 23-190h32v120c0 31 7 50 39 49 72-2 45-101 50-169h31l1 190h-30c-1-10 1-25-2-33-11 22-28 36-60 37" id="bt"/><path fill="#3a414a" d="M177-190C167-65 218 103 67 71c-23-6-38-20-44-43l32-5c15 47 100 32 89-28v-30C133-14 115 1 83 1 29 1 15-40 15-95c0-56 16-97 71-98 29-1 48 16 59 35 1-10 0-23 2-32h30zM94-22c36 0 50-32 50-73 0-42-14-75-50-75-39 0-46 34-46 75s6 73 46 73" id="bu"/><g id="q"><use transform="matrix(0.061728395061728385,0,0,0.061728395061728385,0,0)" xlink:href="#br"/><use transform="matrix(0.061728395061728385,0,0,0.061728395061728385,12.345679012345677,0)" xlink:href="#bs"/><use transform="matrix(0.061728395061728385,0,0,0.061728395061728385,17.22222222222222,0)" xlink:href="#bt"/><use transform="matrix(0.061728395061728385,0,0,0.061728395061728385,29.5679012345679,0)" xlink:href="#bu"/><use transform="matrix(0.061728395061728385,0,0,0.061728395061728385,41.913580246913575,0)" xlink:href="#bo"/></g><path fill="#3a414a" d="M24-231v-30h32v30H24zM24 0v-190h32V0H24" id="bv"/><path fill="#3a414a" d="M117-194c89-4 53 116 60 194h-32v-121c0-31-8-49-39-48C34-167 62-67 57 0H25l-1-190h30c1 10-1 24 2 32 11-22 29-35 61-36" id="bw"/><g id="r"><use transform="matrix(0.061728395061728385,0,0,0.061728395061728385,0,0)" xlink:href="#bv"/><use transform="matrix(0.061728395061728385,0,0,0.061728395061728385,4.876543209876543,0)" xlink:href="#bw"/></g><path fill="#3a414a" d="M59-47c-2 24 18 29 38 22v24C64 9 27 4 27-40v-127H5v-23h24l9-43h21v43h35v23H59v120" id="bx"/><path fill="#3a414a" d="M100-194c62-1 85 37 85 99 1 63-27 99-86 99S16-35 15-95c0-66 28-99 85-99zM99-20c44 1 53-31 53-75 0-43-8-75-51-75s-53 32-53 75 10 74 51 75" id="by"/><path fill="#3a414a" d="M141-36C126-15 110 5 73 4 37 3 15-17 15-53c-1-64 63-63 125-63 3-35-9-54-41-54-24 1-41 7-42 31l-33-3c5-37 33-52 76-52 45 0 72 20 72 64v82c-1 20 7 32 28 27v20c-31 9-61-2-59-35zM48-53c0 20 12 33 32 33 41-3 63-29 60-74-43 2-92-5-92 41" id="bz"/><g id="s"><use transform="matrix(0.061728395061728385,0,0,0.061728395061728385,0,0)" xlink:href="#bx"/><use transform="matrix(0.061728395061728385,0,0,0.061728395061728385,6.1728395061728385,0)" xlink:href="#by"/><use transform="matrix(0.061728395061728385,0,0,0.061728395061728385,18.518518518518515,0)" xlink:href="#bz"/><use transform="matrix(0.061728395061728385,0,0,0.061728395061728385,30.864197530864192,0)" xlink:href="#bo"/><use transform="matrix(0.061728395061728385,0,0,0.061728395061728385,41.9753086419753,0)" xlink:href="#bx"/><use transform="matrix(0.061728395061728385,0,0,0.061728395061728385,48.14814814814814,0)" xlink:href="#bp"/><use transform="matrix(0.061728395061728385,0,0,0.061728395061728385,60.493827160493815,0)" xlink:href="#bq"/></g><g id="t"><use transform="matrix(0.061728395061728385,0,0,0.061728395061728385,0,0)" xlink:href="#bx"/><use transform="matrix(0.061728395061728385,0,0,0.061728395061728385,6.1728395061728385,0)" xlink:href="#by"/></g><path fill="#3a414a" d="M27 0v-27h64v-190l-56 39v-29l58-41h29v221h61V0H27" id="bA"/><path fill="#3a414a" d="M101-251c68 0 85 55 85 127S166 4 100 4C33 4 14-52 14-124c0-73 17-127 87-127zm-1 229c47 0 54-49 54-102s-4-102-53-102c-51 0-55 48-55 102 0 53 5 102 54 102" id="bB"/><g id="u"><use transform="matrix(0.061728395061728385,0,0,0.061728395061728385,0,0)" xlink:href="#bA"/><use transform="matrix(0.061728395061728385,0,0,0.061728395061728385,10.679012345679011,0)" xlink:href="#bA"/><use transform="matrix(0.061728395061728385,0,0,0.061728395061728385,23.02469135802469,0)" xlink:href="#bB"/></g><path fill="#3a414a" d="M137 0h-34L2-248h35l83 218 83-218h36" id="bC"/><use transform="matrix(0.061728395061728385,0,0,0.061728395061728385,0,0)" xlink:href="#bC" id="v"/><g id="w"><use transform="matrix(0.061728395061728385,0,0,0.061728395061728385,0,0)" xlink:href="#by"/><use transform="matrix(0.061728395061728385,0,0,0.061728395061728385,12.345679012345677,0)" xlink:href="#bt"/><use transform="matrix(0.061728395061728385,0,0,0.061728395061728385,24.691358024691354,0)" xlink:href="#bx"/><use transform="matrix(0.061728395061728385,0,0,0.061728395061728385,30.864197530864192,0)" xlink:href="#bs"/><use transform="matrix(0.061728395061728385,0,0,0.061728395061728385,35.74074074074073,0)" xlink:href="#bp"/><use transform="matrix(0.061728395061728385,0,0,0.061728395061728385,48.08641975308641,0)" xlink:href="#bx"/></g><path fill="#3a414a" d="M30 0v-248h33v221h125V0H30" id="bD"/><g id="x"><use transform="matrix(0.061728395061728385,0,0,0.061728395061728385,0,0)" xlink:href="#bD"/><use transform="matrix(0.061728395061728385,0,0,0.061728395061728385,12.345679012345677,0)" xlink:href="#by"/><use transform="matrix(0.061728395061728385,0,0,0.061728395061728385,24.691358024691354,0)" xlink:href="#by"/><use transform="matrix(0.061728395061728385,0,0,0.061728395061728385,37.03703703703703,0)" xlink:href="#br"/></g><path fill="#3a414a" d="M205 0l-28-72H64L36 0H1l101-248h38L239 0h-34zm-38-99l-47-123c-12 45-31 82-46 123h93" id="bE"/><path fill="#3a414a" d="M85-194c31 0 48 13 60 33l-1-100h32l1 261h-30c-2-10 0-23-3-31C134-8 116 4 85 4 32 4 16-35 15-94c0-66 23-100 70-100zm9 24c-40 0-46 34-46 75 0 40 6 74 45 74 42 0 51-32 51-76 0-42-9-74-50-73" id="bF"/><g id="y"><use transform="matrix(0.061728395061728385,0,0,0.061728395061728385,0,0)" xlink:href="#bE"/><use transform="matrix(0.061728395061728385,0,0,0.061728395061728385,14.814814814814813,0)" xlink:href="#bw"/><use transform="matrix(0.061728395061728385,0,0,0.061728395061728385,27.16049382716049,0)" xlink:href="#bF"/></g><path fill="#3a414a" d="M182-182c0 78-84 86-111 141h115V0H12c-6-101 99-100 120-180 1-22-12-31-33-32-23 0-32 14-35 34l-49-3c5-45 32-70 84-70 51 0 83 22 83 69" id="bG"/><g id="z"><use transform="matrix(0.061728395061728385,0,0,0.061728395061728385,0,0)" xlink:href="#bG"/><use transform="matrix(0.061728395061728385,0,0,0.061728395061728385,12.345679012345677,0)" xlink:href="#bm"/></g><g id="A"><use transform="matrix(0.061728395061728385,0,0,0.061728395061728385,0,0)" xlink:href="#bn"/><use transform="matrix(0.061728395061728385,0,0,0.061728395061728385,15.987654320987652,0)" xlink:href="#bo"/><use transform="matrix(0.061728395061728385,0,0,0.061728395061728385,27.09876543209876,0)" xlink:href="#bp"/><use transform="matrix(0.061728395061728385,0,0,0.061728395061728385,39.444444444444436,0)" xlink:href="#bq"/></g><g id="B"><use transform="matrix(0.061728395061728385,0,0,0.061728395061728385,0,0)" xlink:href="#bv"/><use transform="matrix(0.061728395061728385,0,0,0.061728395061728385,4.876543209876543,0)" xlink:href="#bw"/><use transform="matrix(0.061728395061728385,0,0,0.061728395061728385,17.22222222222222,0)" xlink:href="#bo"/><use transform="matrix(0.061728395061728385,0,0,0.061728395061728385,28.33333333333333,0)" xlink:href="#bp"/><use transform="matrix(0.061728395061728385,0,0,0.061728395061728385,40.679012345679006,0)" xlink:href="#bq"/><use transform="matrix(0.061728395061728385,0,0,0.061728395061728385,48.02469135802468,0)" xlink:href="#bx"/><use transform="matrix(0.061728395061728385,0,0,0.061728395061728385,54.19753086419752,0)" xlink:href="#bo"/></g><g id="C"><use transform="matrix(0.061728395061728385,0,0,0.061728395061728385,0,0)" xlink:href="#bx"/><use transform="matrix(0.061728395061728385,0,0,0.061728395061728385,6.1728395061728385,0)" xlink:href="#by"/><use transform="matrix(0.061728395061728385,0,0,0.061728395061728385,18.518518518518515,0)" xlink:href="#bz"/><use transform="matrix(0.061728395061728385,0,0,0.061728395061728385,30.864197530864192,0)" xlink:href="#bo"/><use transform="matrix(0.061728395061728385,0,0,0.061728395061728385,41.9753086419753,0)" xlink:href="#bx"/></g><path fill="#3a414a" d="M128-127c34 4 56 21 59 58 7 91-148 94-172 28-4-9-6-17-7-26l51-5c1 24 16 35 40 36 23 0 39-12 38-36-1-31-31-36-65-34v-40c32 2 59-3 59-33 0-20-13-33-34-33s-33 13-35 32l-50-3c6-44 37-68 86-68 50 0 83 20 83 66 0 35-22 52-53 58" id="bH"/><g id="D"><use transform="matrix(0.061728395061728385,0,0,0.061728395061728385,0,0)" xlink:href="#bH"/><use transform="matrix(0.061728395061728385,0,0,0.061728395061728385,12.345679012345677,0)" xlink:href="#bm"/></g><path fill="#3a414a" d="M185-189c-5-48-123-54-124 2 14 75 158 14 163 119 3 78-121 87-175 55-17-10-28-26-33-46l33-7c5 56 141 63 141-1 0-78-155-14-162-118-5-82 145-84 179-34 5 7 8 16 11 25" id="bI"/><path fill="#3a414a" d="M96-169c-40 0-48 33-48 73s9 75 48 75c24 0 41-14 43-38l32 2c-6 37-31 61-74 61-59 0-76-41-82-99-10-93 101-131 147-64 4 7 5 14 7 22l-32 3c-4-21-16-35-41-35" id="bJ"/><g id="E"><use transform="matrix(0.061728395061728385,0,0,0.061728395061728385,0,0)" xlink:href="#bI"/><use transform="matrix(0.061728395061728385,0,0,0.061728395061728385,14.814814814814813,0)" xlink:href="#bp"/><use transform="matrix(0.061728395061728385,0,0,0.061728395061728385,27.16049382716049,0)" xlink:href="#bs"/><use transform="matrix(0.061728395061728385,0,0,0.061728395061728385,32.03703703703703,0)" xlink:href="#bp"/><use transform="matrix(0.061728395061728385,0,0,0.061728395061728385,44.38271604938271,0)" xlink:href="#bJ"/><use transform="matrix(0.061728395061728385,0,0,0.061728395061728385,55.493827160493815,0)" xlink:href="#bx"/><use transform="matrix(0.061728395061728385,0,0,0.061728395061728385,61.66666666666666,0)" xlink:href="#bo"/></g><path fill="#3a414a" d="M108 0H70L1-190h34L89-25l56-165h34" id="bK"/><g id="F"><use transform="matrix(0.061728395061728385,0,0,0.061728395061728385,0,0)" xlink:href="#bD"/><use transform="matrix(0.061728395061728385,0,0,0.061728395061728385,12.345679012345677,0)" xlink:href="#bp"/><use transform="matrix(0.061728395061728385,0,0,0.061728395061728385,24.691358024691354,0)" xlink:href="#bK"/><use transform="matrix(0.061728395061728385,0,0,0.061728395061728385,35.80246913580246,0)" xlink:href="#bp"/><use transform="matrix(0.061728395061728385,0,0,0.061728395061728385,48.14814814814814,0)" xlink:href="#bs"/></g><path fill="#3a414a" d="M101-234c-31-9-42 10-38 44h38v23H63V0H32v-167H5v-23h27c-7-52 17-82 69-68v24" id="bL"/><g id="G"><use transform="matrix(0.061728395061728385,0,0,0.061728395061728385,0,0)" xlink:href="#by"/><use transform="matrix(0.061728395061728385,0,0,0.061728395061728385,12.345679012345677,0)" xlink:href="#bL"/></g><path fill="#3a414a" d="M109-170H84l-4-78h32zm-65 0H19l-4-78h33" id="bM"/><g id="H"><use transform="matrix(0.061728395061728385,0,0,0.061728395061728385,0,0)" xlink:href="#bM"/><use transform="matrix(0.061728395061728385,0,0,0.061728395061728385,7.839506172839505,0)" xlink:href="#bF"/><use transform="matrix(0.061728395061728385,0,0,0.061728395061728385,20.185185185185183,0)" xlink:href="#by"/><use transform="matrix(0.061728395061728385,0,0,0.061728395061728385,32.53086419753086,0)" xlink:href="#bw"/><use transform="matrix(0.061728395061728385,0,0,0.061728395061728385,44.87654320987654,0)" xlink:href="#bp"/><use transform="matrix(0.061728395061728385,0,0,0.061728395061728385,57.222222222222214,0)" xlink:href="#bw"/><use transform="matrix(0.061728395061728385,0,0,0.061728395061728385,69.5679012345679,0)" xlink:href="#bp"/><use transform="matrix(0.061728395061728385,0,0,0.061728395061728385,81.91358024691357,0)" xlink:href="#bo"/><use transform="matrix(0.061728395061728385,0,0,0.061728395061728385,93.02469135802468,0)" xlink:href="#bo"/><use transform="matrix(0.061728395061728385,0,0,0.061728395061728385,104.1358024691358,0)" xlink:href="#bM"/></g><path fill="#3a414a" d="M165-50V0h-47v-50H5v-38l105-160h55v161h33v37h-33zm-47-37l2-116L46-87h72" id="bN"/><g id="I"><use transform="matrix(0.061728395061728385,0,0,0.061728395061728385,0,0)" xlink:href="#bN"/><use transform="matrix(0.061728395061728385,0,0,0.061728395061728385,12.345679012345677,0)" xlink:href="#bm"/></g><g id="J"><use transform="matrix(0.061728395061728385,0,0,0.061728395061728385,0,0)" xlink:href="#bv"/><use transform="matrix(0.061728395061728385,0,0,0.061728395061728385,4.876543209876543,0)" xlink:href="#bw"/><use transform="matrix(0.061728395061728385,0,0,0.061728395061728385,17.22222222222222,0)" xlink:href="#bv"/><use transform="matrix(0.061728395061728385,0,0,0.061728395061728385,22.098765432098766,0)" xlink:href="#bx"/><use transform="matrix(0.061728395061728385,0,0,0.061728395061728385,28.271604938271604,0)" xlink:href="#bv"/><use transform="matrix(0.061728395061728385,0,0,0.061728395061728385,33.148148148148145,0)" xlink:href="#bz"/><use transform="matrix(0.061728395061728385,0,0,0.061728395061728385,45.49382716049382,0)" xlink:href="#bx"/><use transform="matrix(0.061728395061728385,0,0,0.061728395061728385,51.66666666666666,0)" xlink:href="#bp"/><use transform="matrix(0.061728395061728385,0,0,0.061728395061728385,64.01234567901233,0)" xlink:href="#bo"/></g><g id="K"><use transform="matrix(0.061728395061728385,0,0,0.061728395061728385,0,0)" xlink:href="#bx"/><use transform="matrix(0.061728395061728385,0,0,0.061728395061728385,6.1728395061728385,0)" xlink:href="#by"/><use transform="matrix(0.061728395061728385,0,0,0.061728395061728385,18.518518518518515,0)" xlink:href="#bz"/><use transform="matrix(0.061728395061728385,0,0,0.061728395061728385,30.864197530864192,0)" xlink:href="#bo"/><use transform="matrix(0.061728395061728385,0,0,0.061728395061728385,41.9753086419753,0)" xlink:href="#bx"/><use transform="matrix(0.061728395061728385,0,0,0.061728395061728385,48.14814814814814,0)" xlink:href="#bv"/><use transform="matrix(0.061728395061728385,0,0,0.061728395061728385,53.02469135802468,0)" xlink:href="#bw"/><use transform="matrix(0.061728395061728385,0,0,0.061728395061728385,65.37037037037035,0)" xlink:href="#bu"/></g><g id="L"><use transform="matrix(0.061728395061728385,0,0,0.061728395061728385,0,0)" xlink:href="#br"/><use transform="matrix(0.061728395061728385,0,0,0.061728395061728385,12.345679012345677,0)" xlink:href="#bq"/><use transform="matrix(0.061728395061728385,0,0,0.061728395061728385,19.691358024691354,0)" xlink:href="#by"/><use transform="matrix(0.061728395061728385,0,0,0.061728395061728385,32.03703703703703,0)" xlink:href="#bJ"/><use transform="matrix(0.061728395061728385,0,0,0.061728395061728385,43.14814814814814,0)" xlink:href="#bp"/><use transform="matrix(0.061728395061728385,0,0,0.061728395061728385,55.493827160493815,0)" xlink:href="#bo"/><use transform="matrix(0.061728395061728385,0,0,0.061728395061728385,66.60493827160492,0)" xlink:href="#bo"/></g><path fill="#3a414a" d="M139-81c0-46-55-55-73-27H18l9-140h149v37H72l-4 63c44-38 133-4 122 66C201 21 21 35 11-62l49-4c5 18 15 30 39 30 26 0 40-18 40-45" id="bO"/><g id="M"><use transform="matrix(0.061728395061728385,0,0,0.061728395061728385,0,0)" xlink:href="#bO"/><use transform="matrix(0.061728395061728385,0,0,0.061728395061728385,12.345679012345677,0)" xlink:href="#bm"/></g><path fill="#3a414a" d="M197 0v-115H63V0H30v-248h33v105h134v-105h34V0h-34" id="bP"/><g id="N"><use transform="matrix(0.061728395061728385,0,0,0.061728395061728385,0,0)" xlink:href="#bP"/><use transform="matrix(0.061728395061728385,0,0,0.061728395061728385,15.987654320987652,0)" xlink:href="#bp"/><use transform="matrix(0.061728395061728385,0,0,0.061728395061728385,28.33333333333333,0)" xlink:href="#bz"/><use transform="matrix(0.061728395061728385,0,0,0.061728395061728385,40.679012345679006,0)" xlink:href="#bx"/><use transform="matrix(0.061728395061728385,0,0,0.061728395061728385,46.85185185185185,0)" xlink:href="#bv"/><use transform="matrix(0.061728395061728385,0,0,0.061728395061728385,51.72839506172839,0)" xlink:href="#bw"/><use transform="matrix(0.061728395061728385,0,0,0.061728395061728385,64.07407407407408,0)" xlink:href="#bu"/></g><path fill="#3a414a" d="M210-169c-67 3-38 105-44 169h-31v-121c0-29-5-50-35-48C34-165 62-65 56 0H25l-1-190h30c1 10-1 24 2 32 10-44 99-50 107 0 11-21 27-35 58-36 85-2 47 119 55 194h-31v-121c0-29-5-49-35-48" id="bQ"/><g id="O"><use transform="matrix(0.061728395061728385,0,0,0.061728395061728385,0,0)" xlink:href="#bp"/><use transform="matrix(0.061728395061728385,0,0,0.061728395061728385,12.345679012345677,0)" xlink:href="#bs"/><use transform="matrix(0.061728395061728385,0,0,0.061728395061728385,17.22222222222222,0)" xlink:href="#bp"/><use transform="matrix(0.061728395061728385,0,0,0.061728395061728385,29.5679012345679,0)" xlink:href="#bQ"/><use transform="matrix(0.061728395061728385,0,0,0.061728395061728385,48.02469135802468,0)" xlink:href="#bp"/><use transform="matrix(0.061728395061728385,0,0,0.061728395061728385,60.37037037037036,0)" xlink:href="#bw"/><use transform="matrix(0.061728395061728385,0,0,0.061728395061728385,72.71604938271604,0)" xlink:href="#bx"/></g><g id="P"><use transform="matrix(0.061728395061728385,0,0,0.061728395061728385,0,0)" xlink:href="#bv"/><use transform="matrix(0.061728395061728385,0,0,0.061728395061728385,4.876543209876543,0)" xlink:href="#bo"/></g><path fill="#3a414a" d="M9 0v-24l116-142H16v-24h144v24L44-24h123V0H9" id="bR"/><g id="Q"><use transform="matrix(0.061728395061728385,0,0,0.061728395061728385,0,0)" xlink:href="#bp"/><use transform="matrix(0.061728395061728385,0,0,0.061728395061728385,12.345679012345677,0)" xlink:href="#bw"/><use transform="matrix(0.061728395061728385,0,0,0.061728395061728385,24.691358024691354,0)" xlink:href="#bp"/><use transform="matrix(0.061728395061728385,0,0,0.061728395061728385,37.03703703703703,0)" xlink:href="#bq"/><use transform="matrix(0.061728395061728385,0,0,0.061728395061728385,44.38271604938271,0)" xlink:href="#bu"/><use transform="matrix(0.061728395061728385,0,0,0.061728395061728385,56.728395061728385,0)" xlink:href="#bv"/><use transform="matrix(0.061728395061728385,0,0,0.061728395061728385,61.60493827160493,0)" xlink:href="#bR"/><use transform="matrix(0.061728395061728385,0,0,0.061728395061728385,72.71604938271604,0)" xlink:href="#bp"/><use transform="matrix(0.061728395061728385,0,0,0.061728395061728385,85.06172839506172,0)" xlink:href="#bF"/></g><path fill="#3a414a" d="M115-159c48 0 72 30 72 78 0 54-30 85-83 85-64 0-91-50-91-122 0-98 58-163 141-120 15 8 21 24 27 44l-47 6c-5-31-48-31-61-4-7 14-11 33-11 60 9-17 28-27 53-27zM102-35c24 0 36-20 36-45s-11-43-37-43c-23 0-36 14-36 38 0 27 11 50 37 50" id="bS"/><g id="R"><use transform="matrix(0.061728395061728385,0,0,0.061728395061728385,0,0)" xlink:href="#bS"/><use transform="matrix(0.061728395061728385,0,0,0.061728395061728385,12.345679012345677,0)" xlink:href="#bm"/></g><path fill="#3a414a" d="M127-220V0H93v-220H8v-28h204v28h-85" id="bT"/><g id="S"><use transform="matrix(0.061728395061728385,0,0,0.061728395061728385,0,0)" xlink:href="#bT"/><use transform="matrix(0.061728395061728385,0,0,0.061728395061728385,11.04938271604938,0)" xlink:href="#by"/><use transform="matrix(0.061728395061728385,0,0,0.061728395061728385,23.395061728395056,0)" xlink:href="#bz"/><use transform="matrix(0.061728395061728385,0,0,0.061728395061728385,35.74074074074073,0)" xlink:href="#bo"/><use transform="matrix(0.061728395061728385,0,0,0.061728395061728385,46.85185185185184,0)" xlink:href="#bx"/><use transform="matrix(0.061728395061728385,0,0,0.061728395061728385,53.02469135802468,0)" xlink:href="#bv"/><use transform="matrix(0.061728395061728385,0,0,0.061728395061728385,57.90123456790123,0)" xlink:href="#bw"/><use transform="matrix(0.061728395061728385,0,0,0.061728395061728385,70.24691358024691,0)" xlink:href="#bu"/></g><g id="T"><use transform="matrix(0.061728395061728385,0,0,0.061728395061728385,0,0)" xlink:href="#bJ"/><use transform="matrix(0.061728395061728385,0,0,0.061728395061728385,11.111111111111109,0)" xlink:href="#by"/><use transform="matrix(0.061728395061728385,0,0,0.061728395061728385,23.456790123456784,0)" xlink:href="#bw"/><use transform="matrix(0.061728395061728385,0,0,0.061728395061728385,35.80246913580246,0)" xlink:href="#bx"/><use transform="matrix(0.061728395061728385,0,0,0.061728395061728385,41.9753086419753,0)" xlink:href="#bv"/><use transform="matrix(0.061728395061728385,0,0,0.061728395061728385,46.85185185185185,0)" xlink:href="#bw"/><use transform="matrix(0.061728395061728385,0,0,0.061728395061728385,59.197530864197525,0)" xlink:href="#bt"/><use transform="matrix(0.061728395061728385,0,0,0.061728395061728385,71.5432098765432,0)" xlink:href="#bp"/><use transform="matrix(0.061728395061728385,0,0,0.061728395061728385,83.88888888888889,0)" xlink:href="#bo"/></g><g id="U"><use transform="matrix(0.061728395061728385,0,0,0.061728395061728385,0,0)" xlink:href="#bt"/><use transform="matrix(0.061728395061728385,0,0,0.061728395061728385,12.345679012345677,0)" xlink:href="#bw"/><use transform="matrix(0.061728395061728385,0,0,0.061728395061728385,24.691358024691354,0)" xlink:href="#bx"/><use transform="matrix(0.061728395061728385,0,0,0.061728395061728385,30.864197530864192,0)" xlink:href="#bv"/><use transform="matrix(0.061728395061728385,0,0,0.061728395061728385,35.74074074074073,0)" xlink:href="#bs"/></g><g id="V"><use transform="matrix(0.061728395061728385,0,0,0.061728395061728385,0,0)" xlink:href="#bF"/><use transform="matrix(0.061728395061728385,0,0,0.061728395061728385,12.345679012345677,0)" xlink:href="#by"/><use transform="matrix(0.061728395061728385,0,0,0.061728395061728385,24.691358024691354,0)" xlink:href="#bw"/><use transform="matrix(0.061728395061728385,0,0,0.061728395061728385,37.03703703703703,0)" xlink:href="#bp"/><use transform="matrix(0.061728395061728385,0,0,0.061728395061728385,49.38271604938271,0)" xlink:href="#bw"/><use transform="matrix(0.061728395061728385,0,0,0.061728395061728385,61.728395061728385,0)" xlink:href="#bp"/><use transform="matrix(0.061728395061728385,0,0,0.061728395061728385,74.07407407407406,0)" xlink:href="#bo"/><use transform="matrix(0.061728395061728385,0,0,0.061728395061728385,85.18518518518518,0)" xlink:href="#bo"/></g><g id="W"><use transform="matrix(0.061728395061728385,0,0,0.061728395061728385,0,0)" xlink:href="#bs"/><use transform="matrix(0.061728395061728385,0,0,0.061728395061728385,4.876543209876543,0)" xlink:href="#bp"/><use transform="matrix(0.061728395061728385,0,0,0.061728395061728385,17.22222222222222,0)" xlink:href="#bK"/><use transform="matrix(0.061728395061728385,0,0,0.061728395061728385,28.33333333333333,0)" xlink:href="#bp"/><use transform="matrix(0.061728395061728385,0,0,0.061728395061728385,40.679012345679006,0)" xlink:href="#bs"/></g><path fill="#3a414a" d="M106-169C34-169 62-67 57 0H25v-261h32l-1 103c12-21 28-36 61-36 89 0 53 116 60 194h-32v-121c2-32-8-49-39-48" id="bU"/><g id="X"><use transform="matrix(0.061728395061728385,0,0,0.061728395061728385,0,0)" xlink:href="#bz"/><use transform="matrix(0.061728395061728385,0,0,0.061728395061728385,12.345679012345677,0)" xlink:href="#bJ"/><use transform="matrix(0.061728395061728385,0,0,0.061728395061728385,23.456790123456784,0)" xlink:href="#bU"/><use transform="matrix(0.061728395061728385,0,0,0.061728395061728385,35.80246913580246,0)" xlink:href="#bv"/><use transform="matrix(0.061728395061728385,0,0,0.061728395061728385,40.679012345679006,0)" xlink:href="#bp"/><use transform="matrix(0.061728395061728385,0,0,0.061728395061728385,53.02469135802468,0)" xlink:href="#bK"/><use transform="matrix(0.061728395061728385,0,0,0.061728395061728385,64.1358024691358,0)" xlink:href="#bp"/><use transform="matrix(0.061728395061728385,0,0,0.061728395061728385,76.48148148148147,0)" xlink:href="#bF"/></g><path fill="#3a414a" d="M52 0c1-96 47-148 87-207H15v-41h169v40c-36 62-79 113-81 208H52" id="bV"/><g id="Y"><use transform="matrix(0.061728395061728385,0,0,0.061728395061728385,0,0)" xlink:href="#bV"/><use transform="matrix(0.061728395061728385,0,0,0.061728395061728385,12.345679012345677,0)" xlink:href="#bm"/></g><g id="Z"><use transform="matrix(0.061728395061728385,0,0,0.061728395061728385,0,0)" xlink:href="#bx"/><use transform="matrix(0.061728395061728385,0,0,0.061728395061728385,6.1728395061728385,0)" xlink:href="#bt"/><use transform="matrix(0.061728395061728385,0,0,0.061728395061728385,18.518518518518515,0)" xlink:href="#bq"/><use transform="matrix(0.061728395061728385,0,0,0.061728395061728385,25.864197530864192,0)" xlink:href="#bw"/><use transform="matrix(0.061728395061728385,0,0,0.061728395061728385,38.20987654320987,0)" xlink:href="#bp"/><use transform="matrix(0.061728395061728385,0,0,0.061728395061728385,50.55555555555555,0)" xlink:href="#bF"/></g><g id="aa"><use transform="matrix(0.061728395061728385,0,0,0.061728395061728385,0,0)" xlink:href="#by"/><use transform="matrix(0.061728395061728385,0,0,0.061728395061728385,12.345679012345677,0)" xlink:href="#bL"/><use transform="matrix(0.061728395061728385,0,0,0.061728395061728385,18.086419753086417,0)" xlink:href="#bL"/></g><path fill="#3a414a" d="M138-131c27 9 52 24 51 61 0 53-36 74-89 74S11-19 11-69c0-35 22-54 51-61-78-25-46-121 38-121 51 0 83 19 83 66 0 30-18 49-45 54zm-38-16c24 0 32-13 32-36 1-23-11-34-32-34-22 0-33 12-32 34 0 22 9 36 32 36zm1 116c27 0 37-17 37-43 0-25-13-39-39-39-24 0-37 15-37 40 0 27 11 42 39 42" id="bW"/><g id="ab"><use transform="matrix(0.061728395061728385,0,0,0.061728395061728385,0,0)" xlink:href="#bW"/><use transform="matrix(0.061728395061728385,0,0,0.061728395061728385,12.345679012345677,0)" xlink:href="#bm"/></g><g id="ac"><use transform="matrix(0.061728395061728385,0,0,0.061728395061728385,0,0)" xlink:href="#bT"/><use transform="matrix(0.061728395061728385,0,0,0.061728395061728385,11.04938271604938,0)" xlink:href="#by"/><use transform="matrix(0.061728395061728385,0,0,0.061728395061728385,23.395061728395056,0)" xlink:href="#bz"/><use transform="matrix(0.061728395061728385,0,0,0.061728395061728385,35.74074074074073,0)" xlink:href="#bo"/><use transform="matrix(0.061728395061728385,0,0,0.061728395061728385,46.85185185185184,0)" xlink:href="#bx"/></g><path fill="#3a414a" d="M24-231v-30h32v30H24zM-9 49c24 4 33-6 33-30v-209h32V24c2 40-23 58-65 49V49" id="bX"/><g id="ad"><use transform="matrix(0.061728395061728385,0,0,0.061728395061728385,0,0)" xlink:href="#bp"/><use transform="matrix(0.061728395061728385,0,0,0.061728395061728385,12.345679012345677,0)" xlink:href="#bX"/><use transform="matrix(0.061728395061728385,0,0,0.061728395061728385,17.22222222222222,0)" xlink:href="#bp"/><use transform="matrix(0.061728395061728385,0,0,0.061728395061728385,29.5679012345679,0)" xlink:href="#bJ"/><use transform="matrix(0.061728395061728385,0,0,0.061728395061728385,40.679012345679006,0)" xlink:href="#bx"/><use transform="matrix(0.061728395061728385,0,0,0.061728395061728385,46.85185185185185,0)" xlink:href="#bp"/><use transform="matrix(0.061728395061728385,0,0,0.061728395061728385,59.197530864197525,0)" xlink:href="#bF"/></g><path fill="#3a414a" d="M99-251c69 0 84 53 88 123 5 99-61 162-144 118-15-8-21-25-26-45l46-6c4 31 50 33 63 7 7-15 12-36 12-60-9 18-29 28-54 28-48 0-72-32-72-82 0-55 31-83 87-83zm-1 128c24 0 37-16 37-39 0-27-10-51-37-51-25 0-35 19-35 45 0 25 10 45 35 45" id="bY"/><g id="ae"><use transform="matrix(0.061728395061728385,0,0,0.061728395061728385,0,0)" xlink:href="#bY"/><use transform="matrix(0.061728395061728385,0,0,0.061728395061728385,12.345679012345677,0)" xlink:href="#bm"/></g><g id="af"><use transform="matrix(0.061728395061728385,0,0,0.061728395061728385,0,0)" xlink:href="#bt"/><use transform="matrix(0.061728395061728385,0,0,0.061728395061728385,12.345679012345677,0)" xlink:href="#bw"/><use transform="matrix(0.061728395061728385,0,0,0.061728395061728385,24.691358024691354,0)" xlink:href="#br"/><use transform="matrix(0.061728395061728385,0,0,0.061728395061728385,37.03703703703703,0)" xlink:href="#bs"/><use transform="matrix(0.061728395061728385,0,0,0.061728395061728385,41.913580246913575,0)" xlink:href="#bt"/><use transform="matrix(0.061728395061728385,0,0,0.061728395061728385,54.25925925925925,0)" xlink:href="#bu"/><use transform="matrix(0.061728395061728385,0,0,0.061728395061728385,66.60493827160494,0)" xlink:href="#bo"/></g><g id="ag"><use transform="matrix(0.061728395061728385,0,0,0.061728395061728385,0,0)" xlink:href="#bx"/><use transform="matrix(0.061728395061728385,0,0,0.061728395061728385,6.1728395061728385,0)" xlink:href="#by"/><use transform="matrix(0.061728395061728385,0,0,0.061728395061728385,18.518518518518515,0)" xlink:href="#bz"/><use transform="matrix(0.061728395061728385,0,0,0.061728395061728385,30.864197530864192,0)" xlink:href="#bo"/><use transform="matrix(0.061728395061728385,0,0,0.061728395061728385,41.9753086419753,0)" xlink:href="#bx"/><use transform="matrix(0.061728395061728385,0,0,0.061728395061728385,48.14814814814814,0)" xlink:href="#bp"/><use transform="matrix(0.061728395061728385,0,0,0.061728395061728385,60.493827160493815,0)" xlink:href="#bq"/></g><path fill="#3a414a" d="M101-251c68 0 84 54 84 127C185-50 166 4 99 4S15-52 14-124c-1-75 17-127 87-127zm-1 216c37-5 36-46 36-89s4-89-36-89c-39 0-36 45-36 89 0 43-3 85 36 89" id="bZ"/><g id="ah"><use transform="matrix(0.061728395061728385,0,0,0.061728395061728385,0,0)" xlink:href="#bl"/><use transform="matrix(0.061728395061728385,0,0,0.061728395061728385,12.345679012345677,0)" xlink:href="#bZ"/><use transform="matrix(0.061728395061728385,0,0,0.061728395061728385,24.691358024691354,0)" xlink:href="#bm"/></g><g id="ai"><use transform="matrix(0.061728395061728385,0,0,0.061728395061728385,0,0)" xlink:href="#bq"/><use transform="matrix(0.061728395061728385,0,0,0.061728395061728385,7.345679012345678,0)" xlink:href="#bp"/><use transform="matrix(0.061728395061728385,0,0,0.061728395061728385,19.691358024691354,0)" xlink:href="#bQ"/><use transform="matrix(0.061728395061728385,0,0,0.061728395061728385,38.14814814814814,0)" xlink:href="#by"/><use transform="matrix(0.061728395061728385,0,0,0.061728395061728385,50.493827160493815,0)" xlink:href="#bK"/><use transform="matrix(0.061728395061728385,0,0,0.061728395061728385,61.60493827160492,0)" xlink:href="#bp"/><use transform="matrix(0.061728395061728385,0,0,0.061728395061728385,73.9506172839506,0)" xlink:href="#bo"/></g><g id="aj"><use transform="matrix(0.061728395061728385,0,0,0.061728395061728385,0,0)" xlink:href="#bx"/><use transform="matrix(0.061728395061728385,0,0,0.061728395061728385,6.1728395061728385,0)" xlink:href="#by"/><use transform="matrix(0.061728395061728385,0,0,0.061728395061728385,18.518518518518515,0)" xlink:href="#bz"/><use transform="matrix(0.061728395061728385,0,0,0.061728395061728385,30.864197530864192,0)" xlink:href="#bo"/><use transform="matrix(0.061728395061728385,0,0,0.061728395061728385,41.9753086419753,0)" xlink:href="#bx"/></g><path fill="#3a414a" d="M87 75C49 33 22-17 22-94c0-76 28-126 65-167h31c-38 41-64 92-64 168S80 34 118 75H87" id="ca"/><path fill="#3a414a" d="M206 0h-36l-40-164L89 0H53L-1-190h32L70-26l43-164h34l41 164 42-164h31" id="cb"/><g id="ak"><use transform="matrix(0.061728395061728385,0,0,0.061728395061728385,0,0)" xlink:href="#ca"/><use transform="matrix(0.061728395061728385,0,0,0.061728395061728385,7.345679012345678,0)" xlink:href="#cb"/><use transform="matrix(0.061728395061728385,0,0,0.061728395061728385,23.33333333333333,0)" xlink:href="#bv"/><use transform="matrix(0.061728395061728385,0,0,0.061728395061728385,28.209876543209873,0)" xlink:href="#bx"/><use transform="matrix(0.061728395061728385,0,0,0.061728395061728385,34.38271604938271,0)" xlink:href="#bU"/></g><path fill="#3a414a" d="M103-251c84 0 111 97 45 133-19 10-37 24-39 52H78c0-63 77-55 77-114 0-30-21-42-52-43-32 0-53 17-56 46l-32-2c7-45 34-72 88-72zM77 0v-35h34V0H77" id="cc"/><path fill="#3a414a" d="M33-261c38 41 65 92 65 168S71 34 33 75H2C39 34 66-17 66-93S39-220 2-261h31" id="cd"/><g id="al"><use transform="matrix(0.061728395061728385,0,0,0.061728395061728385,0,0)" xlink:href="#bt"/><use transform="matrix(0.061728395061728385,0,0,0.061728395061728385,12.345679012345677,0)" xlink:href="#bx"/><use transform="matrix(0.061728395061728385,0,0,0.061728395061728385,18.518518518518515,0)" xlink:href="#bp"/><use transform="matrix(0.061728395061728385,0,0,0.061728395061728385,30.864197530864192,0)" xlink:href="#bw"/><use transform="matrix(0.061728395061728385,0,0,0.061728395061728385,43.20987654320987,0)" xlink:href="#bo"/><use transform="matrix(0.061728395061728385,0,0,0.061728395061728385,54.32098765432098,0)" xlink:href="#bv"/><use transform="matrix(0.061728395061728385,0,0,0.061728395061728385,59.197530864197525,0)" xlink:href="#bs"/><use transform="matrix(0.061728395061728385,0,0,0.061728395061728385,64.07407407407406,0)" xlink:href="#cc"/><use transform="matrix(0.061728395061728385,0,0,0.061728395061728385,76.41975308641975,0)" xlink:href="#cd"/></g><path fill="#3a414a" d="M238-95c0 69-44 99-111 99C63 4 22-25 22-93v-155h51v151c-1 38 19 59 55 60 90 1 49-130 58-211h52v153" id="ce"/><path fill="#3a414a" d="M137-138c1-29-70-34-71-4 15 46 118 7 119 86 1 83-164 76-172 9l43-7c4 19 20 25 44 25 33 8 57-30 24-41C81-84 22-81 20-136c-2-80 154-74 161-7" id="cf"/><path fill="#3a414a" d="M135-150c-39-12-60 13-60 57V0H25l-1-190h47c2 13-1 29 3 40 6-28 27-53 61-41v41" id="cg"/><g id="am"><use transform="matrix(0.06172839506172839,0,0,0.06172839506172839,0,0)" xlink:href="#ce"/><use transform="matrix(0.06172839506172839,0,0,0.06172839506172839,15.987654320987653,0)" xlink:href="#cf"/><use transform="matrix(0.06172839506172839,0,0,0.06172839506172839,28.333333333333332,0)" xlink:href="#bj"/><use transform="matrix(0.06172839506172839,0,0,0.06172839506172839,40.67901234567901,0)" xlink:href="#cg"/></g><path fill="#3a414a" d="M76-208v77h127v40H76V0H24v-248h183v40H76" id="ch"/><path fill="#3a414a" d="M85 4C-2 5 27-109 22-190h50c7 57-23 150 33 157 60-5 35-97 40-157h50l1 190h-47c-2-12 1-28-3-38-12 25-28 42-61 42" id="ci"/><path fill="#3a414a" d="M135-194c87-1 58 113 63 194h-50c-7-57 23-157-34-157-59 0-34 97-39 157H25l-1-190h47c2 12-1 28 3 38 12-26 28-41 61-42" id="cj"/><path fill="#3a414a" d="M190-63c-7 42-38 67-86 67-59 0-84-38-90-98-12-110 154-137 174-36l-49 2c-2-19-15-32-35-32-30 0-35 28-38 64-6 74 65 87 74 30" id="ck"/><path fill="#3a414a" d="M25-224v-37h50v37H25zM25 0v-190h50V0H25" id="cl"/><path fill="#3a414a" d="M110-194c64 0 96 36 96 99 0 64-35 99-97 99-61 0-95-36-95-99 0-62 34-99 96-99zm-1 164c35 0 45-28 45-65 0-40-10-65-43-65-34 0-45 26-45 65 0 36 10 65 43 65" id="cm"/><g id="an"><use transform="matrix(0.06172839506172839,0,0,0.06172839506172839,0,0)" xlink:href="#ch"/><use transform="matrix(0.06172839506172839,0,0,0.06172839506172839,13.518518518518517,0)" xlink:href="#ci"/><use transform="matrix(0.06172839506172839,0,0,0.06172839506172839,27.037037037037035,0)" xlink:href="#cj"/><use transform="matrix(0.06172839506172839,0,0,0.06172839506172839,40.55555555555555,0)" xlink:href="#ck"/><use transform="matrix(0.06172839506172839,0,0,0.06172839506172839,52.90123456790123,0)" xlink:href="#bi"/><use transform="matrix(0.06172839506172839,0,0,0.06172839506172839,60.246913580246904,0)" xlink:href="#cl"/><use transform="matrix(0.06172839506172839,0,0,0.06172839506172839,66.41975308641975,0)" xlink:href="#cm"/><use transform="matrix(0.06172839506172839,0,0,0.06172839506172839,79.93827160493827,0)" xlink:href="#cj"/></g><path fill="#3a414a" d="M123 10C108 53 80 86 19 72V37c35 8 53-11 59-39L3-190h52l48 148c12-52 28-100 44-148h51" id="cn"/><path fill="#3a414a" d="M220-157c-53 9-28 100-34 157h-49v-107c1-27-5-49-29-50C55-147 81-57 75 0H25l-1-190h47c2 12-1 28 3 38 10-53 101-56 108 0 13-22 24-43 59-42 82 1 51 116 57 194h-49v-107c-1-25-5-48-29-50" id="co"/><g id="ao"><use transform="matrix(0.06172839506172839,0,0,0.06172839506172839,0,0)" xlink:href="#bh"/><use transform="matrix(0.06172839506172839,0,0,0.06172839506172839,14.814814814814813,0)" xlink:href="#cn"/><use transform="matrix(0.06172839506172839,0,0,0.06172839506172839,27.160493827160494,0)" xlink:href="#cf"/><use transform="matrix(0.06172839506172839,0,0,0.06172839506172839,39.50617283950617,0)" xlink:href="#bi"/><use transform="matrix(0.06172839506172839,0,0,0.06172839506172839,46.85185185185185,0)" xlink:href="#bj"/><use transform="matrix(0.06172839506172839,0,0,0.06172839506172839,59.197530864197525,0)" xlink:href="#co"/></g><g id="ap"><use transform="matrix(0.06172839506172839,0,0,0.06172839506172839,0,0)" xlink:href="#bD"/><use transform="matrix(0.06172839506172839,0,0,0.06172839506172839,12.345679012345679,0)" xlink:href="#by"/><use transform="matrix(0.06172839506172839,0,0,0.06172839506172839,24.691358024691358,0)" xlink:href="#by"/><use transform="matrix(0.06172839506172839,0,0,0.06172839506172839,37.03703703703704,0)" xlink:href="#br"/></g><g id="aq"><use transform="matrix(0.06172839506172839,0,0,0.06172839506172839,0,0)" xlink:href="#bE"/><use transform="matrix(0.06172839506172839,0,0,0.06172839506172839,14.814814814814813,0)" xlink:href="#bw"/><use transform="matrix(0.06172839506172839,0,0,0.06172839506172839,27.160493827160494,0)" xlink:href="#bF"/></g><path fill="#3a414a" d="M240-174c0 40-23 61-54 70L253 0h-59l-57-94H76V0H24v-248c93 4 217-23 216 74zM76-134c48-2 112 12 112-38 0-48-66-32-112-35v73" id="cp"/><g id="ar"><use transform="matrix(0.04938271604938272,0,0,0.04938271604938272,0,0)" xlink:href="#cp"/><use transform="matrix(0.04938271604938272,0,0,0.04938271604938272,12.790123456790125,0)" xlink:href="#bj"/><use transform="matrix(0.04938271604938272,0,0,0.04938271604938272,22.66666666666667,0)" xlink:href="#bi"/><use transform="matrix(0.04938271604938272,0,0,0.04938271604938272,28.54320987654322,0)" xlink:href="#ci"/><use transform="matrix(0.04938271604938272,0,0,0.04938271604938272,39.35802469135803,0)" xlink:href="#cg"/><use transform="matrix(0.04938271604938272,0,0,0.04938271604938272,46.271604938271615,0)" xlink:href="#cj"/></g><path fill="#3a414a" d="M25 0v-261h50V0H25" id="cq"/><g id="as"><use transform="matrix(0.04938271604938272,0,0,0.04938271604938272,0,0)" xlink:href="#cq"/><use transform="matrix(0.04938271604938272,0,0,0.04938271604938272,4.938271604938272,0)" xlink:href="#cm"/><use transform="matrix(0.04938271604938272,0,0,0.04938271604938272,15.753086419753087,0)" xlink:href="#cm"/><use transform="matrix(0.04938271604938272,0,0,0.04938271604938272,26.567901234567902,0)" xlink:href="#bk"/></g><g id="at"><use transform="matrix(0.04938271604938272,0,0,0.04938271604938272,0,0)" xlink:href="#bi"/><use transform="matrix(0.04938271604938272,0,0,0.04938271604938272,5.8765432098765435,0)" xlink:href="#cm"/></g><path fill="#3a414a" d="M133-34C117-15 103 5 69 4 32 3 11-16 11-54c-1-60 55-63 116-61 1-26-3-47-28-47-18 1-26 9-28 27l-52-2c7-38 36-58 82-57s74 22 75 68l1 82c-1 14 12 18 25 15v27c-30 8-71 5-69-32zm-48 3c29 0 43-24 42-57-32 0-66-3-65 30 0 17 8 27 23 27" id="cr"/><g id="au"><use transform="matrix(0.04938271604938272,0,0,0.04938271604938272,0,0)" xlink:href="#cg"/><use transform="matrix(0.04938271604938272,0,0,0.04938271604938272,6.913580246913581,0)" xlink:href="#bj"/><use transform="matrix(0.04938271604938272,0,0,0.04938271604938272,16.790123456790127,0)" xlink:href="#bk"/><use transform="matrix(0.04938271604938272,0,0,0.04938271604938272,27.604938271604947,0)" xlink:href="#bj"/><use transform="matrix(0.04938271604938272,0,0,0.04938271604938272,37.48148148148149,0)" xlink:href="#cr"/><use transform="matrix(0.04938271604938272,0,0,0.04938271604938272,47.35802469135803,0)" xlink:href="#bi"/></g><g id="av"><use transform="matrix(0.04938271604938272,0,0,0.04938271604938272,0,0)" xlink:href="#cf"/><use transform="matrix(0.04938271604938272,0,0,0.04938271604938272,9.876543209876544,0)" xlink:href="#bi"/><use transform="matrix(0.04938271604938272,0,0,0.04938271604938272,15.753086419753087,0)" xlink:href="#bj"/><use transform="matrix(0.04938271604938272,0,0,0.04938271604938272,25.629629629629633,0)" xlink:href="#bk"/><use transform="matrix(0.04938271604938272,0,0,0.04938271604938272,36.44444444444445,0)" xlink:href="#cf"/></g><path fill="#3a414a" d="M125-100v72H85v-72H15v-39h70v-72h40v72h71v39h-71" id="cs"/><g id="aw"><use transform="matrix(0.04938271604938272,0,0,0.04938271604938272,0,0)" xlink:href="#bG"/><use transform="matrix(0.04938271604938272,0,0,0.04938271604938272,9.876543209876544,0)" xlink:href="#cs"/></g><g id="ax"><use transform="matrix(0.04938271604938272,0,0,0.04938271604938272,0,0)" xlink:href="#ch"/><use transform="matrix(0.04938271604938272,0,0,0.04938271604938272,10.814814814814815,0)" xlink:href="#ci"/><use transform="matrix(0.04938271604938272,0,0,0.04938271604938272,21.62962962962963,0)" xlink:href="#cj"/><use transform="matrix(0.04938271604938272,0,0,0.04938271604938272,32.44444444444444,0)" xlink:href="#ck"/><use transform="matrix(0.04938271604938272,0,0,0.04938271604938272,42.32098765432099,0)" xlink:href="#bi"/><use transform="matrix(0.04938271604938272,0,0,0.04938271604938272,48.19753086419753,0)" xlink:href="#cl"/><use transform="matrix(0.04938271604938272,0,0,0.04938271604938272,53.135802469135804,0)" xlink:href="#cm"/><use transform="matrix(0.04938271604938272,0,0,0.04938271604938272,63.95061728395062,0)" xlink:href="#cj"/><use transform="matrix(0.04938271604938272,0,0,0.04938271604938272,74.76543209876543,0)" xlink:href="#cf"/></g><g id="ay"><use transform="matrix(0.04938271604938272,0,0,0.04938271604938272,0,0)" xlink:href="#cm"/><use transform="matrix(0.04938271604938272,0,0,0.04938271604938272,10.814814814814815,0)" xlink:href="#ck"/><use transform="matrix(0.04938271604938272,0,0,0.04938271604938272,20.69135802469136,0)" xlink:href="#ck"/><use transform="matrix(0.04938271604938272,0,0,0.04938271604938272,30.567901234567906,0)" xlink:href="#ci"/><use transform="matrix(0.04938271604938272,0,0,0.04938271604938272,41.38271604938272,0)" xlink:href="#cg"/></g><g id="az"><use transform="matrix(0.04938271604938272,0,0,0.04938271604938272,0,0)" xlink:href="#cf"/><use transform="matrix(0.04938271604938272,0,0,0.04938271604938272,9.876543209876544,0)" xlink:href="#cl"/><use transform="matrix(0.04938271604938272,0,0,0.04938271604938272,14.814814814814817,0)" xlink:href="#co"/><use transform="matrix(0.04938271604938272,0,0,0.04938271604938272,30.617283950617285,0)" xlink:href="#ci"/><use transform="matrix(0.04938271604938272,0,0,0.04938271604938272,41.4320987654321,0)" xlink:href="#cq"/><use transform="matrix(0.04938271604938272,0,0,0.04938271604938272,46.370370370370374,0)" xlink:href="#bi"/><use transform="matrix(0.04938271604938272,0,0,0.04938271604938272,52.24691358024692,0)" xlink:href="#cr"/><use transform="matrix(0.04938271604938272,0,0,0.04938271604938272,62.12345679012346,0)" xlink:href="#cj"/><use transform="matrix(0.04938271604938272,0,0,0.04938271604938272,72.93827160493828,0)" xlink:href="#bj"/><use transform="matrix(0.04938271604938272,0,0,0.04938271604938272,82.81481481481482,0)" xlink:href="#cm"/><use transform="matrix(0.04938271604938272,0,0,0.04938271604938272,93.62962962962963,0)" xlink:href="#ci"/><use transform="matrix(0.04938271604938272,0,0,0.04938271604938272,104.44444444444446,0)" xlink:href="#cf"/><use transform="matrix(0.04938271604938272,0,0,0.04938271604938272,114.320987654321,0)" xlink:href="#cq"/><use transform="matrix(0.04938271604938272,0,0,0.04938271604938272,119.25925925925927,0)" xlink:href="#cn"/></g></defs></g></svg>