<svg xmlns="http://www.w3.org/2000/svg" xmlns:xlink="http://www.w3.org/1999/xlink" xmlns:lucid="lucid" width="944.61" height="778.7"><g transform="translate(-141.1923980818865 -40175.00234625311)" lucid:page-tab-id="YDyKk7ZmHaDl"><path d="M144.7 40282.5a12 12 0 0 1 12-12h913.6a12 12 0 0 1 12 12v655.7a12 12 0 0 1-12 12H156.7a12 12 0 0 1-12-12z" stroke="#3a414a" stroke-width="7" fill="#fff"/><path d="M144.7 40190.5a12 12 0 0 1 12-12h414.33a12 12 0 0 1 12 12v56a12 12 0 0 1-12 12H156.7a12 12 0 0 1-12-12z" stroke="#3a414a" stroke-width="7" fill="#3a414a"/><use xlink:href="#a" transform="matrix(1,0,0,1,160.6923980818865,40199.30234625311) translate(0 32)"/><use xlink:href="#b" transform="matrix(1,0,0,1,160.6923980818865,40199.30234625311) translate(66.66666666666666 32)"/><use xlink:href="#c" transform="matrix(1,0,0,1,160.6923980818865,40199.30234625311) translate(90.99999999999999 32)"/><use xlink:href="#d" transform="matrix(1,0,0,1,160.6923980818865,40199.30234625311) translate(235.33333333333331 32)"/><path d="M532.5 40391.54a6 6 0 0 1 6-6h482.97a6 6 0 0 1 6 6v437.62a6 6 0 0 1-6 6H538.5a6 6 0 0 1-6-6z" stroke="#3a414a" stroke-width="3" fill="#ced4db"/><use xlink:href="#e" transform="matrix(1,0,0,1,537.4922494620841,40390.53938474892) translate(89.80555555555571 437.4983168)"/><use xlink:href="#f" transform="matrix(1,0,0,1,537.4922494620841,40390.53938474892) translate(161.9722222222223 437.4983168)"/><use xlink:href="#g" transform="matrix(1,0,0,1,537.4922494620841,40390.53938474892) translate(253.02777777777777 437.4983168)"/><use xlink:href="#h" transform="matrix(1,0,0,1,537.4922494620841,40390.53938474892) translate(265.19444444444446 437.4983168)"/><path d="M588.36 40314.5a6 6 0 0 1 6-6h374.47a6 6 0 0 1 6 6v65.04a6 6 0 0 1-6 6H594.36a6 6 0 0 1-6-6z" fill="none"/><use xlink:href="#i" transform="matrix(1,0,0,1,588.3567100133041,40308.49134309143) translate(2.7592592592594656 30.11111111111112)"/><use xlink:href="#j" transform="matrix(1,0,0,1,588.3567100133041,40308.49134309143) translate(49.11728395061745 30.11111111111112)"/><use xlink:href="#k" transform="matrix(1,0,0,1,588.3567100133041,40308.49134309143) translate(88.62345679012358 30.11111111111112)"/><use xlink:href="#l" transform="matrix(1,0,0,1,588.3567100133041,40308.49134309143) translate(199.42592592592595 30.11111111111112)"/><use xlink:href="#m" transform="matrix(1,0,0,1,588.3567100133041,40308.49134309143) translate(256.09259259259255 30.11111111111112)"/><use xlink:href="#n" transform="matrix(1,0,0,1,588.3567100133041,40308.49134309143) translate(280.7839506172839 30.11111111111112)"/><use xlink:href="#o" transform="matrix(1,0,0,1,588.3567100133041,40308.49134309143) translate(351.0308641975307 30.11111111111112)"/><use xlink:href="#p" transform="matrix(1,0,0,1,588.3567100133041,40308.49134309143) translate(99.45679012345687 56.77777777777776)"/><use xlink:href="#q" transform="matrix(1,0,0,1,588.3567100133041,40308.49134309143) translate(182.11111111111111 56.77777777777776)"/><path d="M240.13 40631.1a6 6 0 0 1 6-6h143a6 6 0 0 1 6 6v63a6 6 0 0 1-6 6h-143a6 6 0 0 1-6-6zM255.74 40427.96a6 6 0 0 1 6-6h143a6 6 0 0 1 6 6v63a6 6 0 0 1-6 6h-143a6 6 0 0 1-6-6zM826.2 40544.02a6 6 0 0 1 6-6h122.54a6 6 0 0 1 6 6v75.07a6 6 0 0 1-6 6H832.2a6 6 0 0 1-6-6zM585.05 40430.88a6 6 0 0 1 6-6h97.9a6 6 0 0 1 6 6v57.15a6 6 0 0 1-6 6h-97.9a6 6 0 0 1-6-6zM588.36 40668.92a6 6 0 0 1 6-6H716.9a6 6 0 0 1 6 6v57.15a6 6 0 0 1-6 6H594.37a6 6 0 0 1-6-6z" stroke="#3a414a" stroke-width="3" fill="#fff"/><path d="M475.7 40459.93h-62.96v-.95h62.96zm91.47 0h-76.65v-.95h76.65z" stroke="#3a414a" stroke-width=".05" fill="#3a414a"/><path d="M412.76 40459.93h-.52v-.95h.52z" fill="#3a414a"/><path stroke="#3a414a" stroke-width=".05" fill="#3a414a"/><path d="M581.94 40459.46l-14.27 4.63v-9.28z" fill="#3a414a"/><path d="M583.47 40459.46l-16.27 5.3v-10.6zm-15.32 3.98l12.25-3.98-12.25-3.98z" stroke="#3a414a" stroke-width=".05" fill="#3a414a"/><use xlink:href="#r" transform="matrix(1,0,0,1,475.7001701717117,40448.79097079864) translate(0 14.222222222222223)"/><path d="M514.6 40645.12v.95h-43.38v-.95zm-117.47.95v-.95h59.27v.95z" stroke="#3a414a" stroke-width=".05" fill="#3a414a"/><path d="M397.14 40646.07h-.5v-.95h.5z" fill="#3a414a"/><path stroke="#3a414a" stroke-width=".05" fill="#3a414a"/><path d="M529.37 40645.6l-14.26 4.63v-9.27z" fill="#3a414a"/><path d="M530.9 40645.6l-16.27 5.28v-10.58zm-15.32 3.97l12.26-3.98-12.26-4z" stroke="#3a414a" stroke-width=".05" fill="#3a414a"/><use xlink:href="#r" transform="matrix(1,0,0,1,456.4029366419395,40634.92572214039) translate(0 14.222222222222223)"/><path d="M530.5 40673.14v.96H471.2v-.96zm-74.1 0v.96H413v-.96z" stroke="#3a414a" stroke-width=".05" fill="#3a414a"/><path d="M531 40674.1h-.52v-.96h.5z" fill="#3a414a"/><path stroke="#3a414a" stroke-width=".05" fill="#3a414a"/><path d="M412.5 40678.25l-14.25-4.63 14.26-4.64z" fill="#3a414a"/><path d="M413 40678.9l-16.3-5.28 16.3-5.3zm-13.2-5.28l12.24 3.98v-7.96z" stroke="#3a414a" stroke-width=".05" fill="#3a414a"/><use xlink:href="#r" transform="matrix(1,0,0,1,456.4029366419395,40662.95300250074) translate(0 14.222222222222223)"/><path d="M640.48 40660.92h-.95v-71.78h.95zm0-149v55.9h-.95v-55.9z" stroke="#3a414a" stroke-width=".05" fill="#3a414a"/><path d="M640.48 40661.42h-.95v-.52h.95z" fill="#3a414a"/><path stroke="#3a414a" stroke-width=".05" fill="#3a414a"/><path d="M644.64 40511.42h-9.27l4.64-14.27z" fill="#3a414a"/><path d="M645.3 40511.9h-10.58l5.3-16.28zm-9.27-.96H644l-4-12.25z" stroke="#3a414a" stroke-width=".05" fill="#3a414a"/><use xlink:href="#s" transform="matrix(1,0,0,1,632.6015428297626,40567.8085590583) translate(0 14.222222222222223)"/><path d="M749.37 40691.5l-.08 1-.25 1-.4.93-.52.87-.66.77-.77.66-.87.53-.94.4-1 .23-1 .07h-2.1v-.95h2.07l.88-.07.85-.2.8-.34.74-.44.66-.56.56-.66.45-.74.34-.8.2-.84.08-.9v-66.93h.95zm74.82-109.47h-69.3l-.87.07-.85.2-.8.33-.74.46-.65.55-.58.66-.45.75-.33.8-.2.84-.07.87v15.63h-.95v-15.66l.07-1 .23-1 .4-.93.52-.85.66-.78.78-.66.87-.52.94-.4.98-.22 1-.08h69.3z" stroke="#3a414a" stroke-width=".05" fill="#3a414a"/><path d="M824.7 40582.03h-.53v-.95h.52z" fill="#3a414a"/><path stroke="#3a414a" stroke-width=".05" fill="#3a414a"/><path d="M740.3 40702.13l-14.27-4.64 14.27-4.64z" fill="#3a414a"/><path d="M740.77 40702.78l-16.28-5.3 16.27-5.28zm-13.2-5.3l12.25 4v-7.97z" stroke="#3a414a" stroke-width=".05" fill="#3a414a"/><use xlink:href="#s" transform="matrix(1,0,0,1,741.4838212637492,40603.19826114743) translate(0 14.222222222222223)"/><path d="M276.12 40849.9h-30.25v-.94h30.25zm113.83 0h-14.37v-.94h14.37z" stroke="#3a414a" stroke-width=".05" fill="#3a414a"/><path d="M245.88 40849.9h-.5v-.94h.5z" stroke="#3a414a" stroke-width=".05" fill="#3a414a"/><path d="M404.7 40849.43l-14.25 4.64v-9.27z" fill="#3a414a"/><path d="M406.25 40849.43l-16.28 5.3v-10.6zm-15.33 3.98l12.26-3.97-12.26-3.98z" stroke="#3a414a" stroke-width=".05" fill="#3a414a"/><g><use xlink:href="#t" transform="matrix(1,0,0,1,276.121337111691,40838.76504620854) translate(0 14.222222222222223)"/><use xlink:href="#u" transform="matrix(1,0,0,1,276.121337111691,40838.76504620854) translate(82.76543209876544 14.222222222222223)"/></g><path d="M217.92 40877.54a6 6 0 0 1 6-6h199.2a6 6 0 0 1 6 6v19.34a6 6 0 0 1-6 6H223.9a6 6 0 0 1-6-6z" fill="none"/><g><use xlink:href="#v" transform="matrix(1,0,0,1,222.91659162648648,40876.53648525614) translate(0.40740740740739056 14.555555555555555)"/><use xlink:href="#w" transform="matrix(1,0,0,1,222.91659162648648,40876.53648525614) translate(49.64197530864197 14.555555555555555)"/><use xlink:href="#x" transform="matrix(1,0,0,1,222.91659162648648,40876.53648525614) translate(124.60493827160494 14.555555555555555)"/><use xlink:href="#y" transform="matrix(1,0,0,1,222.91659162648648,40876.53648525614) translate(139.41975308641975 14.555555555555555)"/></g><path d="M511.87 40444.63l-2.35 1.8-84.62-111.54h3.7z" stroke="#e81313" stroke-width=".05" fill="#e81313"/><path stroke="#e81313" stroke-width=".05" fill="#e81313"/><path d="M519.45 40457.07l-13.83-5.82 11.95-9.06z" fill="#e81313"/><path d="M521.23 40459.42l-18.53-7.8 16.02-12.15zm-12.68-8.54l9.12 3.84-1.24-9.82z" stroke="#e81313" stroke-width=".05" fill="#e81313"/><g><use xlink:href="#z" transform="matrix(1,0,0,1,382.17325849284794,40302.89236245102) translate(0 21.333333333333336)"/></g><path d="M470.77 40747.32h-3.4l-32.9-57.77 2.56-1.46z" stroke="#e81313" stroke-width=".05" fill="#e81313"/><path stroke="#e81313" stroke-width=".05" fill="#e81313"/><path d="M441.52 40683.8l-13.03 7.43.07-15z" fill="#e81313"/><path d="M444.47 40683.82l-17.47 9.95.1-20.1zm-14.5 4.86l8.6-4.9-8.54-5z" stroke="#e81313" stroke-width=".05" fill="#e81313"/><g><use xlink:href="#A" transform="matrix(1,0,0,1,434.6736757417379,40747.31638333607) translate(0 21.333333333333336)"/></g><defs><path fill="#fff" d="M101-251c82-7 93 87 43 132L82-64C71-53 59-42 53-27h129V0H18c2-99 128-94 128-182 0-28-16-43-45-43s-46 15-49 41l-32-3c6-41 34-60 81-64" id="B"/><path fill="#fff" d="M33 0v-38h34V0H33" id="C"/><path fill="#fff" d="M110-160c48 1 74 30 74 79 0 53-28 85-80 85-65 0-83-55-86-122-5-90 50-162 133-122 14 7 22 21 27 39l-31 6c-5-40-67-38-82-6-9 19-15 44-15 74 11-20 30-34 60-33zm-7 138c34 0 49-23 49-58s-16-56-50-56c-29 0-50 16-49 49 1 36 15 65 50 65" id="D"/><g id="a"><use transform="matrix(0.1111111111111111,0,0,0.1111111111111111,0,0)" xlink:href="#B"/><use transform="matrix(0.1111111111111111,0,0,0.1111111111111111,22.22222222222222,0)" xlink:href="#C"/><use transform="matrix(0.1111111111111111,0,0,0.1111111111111111,33.33333333333333,0)" xlink:href="#D"/></g><path fill="#fff" d="M16-82v-28h88v28H16" id="E"/><use transform="matrix(0.1111111111111111,0,0,0.1111111111111111,0,0)" xlink:href="#E" id="b"/><path fill="#fff" d="M185-189c-5-48-123-54-124 2 14 75 158 14 163 119 3 78-121 87-175 55-17-10-28-26-33-46l33-7c5 56 141 63 141-1 0-78-155-14-162-118-5-82 145-84 179-34 5 7 8 16 11 25" id="F"/><path fill="#fff" d="M179-190L93 31C79 59 56 82 12 73V49c39 6 53-20 64-50L1-190h34L92-34l54-156h33" id="G"/><path fill="#fff" d="M135-143c-3-34-86-38-87 0 15 53 115 12 119 90S17 21 10-45l28-5c4 36 97 45 98 0-10-56-113-15-118-90-4-57 82-63 122-42 12 7 21 19 24 35" id="H"/><path fill="#fff" d="M59-47c-2 24 18 29 38 22v24C64 9 27 4 27-40v-127H5v-23h24l9-43h21v43h35v23H59v120" id="I"/><path fill="#fff" d="M100-194c63 0 86 42 84 106H49c0 40 14 67 53 68 26 1 43-12 49-29l28 8c-11 28-37 45-77 45C44 4 14-33 15-96c1-61 26-98 85-98zm52 81c6-60-76-77-97-28-3 7-6 17-6 28h103" id="J"/><path fill="#fff" d="M210-169c-67 3-38 105-44 169h-31v-121c0-29-5-50-35-48C34-165 62-65 56 0H25l-1-190h30c1 10-1 24 2 32 10-44 99-50 107 0 11-21 27-35 58-36 85-2 47 119 55 194h-31v-121c0-29-5-49-35-48" id="K"/><g id="c"><use transform="matrix(0.1111111111111111,0,0,0.1111111111111111,0,0)" xlink:href="#F"/><use transform="matrix(0.1111111111111111,0,0,0.1111111111111111,26.666666666666664,0)" xlink:href="#G"/><use transform="matrix(0.1111111111111111,0,0,0.1111111111111111,46.666666666666664,0)" xlink:href="#H"/><use transform="matrix(0.1111111111111111,0,0,0.1111111111111111,66.66666666666666,0)" xlink:href="#I"/><use transform="matrix(0.1111111111111111,0,0,0.1111111111111111,77.77777777777777,0)" xlink:href="#J"/><use transform="matrix(0.1111111111111111,0,0,0.1111111111111111,100,0)" xlink:href="#K"/></g><path fill="#fff" d="M160-131c35 5 61 23 61 61C221 17 115-2 30 0v-248c76 3 177-17 177 60 0 33-19 50-47 57zm-97-11c50-1 110 9 110-42 0-47-63-36-110-37v79zm0 115c55-2 124 14 124-45 0-56-70-42-124-44v89" id="L"/><path fill="#fff" d="M100-194c62-1 85 37 85 99 1 63-27 99-86 99S16-35 15-95c0-66 28-99 85-99zM99-20c44 1 53-31 53-75 0-43-8-75-51-75s-53 32-53 75 10 74 51 75" id="M"/><path fill="#fff" d="M84 4C-5 8 30-112 23-190h32v120c0 31 7 50 39 49 72-2 45-101 50-169h31l1 190h-30c-1-10 1-25-2-33-11 22-28 36-60 37" id="N"/><path fill="#fff" d="M117-194c89-4 53 116 60 194h-32v-121c0-31-8-49-39-48C34-167 62-67 57 0H25l-1-190h30c1 10-1 24 2 32 11-22 29-35 61-36" id="O"/><path fill="#fff" d="M85-194c31 0 48 13 60 33l-1-100h32l1 261h-30c-2-10 0-23-3-31C134-8 116 4 85 4 32 4 16-35 15-94c0-66 23-100 70-100zm9 24c-40 0-46 34-46 75 0 40 6 74 45 74 42 0 51-32 51-76 0-42-9-74-50-73" id="P"/><path fill="#fff" d="M141-36C126-15 110 5 73 4 37 3 15-17 15-53c-1-64 63-63 125-63 3-35-9-54-41-54-24 1-41 7-42 31l-33-3c5-37 33-52 76-52 45 0 72 20 72 64v82c-1 20 7 32 28 27v20c-31 9-61-2-59-35zM48-53c0 20 12 33 32 33 41-3 63-29 60-74-43 2-92-5-92 41" id="Q"/><path fill="#fff" d="M114-163C36-179 61-72 57 0H25l-1-190h30c1 12-1 29 2 39 6-27 23-49 58-41v29" id="R"/><g id="d"><use transform="matrix(0.1111111111111111,0,0,0.1111111111111111,0,0)" xlink:href="#L"/><use transform="matrix(0.1111111111111111,0,0,0.1111111111111111,26.666666666666664,0)" xlink:href="#M"/><use transform="matrix(0.1111111111111111,0,0,0.1111111111111111,48.888888888888886,0)" xlink:href="#N"/><use transform="matrix(0.1111111111111111,0,0,0.1111111111111111,71.11111111111111,0)" xlink:href="#O"/><use transform="matrix(0.1111111111111111,0,0,0.1111111111111111,93.33333333333334,0)" xlink:href="#P"/><use transform="matrix(0.1111111111111111,0,0,0.1111111111111111,115.55555555555557,0)" xlink:href="#Q"/><use transform="matrix(0.1111111111111111,0,0,0.1111111111111111,137.7777777777778,0)" xlink:href="#R"/><use transform="matrix(0.1111111111111111,0,0,0.1111111111111111,151.00000000000003,0)" xlink:href="#G"/></g><path d="M185-189c-5-48-123-54-124 2 14 75 158 14 163 119 3 78-121 87-175 55-17-10-28-26-33-46l33-7c5 56 141 63 141-1 0-78-155-14-162-118-5-82 145-84 179-34 5 7 8 16 11 25" id="S"/><path d="M179-190L93 31C79 59 56 82 12 73V49c39 6 53-20 64-50L1-190h34L92-34l54-156h33" id="T"/><path d="M135-143c-3-34-86-38-87 0 15 53 115 12 119 90S17 21 10-45l28-5c4 36 97 45 98 0-10-56-113-15-118-90-4-57 82-63 122-42 12 7 21 19 24 35" id="U"/><path d="M59-47c-2 24 18 29 38 22v24C64 9 27 4 27-40v-127H5v-23h24l9-43h21v43h35v23H59v120" id="V"/><path d="M100-194c63 0 86 42 84 106H49c0 40 14 67 53 68 26 1 43-12 49-29l28 8c-11 28-37 45-77 45C44 4 14-33 15-96c1-61 26-98 85-98zm52 81c6-60-76-77-97-28-3 7-6 17-6 28h103" id="W"/><path d="M210-169c-67 3-38 105-44 169h-31v-121c0-29-5-50-35-48C34-165 62-65 56 0H25l-1-190h30c1 10-1 24 2 32 10-44 99-50 107 0 11-21 27-35 58-36 85-2 47 119 55 194h-31v-121c0-29-5-49-35-48" id="X"/><g id="e"><use transform="matrix(0.055555555555555504,0,0,0.055555555555555504,0,0)" xlink:href="#S"/><use transform="matrix(0.055555555555555504,0,0,0.055555555555555504,13.333333333333321,0)" xlink:href="#T"/><use transform="matrix(0.055555555555555504,0,0,0.055555555555555504,23.333333333333314,0)" xlink:href="#U"/><use transform="matrix(0.055555555555555504,0,0,0.055555555555555504,33.33333333333331,0)" xlink:href="#V"/><use transform="matrix(0.055555555555555504,0,0,0.055555555555555504,38.88888888888886,0)" xlink:href="#W"/><use transform="matrix(0.055555555555555504,0,0,0.055555555555555504,49.99999999999996,0)" xlink:href="#X"/></g><path d="M160-131c35 5 61 23 61 61C221 17 115-2 30 0v-248c76 3 177-17 177 60 0 33-19 50-47 57zm-97-11c50-1 110 9 110-42 0-47-63-36-110-37v79zm0 115c55-2 124 14 124-45 0-56-70-42-124-44v89" id="Y"/><path d="M100-194c62-1 85 37 85 99 1 63-27 99-86 99S16-35 15-95c0-66 28-99 85-99zM99-20c44 1 53-31 53-75 0-43-8-75-51-75s-53 32-53 75 10 74 51 75" id="Z"/><path d="M84 4C-5 8 30-112 23-190h32v120c0 31 7 50 39 49 72-2 45-101 50-169h31l1 190h-30c-1-10 1-25-2-33-11 22-28 36-60 37" id="aa"/><path d="M117-194c89-4 53 116 60 194h-32v-121c0-31-8-49-39-48C34-167 62-67 57 0H25l-1-190h30c1 10-1 24 2 32 11-22 29-35 61-36" id="ab"/><path d="M85-194c31 0 48 13 60 33l-1-100h32l1 261h-30c-2-10 0-23-3-31C134-8 116 4 85 4 32 4 16-35 15-94c0-66 23-100 70-100zm9 24c-40 0-46 34-46 75 0 40 6 74 45 74 42 0 51-32 51-76 0-42-9-74-50-73" id="ac"/><path d="M141-36C126-15 110 5 73 4 37 3 15-17 15-53c-1-64 63-63 125-63 3-35-9-54-41-54-24 1-41 7-42 31l-33-3c5-37 33-52 76-52 45 0 72 20 72 64v82c-1 20 7 32 28 27v20c-31 9-61-2-59-35zM48-53c0 20 12 33 32 33 41-3 63-29 60-74-43 2-92-5-92 41" id="ad"/><path d="M114-163C36-179 61-72 57 0H25l-1-190h30c1 12-1 29 2 39 6-27 23-49 58-41v29" id="ae"/><g id="f"><use transform="matrix(0.055555555555555504,0,0,0.055555555555555504,0,0)" xlink:href="#Y"/><use transform="matrix(0.055555555555555504,0,0,0.055555555555555504,13.333333333333321,0)" xlink:href="#Z"/><use transform="matrix(0.055555555555555504,0,0,0.055555555555555504,24.44444444444442,0)" xlink:href="#aa"/><use transform="matrix(0.055555555555555504,0,0,0.055555555555555504,35.55555555555552,0)" xlink:href="#ab"/><use transform="matrix(0.055555555555555504,0,0,0.055555555555555504,46.66666666666662,0)" xlink:href="#ac"/><use transform="matrix(0.055555555555555504,0,0,0.055555555555555504,57.77777777777772,0)" xlink:href="#ad"/><use transform="matrix(0.055555555555555504,0,0,0.055555555555555504,68.88888888888883,0)" xlink:href="#ae"/><use transform="matrix(0.055555555555555504,0,0,0.055555555555555504,75.49999999999993,0)" xlink:href="#T"/></g><path d="M16-82v-28h88v28H16" id="af"/><use transform="matrix(0.055555555555555504,0,0,0.055555555555555504,0,0)" xlink:href="#af" id="g"/><path d="M142-158h-39l-4-90h48zm-75 0H28l-4-90h48" id="ag"/><path d="M-4 44V30h207v14H-4" id="ah"/><g id="h"><use transform="matrix(0.055555555555555504,0,0,0.055555555555555504,0,0)" xlink:href="#ag"/><use transform="matrix(0.055555555555555504,0,0,0.055555555555555504,9.444444444444436,0)" xlink:href="#ah"/><use transform="matrix(0.055555555555555504,0,0,0.055555555555555504,20.555555555555536,0)" xlink:href="#ah"/><use transform="matrix(0.055555555555555504,0,0,0.055555555555555504,31.666666666666636,0)" xlink:href="#ah"/><use transform="matrix(0.055555555555555504,0,0,0.055555555555555504,42.777777777777736,0)" xlink:href="#ah"/><use transform="matrix(0.055555555555555504,0,0,0.055555555555555504,53.888888888888836,0)" xlink:href="#ah"/><use transform="matrix(0.055555555555555504,0,0,0.055555555555555504,64.99999999999994,0)" xlink:href="#ah"/><use transform="matrix(0.055555555555555504,0,0,0.055555555555555504,76.11111111111104,0)" xlink:href="#ah"/><use transform="matrix(0.055555555555555504,0,0,0.055555555555555504,87.22222222222214,0)" xlink:href="#ah"/><use transform="matrix(0.055555555555555504,0,0,0.055555555555555504,98.33333333333324,0)" xlink:href="#ah"/><use transform="matrix(0.055555555555555504,0,0,0.055555555555555504,109.44444444444434,0)" xlink:href="#ah"/><use transform="matrix(0.055555555555555504,0,0,0.055555555555555504,120.55555555555544,0)" xlink:href="#ag"/></g><path fill="#1071e5" d="M146-102V0H94v-102L6-248h54l60 105 60-105h54" id="ai"/><path fill="#1071e5" d="M110-194c64 0 96 36 96 99 0 64-35 99-97 99-61 0-95-36-95-99 0-62 34-99 96-99zm-1 164c35 0 45-28 45-65 0-40-10-65-43-65-34 0-45 26-45 65 0 36 10 65 43 65" id="aj"/><path fill="#1071e5" d="M85 4C-2 5 27-109 22-190h50c7 57-23 150 33 157 60-5 35-97 40-157h50l1 190h-47c-2-12 1-28-3-38-12 25-28 42-61 42" id="ak"/><g id="i"><use transform="matrix(0.061728395061728336,0,0,0.061728395061728336,0,0)" xlink:href="#ai"/><use transform="matrix(0.061728395061728336,0,0,0.061728395061728336,13.148148148148135,0)" xlink:href="#aj"/><use transform="matrix(0.061728395061728336,0,0,0.061728395061728336,26.66666666666664,0)" xlink:href="#ak"/></g><path fill="#1071e5" d="M133-34C117-15 103 5 69 4 32 3 11-16 11-54c-1-60 55-63 116-61 1-26-3-47-28-47-18 1-26 9-28 27l-52-2c7-38 36-58 82-57s74 22 75 68l1 82c-1 14 12 18 25 15v27c-30 8-71 5-69-32zm-48 3c29 0 43-24 42-57-32 0-66-3-65 30 0 17 8 27 23 27" id="al"/><path fill="#1071e5" d="M135-150c-39-12-60 13-60 57V0H25l-1-190h47c2 13-1 29 3 40 6-28 27-53 61-41v41" id="am"/><path fill="#1071e5" d="M185-48c-13 30-37 53-82 52C43 2 14-33 14-96s30-98 90-98c62 0 83 45 84 108H66c0 31 8 55 39 56 18 0 30-7 34-22zm-45-69c5-46-57-63-70-21-2 6-4 13-4 21h74" id="an"/><g id="j"><use transform="matrix(0.061728395061728336,0,0,0.061728395061728336,0,0)" xlink:href="#al"/><use transform="matrix(0.061728395061728336,0,0,0.061728395061728336,12.345679012345666,0)" xlink:href="#am"/><use transform="matrix(0.061728395061728336,0,0,0.061728395061728336,20.987654320987634,0)" xlink:href="#an"/></g><path fill="#1071e5" d="M88-194c31-1 46 15 58 34l-1-101h50l1 261h-48c-2-10 0-23-3-31C134-8 116 4 84 4 32 4 16-41 15-95c0-56 19-97 73-99zm17 164c33 0 40-30 41-66 1-37-9-64-41-64s-38 30-39 65c0 43 13 65 39 65" id="ao"/><path fill="#1071e5" d="M137-138c1-29-70-34-71-4 15 46 118 7 119 86 1 83-164 76-172 9l43-7c4 19 20 25 44 25 33 8 57-30 24-41C81-84 22-81 20-136c-2-80 154-74 161-7" id="ap"/><path fill="#1071e5" d="M25-224v-37h50v37H25zM25 0v-190h50V0H25" id="aq"/><path fill="#1071e5" d="M195-6C206 82 75 100 31 46c-4-6-6-13-8-21l49-6c3 16 16 24 34 25 40 0 42-37 40-79-11 22-30 35-61 35-53 0-70-43-70-97 0-56 18-96 73-97 30 0 46 14 59 34l2-30h47zm-90-29c32 0 41-27 41-63 0-35-9-62-40-62-32 0-39 29-40 63 0 36 9 62 39 62" id="ar"/><path fill="#1071e5" d="M135-194c87-1 58 113 63 194h-50c-7-57 23-157-34-157-59 0-34 97-39 157H25l-1-190h47c2 12-1 28 3 38 12-26 28-41 61-42" id="as"/><g id="k"><use transform="matrix(0.061728395061728336,0,0,0.061728395061728336,0,0)" xlink:href="#ao"/><use transform="matrix(0.061728395061728336,0,0,0.061728395061728336,13.518518518518505,0)" xlink:href="#an"/><use transform="matrix(0.061728395061728336,0,0,0.061728395061728336,25.86419753086417,0)" xlink:href="#ap"/><use transform="matrix(0.061728395061728336,0,0,0.061728395061728336,38.20987654320984,0)" xlink:href="#aq"/><use transform="matrix(0.061728395061728336,0,0,0.061728395061728336,44.38271604938267,0)" xlink:href="#ar"/><use transform="matrix(0.061728395061728336,0,0,0.061728395061728336,57.90123456790118,0)" xlink:href="#as"/><use transform="matrix(0.061728395061728336,0,0,0.061728395061728336,71.41975308641969,0)" xlink:href="#aq"/><use transform="matrix(0.061728395061728336,0,0,0.061728395061728336,77.59259259259252,0)" xlink:href="#as"/><use transform="matrix(0.061728395061728336,0,0,0.061728395061728336,91.11111111111103,0)" xlink:href="#ar"/></g><path fill="#1071e5" d="M231 0h-52l-39-155L100 0H48L-1-190h46L77-45c9-52 24-97 36-145h53l37 145 32-145h46" id="at"/><path fill="#1071e5" d="M114-157C55-157 80-60 75 0H25v-261h50l-1 109c12-26 28-41 61-42 86-1 58 113 63 194h-50c-7-57 23-157-34-157" id="au"/><path fill="#1071e5" d="M115-3C79 11 28 4 28-45v-112H4v-33h27l15-45h31v45h36v33H77v99c-1 23 16 31 38 25v30" id="av"/><g id="l"><use transform="matrix(0.061728395061728336,0,0,0.061728395061728336,0,0)" xlink:href="#at"/><use transform="matrix(0.061728395061728336,0,0,0.061728395061728336,17.283950617283935,0)" xlink:href="#au"/><use transform="matrix(0.061728395061728336,0,0,0.061728395061728336,30.80246913580244,0)" xlink:href="#al"/><use transform="matrix(0.061728395061728336,0,0,0.061728395061728336,43.14814814814811,0)" xlink:href="#av"/></g><g id="m"><use transform="matrix(0.061728395061728336,0,0,0.061728395061728336,0,0)" xlink:href="#aq"/><use transform="matrix(0.061728395061728336,0,0,0.061728395061728336,6.172839506172833,0)" xlink:href="#ap"/></g><g id="n"><use transform="matrix(0.061728395061728336,0,0,0.061728395061728336,0,0)" xlink:href="#aq"/><use transform="matrix(0.061728395061728336,0,0,0.061728395061728336,6.172839506172833,0)" xlink:href="#as"/><use transform="matrix(0.061728395061728336,0,0,0.061728395061728336,19.69135802469134,0)" xlink:href="#ap"/><use transform="matrix(0.061728395061728336,0,0,0.061728395061728336,32.03703703703701,0)" xlink:href="#aq"/><use transform="matrix(0.061728395061728336,0,0,0.061728395061728336,38.209876543209845,0)" xlink:href="#ao"/><use transform="matrix(0.061728395061728336,0,0,0.061728395061728336,51.72839506172835,0)" xlink:href="#an"/></g><g id="o"><use transform="matrix(0.061728395061728336,0,0,0.061728395061728336,0,0)" xlink:href="#av"/><use transform="matrix(0.061728395061728336,0,0,0.061728395061728336,7.345679012345672,0)" xlink:href="#au"/><use transform="matrix(0.061728395061728336,0,0,0.061728395061728336,20.864197530864175,0)" xlink:href="#an"/></g><path fill="#1071e5" d="M123 10C108 53 80 86 19 72V37c35 8 53-11 59-39L3-190h52l48 148c12-52 28-100 44-148h51" id="aw"/><path fill="#1071e5" d="M220-157c-53 9-28 100-34 157h-49v-107c1-27-5-49-29-50C55-147 81-57 75 0H25l-1-190h47c2 12-1 28 3 38 10-53 101-56 108 0 13-22 24-43 59-42 82 1 51 116 57 194h-49v-107c-1-25-5-48-29-50" id="ax"/><g id="p"><use transform="matrix(0.061728395061728336,0,0,0.061728395061728336,0,0)" xlink:href="#ap"/><use transform="matrix(0.061728395061728336,0,0,0.061728395061728336,12.345679012345666,0)" xlink:href="#aw"/><use transform="matrix(0.061728395061728336,0,0,0.061728395061728336,24.691358024691333,0)" xlink:href="#ap"/><use transform="matrix(0.061728395061728336,0,0,0.061728395061728336,37.037037037036995,0)" xlink:href="#av"/><use transform="matrix(0.061728395061728336,0,0,0.061728395061728336,44.382716049382665,0)" xlink:href="#an"/><use transform="matrix(0.061728395061728336,0,0,0.061728395061728336,56.728395061728335,0)" xlink:href="#ax"/></g><path fill="#1071e5" d="M135-194c52 0 70 43 70 98 0 56-19 99-73 100-30 1-46-15-58-35L72 0H24l1-261h50v104c11-23 29-37 60-37zM114-30c31 0 40-27 40-66 0-37-7-63-39-63s-41 28-41 65c0 36 8 64 40 64" id="ay"/><path fill="#1071e5" d="M24 0v-54h51V0H24" id="az"/><g id="q"><use transform="matrix(0.061728395061728336,0,0,0.061728395061728336,0,0)" xlink:href="#ay"/><use transform="matrix(0.061728395061728336,0,0,0.061728395061728336,13.518518518518505,0)" xlink:href="#aj"/><use transform="matrix(0.061728395061728336,0,0,0.061728395061728336,27.03703703703701,0)" xlink:href="#ak"/><use transform="matrix(0.061728395061728336,0,0,0.061728395061728336,40.555555555555515,0)" xlink:href="#as"/><use transform="matrix(0.061728395061728336,0,0,0.061728395061728336,54.07407407407402,0)" xlink:href="#ao"/><use transform="matrix(0.061728395061728336,0,0,0.061728395061728336,67.59259259259252,0)" xlink:href="#al"/><use transform="matrix(0.061728395061728336,0,0,0.061728395061728336,79.9382716049382,0)" xlink:href="#am"/><use transform="matrix(0.061728395061728336,0,0,0.061728395061728336,88.58024691358017,0)" xlink:href="#aw"/><use transform="matrix(0.061728395061728336,0,0,0.061728395061728336,99.25925925925917,0)" xlink:href="#az"/></g><path fill="#3a414a" d="M24 0v-54h51V0H24" id="aA"/><g id="r"><use transform="matrix(0.04938271604938272,0,0,0.04938271604938272,0,0)" xlink:href="#aA"/><use transform="matrix(0.04938271604938272,0,0,0.04938271604938272,4.938271604938272,0)" xlink:href="#aA"/><use transform="matrix(0.04938271604938272,0,0,0.04938271604938272,9.876543209876544,0)" xlink:href="#aA"/></g><path fill="#333" d="M24 0v-54h51V0H24" id="aB"/><g id="s"><use transform="matrix(0.04938271604938272,0,0,0.04938271604938272,0,0)" xlink:href="#aB"/><use transform="matrix(0.04938271604938272,0,0,0.04938271604938272,4.938271604938272,0)" xlink:href="#aB"/><use transform="matrix(0.04938271604938272,0,0,0.04938271604938272,9.876543209876544,0)" xlink:href="#aB"/></g><path fill="#3a414a" d="M190-63c-7 42-38 67-86 67-59 0-84-38-90-98-12-110 154-137 174-36l-49 2c-2-19-15-32-35-32-30 0-35 28-38 64-6 74 65 87 74 30" id="aC"/><path fill="#3a414a" d="M110-194c64 0 96 36 96 99 0 64-35 99-97 99-61 0-95-36-95-99 0-62 34-99 96-99zm-1 164c35 0 45-28 45-65 0-40-10-65-43-65-34 0-45 26-45 65 0 36 10 65 43 65" id="aD"/><path fill="#3a414a" d="M135-194c87-1 58 113 63 194h-50c-7-57 23-157-34-157-59 0-34 97-39 157H25l-1-190h47c2 12-1 28 3 38 12-26 28-41 61-42" id="aE"/><path fill="#3a414a" d="M185-48c-13 30-37 53-82 52C43 2 14-33 14-96s30-98 90-98c62 0 83 45 84 108H66c0 31 8 55 39 56 18 0 30-7 34-22zm-45-69c5-46-57-63-70-21-2 6-4 13-4 21h74" id="aF"/><path fill="#3a414a" d="M115-3C79 11 28 4 28-45v-112H4v-33h27l15-45h31v45h36v33H77v99c-1 23 16 31 38 25v30" id="aG"/><path fill="#3a414a" d="M137-138c1-29-70-34-71-4 15 46 118 7 119 86 1 83-164 76-172 9l43-7c4 19 20 25 44 25 33 8 57-30 24-41C81-84 22-81 20-136c-2-80 154-74 161-7" id="aH"/><g id="t"><use transform="matrix(0.04938271604938272,0,0,0.04938271604938272,0,0)" xlink:href="#aC"/><use transform="matrix(0.04938271604938272,0,0,0.04938271604938272,9.876543209876544,0)" xlink:href="#aD"/><use transform="matrix(0.04938271604938272,0,0,0.04938271604938272,20.69135802469136,0)" xlink:href="#aE"/><use transform="matrix(0.04938271604938272,0,0,0.04938271604938272,31.506172839506174,0)" xlink:href="#aE"/><use transform="matrix(0.04938271604938272,0,0,0.04938271604938272,42.320987654320994,0)" xlink:href="#aF"/><use transform="matrix(0.04938271604938272,0,0,0.04938271604938272,52.19753086419754,0)" xlink:href="#aC"/><use transform="matrix(0.04938271604938272,0,0,0.04938271604938272,62.074074074074076,0)" xlink:href="#aG"/><use transform="matrix(0.04938271604938272,0,0,0.04938271604938272,67.95061728395062,0)" xlink:href="#aH"/></g><g id="u"><use transform="matrix(0.04938271604938272,0,0,0.04938271604938272,0,0)" xlink:href="#aG"/><use transform="matrix(0.04938271604938272,0,0,0.04938271604938272,5.8765432098765435,0)" xlink:href="#aD"/></g><path fill="#3a414a" d="M165-48c-4 18 1 34 23 27l-3 20c-29 8-62 0-52-35h-2C116-14 99 4 63 4 30 4 8-16 8-49c0-68 71-67 138-67 10-26 0-56-31-54-26 1-42 9-47 31l-32-5c8-67 160-71 144 15-5 28-9 54-15 81zM42-50c3 52 80 24 89-6 7-12 7-24 11-38-47 1-103-4-100 44" id="aI"/><path fill="#3a414a" d="M66-151c12-25 30-51 66-40l-6 26C45-176 58-65 38 0H6l36-190h30" id="aJ"/><path fill="#3a414a" d="M30-147c31-64 166-65 159 27C183-49 158 1 86 4 9 8 1-88 30-147zM88-20c53 0 68-48 68-100 0-31-11-51-44-50-52 1-68 46-68 97 0 32 13 53 44 53" id="aK"/><path fill="#3a414a" d="M188 0h-37l-8-164L71 0H34L18-190h31l8 164 75-164h34l8 164 74-164h31" id="aL"/><g id="v"><use transform="matrix(0.04938271604938272,0,0,0.04938271604938272,0,0)" xlink:href="#aI"/><use transform="matrix(0.04938271604938272,0,0,0.04938271604938272,9.876543209876544,0)" xlink:href="#aJ"/><use transform="matrix(0.04938271604938272,0,0,0.04938271604938272,15.753086419753087,0)" xlink:href="#aJ"/><use transform="matrix(0.04938271604938272,0,0,0.04938271604938272,21.629629629629633,0)" xlink:href="#aK"/><use transform="matrix(0.04938271604938272,0,0,0.04938271604938272,31.506172839506174,0)" xlink:href="#aL"/></g><path fill="#3a414a" d="M50-231l6-30h32l-6 30H50zM6 0l37-190h31L37 0H6" id="aM"/><path fill="#3a414a" d="M67-158c22-48 132-52 116 29L158 0h-32l25-140c3-38-53-32-70-12C52-117 51-52 38 0H6l36-190h30" id="aN"/><path fill="#3a414a" d="M133-28C103 26-5 8 13-77c13-62 24-115 90-117 29-1 46 15 56 35l19-102h32L160 0h-30zM45-64c-2 27 10 43 35 43 54-1 69-50 69-103 0-29-15-46-42-46-53-1-58 58-62 106" id="aO"/><path fill="#3a414a" d="M44-68c0 29 11 47 38 47 30 0 42-19 51-41l28 9C148-21 126 4 82 4 31 4 10-29 12-85c3-77 74-140 146-93 12 8 15 23 18 40l-31 5c-1-22-13-36-36-36-52 0-65 49-65 101" id="aP"/><path fill="#3a414a" d="M51-54c-9 22 5 41 31 30L79-1C43 14 10-4 19-52l22-115H19l5-23h22l19-43h21l-9 43h35l-4 23H73" id="aQ"/><path fill="#3a414a" d="M111-194c62-3 86 47 72 106H45c-7 38 6 69 45 68 27-1 43-14 53-32l24 11C152-15 129 4 87 4 38 3 12-23 12-71c0-70 32-119 99-123zm44 81c14-66-71-72-95-28-4 8-8 17-11 28h106" id="aR"/><path fill="#3a414a" d="M55-144c13 50 104 24 104 88C159 21 15 23 1-39l26-10c6 40 102 42 102-4-13-50-104-23-104-87 0-71 143-71 148-8l-29 4c-5-35-85-37-89 0" id="aS"/><g id="w"><use transform="matrix(0.04938271604938272,0,0,0.04938271604938272,0,0)" xlink:href="#aM"/><use transform="matrix(0.04938271604938272,0,0,0.04938271604938272,3.901234567901235,0)" xlink:href="#aN"/><use transform="matrix(0.04938271604938272,0,0,0.04938271604938272,13.777777777777779,0)" xlink:href="#aO"/><use transform="matrix(0.04938271604938272,0,0,0.04938271604938272,23.654320987654323,0)" xlink:href="#aM"/><use transform="matrix(0.04938271604938272,0,0,0.04938271604938272,27.555555555555557,0)" xlink:href="#aP"/><use transform="matrix(0.04938271604938272,0,0,0.04938271604938272,36.44444444444444,0)" xlink:href="#aI"/><use transform="matrix(0.04938271604938272,0,0,0.04938271604938272,46.32098765432099,0)" xlink:href="#aQ"/><use transform="matrix(0.04938271604938272,0,0,0.04938271604938272,51.25925925925927,0)" xlink:href="#aR"/><use transform="matrix(0.04938271604938272,0,0,0.04938271604938272,61.13580246913581,0)" xlink:href="#aS"/></g><use transform="matrix(0.04938271604938272,0,0,0.04938271604938272,0,0)" xlink:href="#aI" id="x"/><path fill="#3a414a" d="M76-167L44 0H12l33-167H18l4-23h27c3-47 25-81 82-69l-4 24c-35-8-44 15-46 45h37l-5 23H76" id="aT"/><path fill="#3a414a" d="M67 3c-93-2-31-127-26-193h32L48-50c-3 39 53 32 70 12 30-34 30-101 43-152h32L157 0h-30c1-10 6-24 4-33-14 20-29 37-64 36" id="aU"/><g id="y"><use transform="matrix(0.04938271604938272,0,0,0.04938271604938272,0,0)" xlink:href="#aT"/><use transform="matrix(0.04938271604938272,0,0,0.04938271604938272,4.938271604938272,0)" xlink:href="#aU"/><use transform="matrix(0.04938271604938272,0,0,0.04938271604938272,14.814814814814817,0)" xlink:href="#aN"/><use transform="matrix(0.04938271604938272,0,0,0.04938271604938272,24.69135802469136,0)" xlink:href="#aP"/><use transform="matrix(0.04938271604938272,0,0,0.04938271604938272,33.580246913580254,0)" xlink:href="#aQ"/><use transform="matrix(0.04938271604938272,0,0,0.04938271604938272,38.518518518518526,0)" xlink:href="#aM"/><use transform="matrix(0.04938271604938272,0,0,0.04938271604938272,42.41975308641976,0)" xlink:href="#aK"/><use transform="matrix(0.04938271604938272,0,0,0.04938271604938272,52.2962962962963,0)" xlink:href="#aN"/></g><path fill="#333" d="M24 0v-248h52V0H24" id="aV"/><path fill="#333" d="M135-194c87-1 58 113 63 194h-50c-7-57 23-157-34-157-59 0-34 97-39 157H25l-1-190h47c2 12-1 28 3 38 12-26 28-41 61-42" id="aW"/><path fill="#333" d="M135-194c53 0 70 44 70 98 0 56-19 98-73 100-31 1-45-17-59-34 3 33 2 69 2 105H25l-1-265h48c2 10 0 23 3 31 11-24 29-35 60-35zM114-30c33 0 39-31 40-66 0-38-9-64-40-64-56 0-55 130 0 130" id="aX"/><path fill="#333" d="M85 4C-2 5 27-109 22-190h50c7 57-23 150 33 157 60-5 35-97 40-157h50l1 190h-47c-2-12 1-28-3-38-12 25-28 42-61 42" id="aY"/><path fill="#333" d="M115-3C79 11 28 4 28-45v-112H4v-33h27l15-45h31v45h36v33H77v99c-1 23 16 31 38 25v30" id="aZ"/><g id="z"><use transform="matrix(0.07407407407407408,0,0,0.07407407407407408,0,0)" xlink:href="#aV"/><use transform="matrix(0.07407407407407408,0,0,0.07407407407407408,7.407407407407408,0)" xlink:href="#aW"/><use transform="matrix(0.07407407407407408,0,0,0.07407407407407408,23.629629629629633,0)" xlink:href="#aX"/><use transform="matrix(0.07407407407407408,0,0,0.07407407407407408,39.85185185185187,0)" xlink:href="#aY"/><use transform="matrix(0.07407407407407408,0,0,0.07407407407407408,56.07407407407409,0)" xlink:href="#aZ"/></g><path fill="#333" d="M140-251c80 0 125 45 125 126S219 4 139 4C58 4 15-44 15-125s44-126 125-126zm-1 214c52 0 73-35 73-88 0-50-21-86-72-86-52 0-73 35-73 86s22 88 72 88" id="ba"/><g id="A"><use transform="matrix(0.07407407407407408,0,0,0.07407407407407408,0,0)" xlink:href="#ba"/><use transform="matrix(0.07407407407407408,0,0,0.07407407407407408,20.740740740740744,0)" xlink:href="#aY"/><use transform="matrix(0.07407407407407408,0,0,0.07407407407407408,36.96296296296297,0)" xlink:href="#aZ"/><use transform="matrix(0.07407407407407408,0,0,0.07407407407407408,45.777777777777786,0)" xlink:href="#aX"/><use transform="matrix(0.07407407407407408,0,0,0.07407407407407408,62.000000000000014,0)" xlink:href="#aY"/><use transform="matrix(0.07407407407407408,0,0,0.07407407407407408,78.22222222222224,0)" xlink:href="#aZ"/></g></defs></g></svg>