<svg xmlns="http://www.w3.org/2000/svg" xmlns:xlink="http://www.w3.org/1999/xlink" xmlns:lucid="lucid" width="921.4" height="160.53"><g transform="translate(-2385.6589448203254 -11134.869773831564)" lucid:page-tab-id="YDyKk7ZmHaDl"><path d="M2745.4 11141.37a6 6 0 0 1 6-6h176.87a6 6 0 0 1 6 6v87.53a6 6 0 0 1-6 6H2751.4a6 6 0 0 1-6-6z" stroke="#3a414a" fill="#00bfff"/><use xlink:href="#a" transform="matrix(1,0,0,1,2750.4055050681695,11140.369773831568) translate(13.141975308642046 36.05902777777776)"/><use xlink:href="#b" transform="matrix(1,0,0,1,2750.4055050681695,11140.369773831568) translate(59.99382716049385 36.05902777777776)"/><use xlink:href="#c" transform="matrix(1,0,0,1,2750.4055050681695,11140.369773831568) translate(119.19135802469133 36.05902777777776)"/><use xlink:href="#d" transform="matrix(1,0,0,1,2750.4055050681695,11140.369773831568) translate(65.48765432098767 62.7256944444444)"/><path d="M2609.77 11185.6h-33.74v-.94h33.74zm118.75 0h-17.86v-.94h17.86z" stroke="#3a414a" stroke-width=".05" fill="#3a414a"/><path d="M2576.04 11185.6h-.5v-.94h.5z" fill="#3a414a"/><path stroke="#3a414a" stroke-width=".05" fill="#3a414a"/><path d="M2743.3 11185.14l-14.28 4.63v-9.27z" fill="#3a414a"/><path d="M2744.82 11185.14l-16.27 5.3v-10.6zm-15.32 3.98l12.25-3.98-12.25-3.98z" stroke="#3a414a" stroke-width=".05" fill="#3a414a"/><use xlink:href="#e" transform="matrix(1,0,0,1,2609.76919008005,11175.803716512886) translate(0 12.44444444444444)"/><use xlink:href="#f" transform="matrix(1,0,0,1,2609.76919008005,11175.803716512886) translate(82.7901234567901 12.44444444444444)"/><path d="M2772.62 11235.9v33.5a6 6 0 0 0 6 6h111.33a6 6 0 0 0 6-6v-19.5" stroke="#3a414a" fill="none"/><path d="M2773.1 11235.92h-.96v-.52h.95z" stroke="#3a414a" stroke-width=".05" fill="#3a414a"/><path d="M2895.95 11236.4l7.5 13h-15z" stroke="#3a414a" fill="#3a414a"/><use xlink:href="#g" transform="matrix(1,0,0,1,2783.6535577961804,11279.404325831567) translate(0 10.666666666666663)"/><use xlink:href="#h" transform="matrix(1,0,0,1,2783.6535577961804,11279.404325831567) translate(85.7407407407407 10.666666666666663)"/><path d="M2955.85 11185.6h-20.58v-.94h20.58zm144.96 0h-26.77v-.94h26.78z" stroke="#3a414a" stroke-width=".05" fill="#3a414a"/><path d="M2935.3 11185.6h-.53v-.94h.52z" fill="#3a414a"/><path stroke="#3a414a" stroke-width=".05" fill="#3a414a"/><path d="M3115.57 11185.14l-14.26 4.63v-9.27z" fill="#3a414a"/><path d="M3117.1 11185.14l-16.27 5.3v-10.6zm-15.32 3.98l12.26-3.98-12.26-3.98z" stroke="#3a414a" stroke-width=".05" fill="#3a414a"/><use xlink:href="#i" transform="matrix(1,0,0,1,2955.8540734914905,11175.803716512888) translate(0 12.44444444444444)"/><use xlink:href="#f" transform="matrix(1,0,0,1,2955.8540734914905,11175.803716512888) translate(100.07407407407403 12.44444444444444)"/><path d="M3117.7 11141.37a6 6 0 0 1 6-6h176.86a6 6 0 0 1 6 6v87.53a6 6 0 0 1-6 6H3123.7a6 6 0 0 1-6-6z" stroke="#3a414a" fill="#54c35e"/><g><use xlink:href="#j" transform="matrix(1,0,0,1,3122.6918326891446,11140.369773831564) translate(39.11111111111116 37.093749999999986)"/><use xlink:href="#k" transform="matrix(1,0,0,1,3122.6918326891446,11140.369773831564) translate(5.861111111111185 61.093749999999964)"/><use xlink:href="#l" transform="matrix(1,0,0,1,3122.6918326891446,11140.369773831564) translate(133.3611111111111 61.093749999999964)"/></g><path d="M2386.16 11141.37a6 6 0 0 1 6-6h176.87a6 6 0 0 1 6 6v87.53a6 6 0 0 1-6 6h-176.87a6 6 0 0 1-6-6z" stroke="#3a414a" fill="#9391ff"/><g><use xlink:href="#a" transform="matrix(1,0,0,1,2391.1589448203254,11140.369773831564) translate(39.56172839506178 49.41840277777776)"/><use xlink:href="#m" transform="matrix(1,0,0,1,2391.1589448203254,11140.369773831564) translate(86.41358024691358 49.41840277777776)"/></g><defs><path fill="#3a414a" d="M238-95c0 69-44 99-111 99C63 4 22-25 22-93v-155h51v151c-1 38 19 59 55 60 90 1 49-130 58-211h52v153" id="n"/><path fill="#3a414a" d="M137-138c1-29-70-34-71-4 15 46 118 7 119 86 1 83-164 76-172 9l43-7c4 19 20 25 44 25 33 8 57-30 24-41C81-84 22-81 20-136c-2-80 154-74 161-7" id="o"/><path fill="#3a414a" d="M185-48c-13 30-37 53-82 52C43 2 14-33 14-96s30-98 90-98c62 0 83 45 84 108H66c0 31 8 55 39 56 18 0 30-7 34-22zm-45-69c5-46-57-63-70-21-2 6-4 13-4 21h74" id="p"/><g id="a"><use transform="matrix(0.061728395061728336,0,0,0.061728395061728336,0,0)" xlink:href="#n"/><use transform="matrix(0.061728395061728336,0,0,0.061728395061728336,15.98765432098764,0)" xlink:href="#o"/><use transform="matrix(0.061728395061728336,0,0,0.061728395061728336,28.333333333333307,0)" xlink:href="#p"/></g><path fill="#3a414a" d="M67-125c0 53 21 87 73 88 37 1 54-22 65-47l45 17C233-25 199 4 140 4 58 4 20-42 15-125 8-235 124-281 211-232c18 10 29 29 36 50l-46 12c-8-25-30-41-62-41-52 0-71 34-72 86" id="q"/><path fill="#3a414a" d="M133-34C117-15 103 5 69 4 32 3 11-16 11-54c-1-60 55-63 116-61 1-26-3-47-28-47-18 1-26 9-28 27l-52-2c7-38 36-58 82-57s74 22 75 68l1 82c-1 14 12 18 25 15v27c-30 8-71 5-69-32zm-48 3c29 0 43-24 42-57-32 0-66-3-65 30 0 17 8 27 23 27" id="r"/><g id="b"><use transform="matrix(0.061728395061728336,0,0,0.061728395061728336,0,0)" xlink:href="#q"/><use transform="matrix(0.061728395061728336,0,0,0.061728395061728336,15.98765432098764,0)" xlink:href="#r"/><use transform="matrix(0.061728395061728336,0,0,0.061728395061728336,28.333333333333307,0)" xlink:href="#o"/><use transform="matrix(0.061728395061728336,0,0,0.061728395061728336,40.67901234567897,0)" xlink:href="#p"/></g><path fill="#3a414a" d="M67-93c0 74 22 123 53 168H70C40 30 18-18 18-93s22-123 52-168h50c-32 44-53 94-53 168" id="s"/><path fill="#3a414a" d="M102-93c0 74-22 123-52 168H0C30 29 54-18 53-93c0-74-22-123-53-168h50c30 45 52 94 52 168" id="t"/><g id="c"><use transform="matrix(0.061728395061728336,0,0,0.061728395061728336,0,0)" xlink:href="#s"/><use transform="matrix(0.061728395061728336,0,0,0.061728395061728336,7.345679012345672,0)" xlink:href="#n"/><use transform="matrix(0.061728395061728336,0,0,0.061728395061728336,23.33333333333331,0)" xlink:href="#q"/><use transform="matrix(0.061728395061728336,0,0,0.061728395061728336,39.32098765432095,0)" xlink:href="#t"/></g><path fill="#3a414a" d="M169-182c-1-43-94-46-97-3 18 66 151 10 154 114 3 95-165 93-204 36-6-8-10-19-12-30l50-8c3 46 112 56 116 5-17-69-150-10-154-114-4-87 153-88 188-35 5 8 8 18 10 28" id="u"/><path fill="#3a414a" d="M115-3C79 11 28 4 28-45v-112H4v-33h27l15-45h31v45h36v33H77v99c-1 23 16 31 38 25v30" id="v"/><path fill="#3a414a" d="M135-194c53 0 70 44 70 98 0 56-19 98-73 100-31 1-45-17-59-34 3 33 2 69 2 105H25l-1-265h48c2 10 0 23 3 31 11-24 29-35 60-35zM114-30c33 0 39-31 40-66 0-38-9-64-40-64-56 0-55 130 0 130" id="w"/><g id="d"><use transform="matrix(0.061728395061728336,0,0,0.061728395061728336,0,0)" xlink:href="#u"/><use transform="matrix(0.061728395061728336,0,0,0.061728395061728336,14.8148148148148,0)" xlink:href="#v"/><use transform="matrix(0.061728395061728336,0,0,0.061728395061728336,22.160493827160472,0)" xlink:href="#p"/><use transform="matrix(0.061728395061728336,0,0,0.061728395061728336,34.506172839506135,0)" xlink:href="#w"/></g><path fill="#333" d="M185-48c-13 30-37 53-82 52C43 2 14-33 14-96s30-98 90-98c62 0 83 45 84 108H66c0 31 8 55 39 56 18 0 30-7 34-22zm-45-69c5-46-57-63-70-21-2 6-4 13-4 21h74" id="x"/><path fill="#333" d="M25 0v-261h50V0H25" id="y"/><path fill="#333" d="M133-34C117-15 103 5 69 4 32 3 11-16 11-54c-1-60 55-63 116-61 1-26-3-47-28-47-18 1-26 9-28 27l-52-2c7-38 36-58 82-57s74 22 75 68l1 82c-1 14 12 18 25 15v27c-30 8-71 5-69-32zm-48 3c29 0 43-24 42-57-32 0-66-3-65 30 0 17 8 27 23 27" id="z"/><path fill="#333" d="M135-194c52 0 70 43 70 98 0 56-19 99-73 100-30 1-46-15-58-35L72 0H24l1-261h50v104c11-23 29-37 60-37zM114-30c31 0 40-27 40-66 0-37-7-63-39-63s-41 28-41 65c0 36 8 64 40 64" id="A"/><path fill="#333" d="M110-194c64 0 96 36 96 99 0 64-35 99-97 99-61 0-95-36-95-99 0-62 34-99 96-99zm-1 164c35 0 45-28 45-65 0-40-10-65-43-65-34 0-45 26-45 65 0 36 10 65 43 65" id="B"/><path fill="#333" d="M135-150c-39-12-60 13-60 57V0H25l-1-190h47c2 13-1 29 3 40 6-28 27-53 61-41v41" id="C"/><path fill="#333" d="M115-3C79 11 28 4 28-45v-112H4v-33h27l15-45h31v45h36v33H77v99c-1 23 16 31 38 25v30" id="D"/><path fill="#333" d="M88-194c31-1 46 15 58 34l-1-101h50l1 261h-48c-2-10 0-23-3-31C134-8 116 4 84 4 32 4 16-41 15-95c0-56 19-97 73-99zm17 164c33 0 40-30 41-66 1-37-9-64-41-64s-38 30-39 65c0 43 13 65 39 65" id="E"/><g id="e"><use transform="matrix(0.04320987654320985,0,0,0.04320987654320985,0,0)" xlink:href="#x"/><use transform="matrix(0.04320987654320985,0,0,0.04320987654320985,8.641975308641971,0)" xlink:href="#y"/><use transform="matrix(0.04320987654320985,0,0,0.04320987654320985,12.962962962962957,0)" xlink:href="#z"/><use transform="matrix(0.04320987654320985,0,0,0.04320987654320985,21.60493827160493,0)" xlink:href="#A"/><use transform="matrix(0.04320987654320985,0,0,0.04320987654320985,31.067901234567888,0)" xlink:href="#B"/><use transform="matrix(0.04320987654320985,0,0,0.04320987654320985,40.530864197530846,0)" xlink:href="#C"/><use transform="matrix(0.04320987654320985,0,0,0.04320987654320985,46.58024691358022,0)" xlink:href="#z"/><use transform="matrix(0.04320987654320985,0,0,0.04320987654320985,55.2222222222222,0)" xlink:href="#D"/><use transform="matrix(0.04320987654320985,0,0,0.04320987654320985,60.364197530864175,0)" xlink:href="#x"/><use transform="matrix(0.04320987654320985,0,0,0.04320987654320985,69.00617283950615,0)" xlink:href="#E"/></g><path fill="#333" d="M123 10C108 53 80 86 19 72V37c35 8 53-11 59-39L3-190h52l48 148c12-52 28-100 44-148h51" id="F"/><g id="f"><use transform="matrix(0.04320987654320985,0,0,0.04320987654320985,0,0)" xlink:href="#A"/><use transform="matrix(0.04320987654320985,0,0,0.04320987654320985,9.462962962962958,0)" xlink:href="#F"/></g><path fill="#333" d="M190-63c-7 42-38 67-86 67-59 0-84-38-90-98-12-110 154-137 174-36l-49 2c-2-19-15-32-35-32-30 0-35 28-38 64-6 74 65 87 74 30" id="G"/><path fill="#333" d="M220-157c-53 9-28 100-34 157h-49v-107c1-27-5-49-29-50C55-147 81-57 75 0H25l-1-190h47c2 12-1 28 3 38 10-53 101-56 108 0 13-22 24-43 59-42 82 1 51 116 57 194h-49v-107c-1-25-5-48-29-50" id="H"/><path fill="#333" d="M135-194c53 0 70 44 70 98 0 56-19 98-73 100-31 1-45-17-59-34 3 33 2 69 2 105H25l-1-265h48c2 10 0 23 3 31 11-24 29-35 60-35zM114-30c33 0 39-31 40-66 0-38-9-64-40-64-56 0-55 130 0 130" id="I"/><path fill="#333" d="M137-138c1-29-70-34-71-4 15 46 118 7 119 86 1 83-164 76-172 9l43-7c4 19 20 25 44 25 33 8 57-30 24-41C81-84 22-81 20-136c-2-80 154-74 161-7" id="J"/><g id="g"><use transform="matrix(0.03703703703703702,0,0,0.03703703703703702,0,0)" xlink:href="#E"/><use transform="matrix(0.03703703703703702,0,0,0.03703703703703702,8.111111111111107,0)" xlink:href="#x"/><use transform="matrix(0.03703703703703702,0,0,0.03703703703703702,15.518518518518512,0)" xlink:href="#G"/><use transform="matrix(0.03703703703703702,0,0,0.03703703703703702,22.925925925925917,0)" xlink:href="#B"/><use transform="matrix(0.03703703703703702,0,0,0.03703703703703702,31.037037037037024,0)" xlink:href="#H"/><use transform="matrix(0.03703703703703702,0,0,0.03703703703703702,42.88888888888887,0)" xlink:href="#I"/><use transform="matrix(0.03703703703703702,0,0,0.03703703703703702,50.99999999999998,0)" xlink:href="#B"/><use transform="matrix(0.03703703703703702,0,0,0.03703703703703702,59.111111111111086,0)" xlink:href="#J"/><use transform="matrix(0.03703703703703702,0,0,0.03703703703703702,66.51851851851849,0)" xlink:href="#x"/><use transform="matrix(0.03703703703703702,0,0,0.03703703703703702,73.9259259259259,0)" xlink:href="#E"/></g><g id="h"><use transform="matrix(0.03703703703703702,0,0,0.03703703703703702,0,0)" xlink:href="#A"/><use transform="matrix(0.03703703703703702,0,0,0.03703703703703702,8.111111111111107,0)" xlink:href="#F"/></g><path fill="#333" d="M25-224v-37h50v37H25zM25 0v-190h50V0H25" id="K"/><path fill="#333" d="M135-194c87-1 58 113 63 194h-50c-7-57 23-157-34-157-59 0-34 97-39 157H25l-1-190h47c2 12-1 28 3 38 12-26 28-41 61-42" id="L"/><g id="i"><use transform="matrix(0.04320987654320985,0,0,0.04320987654320985,0,0)" xlink:href="#K"/><use transform="matrix(0.04320987654320985,0,0,0.04320987654320985,4.3209876543209855,0)" xlink:href="#H"/><use transform="matrix(0.04320987654320985,0,0,0.04320987654320985,18.148148148148138,0)" xlink:href="#I"/><use transform="matrix(0.04320987654320985,0,0,0.04320987654320985,27.611111111111097,0)" xlink:href="#y"/><use transform="matrix(0.04320987654320985,0,0,0.04320987654320985,31.93209876543208,0)" xlink:href="#x"/><use transform="matrix(0.04320987654320985,0,0,0.04320987654320985,40.57407407407405,0)" xlink:href="#H"/><use transform="matrix(0.04320987654320985,0,0,0.04320987654320985,54.4012345679012,0)" xlink:href="#x"/><use transform="matrix(0.04320987654320985,0,0,0.04320987654320985,63.04320987654317,0)" xlink:href="#L"/><use transform="matrix(0.04320987654320985,0,0,0.04320987654320985,72.50617283950614,0)" xlink:href="#D"/><use transform="matrix(0.04320987654320985,0,0,0.04320987654320985,77.64814814814811,0)" xlink:href="#x"/><use transform="matrix(0.04320987654320985,0,0,0.04320987654320985,86.29012345679008,0)" xlink:href="#E"/></g><path fill="#3a414a" d="M76-208v77h127v40H76V0H24v-248h183v40H76" id="M"/><path fill="#3a414a" d="M85 4C-2 5 27-109 22-190h50c7 57-23 150 33 157 60-5 35-97 40-157h50l1 190h-47c-2-12 1-28-3-38-12 25-28 42-61 42" id="N"/><path fill="#3a414a" d="M135-194c87-1 58 113 63 194h-50c-7-57 23-157-34-157-59 0-34 97-39 157H25l-1-190h47c2 12-1 28 3 38 12-26 28-41 61-42" id="O"/><path fill="#3a414a" d="M190-63c-7 42-38 67-86 67-59 0-84-38-90-98-12-110 154-137 174-36l-49 2c-2-19-15-32-35-32-30 0-35 28-38 64-6 74 65 87 74 30" id="P"/><path fill="#3a414a" d="M25-224v-37h50v37H25zM25 0v-190h50V0H25" id="Q"/><path fill="#3a414a" d="M110-194c64 0 96 36 96 99 0 64-35 99-97 99-61 0-95-36-95-99 0-62 34-99 96-99zm-1 164c35 0 45-28 45-65 0-40-10-65-43-65-34 0-45 26-45 65 0 36 10 65 43 65" id="R"/><path fill="#3a414a" d="M25 0v-261h50V0H25" id="S"/><g id="j"><use transform="matrix(0.055555555555555504,0,0,0.055555555555555504,0,0)" xlink:href="#M"/><use transform="matrix(0.055555555555555504,0,0,0.055555555555555504,12.166666666666655,0)" xlink:href="#N"/><use transform="matrix(0.055555555555555504,0,0,0.055555555555555504,24.33333333333331,0)" xlink:href="#O"/><use transform="matrix(0.055555555555555504,0,0,0.055555555555555504,36.499999999999964,0)" xlink:href="#P"/><use transform="matrix(0.055555555555555504,0,0,0.055555555555555504,47.611111111111065,0)" xlink:href="#v"/><use transform="matrix(0.055555555555555504,0,0,0.055555555555555504,54.22222222222217,0)" xlink:href="#Q"/><use transform="matrix(0.055555555555555504,0,0,0.055555555555555504,59.77777777777772,0)" xlink:href="#R"/><use transform="matrix(0.055555555555555504,0,0,0.055555555555555504,71.94444444444437,0)" xlink:href="#O"/><use transform="matrix(0.055555555555555504,0,0,0.055555555555555504,84.11111111111103,0)" xlink:href="#r"/><use transform="matrix(0.055555555555555504,0,0,0.055555555555555504,95.22222222222213,0)" xlink:href="#S"/></g><path fill="#3a414a" d="M240-174c0 40-23 61-54 70L253 0h-59l-57-94H76V0H24v-248c93 4 217-23 216 74zM76-134c48-2 112 12 112-38 0-48-66-32-112-35v73" id="T"/><path fill="#3a414a" d="M84 4C32 4 15-41 15-95c0-55 18-99 73-99 29 0 47 12 58 34l2-30h48l-1 265h-49V-32C136-9 114 4 84 4zm21-34c32 0 41-29 41-66 0-36-9-64-40-64-33 0-39 30-40 65 0 43 13 65 39 65" id="U"/><path fill="#3a414a" d="M135-150c-39-12-60 13-60 57V0H25l-1-190h47c2 13-1 29 3 40 6-28 27-53 61-41v41" id="V"/><path fill="#3a414a" d="M220-157c-53 9-28 100-34 157h-49v-107c1-27-5-49-29-50C55-147 81-57 75 0H25l-1-190h47c2 12-1 28 3 38 10-53 101-56 108 0 13-22 24-43 59-42 82 1 51 116 57 194h-49v-107c-1-25-5-48-29-50" id="W"/><g id="k"><use transform="matrix(0.055555555555555504,0,0,0.055555555555555504,0,0)" xlink:href="#T"/><use transform="matrix(0.055555555555555504,0,0,0.055555555555555504,14.388888888888875,0)" xlink:href="#p"/><use transform="matrix(0.055555555555555504,0,0,0.055555555555555504,25.499999999999975,0)" xlink:href="#U"/><use transform="matrix(0.055555555555555504,0,0,0.055555555555555504,37.66666666666663,0)" xlink:href="#N"/><use transform="matrix(0.055555555555555504,0,0,0.055555555555555504,49.833333333333286,0)" xlink:href="#Q"/><use transform="matrix(0.055555555555555504,0,0,0.055555555555555504,55.388888888888836,0)" xlink:href="#V"/><use transform="matrix(0.055555555555555504,0,0,0.055555555555555504,63.16666666666661,0)" xlink:href="#p"/><use transform="matrix(0.055555555555555504,0,0,0.055555555555555504,74.27777777777771,0)" xlink:href="#W"/><use transform="matrix(0.055555555555555504,0,0,0.055555555555555504,92.05555555555547,0)" xlink:href="#p"/><use transform="matrix(0.055555555555555504,0,0,0.055555555555555504,103.16666666666657,0)" xlink:href="#O"/><use transform="matrix(0.055555555555555504,0,0,0.055555555555555504,115.33333333333323,0)" xlink:href="#v"/></g><g id="l"><use transform="matrix(0.055555555555555504,0,0,0.055555555555555504,0,0)" xlink:href="#s"/><use transform="matrix(0.055555555555555504,0,0,0.055555555555555504,6.611111111111105,0)" xlink:href="#M"/><use transform="matrix(0.055555555555555504,0,0,0.055555555555555504,18.77777777777776,0)" xlink:href="#T"/><use transform="matrix(0.055555555555555504,0,0,0.055555555555555504,33.166666666666636,0)" xlink:href="#t"/></g><g id="m"><use transform="matrix(0.061728395061728336,0,0,0.061728395061728336,0,0)" xlink:href="#q"/><use transform="matrix(0.061728395061728336,0,0,0.061728395061728336,15.98765432098764,0)" xlink:href="#r"/><use transform="matrix(0.061728395061728336,0,0,0.061728395061728336,28.333333333333307,0)" xlink:href="#o"/><use transform="matrix(0.061728395061728336,0,0,0.061728395061728336,40.67901234567897,0)" xlink:href="#p"/></g></defs></g></svg>